M48
; DRILL file {KiCad 8.0.7} date 2025-07-22T17:47:17-0400
; FORMAT={-:-/ absolute / inch / decimal}
; #@! TF.CreationDate,2025-07-22T17:47:17-04:00
; #@! TF.GenerationSoftware,Kicad,Pcbnew,8.0.7
; #@! TF.FileFunction,Plated,1,4,PTH
FMAT,2
INCH
; #@! TA.AperFunction,Plated,PTH,ViaDrill
T1C0.0118
; #@! TA.AperFunction,Plated,PTH,ComponentDrill
T2C0.0197
; #@! TA.AperFunction,Plated,PTH,ComponentDrill
T3C0.0236
; #@! TA.AperFunction,Plated,PTH,ComponentDrill
T4C0.0295
; #@! TA.AperFunction,Plated,PTH,ComponentDrill
T5C0.0315
; #@! TA.AperFunction,Plated,PTH,ComponentDrill
T6C0.0354
; #@! TA.AperFunction,Plated,PTH,ComponentDrill
T7C0.0394
; #@! TA.AperFunction,Plated,PTH,ComponentDrill
T8C0.0433
; #@! TA.AperFunction,Plated,PTH,ComponentDrill
T9C0.1260
%
G90
G05
T1
X6.1831Y-2.8425
X6.1831Y-2.9803
X6.1831Y-3.2047
X6.1831Y-3.5827
X6.185Y-3.4094
X6.185Y-3.5
X6.185Y-3.6969
X6.185Y-3.9055
X6.2126Y-4.1535
X6.248Y-4.122
X6.2795Y-3.0295
X6.2835Y-4.1496
X6.3228Y-3.0295
X6.3465Y-4.1122
X6.3642Y-3.0295
X6.374Y-3.2362
X6.378Y-2.8819
X6.4173Y-3.8484
X6.4252Y-2.622
X6.4272Y-3.7894
X6.4291Y-4.4173
X6.4646Y-2.7402
X6.4665Y-3.8189
X6.4862Y-3.7697
X6.5315Y-3.0551
X6.5472Y-3.4528
X6.5984Y-3.6496
X6.6024Y-3.8189
X6.6299Y-3.9567
X6.6299Y-4.3583
X6.6299Y-4.4173
X6.7008Y-2.626
X6.7165Y-3.0276
X6.7224Y-3.3661
X6.748Y-2.9055
X6.752Y-3.5236
X6.7953Y-3.9921
X6.7992Y-2.6339
X6.8425Y-4.4213
X6.8504Y-3.1693
X6.8622Y-3.5827
X6.8898Y-2.6339
X6.939Y-2.7362
X6.9685Y-2.9409
X6.9843Y-3.2835
X6.9961Y-2.6339
X7.0079Y-3.6122
X7.0079Y-4.1693
X7.0315Y-4.4252
X7.0354Y-4.0472
X7.0374Y-3.4154
X7.0472Y-3.6339
X7.0669Y-3.8819
X7.0787Y-2.8071
X7.0787Y-3.6969
X7.0866Y-2.9134
X7.1012Y-2.9744
X7.1358Y-3.2283
X7.136Y-2.9553
X7.1378Y-2.622
X7.1969Y-4.0709
X7.2008Y-3.6496
X7.2244Y-3.189
X7.2244Y-3.8976
X7.2402Y-3.8189
X7.2559Y-3.0669
X7.2598Y-2.6496
X7.2638Y-3.9961
X7.2933Y-3.5039
X7.2992Y-2.8504
X7.3189Y-3.878
X7.3258Y-3.6112
X7.3425Y-3.0413
X7.3425Y-3.2874
X7.3448Y-3.7878
X7.3469Y-2.6968
X7.3543Y-4.2894
X7.3701Y-2.626
X7.3803Y-3.8724
X7.3819Y-3.1693
X7.3858Y-4.063
X7.3941Y-2.6969
X7.4213Y-3.5728
X7.4409Y-3.622
X7.4606Y-3.8386
X7.4646Y-3.4154
X7.4803Y-3.622
X7.5Y-2.626
X7.5118Y-4.4094
X7.5197Y-2.7992
X7.5236Y-3.9291
X7.5295Y-3.1496
X7.5295Y-3.622
X7.5787Y-3.0118
X7.6181Y-3.5039
X7.6181Y-3.7697
X7.6339Y-2.626
X7.6358Y-3.39
X7.6378Y-3.3268
X7.6713Y-3.7362
X7.6724Y-4.2472
X7.7008Y-2.7441
X7.7008Y-4.4094
X7.7362Y-2.6299
X7.7546Y-3.4075
X7.7559Y-3.2382
X7.7795Y-3.5748
X7.7835Y-3.0236
X7.7874Y-2.878
X7.7874Y-3.3465
X7.7913Y-3.4075
X7.8051Y-3.3071
X7.8268Y-3.7677
X7.874Y-2.8976
X7.9006Y-3.3169
X7.901Y-3.3985
X7.9055Y-3.185
X7.9134Y-3.5591
X7.9409Y-4.0748
X7.9724Y-2.8661
X7.9803Y-4.189
X7.9843Y-2.9291
X7.9843Y-3.0236
X7.9882Y-3.5512
T3
X6.7126Y-3.7008
X6.7126Y-3.7795
X6.939Y-4.2913
X6.939Y-4.3701
T4
X6.7709Y-3.3063
X6.7709Y-3.4063
X6.8209Y-3.3563
X6.889Y-3.9264
X6.939Y-3.8764
X6.939Y-3.9764
T5
X6.5748Y-2.6969
X6.5748Y-2.7953
X6.624Y-2.9504
X6.624Y-3.2504
T6
X6.8209Y-2.8823
X6.8209Y-2.9823
X7.7264Y-3.8189
X7.7264Y-3.9189
T7
X7.1228Y-4.1732
X7.1228Y-4.3732
X7.2228Y-4.1732
X7.2228Y-4.3732
X7.2705Y-2.7461
X7.3228Y-4.1732
X7.3228Y-4.3732
X7.3705Y-2.7461
X7.3705Y-2.8937
X7.4228Y-4.1732
X7.4228Y-4.3732
X7.4705Y-2.7461
X7.4705Y-2.8937
X7.5705Y-2.7461
X7.5705Y-2.8937
X7.5984Y-4.0799
X7.5984Y-4.1799
X7.5984Y-4.2799
X7.5984Y-4.3799
X7.6378Y-3.1102
X7.6705Y-2.8937
X7.7378Y-3.1102
X7.7543Y-4.0748
X7.8378Y-3.1102
X7.8543Y-4.0748
X7.9331Y-3.6303
X7.9331Y-3.7303
X7.9331Y-3.8303
X7.9331Y-3.9303
X7.9378Y-3.1102
T8
X6.449Y-3.5024
X6.449Y-3.6024
X6.449Y-3.7024
X6.5059Y-3.9075
X6.5059Y-4.0846
X6.5059Y-4.2126
X6.5059Y-4.3898
X6.639Y-3.5531
X6.7374Y-3.1693
X6.7618Y-3.9075
X6.7618Y-4.0846
X6.7618Y-4.2126
X6.7618Y-4.3898
X6.8898Y-3.7303
X6.939Y-3.5531
X7.0374Y-3.1693
X7.1138Y-3.9764
X7.1898Y-3.7303
X7.4138Y-3.9764
T9
X6.2992Y-2.7362
X6.2992Y-4.311
X7.874Y-2.7362
X7.874Y-4.311
T2
G00X7.9764Y-3.2343
M15
G01X7.9488Y-3.2343
M16
G05
G00X7.9764Y-3.4941
M15
G01X7.9488Y-3.4941
M16
G05
M30
