M48
; DRILL file {KiCad 8.0.7} date 2025-07-22T02:57:29-0400
; FORMAT={-:-/ absolute / metric / decimal}
; #@! TF.CreationDate,2025-07-22T02:57:29-04:00
; #@! TF.GenerationSoftware,Kicad,Pcbnew,8.0.7
; #@! TF.FileFunction,MixedPlating,1,4
FMAT,2
METRIC
; #@! TA.AperFunction,Plated,PTH,ViaDrill
T1C0.300
; #@! TA.AperFunction,Plated,PTH,ComponentDrill
T2C0.500
; #@! TA.AperFunction,Plated,PTH,ComponentDrill
T3C0.600
; #@! TA.AperFunction,Plated,PTH,ComponentDrill
T4C0.750
; #@! TA.AperFunction,Plated,PTH,ComponentDrill
T5C0.800
; #@! TA.AperFunction,Plated,PTH,ComponentDrill
T6C0.900
; #@! TA.AperFunction,Plated,PTH,ComponentDrill
T7C1.000
; #@! TA.AperFunction,Plated,PTH,ComponentDrill
T8C1.100
; #@! TA.AperFunction,Plated,PTH,ComponentDrill
T9C3.200
; #@! TA.AperFunction,NonPlated,NPTH,ComponentDrill
T10C0.940
%
G90
G05
T1
X157.05Y-72.2
X157.05Y-75.7
X157.05Y-81.4
X157.05Y-91.0
X157.1Y-86.6
X157.1Y-88.9
X157.1Y-93.9
X157.1Y-99.2
X157.8Y-105.5
X158.7Y-104.7
X159.5Y-76.95
X159.6Y-105.4
X160.6Y-76.95
X161.2Y-104.45
X161.65Y-76.95
X161.9Y-82.2
X162.0Y-73.2
X163.0Y-97.75
X163.2Y-66.6
X163.25Y-96.25
X163.3Y-112.2
X164.2Y-69.6
X164.25Y-97.0
X164.75Y-95.75
X165.9Y-77.6
X166.3Y-87.7
X167.6Y-92.7
X167.7Y-97.0
X168.4Y-100.5
X168.4Y-110.7
X168.4Y-112.2
X170.2Y-66.7
X170.6Y-76.9
X170.75Y-85.5
X171.4Y-73.8
X171.5Y-89.5
X172.6Y-101.4
X172.7Y-66.9
X173.8Y-112.3
X174.0Y-80.5
X174.3Y-91.0
X175.0Y-66.9
X176.25Y-69.5
X177.0Y-74.7
X177.4Y-83.4
X177.7Y-66.9
X178.0Y-91.75
X178.0Y-105.9
X178.6Y-112.4
X178.7Y-102.8
X178.75Y-86.75
X179.0Y-92.3
X179.5Y-98.6
X179.8Y-71.3
X179.8Y-93.9
X180.0Y-74.0
X180.37Y-75.55
X181.25Y-82.0
X181.255Y-75.066
X181.3Y-66.6
X182.8Y-103.4
X182.9Y-92.7
X183.5Y-81.0
X183.5Y-99.0
X183.9Y-97.0
X184.3Y-77.9
X184.4Y-67.3
X184.5Y-101.5
X185.25Y-89.0
X185.4Y-72.4
X185.9Y-98.5
X186.074Y-91.726
X186.5Y-77.25
X186.5Y-83.5
X186.558Y-96.21
X186.61Y-68.498
X186.8Y-108.95
X187.2Y-66.7
X187.46Y-98.36
X187.5Y-80.5
X187.6Y-103.2
X187.81Y-68.5
X188.5Y-90.75
X189.0Y-92.0
X189.5Y-97.5
X189.6Y-86.75
X190.0Y-92.0
X190.5Y-66.7
X190.8Y-112.0
X191.0Y-71.1
X191.1Y-99.8
X191.25Y-80.0
X191.25Y-92.0
X192.5Y-76.5
X193.5Y-89.0
X193.5Y-95.75
X193.9Y-66.7
X193.95Y-86.107
X194.0Y-84.5
X194.85Y-94.9
X194.88Y-107.88
X195.6Y-69.7
X195.6Y-112.0
X196.5Y-66.8
X196.967Y-86.55
X197.0Y-82.25
X197.6Y-90.8
X197.7Y-76.8
X197.8Y-73.1
X197.8Y-85.0
X197.9Y-86.55
X198.25Y-84.0
X198.8Y-95.7
X200.0Y-73.6
X200.675Y-84.25
X200.686Y-86.322
X200.8Y-80.9
X201.0Y-90.4
X201.7Y-103.5
X202.5Y-72.8
X202.7Y-106.4
X202.8Y-74.4
X202.8Y-76.8
X202.9Y-90.2
T3
X170.5Y-94.0
X170.5Y-96.0
X176.25Y-109.0
X176.25Y-111.0
T4
X171.98Y-83.98
X171.98Y-86.52
X173.25Y-85.25
X174.98Y-99.73
X176.25Y-98.46
X176.25Y-101.0
T5
X167.0Y-68.5
X167.0Y-71.0
X168.25Y-74.94
X168.25Y-82.56
T6
X173.25Y-73.21
X173.25Y-75.75
X196.25Y-97.0
X196.25Y-99.54
T7
X180.92Y-106.0
X180.92Y-111.08
X183.46Y-106.0
X183.46Y-111.08
X184.67Y-69.75
X186.0Y-106.0
X186.0Y-111.08
X187.21Y-69.75
X187.21Y-73.5
X188.54Y-106.0
X188.54Y-111.08
X189.75Y-69.75
X189.75Y-73.5
X192.29Y-69.75
X192.29Y-73.5
X193.0Y-103.63
X193.0Y-106.17
X193.0Y-108.71
X193.0Y-111.25
X194.0Y-79.0
X194.83Y-73.5
X196.54Y-79.0
X196.96Y-103.5
X199.08Y-79.0
X199.5Y-103.5
X201.5Y-92.21
X201.5Y-94.75
X201.5Y-97.29
X201.5Y-99.83
X201.62Y-79.0
T8
X163.805Y-88.96
X163.805Y-91.5
X163.805Y-94.04
X165.25Y-99.25
X165.25Y-103.75
X165.25Y-107.0
X165.25Y-111.5
X168.63Y-90.25
X171.13Y-80.5
X171.75Y-99.25
X171.75Y-103.75
X171.75Y-107.0
X171.75Y-111.5
X175.0Y-94.75
X176.25Y-90.25
X178.75Y-80.5
X180.69Y-101.0
X182.62Y-94.75
X188.31Y-101.0
T9
X160.0Y-69.5
X160.0Y-109.5
X200.0Y-69.5
X200.0Y-109.5
T10
X173.65Y-67.855
X176.65Y-67.855
T2
G00X202.6Y-82.15
M15
G01X201.9Y-82.15
M16
G05
G00X202.6Y-88.75
M15
G01X201.9Y-88.75
M16
G05
M30
