%TF.GenerationSoftware,KiCad,Pcbnew,8.0.7*%
%TF.CreationDate,2025-07-22T02:57:33-04:00*%
%TF.ProjectId,Drone Motherboared,44726f6e-6520-44d6-9f74-686572626f61,rev?*%
%TF.SameCoordinates,Original*%
%TF.FileFunction,Copper,L2,Inr*%
%TF.FilePolarity,Positive*%
%FSLAX46Y46*%
G04 Gerber Fmt 4.6, Leading zero omitted, Abs format (unit mm)*
G04 Created by KiCad (PCBNEW 8.0.7) date 2025-07-22 02:57:33*
%MOMM*%
%LPD*%
G01*
G04 APERTURE LIST*
%TA.AperFunction,ComponentPad*%
%ADD10C,2.000000*%
%TD*%
%TA.AperFunction,ComponentPad*%
%ADD11O,2.000000X1.905000*%
%TD*%
%TA.AperFunction,ComponentPad*%
%ADD12R,2.000000X1.905000*%
%TD*%
%TA.AperFunction,ComponentPad*%
%ADD13C,1.300000*%
%TD*%
%TA.AperFunction,ComponentPad*%
%ADD14R,1.300000X1.300000*%
%TD*%
%TA.AperFunction,ComponentPad*%
%ADD15O,1.600000X1.600000*%
%TD*%
%TA.AperFunction,ComponentPad*%
%ADD16C,1.600000*%
%TD*%
%TA.AperFunction,ComponentPad*%
%ADD17O,1.600000X0.900000*%
%TD*%
%TA.AperFunction,ComponentPad*%
%ADD18O,1.700000X1.700000*%
%TD*%
%TA.AperFunction,ComponentPad*%
%ADD19R,1.700000X1.700000*%
%TD*%
%TA.AperFunction,ComponentPad*%
%ADD20C,6.400000*%
%TD*%
%TA.AperFunction,ComponentPad*%
%ADD21R,1.800000X1.800000*%
%TD*%
%TA.AperFunction,ComponentPad*%
%ADD22C,1.800000*%
%TD*%
%TA.AperFunction,ComponentPad*%
%ADD23O,2.200000X2.200000*%
%TD*%
%TA.AperFunction,ComponentPad*%
%ADD24R,2.200000X2.200000*%
%TD*%
%TA.AperFunction,ComponentPad*%
%ADD25C,1.200000*%
%TD*%
%TA.AperFunction,ViaPad*%
%ADD26C,0.600000*%
%TD*%
G04 APERTURE END LIST*
D10*
%TO.N,/ON_BTN*%
%TO.C,SW2*%
X165250000Y-99250000D03*
X171750000Y-99250000D03*
%TO.N,-BATT*%
X165250000Y-103750000D03*
X171750000Y-103750000D03*
%TD*%
%TO.N,/PNP_B*%
%TO.C,SW1*%
X171750000Y-111500000D03*
X165250000Y-111500000D03*
%TO.N,-BATT*%
X171750000Y-107000000D03*
X165250000Y-107000000D03*
%TD*%
D11*
%TO.N,-BATT*%
%TO.C,Q3*%
X163805000Y-94040000D03*
%TO.N,/VIN*%
X163805000Y-91500000D03*
D12*
%TO.N,/PMOS_G*%
X163805000Y-88960000D03*
%TD*%
D13*
%TO.N,/PMOS_G*%
%TO.C,Q2*%
X171980000Y-86520000D03*
%TO.N,/NPN_B*%
X173250000Y-85250000D03*
D14*
%TO.N,GND*%
X171980000Y-83980000D03*
%TD*%
%TO.N,/BATT_CTRL*%
%TO.C,Q1*%
X176250000Y-101000000D03*
D13*
%TO.N,/PNP_B*%
X174980000Y-99730000D03*
%TO.N,/PNP_C*%
X176250000Y-98460000D03*
%TD*%
D15*
%TO.N,/BUCK_RAW_OUT*%
%TO.C,L1*%
X168250000Y-82560000D03*
D16*
%TO.N,+3.3V*%
X168250000Y-74940000D03*
%TD*%
D17*
%TO.N,unconnected-(J9-Shield-Pad6)_1*%
%TO.C,J9*%
X202250000Y-88750000D03*
%TO.N,unconnected-(J9-Shield-Pad6)_4*%
X202250000Y-82150000D03*
%TD*%
D18*
%TO.N,/SDA*%
%TO.C,J8*%
X187210000Y-73500000D03*
%TO.N,/SCL*%
X189750000Y-73500000D03*
%TO.N,GND*%
X192290000Y-73500000D03*
D19*
%TO.N,+3.3V*%
X194830000Y-73500000D03*
%TD*%
D18*
%TO.N,+3.3V*%
%TO.C,J3*%
X192290000Y-69750000D03*
%TO.N,/SCL*%
X189750000Y-69750000D03*
%TO.N,/SDA*%
X187210000Y-69750000D03*
D19*
%TO.N,GND*%
X184670000Y-69750000D03*
%TD*%
D18*
%TO.N,+3.3V*%
%TO.C,J2*%
X201620000Y-79000000D03*
%TO.N,/SWDIO*%
X199080000Y-79000000D03*
%TO.N,/SWCLK*%
X196540000Y-79000000D03*
D19*
%TO.N,GND*%
X194000000Y-79000000D03*
%TD*%
D18*
%TO.N,/SIG_4*%
%TO.C,J7*%
X193000000Y-103630000D03*
%TO.N,/SIG_3*%
X193000000Y-106170000D03*
%TO.N,/SIG_2*%
X193000000Y-108710000D03*
D19*
%TO.N,/SIG_1*%
X193000000Y-111250000D03*
%TD*%
%TO.N,GND*%
%TO.C,J1*%
X201500000Y-99830000D03*
D18*
%TO.N,/UART_RX*%
X201500000Y-97290000D03*
%TO.N,/UART_TX*%
X201500000Y-94750000D03*
%TO.N,+3.3V*%
X201500000Y-92210000D03*
%TD*%
%TO.N,GND*%
%TO.C,J6*%
X196960000Y-103500000D03*
D19*
%TO.N,+3.3V*%
X199500000Y-103500000D03*
%TD*%
D18*
%TO.N,GND*%
%TO.C,J5*%
X188540000Y-111080000D03*
X186000000Y-111080000D03*
X183460000Y-111080000D03*
D19*
X180920000Y-111080000D03*
%TD*%
%TO.N,/PWM_1*%
%TO.C,J4*%
X180920000Y-106000000D03*
D18*
%TO.N,/PWM_2*%
X183460000Y-106000000D03*
%TO.N,/PWM_3*%
X186000000Y-106000000D03*
%TO.N,/PWM_4*%
X188540000Y-106000000D03*
%TD*%
D20*
%TO.N,N/C*%
%TO.C,H4*%
X200000000Y-109500000D03*
%TD*%
%TO.N,N/C*%
%TO.C,H3*%
X200000000Y-69500000D03*
%TD*%
%TO.N,N/C*%
%TO.C,H2*%
X160000000Y-109500000D03*
%TD*%
%TO.N,N/C*%
%TO.C,H1*%
X160000000Y-69500000D03*
%TD*%
D21*
%TO.N,/STATUS_OUT*%
%TO.C,D6*%
X196250000Y-99540000D03*
D22*
%TO.N,/STATUS*%
X196250000Y-97000000D03*
%TD*%
D23*
%TO.N,VBUS*%
%TO.C,D5*%
X176250000Y-90250000D03*
D24*
%TO.N,/VIN*%
X168630000Y-90250000D03*
%TD*%
D22*
%TO.N,+3.3V*%
%TO.C,D4*%
X173250000Y-73210000D03*
D21*
%TO.N,/P_LED_OUT*%
X173250000Y-75750000D03*
%TD*%
D23*
%TO.N,GND*%
%TO.C,D3*%
X178750000Y-80500000D03*
D24*
%TO.N,/BUCK_RAW_OUT*%
X171130000Y-80500000D03*
%TD*%
D23*
%TO.N,/PNP_C*%
%TO.C,D2*%
X175000000Y-94750000D03*
D24*
%TO.N,/BATT_CNTRL_FORWARD*%
X182620000Y-94750000D03*
%TD*%
D23*
%TO.N,VBUS*%
%TO.C,D1*%
X188310000Y-101000000D03*
D24*
%TO.N,/PNP_B*%
X180690000Y-101000000D03*
%TD*%
D25*
%TO.N,GND*%
%TO.C,C3*%
X176250000Y-111000000D03*
%TO.N,VBUS*%
X176250000Y-109000000D03*
%TD*%
%TO.N,GND*%
%TO.C,C7*%
X170500000Y-94000000D03*
%TO.N,-BATT*%
X170500000Y-96000000D03*
%TD*%
D16*
%TO.N,GND*%
%TO.C,C2*%
X167000000Y-68500000D03*
%TO.N,+3.3V*%
X167000000Y-71000000D03*
%TD*%
D26*
%TO.N,GND*%
X184300000Y-77900000D03*
X186800000Y-108950000D03*
X166300000Y-87700000D03*
X170600000Y-76900000D03*
X165900000Y-77600000D03*
X171400000Y-73800000D03*
X185400000Y-72400000D03*
X191000000Y-71100000D03*
X179500000Y-98600000D03*
X179800000Y-71300000D03*
X157050000Y-81400000D03*
X177000000Y-74700000D03*
X177400000Y-83400000D03*
X174300000Y-91000000D03*
X167600000Y-92700000D03*
X168400000Y-100500000D03*
X202900000Y-90200000D03*
X201000000Y-90400000D03*
X197600000Y-90800000D03*
X183900000Y-97000000D03*
X187600000Y-103200000D03*
X185900000Y-98500000D03*
X182800000Y-103400000D03*
X182900000Y-92700000D03*
X179800000Y-93900000D03*
X179000000Y-92300000D03*
X178700000Y-102800000D03*
X201700000Y-103500000D03*
X202700000Y-106400000D03*
X168400000Y-112200000D03*
X200800000Y-80900000D03*
X202800000Y-76800000D03*
X202800000Y-74400000D03*
X202500000Y-72800000D03*
X200000000Y-73600000D03*
X197800000Y-73100000D03*
X195600000Y-69700000D03*
X196500000Y-66800000D03*
X193900000Y-66700000D03*
X190500000Y-66700000D03*
X187200000Y-66700000D03*
X184400000Y-67300000D03*
X181300000Y-66600000D03*
X177700000Y-66900000D03*
X172700000Y-66900000D03*
X175000000Y-66900000D03*
X170200000Y-66700000D03*
X163200000Y-66600000D03*
X164200000Y-69600000D03*
X162000000Y-73200000D03*
X157050000Y-72200000D03*
X157050000Y-75700000D03*
X157100000Y-86600000D03*
X157100000Y-88900000D03*
X157050000Y-91000000D03*
X157100000Y-93900000D03*
X157100000Y-99200000D03*
X168400000Y-110700000D03*
X163300000Y-112200000D03*
X195600000Y-112000000D03*
X190800000Y-112000000D03*
X178600000Y-112400000D03*
X173800000Y-112300000D03*
X167700000Y-97000000D03*
X172600000Y-101400000D03*
X193950001Y-86106986D03*
X200686463Y-86322230D03*
X161900000Y-82200000D03*
X197700000Y-76800000D03*
X189600000Y-86750000D03*
X174000000Y-80500000D03*
X171500000Y-89500000D03*
X178000000Y-105900000D03*
X184500000Y-101500000D03*
X191100000Y-99800000D03*
X198800000Y-95700000D03*
X197800000Y-85000000D03*
X197900000Y-86550000D03*
X196967334Y-86550000D03*
X186558390Y-96209863D03*
X176250000Y-69500000D03*
X161650000Y-76950000D03*
X160600000Y-76950000D03*
X159500000Y-76950000D03*
X161200000Y-104450002D03*
X159600000Y-105400000D03*
X157800000Y-105500000D03*
X158700000Y-104700000D03*
X178000000Y-91750000D03*
X185250000Y-89000000D03*
X194880025Y-107880025D03*
X193500000Y-95750000D03*
X194850000Y-94900000D03*
%TO.N,-BATT*%
X164250000Y-97000000D03*
X163000000Y-97750000D03*
X164750000Y-95750000D03*
X163250000Y-96250000D03*
%TO.N,/IMU_R*%
X181255289Y-75065531D03*
X191250000Y-80000000D03*
%TO.N,+3.3V*%
X197000000Y-82250000D03*
%TO.N,GND*%
X183500000Y-81000000D03*
%TO.N,/NPN_B*%
X170750000Y-85500000D03*
X183500000Y-99000000D03*
%TO.N,-BATT*%
X187460000Y-98359997D03*
%TO.N,+3.3V*%
X188500000Y-90750000D03*
%TO.N,GND*%
X186500000Y-83500000D03*
%TO.N,+3.3V*%
X192500000Y-76500000D03*
X186500000Y-77250000D03*
%TO.N,/BOOT0*%
X180369975Y-75550000D03*
X187500000Y-80500000D03*
%TO.N,/BATT_CTRL*%
X193500000Y-89000000D03*
%TO.N,GND*%
X198250000Y-84000000D03*
X200675000Y-84250000D03*
X180000000Y-74000000D03*
X178750000Y-86750000D03*
X181250000Y-82000000D03*
%TO.N,/SIG_4*%
X191250000Y-92000000D03*
%TO.N,/SIG_3*%
X190000000Y-92000000D03*
%TO.N,/SIG_2*%
X189000003Y-92000000D03*
%TO.N,/SIG_1*%
X186074265Y-91725735D03*
%TO.N,GND*%
X189500000Y-97500000D03*
%TO.N,/SCL*%
X186610000Y-68498144D03*
X187810000Y-68500000D03*
%TO.N,GND*%
X194000000Y-84500000D03*
%TD*%
%TA.AperFunction,Conductor*%
%TO.N,GND*%
G36*
X182994075Y-110887007D02*
G01*
X182960000Y-111014174D01*
X182960000Y-111145826D01*
X182994075Y-111272993D01*
X183026988Y-111330000D01*
X181353012Y-111330000D01*
X181385925Y-111272993D01*
X181420000Y-111145826D01*
X181420000Y-111014174D01*
X181385925Y-110887007D01*
X181353012Y-110830000D01*
X183026988Y-110830000D01*
X182994075Y-110887007D01*
G37*
%TD.AperFunction*%
%TA.AperFunction,Conductor*%
G36*
X185534075Y-110887007D02*
G01*
X185500000Y-111014174D01*
X185500000Y-111145826D01*
X185534075Y-111272993D01*
X185566988Y-111330000D01*
X183893012Y-111330000D01*
X183925925Y-111272993D01*
X183960000Y-111145826D01*
X183960000Y-111014174D01*
X183925925Y-110887007D01*
X183893012Y-110830000D01*
X185566988Y-110830000D01*
X185534075Y-110887007D01*
G37*
%TD.AperFunction*%
%TA.AperFunction,Conductor*%
G36*
X188074075Y-110887007D02*
G01*
X188040000Y-111014174D01*
X188040000Y-111145826D01*
X188074075Y-111272993D01*
X188106988Y-111330000D01*
X186433012Y-111330000D01*
X186465925Y-111272993D01*
X186500000Y-111145826D01*
X186500000Y-111014174D01*
X186465925Y-110887007D01*
X186433012Y-110830000D01*
X188106988Y-110830000D01*
X188074075Y-110887007D01*
G37*
%TD.AperFunction*%
%TA.AperFunction,Conductor*%
G36*
X197857805Y-66270185D02*
G01*
X197903560Y-66322989D01*
X197913504Y-66392147D01*
X197884479Y-66455703D01*
X197858301Y-66478495D01*
X197821917Y-66502122D01*
X197520488Y-66746215D01*
X197520480Y-66746222D01*
X197246222Y-67020480D01*
X197246215Y-67020488D01*
X197002122Y-67321917D01*
X196790877Y-67647206D01*
X196614787Y-67992802D01*
X196475788Y-68354905D01*
X196375397Y-68729570D01*
X196375397Y-68729572D01*
X196314722Y-69112660D01*
X196294422Y-69499999D01*
X196294422Y-69500000D01*
X196314722Y-69887339D01*
X196366407Y-70213664D01*
X196375398Y-70270433D01*
X196451246Y-70553504D01*
X196475788Y-70645094D01*
X196614787Y-71007197D01*
X196790877Y-71352793D01*
X197002122Y-71678082D01*
X197132544Y-71839139D01*
X197246219Y-71979516D01*
X197520484Y-72253781D01*
X197584312Y-72305468D01*
X197821917Y-72497877D01*
X198023706Y-72628920D01*
X198147211Y-72709125D01*
X198492806Y-72885214D01*
X198854913Y-73024214D01*
X199229567Y-73124602D01*
X199612662Y-73185278D01*
X199978576Y-73204455D01*
X199999999Y-73205578D01*
X200000000Y-73205578D01*
X200000001Y-73205578D01*
X200020301Y-73204514D01*
X200387338Y-73185278D01*
X200770433Y-73124602D01*
X201145087Y-73024214D01*
X201507194Y-72885214D01*
X201852789Y-72709125D01*
X202178084Y-72497876D01*
X202479516Y-72253781D01*
X202753781Y-71979516D01*
X202997876Y-71678084D01*
X203009482Y-71660211D01*
X203021505Y-71641699D01*
X203074526Y-71596196D01*
X203143731Y-71586582D01*
X203207148Y-71615909D01*
X203244642Y-71674866D01*
X203249500Y-71709234D01*
X203249500Y-81208836D01*
X203229815Y-81275875D01*
X203177011Y-81321630D01*
X203107853Y-81331574D01*
X203056615Y-81311942D01*
X203050240Y-81307683D01*
X203050228Y-81307676D01*
X202877251Y-81236027D01*
X202877243Y-81236025D01*
X202693620Y-81199500D01*
X202693616Y-81199500D01*
X201806384Y-81199500D01*
X201806379Y-81199500D01*
X201622756Y-81236025D01*
X201622748Y-81236027D01*
X201449771Y-81307676D01*
X201449762Y-81307681D01*
X201294092Y-81411697D01*
X201294088Y-81411700D01*
X201161700Y-81544088D01*
X201161697Y-81544092D01*
X201057681Y-81699762D01*
X201057676Y-81699771D01*
X200986027Y-81872748D01*
X200986025Y-81872756D01*
X200949500Y-82056379D01*
X200949500Y-82243620D01*
X200986025Y-82427243D01*
X200986027Y-82427251D01*
X201057676Y-82600228D01*
X201057681Y-82600237D01*
X201161697Y-82755907D01*
X201161700Y-82755911D01*
X201294088Y-82888299D01*
X201294092Y-82888302D01*
X201449762Y-82992318D01*
X201449768Y-82992321D01*
X201449769Y-82992322D01*
X201622749Y-83063973D01*
X201806379Y-83100499D01*
X201806383Y-83100500D01*
X201806384Y-83100500D01*
X202693617Y-83100500D01*
X202693618Y-83100499D01*
X202877251Y-83063973D01*
X203050231Y-82992322D01*
X203050237Y-82992318D01*
X203056609Y-82988061D01*
X203123286Y-82967183D01*
X203190667Y-82985667D01*
X203237357Y-83037646D01*
X203249500Y-83091163D01*
X203249500Y-87808836D01*
X203229815Y-87875875D01*
X203177011Y-87921630D01*
X203107853Y-87931574D01*
X203056615Y-87911942D01*
X203050240Y-87907683D01*
X203050228Y-87907676D01*
X202877251Y-87836027D01*
X202877243Y-87836025D01*
X202693620Y-87799500D01*
X202693616Y-87799500D01*
X201806384Y-87799500D01*
X201806379Y-87799500D01*
X201622756Y-87836025D01*
X201622748Y-87836027D01*
X201449771Y-87907676D01*
X201449762Y-87907681D01*
X201294092Y-88011697D01*
X201294088Y-88011700D01*
X201161700Y-88144088D01*
X201161697Y-88144092D01*
X201057681Y-88299762D01*
X201057676Y-88299771D01*
X200986027Y-88472748D01*
X200986025Y-88472756D01*
X200949501Y-88656374D01*
X200949500Y-88656383D01*
X200949500Y-88843620D01*
X200986025Y-89027243D01*
X200986027Y-89027251D01*
X201057676Y-89200228D01*
X201057681Y-89200237D01*
X201161697Y-89355907D01*
X201161700Y-89355911D01*
X201294088Y-89488299D01*
X201294092Y-89488302D01*
X201449762Y-89592318D01*
X201449768Y-89592321D01*
X201449769Y-89592322D01*
X201622749Y-89663973D01*
X201806379Y-89700499D01*
X201806383Y-89700500D01*
X201806384Y-89700500D01*
X202693617Y-89700500D01*
X202693618Y-89700499D01*
X202877251Y-89663973D01*
X203050231Y-89592322D01*
X203050237Y-89592318D01*
X203056609Y-89588061D01*
X203123286Y-89567183D01*
X203190667Y-89585667D01*
X203237357Y-89637646D01*
X203249500Y-89691163D01*
X203249500Y-107290765D01*
X203229815Y-107357804D01*
X203177011Y-107403559D01*
X203107853Y-107413503D01*
X203044297Y-107384478D01*
X203021506Y-107358301D01*
X202997879Y-107321919D01*
X202753784Y-107020488D01*
X202753781Y-107020484D01*
X202479516Y-106746219D01*
X202351084Y-106642217D01*
X202178082Y-106502122D01*
X201852793Y-106290877D01*
X201507197Y-106114787D01*
X201145094Y-105975788D01*
X200991363Y-105934596D01*
X200770433Y-105875398D01*
X200770429Y-105875397D01*
X200770428Y-105875397D01*
X200387339Y-105814722D01*
X200000001Y-105794422D01*
X199999999Y-105794422D01*
X199612660Y-105814722D01*
X199229572Y-105875397D01*
X199229570Y-105875397D01*
X198854905Y-105975788D01*
X198492802Y-106114787D01*
X198147206Y-106290877D01*
X197821917Y-106502122D01*
X197520488Y-106746215D01*
X197520480Y-106746222D01*
X197246222Y-107020480D01*
X197246215Y-107020488D01*
X197002122Y-107321917D01*
X196790877Y-107647206D01*
X196614787Y-107992802D01*
X196475788Y-108354905D01*
X196375397Y-108729570D01*
X196375397Y-108729572D01*
X196314722Y-109112660D01*
X196294422Y-109499999D01*
X196294422Y-109500000D01*
X196314722Y-109887339D01*
X196370503Y-110239526D01*
X196375398Y-110270433D01*
X196457064Y-110575217D01*
X196475788Y-110645094D01*
X196614787Y-111007197D01*
X196790877Y-111352793D01*
X197002122Y-111678082D01*
X197058596Y-111747821D01*
X197246219Y-111979516D01*
X197520484Y-112253781D01*
X197520488Y-112253784D01*
X197821917Y-112497877D01*
X197858301Y-112521505D01*
X197903804Y-112574526D01*
X197913418Y-112643731D01*
X197884091Y-112707148D01*
X197825134Y-112744642D01*
X197790766Y-112749500D01*
X194190103Y-112749500D01*
X194123064Y-112729815D01*
X194077309Y-112677011D01*
X194067365Y-112607853D01*
X194096390Y-112544297D01*
X194115792Y-112526234D01*
X194175240Y-112481730D01*
X194207546Y-112457546D01*
X194293796Y-112342331D01*
X194344091Y-112207483D01*
X194350500Y-112147873D01*
X194350499Y-110352128D01*
X194344091Y-110292517D01*
X194335854Y-110270433D01*
X194293797Y-110157671D01*
X194293793Y-110157664D01*
X194207547Y-110042455D01*
X194207544Y-110042452D01*
X194092335Y-109956206D01*
X194092328Y-109956202D01*
X193960917Y-109907189D01*
X193904983Y-109865318D01*
X193880566Y-109799853D01*
X193895418Y-109731580D01*
X193916563Y-109703332D01*
X194038495Y-109581401D01*
X194174035Y-109387830D01*
X194273903Y-109173663D01*
X194335063Y-108945408D01*
X194355659Y-108710000D01*
X194335063Y-108474592D01*
X194273903Y-108246337D01*
X194174035Y-108032171D01*
X194158970Y-108010655D01*
X194038494Y-107838597D01*
X193871402Y-107671506D01*
X193871396Y-107671501D01*
X193685842Y-107541575D01*
X193642217Y-107486998D01*
X193635023Y-107417500D01*
X193666546Y-107355145D01*
X193685842Y-107338425D01*
X193749577Y-107293797D01*
X193871401Y-107208495D01*
X194038495Y-107041401D01*
X194174035Y-106847830D01*
X194273903Y-106633663D01*
X194335063Y-106405408D01*
X194355659Y-106170000D01*
X194335063Y-105934592D01*
X194273903Y-105706337D01*
X194174035Y-105492171D01*
X194084974Y-105364977D01*
X194038494Y-105298597D01*
X193871402Y-105131506D01*
X193871396Y-105131501D01*
X193685842Y-105001575D01*
X193642217Y-104946998D01*
X193635023Y-104877500D01*
X193666546Y-104815145D01*
X193685842Y-104798425D01*
X193817547Y-104706204D01*
X193871401Y-104668495D01*
X194038495Y-104501401D01*
X194174035Y-104307830D01*
X194273903Y-104093663D01*
X194335063Y-103865408D01*
X194355659Y-103630000D01*
X194335063Y-103394592D01*
X194296320Y-103249999D01*
X195629364Y-103249999D01*
X195629364Y-103250000D01*
X196526988Y-103250000D01*
X196494075Y-103307007D01*
X196460000Y-103434174D01*
X196460000Y-103565826D01*
X196494075Y-103692993D01*
X196526988Y-103750000D01*
X195629364Y-103750000D01*
X195686567Y-103963486D01*
X195686570Y-103963492D01*
X195786399Y-104177578D01*
X195921894Y-104371082D01*
X196088917Y-104538105D01*
X196282421Y-104673600D01*
X196496507Y-104773429D01*
X196496516Y-104773433D01*
X196710000Y-104830634D01*
X196710000Y-103933012D01*
X196767007Y-103965925D01*
X196894174Y-104000000D01*
X197025826Y-104000000D01*
X197152993Y-103965925D01*
X197210000Y-103933012D01*
X197210000Y-104830633D01*
X197423483Y-104773433D01*
X197423492Y-104773429D01*
X197637578Y-104673600D01*
X197831078Y-104538108D01*
X197953133Y-104416053D01*
X198014456Y-104382568D01*
X198084148Y-104387552D01*
X198140082Y-104429423D01*
X198156997Y-104460401D01*
X198206202Y-104592328D01*
X198206206Y-104592335D01*
X198292452Y-104707544D01*
X198292455Y-104707547D01*
X198407664Y-104793793D01*
X198407671Y-104793797D01*
X198542517Y-104844091D01*
X198542516Y-104844091D01*
X198549444Y-104844835D01*
X198602127Y-104850500D01*
X200397872Y-104850499D01*
X200457483Y-104844091D01*
X200592331Y-104793796D01*
X200707546Y-104707546D01*
X200793796Y-104592331D01*
X200844091Y-104457483D01*
X200850500Y-104397873D01*
X200850499Y-102602128D01*
X200844229Y-102543797D01*
X200844091Y-102542516D01*
X200793797Y-102407671D01*
X200793793Y-102407664D01*
X200707547Y-102292455D01*
X200707544Y-102292452D01*
X200592335Y-102206206D01*
X200592328Y-102206202D01*
X200457482Y-102155908D01*
X200457483Y-102155908D01*
X200397883Y-102149501D01*
X200397881Y-102149500D01*
X200397873Y-102149500D01*
X200397864Y-102149500D01*
X198602129Y-102149500D01*
X198602123Y-102149501D01*
X198542516Y-102155908D01*
X198407671Y-102206202D01*
X198407664Y-102206206D01*
X198292455Y-102292452D01*
X198292452Y-102292455D01*
X198206206Y-102407664D01*
X198206202Y-102407671D01*
X198156997Y-102539598D01*
X198115126Y-102595532D01*
X198049661Y-102619949D01*
X197981388Y-102605097D01*
X197953134Y-102583946D01*
X197831082Y-102461894D01*
X197637578Y-102326399D01*
X197423492Y-102226570D01*
X197423486Y-102226567D01*
X197210000Y-102169364D01*
X197210000Y-103066988D01*
X197152993Y-103034075D01*
X197025826Y-103000000D01*
X196894174Y-103000000D01*
X196767007Y-103034075D01*
X196710000Y-103066988D01*
X196710000Y-102169364D01*
X196709999Y-102169364D01*
X196496513Y-102226567D01*
X196496507Y-102226570D01*
X196282422Y-102326399D01*
X196282420Y-102326400D01*
X196088926Y-102461886D01*
X196088920Y-102461891D01*
X195921891Y-102628920D01*
X195921886Y-102628926D01*
X195786400Y-102822420D01*
X195786399Y-102822422D01*
X195686570Y-103036507D01*
X195686567Y-103036513D01*
X195629364Y-103249999D01*
X194296320Y-103249999D01*
X194273903Y-103166337D01*
X194174035Y-102952171D01*
X194085142Y-102825217D01*
X194038494Y-102758597D01*
X193871402Y-102591506D01*
X193871395Y-102591501D01*
X193860605Y-102583946D01*
X193779097Y-102526873D01*
X193677834Y-102455967D01*
X193677830Y-102455965D01*
X193574248Y-102407664D01*
X193463663Y-102356097D01*
X193463659Y-102356096D01*
X193463655Y-102356094D01*
X193235413Y-102294938D01*
X193235403Y-102294936D01*
X193000001Y-102274341D01*
X192999999Y-102274341D01*
X192764596Y-102294936D01*
X192764586Y-102294938D01*
X192536344Y-102356094D01*
X192536335Y-102356098D01*
X192322171Y-102455964D01*
X192322169Y-102455965D01*
X192128597Y-102591505D01*
X191961505Y-102758597D01*
X191825965Y-102952169D01*
X191825964Y-102952171D01*
X191726098Y-103166335D01*
X191726094Y-103166344D01*
X191664938Y-103394586D01*
X191664936Y-103394596D01*
X191644341Y-103629999D01*
X191644341Y-103630000D01*
X191664936Y-103865403D01*
X191664938Y-103865413D01*
X191726094Y-104093655D01*
X191726096Y-104093659D01*
X191726097Y-104093663D01*
X191825965Y-104307830D01*
X191825967Y-104307834D01*
X191961501Y-104501395D01*
X191961506Y-104501402D01*
X192128597Y-104668493D01*
X192128603Y-104668498D01*
X192314158Y-104798425D01*
X192357783Y-104853002D01*
X192364977Y-104922500D01*
X192333454Y-104984855D01*
X192314158Y-105001575D01*
X192128597Y-105131505D01*
X191961505Y-105298597D01*
X191825965Y-105492169D01*
X191825964Y-105492171D01*
X191726098Y-105706335D01*
X191726094Y-105706344D01*
X191664938Y-105934586D01*
X191664936Y-105934596D01*
X191644341Y-106169999D01*
X191644341Y-106170000D01*
X191664936Y-106405403D01*
X191664938Y-106405413D01*
X191726094Y-106633655D01*
X191726096Y-106633659D01*
X191726097Y-106633663D01*
X191781360Y-106752175D01*
X191825965Y-106847830D01*
X191825967Y-106847834D01*
X191961501Y-107041395D01*
X191961506Y-107041402D01*
X192128597Y-107208493D01*
X192128603Y-107208498D01*
X192314158Y-107338425D01*
X192357783Y-107393002D01*
X192364977Y-107462500D01*
X192333454Y-107524855D01*
X192314158Y-107541575D01*
X192128597Y-107671505D01*
X191961505Y-107838597D01*
X191825965Y-108032169D01*
X191825964Y-108032171D01*
X191726098Y-108246335D01*
X191726094Y-108246344D01*
X191664938Y-108474586D01*
X191664936Y-108474596D01*
X191644341Y-108709999D01*
X191644341Y-108710000D01*
X191664936Y-108945403D01*
X191664938Y-108945413D01*
X191726094Y-109173655D01*
X191726096Y-109173659D01*
X191726097Y-109173663D01*
X191739816Y-109203083D01*
X191825965Y-109387830D01*
X191825967Y-109387834D01*
X191904507Y-109500000D01*
X191961501Y-109581396D01*
X191961506Y-109581402D01*
X192083430Y-109703326D01*
X192116915Y-109764649D01*
X192111931Y-109834341D01*
X192070059Y-109890274D01*
X192039083Y-109907189D01*
X191907669Y-109956203D01*
X191907664Y-109956206D01*
X191792455Y-110042452D01*
X191792452Y-110042455D01*
X191706206Y-110157664D01*
X191706202Y-110157671D01*
X191655908Y-110292517D01*
X191649501Y-110352116D01*
X191649501Y-110352123D01*
X191649500Y-110352135D01*
X191649500Y-112147870D01*
X191649501Y-112147876D01*
X191655908Y-112207483D01*
X191706202Y-112342328D01*
X191706206Y-112342335D01*
X191792452Y-112457544D01*
X191792455Y-112457547D01*
X191884208Y-112526234D01*
X191926079Y-112582168D01*
X191931063Y-112651859D01*
X191897577Y-112713182D01*
X191836254Y-112746666D01*
X191809897Y-112749500D01*
X172921934Y-112749500D01*
X172854895Y-112729815D01*
X172809140Y-112677011D01*
X172799196Y-112607853D01*
X172828221Y-112544297D01*
X172830681Y-112541542D01*
X172938164Y-112424785D01*
X173074173Y-112216607D01*
X173174063Y-111988881D01*
X173187900Y-111934240D01*
X175669311Y-111934240D01*
X175757585Y-111988897D01*
X175947678Y-112062539D01*
X176148072Y-112100000D01*
X176351928Y-112100000D01*
X176552322Y-112062539D01*
X176742412Y-111988899D01*
X176742416Y-111988897D01*
X176830686Y-111934241D01*
X176830686Y-111934240D01*
X176250001Y-111353553D01*
X176250000Y-111353553D01*
X175669311Y-111934240D01*
X173187900Y-111934240D01*
X173235108Y-111747821D01*
X173248690Y-111583911D01*
X173255643Y-111500005D01*
X173255643Y-111499994D01*
X173235109Y-111252187D01*
X173235107Y-111252175D01*
X173174063Y-111011118D01*
X173169186Y-110999999D01*
X175145287Y-110999999D01*
X175145287Y-111000000D01*
X175164096Y-111202989D01*
X175164097Y-111202992D01*
X175219883Y-111399063D01*
X175219886Y-111399069D01*
X175310751Y-111581551D01*
X175312533Y-111583911D01*
X175896446Y-111000000D01*
X175896446Y-110999999D01*
X175856951Y-110960504D01*
X175950000Y-110960504D01*
X175950000Y-111039496D01*
X175970444Y-111115796D01*
X176009940Y-111184205D01*
X176065795Y-111240060D01*
X176134204Y-111279556D01*
X176210504Y-111300000D01*
X176289496Y-111300000D01*
X176365796Y-111279556D01*
X176434205Y-111240060D01*
X176490060Y-111184205D01*
X176529556Y-111115796D01*
X176550000Y-111039496D01*
X176550000Y-111000000D01*
X176603553Y-111000000D01*
X177187465Y-111583912D01*
X177189247Y-111581553D01*
X177189248Y-111581551D01*
X177280113Y-111399069D01*
X177280116Y-111399063D01*
X177335902Y-111202992D01*
X177335903Y-111202989D01*
X177354713Y-111000000D01*
X177354713Y-110999999D01*
X177335903Y-110797010D01*
X177335902Y-110797007D01*
X177280116Y-110600936D01*
X177280113Y-110600930D01*
X177189249Y-110418449D01*
X177189247Y-110418447D01*
X177187465Y-110416087D01*
X176603553Y-111000000D01*
X176550000Y-111000000D01*
X176550000Y-110960504D01*
X176529556Y-110884204D01*
X176490060Y-110815795D01*
X176434205Y-110759940D01*
X176365796Y-110720444D01*
X176289496Y-110700000D01*
X176210504Y-110700000D01*
X176134204Y-110720444D01*
X176065795Y-110759940D01*
X176009940Y-110815795D01*
X175970444Y-110884204D01*
X175950000Y-110960504D01*
X175856951Y-110960504D01*
X175312533Y-110416087D01*
X175310755Y-110418442D01*
X175310754Y-110418443D01*
X175219886Y-110600930D01*
X175219883Y-110600936D01*
X175164097Y-110797007D01*
X175164096Y-110797010D01*
X175145287Y-110999999D01*
X173169186Y-110999999D01*
X173074173Y-110783393D01*
X172938166Y-110575217D01*
X172916557Y-110551744D01*
X172769744Y-110392262D01*
X172573509Y-110239526D01*
X172573507Y-110239525D01*
X172573506Y-110239524D01*
X172354811Y-110121172D01*
X172354802Y-110121169D01*
X172119616Y-110040429D01*
X171874335Y-109999500D01*
X171625665Y-109999500D01*
X171380383Y-110040429D01*
X171145197Y-110121169D01*
X171145188Y-110121172D01*
X170926493Y-110239524D01*
X170730257Y-110392261D01*
X170561833Y-110575217D01*
X170425826Y-110783393D01*
X170325936Y-111011118D01*
X170264892Y-111252175D01*
X170264890Y-111252187D01*
X170244357Y-111499994D01*
X170244357Y-111500005D01*
X170264890Y-111747812D01*
X170264892Y-111747824D01*
X170325936Y-111988881D01*
X170425826Y-112216606D01*
X170561833Y-112424782D01*
X170561836Y-112424785D01*
X170669296Y-112541518D01*
X170700218Y-112604171D01*
X170692358Y-112673598D01*
X170648211Y-112727753D01*
X170581793Y-112749444D01*
X170578066Y-112749500D01*
X166421934Y-112749500D01*
X166354895Y-112729815D01*
X166309140Y-112677011D01*
X166299196Y-112607853D01*
X166328221Y-112544297D01*
X166330681Y-112541542D01*
X166438164Y-112424785D01*
X166574173Y-112216607D01*
X166674063Y-111988881D01*
X166735108Y-111747821D01*
X166748690Y-111583911D01*
X166755643Y-111500005D01*
X166755643Y-111499994D01*
X166735109Y-111252187D01*
X166735107Y-111252175D01*
X166674063Y-111011118D01*
X166574173Y-110783393D01*
X166438166Y-110575217D01*
X166416557Y-110551744D01*
X166269744Y-110392262D01*
X166073509Y-110239526D01*
X166073507Y-110239525D01*
X166073506Y-110239524D01*
X165854811Y-110121172D01*
X165854802Y-110121169D01*
X165619616Y-110040429D01*
X165374335Y-109999500D01*
X165125665Y-109999500D01*
X164880383Y-110040429D01*
X164645197Y-110121169D01*
X164645188Y-110121172D01*
X164426493Y-110239524D01*
X164230257Y-110392261D01*
X164061833Y-110575217D01*
X163925826Y-110783393D01*
X163825936Y-111011118D01*
X163764892Y-111252175D01*
X163764890Y-111252187D01*
X163744357Y-111499994D01*
X163744357Y-111500005D01*
X163764890Y-111747812D01*
X163764892Y-111747824D01*
X163825936Y-111988881D01*
X163925826Y-112216606D01*
X164061833Y-112424782D01*
X164061836Y-112424785D01*
X164169296Y-112541518D01*
X164200218Y-112604171D01*
X164192358Y-112673598D01*
X164148211Y-112727753D01*
X164081793Y-112749444D01*
X164078066Y-112749500D01*
X162209234Y-112749500D01*
X162142195Y-112729815D01*
X162096440Y-112677011D01*
X162086496Y-112607853D01*
X162115521Y-112544297D01*
X162141699Y-112521505D01*
X162178082Y-112497877D01*
X162178084Y-112497876D01*
X162479516Y-112253781D01*
X162753781Y-111979516D01*
X162997876Y-111678084D01*
X163209125Y-111352789D01*
X163385214Y-111007194D01*
X163524214Y-110645087D01*
X163624602Y-110270433D01*
X163685278Y-109887338D01*
X163705578Y-109500000D01*
X163685278Y-109112662D01*
X163667434Y-108999999D01*
X175144785Y-108999999D01*
X175144785Y-109000000D01*
X175163602Y-109203082D01*
X175219417Y-109399247D01*
X175219422Y-109399260D01*
X175310327Y-109581821D01*
X175433237Y-109744581D01*
X175531700Y-109834341D01*
X175583959Y-109881981D01*
X175597353Y-109890274D01*
X175616509Y-109902135D01*
X175663144Y-109954163D01*
X175674405Y-110021851D01*
X175669311Y-110065758D01*
X176250000Y-110646446D01*
X176250001Y-110646446D01*
X176714290Y-110182155D01*
X179570000Y-110182155D01*
X179570000Y-110830000D01*
X180486988Y-110830000D01*
X180454075Y-110887007D01*
X180420000Y-111014174D01*
X180420000Y-111145826D01*
X180454075Y-111272993D01*
X180486988Y-111330000D01*
X179570000Y-111330000D01*
X179570000Y-111977844D01*
X179576401Y-112037372D01*
X179576403Y-112037379D01*
X179626645Y-112172086D01*
X179626649Y-112172093D01*
X179712809Y-112287187D01*
X179712812Y-112287190D01*
X179827906Y-112373350D01*
X179827913Y-112373354D01*
X179962620Y-112423596D01*
X179962627Y-112423598D01*
X180022155Y-112429999D01*
X180022172Y-112430000D01*
X180670000Y-112430000D01*
X180670000Y-111513012D01*
X180727007Y-111545925D01*
X180854174Y-111580000D01*
X180985826Y-111580000D01*
X181112993Y-111545925D01*
X181170000Y-111513012D01*
X181170000Y-112430000D01*
X181817828Y-112430000D01*
X181817844Y-112429999D01*
X181877372Y-112423598D01*
X181877379Y-112423596D01*
X182012086Y-112373354D01*
X182012093Y-112373350D01*
X182127187Y-112287190D01*
X182127190Y-112287187D01*
X182213350Y-112172093D01*
X182213354Y-112172086D01*
X182262614Y-112040013D01*
X182304485Y-111984079D01*
X182369949Y-111959662D01*
X182438222Y-111974513D01*
X182466477Y-111995665D01*
X182588917Y-112118105D01*
X182782421Y-112253600D01*
X182996507Y-112353429D01*
X182996516Y-112353433D01*
X183210000Y-112410634D01*
X183210000Y-111513012D01*
X183267007Y-111545925D01*
X183394174Y-111580000D01*
X183525826Y-111580000D01*
X183652993Y-111545925D01*
X183710000Y-111513012D01*
X183710000Y-112410633D01*
X183923483Y-112353433D01*
X183923492Y-112353429D01*
X184137578Y-112253600D01*
X184331082Y-112118105D01*
X184498105Y-111951082D01*
X184628425Y-111764968D01*
X184683002Y-111721344D01*
X184752501Y-111714151D01*
X184814855Y-111745673D01*
X184831575Y-111764968D01*
X184961894Y-111951082D01*
X185128917Y-112118105D01*
X185322421Y-112253600D01*
X185536507Y-112353429D01*
X185536516Y-112353433D01*
X185750000Y-112410634D01*
X185750000Y-111513012D01*
X185807007Y-111545925D01*
X185934174Y-111580000D01*
X186065826Y-111580000D01*
X186192993Y-111545925D01*
X186250000Y-111513012D01*
X186250000Y-112410633D01*
X186463483Y-112353433D01*
X186463492Y-112353429D01*
X186677578Y-112253600D01*
X186871082Y-112118105D01*
X187038105Y-111951082D01*
X187168425Y-111764968D01*
X187223002Y-111721344D01*
X187292501Y-111714151D01*
X187354855Y-111745673D01*
X187371575Y-111764968D01*
X187501894Y-111951082D01*
X187668917Y-112118105D01*
X187862421Y-112253600D01*
X188076507Y-112353429D01*
X188076516Y-112353433D01*
X188290000Y-112410634D01*
X188290000Y-111513012D01*
X188347007Y-111545925D01*
X188474174Y-111580000D01*
X188605826Y-111580000D01*
X188732993Y-111545925D01*
X188790000Y-111513012D01*
X188790000Y-112410633D01*
X189003483Y-112353433D01*
X189003492Y-112353429D01*
X189217578Y-112253600D01*
X189411082Y-112118105D01*
X189578105Y-111951082D01*
X189713600Y-111757578D01*
X189813429Y-111543492D01*
X189813432Y-111543486D01*
X189870636Y-111330000D01*
X188973012Y-111330000D01*
X189005925Y-111272993D01*
X189040000Y-111145826D01*
X189040000Y-111014174D01*
X189005925Y-110887007D01*
X188973012Y-110830000D01*
X189870636Y-110830000D01*
X189870635Y-110829999D01*
X189813432Y-110616513D01*
X189813429Y-110616507D01*
X189713600Y-110402422D01*
X189713599Y-110402420D01*
X189578113Y-110208926D01*
X189578108Y-110208920D01*
X189411082Y-110041894D01*
X189217578Y-109906399D01*
X189003492Y-109806570D01*
X189003486Y-109806567D01*
X188790000Y-109749364D01*
X188790000Y-110646988D01*
X188732993Y-110614075D01*
X188605826Y-110580000D01*
X188474174Y-110580000D01*
X188347007Y-110614075D01*
X188290000Y-110646988D01*
X188290000Y-109749364D01*
X188289999Y-109749364D01*
X188076513Y-109806567D01*
X188076507Y-109806570D01*
X187862422Y-109906399D01*
X187862420Y-109906400D01*
X187668926Y-110041886D01*
X187668920Y-110041891D01*
X187501891Y-110208920D01*
X187501890Y-110208922D01*
X187371575Y-110395031D01*
X187316998Y-110438655D01*
X187247499Y-110445848D01*
X187185145Y-110414326D01*
X187168425Y-110395031D01*
X187038109Y-110208922D01*
X187038108Y-110208920D01*
X186871082Y-110041894D01*
X186677578Y-109906399D01*
X186463492Y-109806570D01*
X186463486Y-109806567D01*
X186250000Y-109749364D01*
X186250000Y-110646988D01*
X186192993Y-110614075D01*
X186065826Y-110580000D01*
X185934174Y-110580000D01*
X185807007Y-110614075D01*
X185750000Y-110646988D01*
X185750000Y-109749364D01*
X185749999Y-109749364D01*
X185536513Y-109806567D01*
X185536507Y-109806570D01*
X185322422Y-109906399D01*
X185322420Y-109906400D01*
X185128926Y-110041886D01*
X185128920Y-110041891D01*
X184961891Y-110208920D01*
X184961890Y-110208922D01*
X184831575Y-110395031D01*
X184776998Y-110438655D01*
X184707499Y-110445848D01*
X184645145Y-110414326D01*
X184628425Y-110395031D01*
X184498109Y-110208922D01*
X184498108Y-110208920D01*
X184331082Y-110041894D01*
X184137578Y-109906399D01*
X183923492Y-109806570D01*
X183923486Y-109806567D01*
X183710000Y-109749364D01*
X183710000Y-110646988D01*
X183652993Y-110614075D01*
X183525826Y-110580000D01*
X183394174Y-110580000D01*
X183267007Y-110614075D01*
X183210000Y-110646988D01*
X183210000Y-109749364D01*
X183209999Y-109749364D01*
X182996513Y-109806567D01*
X182996507Y-109806570D01*
X182782422Y-109906399D01*
X182782420Y-109906400D01*
X182588926Y-110041886D01*
X182466477Y-110164335D01*
X182405154Y-110197819D01*
X182335462Y-110192835D01*
X182279529Y-110150963D01*
X182262614Y-110119986D01*
X182213354Y-109987913D01*
X182213350Y-109987906D01*
X182127190Y-109872812D01*
X182127187Y-109872809D01*
X182012093Y-109786649D01*
X182012086Y-109786645D01*
X181877379Y-109736403D01*
X181877372Y-109736401D01*
X181817844Y-109730000D01*
X181170000Y-109730000D01*
X181170000Y-110646988D01*
X181112993Y-110614075D01*
X180985826Y-110580000D01*
X180854174Y-110580000D01*
X180727007Y-110614075D01*
X180670000Y-110646988D01*
X180670000Y-109730000D01*
X180022155Y-109730000D01*
X179962627Y-109736401D01*
X179962620Y-109736403D01*
X179827913Y-109786645D01*
X179827906Y-109786649D01*
X179712812Y-109872809D01*
X179712809Y-109872812D01*
X179626649Y-109987906D01*
X179626645Y-109987913D01*
X179576403Y-110122620D01*
X179576401Y-110122627D01*
X179570000Y-110182155D01*
X176714290Y-110182155D01*
X176830686Y-110065759D01*
X176825593Y-110021853D01*
X176837421Y-109952991D01*
X176883491Y-109902135D01*
X176916041Y-109881981D01*
X177061515Y-109749364D01*
X177066762Y-109744581D01*
X177072938Y-109736403D01*
X177189673Y-109581821D01*
X177280582Y-109399250D01*
X177336397Y-109203083D01*
X177355215Y-109000000D01*
X177336397Y-108796917D01*
X177280582Y-108600750D01*
X177189673Y-108418179D01*
X177066764Y-108255421D01*
X177066762Y-108255418D01*
X176916041Y-108118019D01*
X176916039Y-108118017D01*
X176742642Y-108010655D01*
X176742635Y-108010651D01*
X176647546Y-107973814D01*
X176552456Y-107936976D01*
X176351976Y-107899500D01*
X176148024Y-107899500D01*
X175947544Y-107936976D01*
X175947541Y-107936976D01*
X175947541Y-107936977D01*
X175757364Y-108010651D01*
X175757357Y-108010655D01*
X175583960Y-108118017D01*
X175583958Y-108118019D01*
X175433237Y-108255418D01*
X175310327Y-108418178D01*
X175219422Y-108600739D01*
X175219417Y-108600752D01*
X175163602Y-108796917D01*
X175144785Y-108999999D01*
X163667434Y-108999999D01*
X163624602Y-108729567D01*
X163524214Y-108354913D01*
X163385214Y-107992806D01*
X163209125Y-107647211D01*
X163129666Y-107524855D01*
X162997877Y-107321917D01*
X162811965Y-107092335D01*
X162753781Y-107020484D01*
X162733291Y-106999994D01*
X163744357Y-106999994D01*
X163744357Y-107000005D01*
X163764890Y-107247812D01*
X163764892Y-107247824D01*
X163825936Y-107488881D01*
X163925826Y-107716606D01*
X164061833Y-107924782D01*
X164094245Y-107959991D01*
X164230256Y-108107738D01*
X164426491Y-108260474D01*
X164645190Y-108378828D01*
X164880386Y-108459571D01*
X165125665Y-108500500D01*
X165374335Y-108500500D01*
X165619614Y-108459571D01*
X165854810Y-108378828D01*
X166073509Y-108260474D01*
X166269744Y-108107738D01*
X166438164Y-107924785D01*
X166574173Y-107716607D01*
X166674063Y-107488881D01*
X166735108Y-107247821D01*
X166735109Y-107247812D01*
X166755643Y-107000005D01*
X166755643Y-106999994D01*
X170244357Y-106999994D01*
X170244357Y-107000005D01*
X170264890Y-107247812D01*
X170264892Y-107247824D01*
X170325936Y-107488881D01*
X170425826Y-107716606D01*
X170561833Y-107924782D01*
X170594245Y-107959991D01*
X170730256Y-108107738D01*
X170926491Y-108260474D01*
X171145190Y-108378828D01*
X171380386Y-108459571D01*
X171625665Y-108500500D01*
X171874335Y-108500500D01*
X172119614Y-108459571D01*
X172354810Y-108378828D01*
X172573509Y-108260474D01*
X172769744Y-108107738D01*
X172938164Y-107924785D01*
X173074173Y-107716607D01*
X173174063Y-107488881D01*
X173235108Y-107247821D01*
X173235109Y-107247812D01*
X173255643Y-107000005D01*
X173255643Y-106999994D01*
X173235109Y-106752187D01*
X173235107Y-106752175D01*
X173174063Y-106511118D01*
X173074173Y-106283393D01*
X172938166Y-106075217D01*
X172916557Y-106051744D01*
X172769744Y-105892262D01*
X172573509Y-105739526D01*
X172573507Y-105739525D01*
X172573506Y-105739524D01*
X172354811Y-105621172D01*
X172354802Y-105621169D01*
X172119616Y-105540429D01*
X171874335Y-105499500D01*
X171625665Y-105499500D01*
X171380383Y-105540429D01*
X171145197Y-105621169D01*
X171145188Y-105621172D01*
X170926493Y-105739524D01*
X170730257Y-105892261D01*
X170561833Y-106075217D01*
X170425826Y-106283393D01*
X170325936Y-106511118D01*
X170264892Y-106752175D01*
X170264890Y-106752187D01*
X170244357Y-106999994D01*
X166755643Y-106999994D01*
X166735109Y-106752187D01*
X166735107Y-106752175D01*
X166674063Y-106511118D01*
X166574173Y-106283393D01*
X166438166Y-106075217D01*
X166416557Y-106051744D01*
X166269744Y-105892262D01*
X166073509Y-105739526D01*
X166073507Y-105739525D01*
X166073506Y-105739524D01*
X165854811Y-105621172D01*
X165854802Y-105621169D01*
X165619616Y-105540429D01*
X165374335Y-105499500D01*
X165125665Y-105499500D01*
X164880383Y-105540429D01*
X164645197Y-105621169D01*
X164645188Y-105621172D01*
X164426493Y-105739524D01*
X164230257Y-105892261D01*
X164061833Y-106075217D01*
X163925826Y-106283393D01*
X163825936Y-106511118D01*
X163764892Y-106752175D01*
X163764890Y-106752187D01*
X163744357Y-106999994D01*
X162733291Y-106999994D01*
X162479516Y-106746219D01*
X162351084Y-106642217D01*
X162178082Y-106502122D01*
X161852793Y-106290877D01*
X161507197Y-106114787D01*
X161145094Y-105975788D01*
X160991363Y-105934596D01*
X160770433Y-105875398D01*
X160770429Y-105875397D01*
X160770428Y-105875397D01*
X160387339Y-105814722D01*
X160000001Y-105794422D01*
X159999999Y-105794422D01*
X159612660Y-105814722D01*
X159229572Y-105875397D01*
X159229570Y-105875397D01*
X158854905Y-105975788D01*
X158492802Y-106114787D01*
X158147206Y-106290877D01*
X157821917Y-106502122D01*
X157520488Y-106746215D01*
X157520480Y-106746222D01*
X157246222Y-107020480D01*
X157246215Y-107020488D01*
X157002120Y-107321919D01*
X156978494Y-107358301D01*
X156925473Y-107403804D01*
X156856268Y-107413417D01*
X156792851Y-107384089D01*
X156755358Y-107325132D01*
X156750500Y-107290765D01*
X156750500Y-103749994D01*
X163744357Y-103749994D01*
X163744357Y-103750000D01*
X163764890Y-103997812D01*
X163764892Y-103997824D01*
X163825936Y-104238881D01*
X163925826Y-104466606D01*
X164061833Y-104674782D01*
X164061836Y-104674785D01*
X164230256Y-104857738D01*
X164426491Y-105010474D01*
X164426493Y-105010475D01*
X164595830Y-105102116D01*
X164645190Y-105128828D01*
X164880386Y-105209571D01*
X165125665Y-105250500D01*
X165374335Y-105250500D01*
X165619614Y-105209571D01*
X165854810Y-105128828D01*
X166073509Y-105010474D01*
X166269744Y-104857738D01*
X166438164Y-104674785D01*
X166442272Y-104668498D01*
X166492031Y-104592335D01*
X166574173Y-104466607D01*
X166674063Y-104238881D01*
X166735108Y-103997821D01*
X166743206Y-103900099D01*
X166755643Y-103750000D01*
X166755643Y-103749994D01*
X170244357Y-103749994D01*
X170244357Y-103750000D01*
X170264890Y-103997812D01*
X170264892Y-103997824D01*
X170325936Y-104238881D01*
X170425826Y-104466606D01*
X170561833Y-104674782D01*
X170561836Y-104674785D01*
X170730256Y-104857738D01*
X170926491Y-105010474D01*
X170926493Y-105010475D01*
X171095830Y-105102116D01*
X171145190Y-105128828D01*
X171380386Y-105209571D01*
X171625665Y-105250500D01*
X171874335Y-105250500D01*
X172119614Y-105209571D01*
X172354810Y-105128828D01*
X172404134Y-105102135D01*
X179569500Y-105102135D01*
X179569500Y-106897870D01*
X179569501Y-106897876D01*
X179575908Y-106957483D01*
X179626202Y-107092328D01*
X179626206Y-107092335D01*
X179712452Y-107207544D01*
X179712455Y-107207547D01*
X179827664Y-107293793D01*
X179827671Y-107293797D01*
X179962517Y-107344091D01*
X179962516Y-107344091D01*
X179969444Y-107344835D01*
X180022127Y-107350500D01*
X181817872Y-107350499D01*
X181877483Y-107344091D01*
X182012331Y-107293796D01*
X182127546Y-107207546D01*
X182213796Y-107092331D01*
X182262810Y-106960916D01*
X182304681Y-106904984D01*
X182370145Y-106880566D01*
X182438418Y-106895417D01*
X182466673Y-106916569D01*
X182588599Y-107038495D01*
X182685384Y-107106265D01*
X182782165Y-107174032D01*
X182782167Y-107174033D01*
X182782170Y-107174035D01*
X182996337Y-107273903D01*
X183224592Y-107335063D01*
X183401034Y-107350500D01*
X183459999Y-107355659D01*
X183460000Y-107355659D01*
X183460001Y-107355659D01*
X183518966Y-107350500D01*
X183695408Y-107335063D01*
X183923663Y-107273903D01*
X184137830Y-107174035D01*
X184331401Y-107038495D01*
X184498495Y-106871401D01*
X184628425Y-106685842D01*
X184683002Y-106642217D01*
X184752500Y-106635023D01*
X184814855Y-106666546D01*
X184831575Y-106685842D01*
X184961500Y-106871395D01*
X184961505Y-106871401D01*
X185128599Y-107038495D01*
X185225384Y-107106265D01*
X185322165Y-107174032D01*
X185322167Y-107174033D01*
X185322170Y-107174035D01*
X185536337Y-107273903D01*
X185764592Y-107335063D01*
X185941034Y-107350500D01*
X185999999Y-107355659D01*
X186000000Y-107355659D01*
X186000001Y-107355659D01*
X186058966Y-107350500D01*
X186235408Y-107335063D01*
X186463663Y-107273903D01*
X186677830Y-107174035D01*
X186871401Y-107038495D01*
X187038495Y-106871401D01*
X187168425Y-106685842D01*
X187223002Y-106642217D01*
X187292500Y-106635023D01*
X187354855Y-106666546D01*
X187371575Y-106685842D01*
X187501500Y-106871395D01*
X187501505Y-106871401D01*
X187668599Y-107038495D01*
X187765384Y-107106265D01*
X187862165Y-107174032D01*
X187862167Y-107174033D01*
X187862170Y-107174035D01*
X188076337Y-107273903D01*
X188304592Y-107335063D01*
X188481034Y-107350500D01*
X188539999Y-107355659D01*
X188540000Y-107355659D01*
X188540001Y-107355659D01*
X188598966Y-107350500D01*
X188775408Y-107335063D01*
X189003663Y-107273903D01*
X189217830Y-107174035D01*
X189411401Y-107038495D01*
X189578495Y-106871401D01*
X189714035Y-106677830D01*
X189813903Y-106463663D01*
X189875063Y-106235408D01*
X189895659Y-106000000D01*
X189875063Y-105764592D01*
X189828626Y-105591285D01*
X189813905Y-105536344D01*
X189813904Y-105536343D01*
X189813903Y-105536337D01*
X189714035Y-105322171D01*
X189708425Y-105314158D01*
X189578494Y-105128597D01*
X189411402Y-104961506D01*
X189411395Y-104961501D01*
X189217834Y-104825967D01*
X189217830Y-104825965D01*
X189217828Y-104825964D01*
X189003663Y-104726097D01*
X189003659Y-104726096D01*
X189003655Y-104726094D01*
X188775413Y-104664938D01*
X188775403Y-104664936D01*
X188540001Y-104644341D01*
X188539999Y-104644341D01*
X188304596Y-104664936D01*
X188304586Y-104664938D01*
X188076344Y-104726094D01*
X188076335Y-104726098D01*
X187862171Y-104825964D01*
X187862169Y-104825965D01*
X187668597Y-104961505D01*
X187501505Y-105128597D01*
X187371575Y-105314158D01*
X187316998Y-105357783D01*
X187247500Y-105364977D01*
X187185145Y-105333454D01*
X187168425Y-105314158D01*
X187038494Y-105128597D01*
X186871402Y-104961506D01*
X186871395Y-104961501D01*
X186677834Y-104825967D01*
X186677830Y-104825965D01*
X186677828Y-104825964D01*
X186463663Y-104726097D01*
X186463659Y-104726096D01*
X186463655Y-104726094D01*
X186235413Y-104664938D01*
X186235403Y-104664936D01*
X186000001Y-104644341D01*
X185999999Y-104644341D01*
X185764596Y-104664936D01*
X185764586Y-104664938D01*
X185536344Y-104726094D01*
X185536335Y-104726098D01*
X185322171Y-104825964D01*
X185322169Y-104825965D01*
X185128597Y-104961505D01*
X184961505Y-105128597D01*
X184831575Y-105314158D01*
X184776998Y-105357783D01*
X184707500Y-105364977D01*
X184645145Y-105333454D01*
X184628425Y-105314158D01*
X184498494Y-105128597D01*
X184331402Y-104961506D01*
X184331395Y-104961501D01*
X184137834Y-104825967D01*
X184137830Y-104825965D01*
X184137828Y-104825964D01*
X183923663Y-104726097D01*
X183923659Y-104726096D01*
X183923655Y-104726094D01*
X183695413Y-104664938D01*
X183695403Y-104664936D01*
X183460001Y-104644341D01*
X183459999Y-104644341D01*
X183224596Y-104664936D01*
X183224586Y-104664938D01*
X182996344Y-104726094D01*
X182996335Y-104726098D01*
X182782171Y-104825964D01*
X182782169Y-104825965D01*
X182588600Y-104961503D01*
X182466673Y-105083430D01*
X182405350Y-105116914D01*
X182335658Y-105111930D01*
X182279725Y-105070058D01*
X182262810Y-105039081D01*
X182213797Y-104907671D01*
X182213793Y-104907664D01*
X182127547Y-104792455D01*
X182127544Y-104792452D01*
X182012335Y-104706206D01*
X182012328Y-104706202D01*
X181877482Y-104655908D01*
X181877483Y-104655908D01*
X181817883Y-104649501D01*
X181817881Y-104649500D01*
X181817873Y-104649500D01*
X181817864Y-104649500D01*
X180022129Y-104649500D01*
X180022123Y-104649501D01*
X179962516Y-104655908D01*
X179827671Y-104706202D01*
X179827664Y-104706206D01*
X179712455Y-104792452D01*
X179712452Y-104792455D01*
X179626206Y-104907664D01*
X179626202Y-104907671D01*
X179575908Y-105042517D01*
X179569501Y-105102116D01*
X179569500Y-105102135D01*
X172404134Y-105102135D01*
X172573509Y-105010474D01*
X172769744Y-104857738D01*
X172938164Y-104674785D01*
X172942272Y-104668498D01*
X172992031Y-104592335D01*
X173074173Y-104466607D01*
X173174063Y-104238881D01*
X173235108Y-103997821D01*
X173243206Y-103900099D01*
X173255643Y-103750000D01*
X173255643Y-103749994D01*
X173235109Y-103502187D01*
X173235107Y-103502175D01*
X173174063Y-103261118D01*
X173074173Y-103033393D01*
X172938166Y-102825217D01*
X172916557Y-102801744D01*
X172769744Y-102642262D01*
X172573509Y-102489526D01*
X172573507Y-102489525D01*
X172573506Y-102489524D01*
X172354811Y-102371172D01*
X172354802Y-102371169D01*
X172119616Y-102290429D01*
X171874335Y-102249500D01*
X171625665Y-102249500D01*
X171380383Y-102290429D01*
X171145197Y-102371169D01*
X171145188Y-102371172D01*
X170926493Y-102489524D01*
X170730257Y-102642261D01*
X170561833Y-102825217D01*
X170425826Y-103033393D01*
X170325936Y-103261118D01*
X170264892Y-103502175D01*
X170264890Y-103502187D01*
X170244357Y-103749994D01*
X166755643Y-103749994D01*
X166735109Y-103502187D01*
X166735107Y-103502175D01*
X166674063Y-103261118D01*
X166574173Y-103033393D01*
X166438166Y-102825217D01*
X166416557Y-102801744D01*
X166269744Y-102642262D01*
X166073509Y-102489526D01*
X166073507Y-102489525D01*
X166073506Y-102489524D01*
X165854811Y-102371172D01*
X165854802Y-102371169D01*
X165619616Y-102290429D01*
X165374335Y-102249500D01*
X165125665Y-102249500D01*
X164880383Y-102290429D01*
X164645197Y-102371169D01*
X164645188Y-102371172D01*
X164426493Y-102489524D01*
X164230257Y-102642261D01*
X164061833Y-102825217D01*
X163925826Y-103033393D01*
X163825936Y-103261118D01*
X163764892Y-103502175D01*
X163764890Y-103502187D01*
X163744357Y-103749994D01*
X156750500Y-103749994D01*
X156750500Y-97749996D01*
X162194435Y-97749996D01*
X162194435Y-97750003D01*
X162214630Y-97929249D01*
X162214631Y-97929254D01*
X162274211Y-98099523D01*
X162346538Y-98214630D01*
X162370184Y-98252262D01*
X162497738Y-98379816D01*
X162526143Y-98397664D01*
X162631771Y-98464035D01*
X162650478Y-98475789D01*
X162713202Y-98497737D01*
X162820745Y-98535368D01*
X162820750Y-98535369D01*
X162999996Y-98555565D01*
X163000000Y-98555565D01*
X163000004Y-98555565D01*
X163179249Y-98535369D01*
X163179252Y-98535368D01*
X163179255Y-98535368D01*
X163349522Y-98475789D01*
X163502262Y-98379816D01*
X163629816Y-98252262D01*
X163725789Y-98099522D01*
X163785368Y-97929255D01*
X163794380Y-97849271D01*
X163821446Y-97784856D01*
X163879040Y-97745301D01*
X163948877Y-97743162D01*
X163958554Y-97746110D01*
X163980137Y-97753663D01*
X164070745Y-97785368D01*
X164070750Y-97785369D01*
X164249996Y-97805565D01*
X164250000Y-97805565D01*
X164250001Y-97805565D01*
X164258551Y-97804601D01*
X164295323Y-97800458D01*
X164364144Y-97812512D01*
X164415524Y-97859860D01*
X164433149Y-97927470D01*
X164411423Y-97993876D01*
X164385370Y-98021531D01*
X164230258Y-98142260D01*
X164061833Y-98325217D01*
X163925826Y-98533393D01*
X163825936Y-98761118D01*
X163764892Y-99002175D01*
X163764890Y-99002187D01*
X163744357Y-99249994D01*
X163744357Y-99250005D01*
X163764890Y-99497812D01*
X163764892Y-99497824D01*
X163825936Y-99738881D01*
X163925826Y-99966606D01*
X164061833Y-100174782D01*
X164061836Y-100174785D01*
X164230256Y-100357738D01*
X164426491Y-100510474D01*
X164645190Y-100628828D01*
X164880386Y-100709571D01*
X165125665Y-100750500D01*
X165374335Y-100750500D01*
X165619614Y-100709571D01*
X165854810Y-100628828D01*
X166073509Y-100510474D01*
X166269744Y-100357738D01*
X166438164Y-100174785D01*
X166574173Y-99966607D01*
X166674063Y-99738881D01*
X166735108Y-99497821D01*
X166737154Y-99473127D01*
X166755643Y-99250005D01*
X166755643Y-99249994D01*
X170244357Y-99249994D01*
X170244357Y-99250005D01*
X170264890Y-99497812D01*
X170264892Y-99497824D01*
X170325936Y-99738881D01*
X170425826Y-99966606D01*
X170561833Y-100174782D01*
X170561836Y-100174785D01*
X170730256Y-100357738D01*
X170926491Y-100510474D01*
X171145190Y-100628828D01*
X171380386Y-100709571D01*
X171625665Y-100750500D01*
X171874335Y-100750500D01*
X172119614Y-100709571D01*
X172354810Y-100628828D01*
X172573509Y-100510474D01*
X172769744Y-100357738D01*
X172938164Y-100174785D01*
X173074173Y-99966607D01*
X173174063Y-99738881D01*
X173176312Y-99730000D01*
X173824571Y-99730000D01*
X173844244Y-99942310D01*
X173891293Y-100107669D01*
X173902596Y-100147392D01*
X173902596Y-100147394D01*
X173997632Y-100338253D01*
X174110629Y-100487883D01*
X174126128Y-100508407D01*
X174283698Y-100652052D01*
X174464981Y-100764298D01*
X174663802Y-100841321D01*
X174873390Y-100880500D01*
X174873392Y-100880500D01*
X174975500Y-100880500D01*
X175042539Y-100900185D01*
X175088294Y-100952989D01*
X175099500Y-101004500D01*
X175099500Y-101697870D01*
X175099501Y-101697876D01*
X175105908Y-101757483D01*
X175156202Y-101892328D01*
X175156206Y-101892335D01*
X175242452Y-102007544D01*
X175242455Y-102007547D01*
X175357664Y-102093793D01*
X175357671Y-102093797D01*
X175492517Y-102144091D01*
X175492516Y-102144091D01*
X175499444Y-102144835D01*
X175552127Y-102150500D01*
X176947872Y-102150499D01*
X177007483Y-102144091D01*
X177142331Y-102093796D01*
X177257546Y-102007546D01*
X177343796Y-101892331D01*
X177394091Y-101757483D01*
X177400500Y-101697873D01*
X177400499Y-100302128D01*
X177394091Y-100242517D01*
X177389459Y-100230099D01*
X177343797Y-100107671D01*
X177343793Y-100107664D01*
X177257547Y-99992455D01*
X177257544Y-99992452D01*
X177142335Y-99906206D01*
X177142328Y-99906202D01*
X177007482Y-99855908D01*
X177007483Y-99855908D01*
X176972385Y-99852135D01*
X179089500Y-99852135D01*
X179089500Y-102147870D01*
X179089501Y-102147876D01*
X179095908Y-102207483D01*
X179146202Y-102342328D01*
X179146206Y-102342335D01*
X179232452Y-102457544D01*
X179232455Y-102457547D01*
X179347664Y-102543793D01*
X179347671Y-102543797D01*
X179482517Y-102594091D01*
X179482516Y-102594091D01*
X179489444Y-102594835D01*
X179542127Y-102600500D01*
X181837872Y-102600499D01*
X181897483Y-102594091D01*
X182032331Y-102543796D01*
X182147546Y-102457546D01*
X182233796Y-102342331D01*
X182284091Y-102207483D01*
X182290500Y-102147873D01*
X182290499Y-101000000D01*
X186704551Y-101000000D01*
X186724317Y-101251151D01*
X186783126Y-101496110D01*
X186879533Y-101728859D01*
X187011160Y-101943653D01*
X187011161Y-101943656D01*
X187011164Y-101943659D01*
X187174776Y-102135224D01*
X187308576Y-102249500D01*
X187366343Y-102298838D01*
X187366346Y-102298839D01*
X187581140Y-102430466D01*
X187657015Y-102461894D01*
X187813889Y-102526873D01*
X188058852Y-102585683D01*
X188310000Y-102605449D01*
X188561148Y-102585683D01*
X188806111Y-102526873D01*
X189038859Y-102430466D01*
X189253659Y-102298836D01*
X189445224Y-102135224D01*
X189608836Y-101943659D01*
X189740466Y-101728859D01*
X189836873Y-101496111D01*
X189895683Y-101251148D01*
X189915449Y-101000000D01*
X189895683Y-100748852D01*
X189836873Y-100503889D01*
X189776336Y-100357738D01*
X189740466Y-100271140D01*
X189608839Y-100056346D01*
X189608838Y-100056343D01*
X189554271Y-99992454D01*
X189445224Y-99864776D01*
X189287422Y-99730000D01*
X189253656Y-99701161D01*
X189253653Y-99701160D01*
X189038859Y-99569533D01*
X188806110Y-99473126D01*
X188561151Y-99414317D01*
X188310000Y-99394551D01*
X188058848Y-99414317D01*
X187813889Y-99473126D01*
X187581140Y-99569533D01*
X187366346Y-99701160D01*
X187366343Y-99701161D01*
X187174776Y-99864776D01*
X187011161Y-100056343D01*
X187011160Y-100056346D01*
X186879533Y-100271140D01*
X186783126Y-100503889D01*
X186724317Y-100748848D01*
X186704551Y-101000000D01*
X182290499Y-101000000D01*
X182290499Y-99852128D01*
X182284091Y-99792517D01*
X182260773Y-99729999D01*
X182233797Y-99657671D01*
X182233793Y-99657664D01*
X182147547Y-99542455D01*
X182147544Y-99542452D01*
X182032335Y-99456206D01*
X182032328Y-99456202D01*
X181897482Y-99405908D01*
X181897483Y-99405908D01*
X181837883Y-99399501D01*
X181837881Y-99399500D01*
X181837873Y-99399500D01*
X181837864Y-99399500D01*
X179542129Y-99399500D01*
X179542123Y-99399501D01*
X179482516Y-99405908D01*
X179347671Y-99456202D01*
X179347664Y-99456206D01*
X179232455Y-99542452D01*
X179232452Y-99542455D01*
X179146206Y-99657664D01*
X179146202Y-99657671D01*
X179095908Y-99792517D01*
X179089782Y-99849500D01*
X179089501Y-99852123D01*
X179089500Y-99852135D01*
X176972385Y-99852135D01*
X176947883Y-99849501D01*
X176947881Y-99849500D01*
X176947873Y-99849500D01*
X176947865Y-99849500D01*
X176416245Y-99849500D01*
X176349206Y-99829815D01*
X176303451Y-99777011D01*
X176293507Y-99707853D01*
X176322532Y-99644297D01*
X176381310Y-99606523D01*
X176393450Y-99603613D01*
X176566198Y-99571321D01*
X176765019Y-99494298D01*
X176946302Y-99382052D01*
X177103872Y-99238407D01*
X177232366Y-99068255D01*
X177266355Y-98999996D01*
X182694435Y-98999996D01*
X182694435Y-99000003D01*
X182714630Y-99179249D01*
X182714631Y-99179254D01*
X182774211Y-99349523D01*
X182851877Y-99473127D01*
X182870184Y-99502262D01*
X182997738Y-99629816D01*
X183042058Y-99657664D01*
X183111287Y-99701164D01*
X183150478Y-99725789D01*
X183187893Y-99738881D01*
X183320745Y-99785368D01*
X183320750Y-99785369D01*
X183499996Y-99805565D01*
X183500000Y-99805565D01*
X183500004Y-99805565D01*
X183679249Y-99785369D01*
X183679252Y-99785368D01*
X183679255Y-99785368D01*
X183849522Y-99725789D01*
X184002262Y-99629816D01*
X184129816Y-99502262D01*
X184225789Y-99349522D01*
X184285368Y-99179255D01*
X184286911Y-99165562D01*
X184305565Y-99000003D01*
X184305565Y-98999996D01*
X184285369Y-98820750D01*
X184285368Y-98820745D01*
X184256381Y-98737906D01*
X184225789Y-98650478D01*
X184208403Y-98622809D01*
X184183465Y-98583120D01*
X184129816Y-98497738D01*
X184002262Y-98370184D01*
X183986054Y-98360000D01*
X183986043Y-98359993D01*
X186654435Y-98359993D01*
X186654435Y-98360000D01*
X186674630Y-98539246D01*
X186674631Y-98539251D01*
X186734211Y-98709520D01*
X186766633Y-98761119D01*
X186830184Y-98862259D01*
X186957738Y-98989813D01*
X187048080Y-99046579D01*
X187082577Y-99068255D01*
X187110478Y-99085786D01*
X187213243Y-99121745D01*
X187280745Y-99145365D01*
X187280750Y-99145366D01*
X187459996Y-99165562D01*
X187460000Y-99165562D01*
X187460004Y-99165562D01*
X187639249Y-99145366D01*
X187639252Y-99145365D01*
X187639255Y-99145365D01*
X187809522Y-99085786D01*
X187962262Y-98989813D01*
X188089816Y-98862259D01*
X188185789Y-98709519D01*
X188245368Y-98539252D01*
X188245369Y-98539246D01*
X188265565Y-98360000D01*
X188265565Y-98359993D01*
X188245369Y-98180747D01*
X188245368Y-98180742D01*
X188238598Y-98161395D01*
X188185789Y-98010475D01*
X188173343Y-97990668D01*
X188093220Y-97863153D01*
X188089816Y-97857735D01*
X187962262Y-97730181D01*
X187864653Y-97668849D01*
X187809523Y-97634208D01*
X187639254Y-97574628D01*
X187639249Y-97574627D01*
X187460004Y-97554432D01*
X187459996Y-97554432D01*
X187280750Y-97574627D01*
X187280745Y-97574628D01*
X187110476Y-97634208D01*
X186957737Y-97730181D01*
X186830184Y-97857734D01*
X186734211Y-98010473D01*
X186674631Y-98180742D01*
X186674630Y-98180747D01*
X186654435Y-98359993D01*
X183986043Y-98359993D01*
X183849523Y-98274211D01*
X183679254Y-98214631D01*
X183679249Y-98214630D01*
X183500004Y-98194435D01*
X183499996Y-98194435D01*
X183320750Y-98214630D01*
X183320745Y-98214631D01*
X183150476Y-98274211D01*
X182997737Y-98370184D01*
X182870184Y-98497737D01*
X182774211Y-98650476D01*
X182714631Y-98820745D01*
X182714630Y-98820750D01*
X182694435Y-98999996D01*
X177266355Y-98999996D01*
X177327405Y-98877389D01*
X177385756Y-98672310D01*
X177405429Y-98460000D01*
X177385756Y-98247690D01*
X177327405Y-98042611D01*
X177327403Y-98042606D01*
X177327403Y-98042605D01*
X177232367Y-97851746D01*
X177103872Y-97681593D01*
X177051893Y-97634208D01*
X176946302Y-97537948D01*
X176765019Y-97425702D01*
X176765017Y-97425701D01*
X176665608Y-97387190D01*
X176566198Y-97348679D01*
X176356610Y-97309500D01*
X176143390Y-97309500D01*
X175933802Y-97348679D01*
X175933799Y-97348679D01*
X175933799Y-97348680D01*
X175734982Y-97425701D01*
X175734980Y-97425702D01*
X175553699Y-97537947D01*
X175396127Y-97681593D01*
X175267632Y-97851746D01*
X175172596Y-98042605D01*
X175172596Y-98042607D01*
X175114244Y-98247689D01*
X175094042Y-98465708D01*
X175091638Y-98465485D01*
X175074886Y-98522539D01*
X175022082Y-98568294D01*
X174970571Y-98579500D01*
X174873390Y-98579500D01*
X174663802Y-98618679D01*
X174663799Y-98618679D01*
X174663799Y-98618680D01*
X174464982Y-98695701D01*
X174464980Y-98695702D01*
X174283699Y-98807947D01*
X174126127Y-98951593D01*
X173997632Y-99121746D01*
X173902596Y-99312605D01*
X173902596Y-99312607D01*
X173844244Y-99517689D01*
X173836013Y-99606523D01*
X173824571Y-99730000D01*
X173176312Y-99730000D01*
X173235108Y-99497821D01*
X173237154Y-99473127D01*
X173255643Y-99250005D01*
X173255643Y-99249994D01*
X173235109Y-99002187D01*
X173235107Y-99002175D01*
X173174063Y-98761118D01*
X173074173Y-98533393D01*
X172938166Y-98325217D01*
X172898798Y-98282452D01*
X172769744Y-98142262D01*
X172573509Y-97989526D01*
X172573507Y-97989525D01*
X172573506Y-97989524D01*
X172354811Y-97871172D01*
X172354802Y-97871169D01*
X172119616Y-97790429D01*
X171874335Y-97749500D01*
X171625665Y-97749500D01*
X171380383Y-97790429D01*
X171145197Y-97871169D01*
X171145188Y-97871172D01*
X170926493Y-97989524D01*
X170730257Y-98142261D01*
X170561833Y-98325217D01*
X170425826Y-98533393D01*
X170325936Y-98761118D01*
X170264892Y-99002175D01*
X170264890Y-99002187D01*
X170244357Y-99249994D01*
X166755643Y-99249994D01*
X166735109Y-99002187D01*
X166735107Y-99002175D01*
X166674063Y-98761118D01*
X166574173Y-98533393D01*
X166438166Y-98325217D01*
X166398798Y-98282452D01*
X166269744Y-98142262D01*
X166073509Y-97989526D01*
X166073507Y-97989525D01*
X166073506Y-97989524D01*
X165854811Y-97871172D01*
X165854802Y-97871169D01*
X165619616Y-97790429D01*
X165374335Y-97749500D01*
X165125665Y-97749500D01*
X164915606Y-97784551D01*
X164846241Y-97776169D01*
X164792419Y-97731615D01*
X164771228Y-97665037D01*
X164789397Y-97597571D01*
X164807508Y-97574569D01*
X164879816Y-97502262D01*
X164975789Y-97349522D01*
X165035368Y-97179255D01*
X165042024Y-97120184D01*
X165055565Y-97000003D01*
X165055565Y-96999996D01*
X165035369Y-96820750D01*
X165035366Y-96820737D01*
X164975783Y-96650460D01*
X164972221Y-96580681D01*
X165006949Y-96520054D01*
X165051870Y-96492463D01*
X165099522Y-96475789D01*
X165252262Y-96379816D01*
X165379816Y-96252262D01*
X165475789Y-96099522D01*
X165510614Y-95999999D01*
X169394785Y-95999999D01*
X169394785Y-96000000D01*
X169413602Y-96203082D01*
X169469417Y-96399247D01*
X169469422Y-96399260D01*
X169560327Y-96581821D01*
X169683237Y-96744581D01*
X169833958Y-96881980D01*
X169833960Y-96881982D01*
X169933141Y-96943392D01*
X170007363Y-96989348D01*
X170197544Y-97063024D01*
X170398024Y-97100500D01*
X170398026Y-97100500D01*
X170601974Y-97100500D01*
X170601976Y-97100500D01*
X170802456Y-97063024D01*
X170965159Y-96999993D01*
X194844700Y-96999993D01*
X194844700Y-97000006D01*
X194863864Y-97231297D01*
X194863866Y-97231308D01*
X194920842Y-97456300D01*
X195014075Y-97668848D01*
X195141016Y-97863147D01*
X195141019Y-97863151D01*
X195141021Y-97863153D01*
X195235803Y-97966114D01*
X195266724Y-98028767D01*
X195258864Y-98098193D01*
X195214716Y-98152348D01*
X195187906Y-98166277D01*
X195107669Y-98196203D01*
X195107664Y-98196206D01*
X194992455Y-98282452D01*
X194992452Y-98282455D01*
X194906206Y-98397664D01*
X194906202Y-98397671D01*
X194855908Y-98532517D01*
X194850468Y-98583120D01*
X194849501Y-98592123D01*
X194849500Y-98592135D01*
X194849500Y-100487870D01*
X194849501Y-100487876D01*
X194855908Y-100547483D01*
X194906202Y-100682328D01*
X194906206Y-100682335D01*
X194992452Y-100797544D01*
X194992455Y-100797547D01*
X195107664Y-100883793D01*
X195107671Y-100883797D01*
X195242517Y-100934091D01*
X195242516Y-100934091D01*
X195249444Y-100934835D01*
X195302127Y-100940500D01*
X197197872Y-100940499D01*
X197257483Y-100934091D01*
X197392331Y-100883796D01*
X197507546Y-100797546D01*
X197593796Y-100682331D01*
X197644091Y-100547483D01*
X197650500Y-100487873D01*
X197650499Y-98592128D01*
X197644398Y-98535369D01*
X197644091Y-98532516D01*
X197593797Y-98397671D01*
X197593793Y-98397664D01*
X197507547Y-98282455D01*
X197507544Y-98282452D01*
X197392335Y-98196206D01*
X197392328Y-98196202D01*
X197312094Y-98166277D01*
X197256160Y-98124406D01*
X197231743Y-98058941D01*
X197246595Y-97990668D01*
X197264190Y-97966121D01*
X197358979Y-97863153D01*
X197485924Y-97668849D01*
X197579157Y-97456300D01*
X197636134Y-97231305D01*
X197640447Y-97179254D01*
X197655300Y-97000006D01*
X197655300Y-96999993D01*
X197636135Y-96768702D01*
X197636133Y-96768691D01*
X197579157Y-96543699D01*
X197485924Y-96331151D01*
X197358983Y-96136852D01*
X197358980Y-96136849D01*
X197358979Y-96136847D01*
X197201784Y-95966087D01*
X197201779Y-95966083D01*
X197201777Y-95966081D01*
X197018634Y-95823535D01*
X197018628Y-95823531D01*
X196814504Y-95713064D01*
X196814495Y-95713061D01*
X196594984Y-95637702D01*
X196423282Y-95609050D01*
X196366049Y-95599500D01*
X196133951Y-95599500D01*
X196088164Y-95607140D01*
X195905015Y-95637702D01*
X195685504Y-95713061D01*
X195685495Y-95713064D01*
X195481371Y-95823531D01*
X195481365Y-95823535D01*
X195298222Y-95966081D01*
X195298219Y-95966084D01*
X195298216Y-95966086D01*
X195298216Y-95966087D01*
X195266998Y-95999999D01*
X195141016Y-96136852D01*
X195014075Y-96331151D01*
X194920842Y-96543699D01*
X194863866Y-96768691D01*
X194863864Y-96768702D01*
X194844700Y-96999993D01*
X170965159Y-96999993D01*
X170992637Y-96989348D01*
X171166041Y-96881981D01*
X171316764Y-96744579D01*
X171439673Y-96581821D01*
X171530582Y-96399250D01*
X171586397Y-96203083D01*
X171605215Y-96000000D01*
X171595751Y-95897870D01*
X171586397Y-95796917D01*
X171562538Y-95713064D01*
X171530582Y-95600750D01*
X171515641Y-95570745D01*
X171465842Y-95470734D01*
X171439673Y-95418179D01*
X171316764Y-95255421D01*
X171316762Y-95255418D01*
X171166042Y-95118020D01*
X171166041Y-95118019D01*
X171133488Y-95097863D01*
X171086853Y-95045835D01*
X171075592Y-94978145D01*
X171080685Y-94934239D01*
X170896447Y-94750000D01*
X173394551Y-94750000D01*
X173414317Y-95001151D01*
X173473126Y-95246110D01*
X173569533Y-95478859D01*
X173701160Y-95693653D01*
X173701161Y-95693656D01*
X173701164Y-95693659D01*
X173864776Y-95885224D01*
X174013066Y-96011875D01*
X174056343Y-96048838D01*
X174056346Y-96048839D01*
X174271140Y-96180466D01*
X174503889Y-96276873D01*
X174748852Y-96335683D01*
X175000000Y-96355449D01*
X175251148Y-96335683D01*
X175496111Y-96276873D01*
X175728859Y-96180466D01*
X175943659Y-96048836D01*
X176135224Y-95885224D01*
X176298836Y-95693659D01*
X176430466Y-95478859D01*
X176526873Y-95246111D01*
X176585683Y-95001148D01*
X176605449Y-94750000D01*
X176585683Y-94498852D01*
X176526873Y-94253889D01*
X176498009Y-94184205D01*
X176430466Y-94021140D01*
X176298839Y-93806346D01*
X176298838Y-93806343D01*
X176207801Y-93699753D01*
X176135224Y-93614776D01*
X176120423Y-93602135D01*
X181019500Y-93602135D01*
X181019500Y-95897870D01*
X181019501Y-95897876D01*
X181025908Y-95957483D01*
X181076202Y-96092328D01*
X181076206Y-96092335D01*
X181162452Y-96207544D01*
X181162455Y-96207547D01*
X181277664Y-96293793D01*
X181277671Y-96293797D01*
X181412517Y-96344091D01*
X181412516Y-96344091D01*
X181419444Y-96344835D01*
X181472127Y-96350500D01*
X183767872Y-96350499D01*
X183827483Y-96344091D01*
X183962331Y-96293796D01*
X184077546Y-96207546D01*
X184163796Y-96092331D01*
X184214091Y-95957483D01*
X184220500Y-95897873D01*
X184220499Y-93602128D01*
X184214091Y-93542517D01*
X184180017Y-93451161D01*
X184163797Y-93407671D01*
X184163793Y-93407664D01*
X184077547Y-93292455D01*
X184077544Y-93292452D01*
X183962335Y-93206206D01*
X183962328Y-93206202D01*
X183827482Y-93155908D01*
X183827483Y-93155908D01*
X183767883Y-93149501D01*
X183767881Y-93149500D01*
X183767873Y-93149500D01*
X183767864Y-93149500D01*
X181472129Y-93149500D01*
X181472123Y-93149501D01*
X181412516Y-93155908D01*
X181277671Y-93206202D01*
X181277664Y-93206206D01*
X181162455Y-93292452D01*
X181162452Y-93292455D01*
X181076206Y-93407664D01*
X181076202Y-93407671D01*
X181025908Y-93542517D01*
X181019628Y-93600936D01*
X181019501Y-93602123D01*
X181019500Y-93602135D01*
X176120423Y-93602135D01*
X175951078Y-93457500D01*
X175943656Y-93451161D01*
X175943653Y-93451160D01*
X175728859Y-93319533D01*
X175496110Y-93223126D01*
X175251151Y-93164317D01*
X175000000Y-93144551D01*
X174748848Y-93164317D01*
X174503889Y-93223126D01*
X174271140Y-93319533D01*
X174056346Y-93451160D01*
X174056343Y-93451161D01*
X173864776Y-93614776D01*
X173701161Y-93806343D01*
X173701160Y-93806346D01*
X173569533Y-94021140D01*
X173473126Y-94253889D01*
X173414317Y-94498848D01*
X173394551Y-94750000D01*
X170896447Y-94750000D01*
X170500001Y-94353553D01*
X170500000Y-94353553D01*
X169919311Y-94934240D01*
X169924405Y-94978148D01*
X169912577Y-95047009D01*
X169866511Y-95097863D01*
X169833956Y-95118020D01*
X169683237Y-95255418D01*
X169560327Y-95418178D01*
X169469422Y-95600739D01*
X169469417Y-95600752D01*
X169413602Y-95796917D01*
X169394785Y-95999999D01*
X165510614Y-95999999D01*
X165535368Y-95929255D01*
X165535956Y-95924035D01*
X165555565Y-95750003D01*
X165555565Y-95749996D01*
X165535369Y-95570750D01*
X165535368Y-95570745D01*
X165503216Y-95478859D01*
X165475789Y-95400478D01*
X165379816Y-95247738D01*
X165252262Y-95120184D01*
X165252260Y-95120182D01*
X165097802Y-95023129D01*
X165051512Y-94970795D01*
X165040864Y-94901741D01*
X165063457Y-94845251D01*
X165095217Y-94801538D01*
X165199048Y-94597758D01*
X165226072Y-94514586D01*
X165269721Y-94380249D01*
X165269721Y-94380248D01*
X165269722Y-94380245D01*
X165305500Y-94154354D01*
X165305500Y-93999999D01*
X169395287Y-93999999D01*
X169395287Y-94000000D01*
X169414096Y-94202989D01*
X169414097Y-94202992D01*
X169469883Y-94399063D01*
X169469886Y-94399069D01*
X169560751Y-94581551D01*
X169562533Y-94583911D01*
X170146446Y-94000000D01*
X170106950Y-93960504D01*
X170200000Y-93960504D01*
X170200000Y-94039496D01*
X170220444Y-94115796D01*
X170259940Y-94184205D01*
X170315795Y-94240060D01*
X170384204Y-94279556D01*
X170460504Y-94300000D01*
X170539496Y-94300000D01*
X170615796Y-94279556D01*
X170684205Y-94240060D01*
X170740060Y-94184205D01*
X170779556Y-94115796D01*
X170800000Y-94039496D01*
X170800000Y-94000000D01*
X170853553Y-94000000D01*
X171437465Y-94583912D01*
X171439247Y-94581553D01*
X171439248Y-94581551D01*
X171530113Y-94399069D01*
X171530116Y-94399063D01*
X171585902Y-94202992D01*
X171585903Y-94202989D01*
X171604713Y-94000000D01*
X171604713Y-93999999D01*
X171585903Y-93797010D01*
X171585902Y-93797007D01*
X171530116Y-93600936D01*
X171530113Y-93600930D01*
X171439249Y-93418449D01*
X171439247Y-93418447D01*
X171437465Y-93416087D01*
X170853553Y-94000000D01*
X170800000Y-94000000D01*
X170800000Y-93960504D01*
X170779556Y-93884204D01*
X170740060Y-93815795D01*
X170684205Y-93759940D01*
X170615796Y-93720444D01*
X170539496Y-93700000D01*
X170460504Y-93700000D01*
X170384204Y-93720444D01*
X170315795Y-93759940D01*
X170259940Y-93815795D01*
X170220444Y-93884204D01*
X170200000Y-93960504D01*
X170106950Y-93960504D01*
X169562533Y-93416087D01*
X169560755Y-93418442D01*
X169560754Y-93418443D01*
X169469886Y-93600930D01*
X169469883Y-93600936D01*
X169414097Y-93797007D01*
X169414096Y-93797010D01*
X169395287Y-93999999D01*
X165305500Y-93999999D01*
X165305500Y-93925646D01*
X165269722Y-93699755D01*
X165269721Y-93699751D01*
X165269721Y-93699750D01*
X165199049Y-93482244D01*
X165161051Y-93407669D01*
X165095217Y-93278462D01*
X164960786Y-93093434D01*
X164933110Y-93065758D01*
X169919311Y-93065758D01*
X170500000Y-93646446D01*
X170500001Y-93646446D01*
X171080687Y-93065758D01*
X170992413Y-93011101D01*
X170992411Y-93011100D01*
X170802321Y-92937460D01*
X170601928Y-92900000D01*
X170398072Y-92900000D01*
X170197678Y-92937460D01*
X170007588Y-93011100D01*
X170007581Y-93011104D01*
X169919312Y-93065757D01*
X169919311Y-93065758D01*
X164933110Y-93065758D01*
X164799066Y-92931714D01*
X164714559Y-92870316D01*
X164671896Y-92814988D01*
X164665917Y-92745375D01*
X164698523Y-92683580D01*
X164714556Y-92669685D01*
X164799066Y-92608286D01*
X164960786Y-92446566D01*
X165095217Y-92261538D01*
X165199048Y-92057758D01*
X165248685Y-91904990D01*
X165269721Y-91840249D01*
X165269721Y-91840248D01*
X165269722Y-91840245D01*
X165305500Y-91614354D01*
X165305500Y-91385646D01*
X165269722Y-91159755D01*
X165269721Y-91159751D01*
X165269721Y-91159750D01*
X165199049Y-90942244D01*
X165101097Y-90750003D01*
X165095217Y-90738462D01*
X164962472Y-90555755D01*
X164938994Y-90489953D01*
X164954819Y-90421899D01*
X165004925Y-90373204D01*
X165019455Y-90366692D01*
X165047331Y-90356296D01*
X165162546Y-90270046D01*
X165248796Y-90154831D01*
X165299091Y-90019983D01*
X165305500Y-89960373D01*
X165305500Y-89102135D01*
X167029500Y-89102135D01*
X167029500Y-91397870D01*
X167029501Y-91397876D01*
X167035908Y-91457483D01*
X167086202Y-91592328D01*
X167086206Y-91592335D01*
X167172452Y-91707544D01*
X167172455Y-91707547D01*
X167287664Y-91793793D01*
X167287671Y-91793797D01*
X167422517Y-91844091D01*
X167422516Y-91844091D01*
X167429444Y-91844835D01*
X167482127Y-91850500D01*
X169777872Y-91850499D01*
X169837483Y-91844091D01*
X169972331Y-91793796D01*
X170087546Y-91707546D01*
X170173796Y-91592331D01*
X170224091Y-91457483D01*
X170230500Y-91397873D01*
X170230499Y-90250000D01*
X174644551Y-90250000D01*
X174664317Y-90501151D01*
X174723126Y-90746110D01*
X174819533Y-90978859D01*
X174951160Y-91193653D01*
X174951161Y-91193655D01*
X174951162Y-91193657D01*
X174951164Y-91193659D01*
X175114776Y-91385224D01*
X175220814Y-91475789D01*
X175306343Y-91548838D01*
X175306346Y-91548839D01*
X175521140Y-91680466D01*
X175680163Y-91746335D01*
X175753889Y-91776873D01*
X175998852Y-91835683D01*
X176250000Y-91855449D01*
X176501148Y-91835683D01*
X176746111Y-91776873D01*
X176869579Y-91725731D01*
X185268700Y-91725731D01*
X185268700Y-91725738D01*
X185288895Y-91904984D01*
X185288896Y-91904989D01*
X185348476Y-92075258D01*
X185413822Y-92179254D01*
X185444449Y-92227997D01*
X185572003Y-92355551D01*
X185662345Y-92412317D01*
X185716855Y-92446568D01*
X185724743Y-92451524D01*
X185869744Y-92502262D01*
X185895010Y-92511103D01*
X185895015Y-92511104D01*
X186074261Y-92531300D01*
X186074265Y-92531300D01*
X186074269Y-92531300D01*
X186253514Y-92511104D01*
X186253517Y-92511103D01*
X186253520Y-92511103D01*
X186423787Y-92451524D01*
X186576527Y-92355551D01*
X186704081Y-92227997D01*
X186800054Y-92075257D01*
X186859633Y-91904990D01*
X186865215Y-91855448D01*
X186879830Y-91725738D01*
X186879830Y-91725731D01*
X186859634Y-91546485D01*
X186859633Y-91546480D01*
X186834897Y-91475789D01*
X186800054Y-91376213D01*
X186781263Y-91346308D01*
X186704080Y-91223472D01*
X186576527Y-91095919D01*
X186423788Y-90999946D01*
X186253519Y-90940366D01*
X186253514Y-90940365D01*
X186074269Y-90920170D01*
X186074261Y-90920170D01*
X185895015Y-90940365D01*
X185895010Y-90940366D01*
X185724741Y-90999946D01*
X185572002Y-91095919D01*
X185444449Y-91223472D01*
X185348476Y-91376211D01*
X185288896Y-91546480D01*
X185288895Y-91546485D01*
X185268700Y-91725731D01*
X176869579Y-91725731D01*
X176978859Y-91680466D01*
X177193659Y-91548836D01*
X177385224Y-91385224D01*
X177548836Y-91193659D01*
X177548837Y-91193657D01*
X177548839Y-91193655D01*
X177548839Y-91193654D01*
X177680466Y-90978859D01*
X177775264Y-90749996D01*
X187694435Y-90749996D01*
X187694435Y-90750003D01*
X187714630Y-90929249D01*
X187714631Y-90929254D01*
X187774211Y-91099523D01*
X187852094Y-91223472D01*
X187870184Y-91252262D01*
X187997738Y-91379816D01*
X188038202Y-91405241D01*
X188150478Y-91475789D01*
X188198132Y-91492464D01*
X188254908Y-91533186D01*
X188280656Y-91598138D01*
X188274220Y-91650461D01*
X188214634Y-91820745D01*
X188214633Y-91820750D01*
X188194438Y-91999996D01*
X188194438Y-92000003D01*
X188214633Y-92179249D01*
X188214634Y-92179254D01*
X188274214Y-92349523D01*
X188338306Y-92451524D01*
X188370187Y-92502262D01*
X188497741Y-92629816D01*
X188650481Y-92725789D01*
X188706455Y-92745375D01*
X188820748Y-92785368D01*
X188820753Y-92785369D01*
X188999999Y-92805565D01*
X189000003Y-92805565D01*
X189000007Y-92805565D01*
X189179252Y-92785369D01*
X189179255Y-92785368D01*
X189179258Y-92785368D01*
X189349525Y-92725789D01*
X189432483Y-92673663D01*
X189434028Y-92672692D01*
X189501265Y-92653691D01*
X189565973Y-92672691D01*
X189650478Y-92725789D01*
X189706452Y-92745375D01*
X189820745Y-92785368D01*
X189820750Y-92785369D01*
X189999996Y-92805565D01*
X190000000Y-92805565D01*
X190000004Y-92805565D01*
X190179249Y-92785369D01*
X190179252Y-92785368D01*
X190179255Y-92785368D01*
X190349522Y-92725789D01*
X190502262Y-92629816D01*
X190537319Y-92594759D01*
X190598642Y-92561274D01*
X190668334Y-92566258D01*
X190712681Y-92594759D01*
X190747738Y-92629816D01*
X190900478Y-92725789D01*
X190956452Y-92745375D01*
X191070745Y-92785368D01*
X191070750Y-92785369D01*
X191249996Y-92805565D01*
X191250000Y-92805565D01*
X191250004Y-92805565D01*
X191429249Y-92785369D01*
X191429252Y-92785368D01*
X191429255Y-92785368D01*
X191599522Y-92725789D01*
X191752262Y-92629816D01*
X191879816Y-92502262D01*
X191975789Y-92349522D01*
X192024610Y-92209999D01*
X200144341Y-92209999D01*
X200144341Y-92210000D01*
X200164936Y-92445403D01*
X200164938Y-92445413D01*
X200226094Y-92673655D01*
X200226096Y-92673659D01*
X200226097Y-92673663D01*
X200250404Y-92725789D01*
X200325965Y-92887830D01*
X200325967Y-92887834D01*
X200461501Y-93081395D01*
X200461506Y-93081402D01*
X200628597Y-93248493D01*
X200628603Y-93248498D01*
X200814158Y-93378425D01*
X200857783Y-93433002D01*
X200864977Y-93502500D01*
X200833454Y-93564855D01*
X200814158Y-93581575D01*
X200628597Y-93711505D01*
X200461505Y-93878597D01*
X200325965Y-94072169D01*
X200325964Y-94072171D01*
X200226098Y-94286335D01*
X200226094Y-94286344D01*
X200164938Y-94514586D01*
X200164936Y-94514596D01*
X200144341Y-94749999D01*
X200144341Y-94750000D01*
X200164936Y-94985403D01*
X200164938Y-94985413D01*
X200226094Y-95213655D01*
X200226096Y-95213659D01*
X200226097Y-95213663D01*
X200258298Y-95282717D01*
X200325965Y-95427830D01*
X200325967Y-95427834D01*
X200461501Y-95621395D01*
X200461506Y-95621402D01*
X200628597Y-95788493D01*
X200628603Y-95788498D01*
X200814158Y-95918425D01*
X200857783Y-95973002D01*
X200864977Y-96042500D01*
X200833454Y-96104855D01*
X200814158Y-96121575D01*
X200628597Y-96251505D01*
X200461505Y-96418597D01*
X200325965Y-96612169D01*
X200325964Y-96612171D01*
X200226098Y-96826335D01*
X200226094Y-96826344D01*
X200164938Y-97054586D01*
X200164936Y-97054596D01*
X200144341Y-97289999D01*
X200144341Y-97290000D01*
X200164936Y-97525403D01*
X200164938Y-97525413D01*
X200226094Y-97753655D01*
X200226096Y-97753659D01*
X200226097Y-97753663D01*
X200277153Y-97863153D01*
X200325965Y-97967830D01*
X200325967Y-97967834D01*
X200434281Y-98122521D01*
X200461501Y-98161396D01*
X200461506Y-98161402D01*
X200583818Y-98283714D01*
X200617303Y-98345037D01*
X200612319Y-98414729D01*
X200570447Y-98470662D01*
X200539471Y-98487577D01*
X200407912Y-98536646D01*
X200407906Y-98536649D01*
X200292812Y-98622809D01*
X200292809Y-98622812D01*
X200206649Y-98737906D01*
X200206645Y-98737913D01*
X200156403Y-98872620D01*
X200156401Y-98872627D01*
X200150000Y-98932155D01*
X200150000Y-99580000D01*
X201066988Y-99580000D01*
X201034075Y-99637007D01*
X201000000Y-99764174D01*
X201000000Y-99895826D01*
X201034075Y-100022993D01*
X201066988Y-100080000D01*
X200150000Y-100080000D01*
X200150000Y-100727844D01*
X200156401Y-100787372D01*
X200156403Y-100787379D01*
X200206645Y-100922086D01*
X200206649Y-100922093D01*
X200292809Y-101037187D01*
X200292812Y-101037190D01*
X200407906Y-101123350D01*
X200407913Y-101123354D01*
X200542620Y-101173596D01*
X200542627Y-101173598D01*
X200602155Y-101179999D01*
X200602172Y-101180000D01*
X201250000Y-101180000D01*
X201250000Y-100263012D01*
X201307007Y-100295925D01*
X201434174Y-100330000D01*
X201565826Y-100330000D01*
X201692993Y-100295925D01*
X201750000Y-100263012D01*
X201750000Y-101180000D01*
X202397828Y-101180000D01*
X202397844Y-101179999D01*
X202457372Y-101173598D01*
X202457379Y-101173596D01*
X202592086Y-101123354D01*
X202592093Y-101123350D01*
X202707187Y-101037190D01*
X202707190Y-101037187D01*
X202793350Y-100922093D01*
X202793354Y-100922086D01*
X202843596Y-100787379D01*
X202843598Y-100787372D01*
X202849999Y-100727844D01*
X202850000Y-100727827D01*
X202850000Y-100080000D01*
X201933012Y-100080000D01*
X201965925Y-100022993D01*
X202000000Y-99895826D01*
X202000000Y-99764174D01*
X201965925Y-99637007D01*
X201933012Y-99580000D01*
X202850000Y-99580000D01*
X202850000Y-98932172D01*
X202849999Y-98932155D01*
X202843598Y-98872627D01*
X202843596Y-98872620D01*
X202793354Y-98737913D01*
X202793350Y-98737906D01*
X202707190Y-98622812D01*
X202707187Y-98622809D01*
X202592093Y-98536649D01*
X202592088Y-98536646D01*
X202460528Y-98487577D01*
X202404595Y-98445705D01*
X202380178Y-98380241D01*
X202395030Y-98311968D01*
X202416175Y-98283720D01*
X202538495Y-98161401D01*
X202674035Y-97967830D01*
X202773903Y-97753663D01*
X202835063Y-97525408D01*
X202855659Y-97290000D01*
X202835063Y-97054592D01*
X202773903Y-96826337D01*
X202674035Y-96612171D01*
X202665179Y-96599522D01*
X202538494Y-96418597D01*
X202371402Y-96251506D01*
X202371396Y-96251501D01*
X202185842Y-96121575D01*
X202142217Y-96066998D01*
X202135023Y-95997500D01*
X202166546Y-95935145D01*
X202185842Y-95918425D01*
X202251352Y-95872554D01*
X202371401Y-95788495D01*
X202538495Y-95621401D01*
X202674035Y-95427830D01*
X202773903Y-95213663D01*
X202835063Y-94985408D01*
X202855659Y-94750000D01*
X202835063Y-94514592D01*
X202773903Y-94286337D01*
X202674035Y-94072171D01*
X202595846Y-93960504D01*
X202538494Y-93878597D01*
X202371402Y-93711506D01*
X202371396Y-93711501D01*
X202185842Y-93581575D01*
X202142217Y-93526998D01*
X202135023Y-93457500D01*
X202166546Y-93395145D01*
X202185842Y-93378425D01*
X202269948Y-93319533D01*
X202371401Y-93248495D01*
X202538495Y-93081401D01*
X202674035Y-92887830D01*
X202773903Y-92673663D01*
X202835063Y-92445408D01*
X202855659Y-92210000D01*
X202835063Y-91974592D01*
X202773903Y-91746337D01*
X202674035Y-91532171D01*
X202649925Y-91497737D01*
X202538494Y-91338597D01*
X202371402Y-91171506D01*
X202371395Y-91171501D01*
X202177834Y-91035967D01*
X202177830Y-91035965D01*
X202100587Y-90999946D01*
X201963663Y-90936097D01*
X201963659Y-90936096D01*
X201963655Y-90936094D01*
X201735413Y-90874938D01*
X201735403Y-90874936D01*
X201500001Y-90854341D01*
X201499999Y-90854341D01*
X201264596Y-90874936D01*
X201264586Y-90874938D01*
X201036344Y-90936094D01*
X201036335Y-90936098D01*
X200822171Y-91035964D01*
X200822169Y-91035965D01*
X200628597Y-91171505D01*
X200461505Y-91338597D01*
X200325965Y-91532169D01*
X200325964Y-91532171D01*
X200226098Y-91746335D01*
X200226094Y-91746344D01*
X200164938Y-91974586D01*
X200164936Y-91974596D01*
X200144341Y-92209999D01*
X192024610Y-92209999D01*
X192035368Y-92179255D01*
X192047086Y-92075257D01*
X192055565Y-92000003D01*
X192055565Y-91999996D01*
X192035369Y-91820750D01*
X192035368Y-91820745D01*
X192025937Y-91793793D01*
X191975789Y-91650478D01*
X191975778Y-91650461D01*
X191910446Y-91546485D01*
X191879816Y-91497738D01*
X191752262Y-91370184D01*
X191684027Y-91327309D01*
X191599523Y-91274211D01*
X191429254Y-91214631D01*
X191429249Y-91214630D01*
X191250004Y-91194435D01*
X191249996Y-91194435D01*
X191070750Y-91214630D01*
X191070745Y-91214631D01*
X190900476Y-91274211D01*
X190747737Y-91370184D01*
X190712681Y-91405241D01*
X190651358Y-91438726D01*
X190581666Y-91433742D01*
X190537319Y-91405241D01*
X190502262Y-91370184D01*
X190349523Y-91274211D01*
X190179254Y-91214631D01*
X190179249Y-91214630D01*
X190000004Y-91194435D01*
X189999996Y-91194435D01*
X189820750Y-91214630D01*
X189820737Y-91214633D01*
X189650482Y-91274208D01*
X189565972Y-91327309D01*
X189498735Y-91346308D01*
X189434029Y-91327308D01*
X189349525Y-91274211D01*
X189349526Y-91274211D01*
X189319511Y-91263708D01*
X189301869Y-91257535D01*
X189245094Y-91216814D01*
X189219346Y-91151862D01*
X189225783Y-91099539D01*
X189285366Y-90929262D01*
X189285369Y-90929249D01*
X189305565Y-90750003D01*
X189305565Y-90749996D01*
X189285369Y-90570750D01*
X189285368Y-90570745D01*
X189251524Y-90474024D01*
X189225789Y-90400478D01*
X189129816Y-90247738D01*
X189002262Y-90120184D01*
X188849523Y-90024211D01*
X188679254Y-89964631D01*
X188679249Y-89964630D01*
X188500004Y-89944435D01*
X188499996Y-89944435D01*
X188320750Y-89964630D01*
X188320745Y-89964631D01*
X188150476Y-90024211D01*
X187997737Y-90120184D01*
X187870184Y-90247737D01*
X187774211Y-90400476D01*
X187714631Y-90570745D01*
X187714630Y-90570750D01*
X187694435Y-90749996D01*
X177775264Y-90749996D01*
X177776873Y-90746111D01*
X177835683Y-90501148D01*
X177855449Y-90250000D01*
X177835683Y-89998852D01*
X177776873Y-89753889D01*
X177728724Y-89637646D01*
X177680466Y-89521140D01*
X177548839Y-89306346D01*
X177548838Y-89306343D01*
X177511875Y-89263066D01*
X177385224Y-89114776D01*
X177250834Y-88999996D01*
X192694435Y-88999996D01*
X192694435Y-89000003D01*
X192714630Y-89179249D01*
X192714631Y-89179254D01*
X192774211Y-89349523D01*
X192861410Y-89488299D01*
X192870184Y-89502262D01*
X192997738Y-89629816D01*
X193150478Y-89725789D01*
X193320745Y-89785368D01*
X193320750Y-89785369D01*
X193499996Y-89805565D01*
X193500000Y-89805565D01*
X193500004Y-89805565D01*
X193679249Y-89785369D01*
X193679252Y-89785368D01*
X193679255Y-89785368D01*
X193849522Y-89725789D01*
X194002262Y-89629816D01*
X194129816Y-89502262D01*
X194225789Y-89349522D01*
X194285368Y-89179255D01*
X194292633Y-89114776D01*
X194305565Y-89000003D01*
X194305565Y-88999996D01*
X194285369Y-88820750D01*
X194285368Y-88820745D01*
X194251210Y-88723127D01*
X194225789Y-88650478D01*
X194225174Y-88649500D01*
X194129815Y-88497737D01*
X194002262Y-88370184D01*
X193849523Y-88274211D01*
X193679254Y-88214631D01*
X193679249Y-88214630D01*
X193500004Y-88194435D01*
X193499996Y-88194435D01*
X193320750Y-88214630D01*
X193320745Y-88214631D01*
X193150476Y-88274211D01*
X192997737Y-88370184D01*
X192870184Y-88497737D01*
X192774211Y-88650476D01*
X192714631Y-88820745D01*
X192714630Y-88820750D01*
X192694435Y-88999996D01*
X177250834Y-88999996D01*
X177193656Y-88951161D01*
X177193653Y-88951160D01*
X176978859Y-88819533D01*
X176746110Y-88723126D01*
X176501151Y-88664317D01*
X176250000Y-88644551D01*
X175998848Y-88664317D01*
X175753889Y-88723126D01*
X175521140Y-88819533D01*
X175306346Y-88951160D01*
X175306343Y-88951161D01*
X175114776Y-89114776D01*
X174951161Y-89306343D01*
X174951160Y-89306346D01*
X174819533Y-89521140D01*
X174723126Y-89753889D01*
X174664317Y-89998848D01*
X174644551Y-90250000D01*
X170230499Y-90250000D01*
X170230499Y-89102128D01*
X170224091Y-89042517D01*
X170218397Y-89027251D01*
X170173797Y-88907671D01*
X170173793Y-88907664D01*
X170087547Y-88792455D01*
X170087544Y-88792452D01*
X169972335Y-88706206D01*
X169972328Y-88706202D01*
X169837482Y-88655908D01*
X169837483Y-88655908D01*
X169777883Y-88649501D01*
X169777881Y-88649500D01*
X169777873Y-88649500D01*
X169777864Y-88649500D01*
X167482129Y-88649500D01*
X167482123Y-88649501D01*
X167422516Y-88655908D01*
X167287671Y-88706202D01*
X167287664Y-88706206D01*
X167172455Y-88792452D01*
X167172452Y-88792455D01*
X167086206Y-88907664D01*
X167086202Y-88907671D01*
X167035908Y-89042517D01*
X167029501Y-89102116D01*
X167029501Y-89102123D01*
X167029500Y-89102135D01*
X165305500Y-89102135D01*
X165305499Y-87959628D01*
X165299091Y-87900017D01*
X165275224Y-87836027D01*
X165248797Y-87765171D01*
X165248793Y-87765164D01*
X165162547Y-87649955D01*
X165162544Y-87649952D01*
X165047335Y-87563706D01*
X165047328Y-87563702D01*
X164912482Y-87513408D01*
X164912483Y-87513408D01*
X164852883Y-87507001D01*
X164852881Y-87507000D01*
X164852873Y-87507000D01*
X164852864Y-87507000D01*
X162757129Y-87507000D01*
X162757123Y-87507001D01*
X162697516Y-87513408D01*
X162562671Y-87563702D01*
X162562664Y-87563706D01*
X162447455Y-87649952D01*
X162447452Y-87649955D01*
X162361206Y-87765164D01*
X162361202Y-87765171D01*
X162310908Y-87900017D01*
X162308585Y-87921630D01*
X162304501Y-87959623D01*
X162304500Y-87959635D01*
X162304500Y-89960370D01*
X162304501Y-89960376D01*
X162310908Y-90019983D01*
X162361202Y-90154828D01*
X162361206Y-90154835D01*
X162447452Y-90270044D01*
X162447455Y-90270047D01*
X162562664Y-90356293D01*
X162562669Y-90356296D01*
X162590539Y-90366690D01*
X162646473Y-90408561D01*
X162670891Y-90474024D01*
X162656040Y-90542298D01*
X162647525Y-90555759D01*
X162514783Y-90738461D01*
X162410950Y-90942244D01*
X162340278Y-91159750D01*
X162340278Y-91159753D01*
X162330186Y-91223472D01*
X162304500Y-91385646D01*
X162304500Y-91614354D01*
X162322141Y-91725731D01*
X162340278Y-91840246D01*
X162340278Y-91840249D01*
X162410950Y-92057755D01*
X162488523Y-92210000D01*
X162514783Y-92261538D01*
X162649214Y-92446566D01*
X162810934Y-92608286D01*
X162880423Y-92658773D01*
X162895438Y-92669682D01*
X162938103Y-92725013D01*
X162944082Y-92794626D01*
X162911476Y-92856421D01*
X162895438Y-92870318D01*
X162810932Y-92931715D01*
X162649216Y-93093431D01*
X162649216Y-93093432D01*
X162649214Y-93093434D01*
X162612075Y-93144551D01*
X162514783Y-93278461D01*
X162410950Y-93482244D01*
X162340278Y-93699750D01*
X162340278Y-93699753D01*
X162304500Y-93925646D01*
X162304500Y-94154353D01*
X162340278Y-94380246D01*
X162340278Y-94380249D01*
X162410950Y-94597755D01*
X162488523Y-94750000D01*
X162514783Y-94801538D01*
X162649214Y-94986566D01*
X162810934Y-95148286D01*
X162995962Y-95282717D01*
X162995964Y-95282718D01*
X162997723Y-95283996D01*
X163040388Y-95339326D01*
X163046367Y-95408939D01*
X163013761Y-95470734D01*
X162965793Y-95501355D01*
X162900479Y-95524209D01*
X162747737Y-95620184D01*
X162620184Y-95747737D01*
X162524211Y-95900476D01*
X162464631Y-96070745D01*
X162464630Y-96070750D01*
X162444435Y-96249996D01*
X162444435Y-96250003D01*
X162464630Y-96429249D01*
X162464631Y-96429254D01*
X162524211Y-96599523D01*
X162620184Y-96752262D01*
X162690009Y-96822087D01*
X162723494Y-96883410D01*
X162718510Y-96953102D01*
X162676638Y-97009035D01*
X162656135Y-97021485D01*
X162650485Y-97024205D01*
X162497737Y-97120184D01*
X162370184Y-97247737D01*
X162274211Y-97400476D01*
X162214631Y-97570745D01*
X162214630Y-97570750D01*
X162194435Y-97749996D01*
X156750500Y-97749996D01*
X156750500Y-85499996D01*
X169944435Y-85499996D01*
X169944435Y-85500003D01*
X169964630Y-85679249D01*
X169964631Y-85679254D01*
X170024211Y-85849523D01*
X170029698Y-85858255D01*
X170120184Y-86002262D01*
X170247738Y-86129816D01*
X170400478Y-86225789D01*
X170567684Y-86284297D01*
X170570745Y-86285368D01*
X170570750Y-86285369D01*
X170722660Y-86302485D01*
X170787074Y-86329551D01*
X170826629Y-86387146D01*
X170832248Y-86437146D01*
X170824571Y-86519998D01*
X170824571Y-86520000D01*
X170844244Y-86732310D01*
X170902596Y-86937392D01*
X170902596Y-86937394D01*
X170997632Y-87128253D01*
X170997634Y-87128255D01*
X171126128Y-87298407D01*
X171283698Y-87442052D01*
X171464981Y-87554298D01*
X171663802Y-87631321D01*
X171873390Y-87670500D01*
X171873392Y-87670500D01*
X172086608Y-87670500D01*
X172086610Y-87670500D01*
X172296198Y-87631321D01*
X172495019Y-87554298D01*
X172676302Y-87442052D01*
X172833872Y-87298407D01*
X172962366Y-87128255D01*
X173057405Y-86937389D01*
X173115756Y-86732310D01*
X173135429Y-86520000D01*
X173135429Y-86519998D01*
X173135958Y-86514292D01*
X173138361Y-86514514D01*
X173155114Y-86457461D01*
X173207918Y-86411706D01*
X173259429Y-86400500D01*
X173356608Y-86400500D01*
X173356610Y-86400500D01*
X173566198Y-86361321D01*
X173765019Y-86284298D01*
X173946302Y-86172052D01*
X174103872Y-86028407D01*
X174232366Y-85858255D01*
X174236714Y-85849522D01*
X174327403Y-85667394D01*
X174327403Y-85667393D01*
X174327405Y-85667389D01*
X174385756Y-85462310D01*
X174405429Y-85250000D01*
X174385756Y-85037690D01*
X174327405Y-84832611D01*
X174327403Y-84832606D01*
X174327403Y-84832605D01*
X174232367Y-84641746D01*
X174103872Y-84471593D01*
X173975976Y-84355000D01*
X173946302Y-84327948D01*
X173765019Y-84215702D01*
X173765017Y-84215701D01*
X173665608Y-84177190D01*
X173566198Y-84138679D01*
X173356610Y-84099500D01*
X173143390Y-84099500D01*
X172933802Y-84138679D01*
X172933799Y-84138679D01*
X172933799Y-84138680D01*
X172734981Y-84215702D01*
X172732373Y-84217001D01*
X172730478Y-84217446D01*
X172729636Y-84217773D01*
X172729590Y-84217655D01*
X172677102Y-84230000D01*
X172260330Y-84230000D01*
X172280075Y-84210255D01*
X172329444Y-84124745D01*
X172355000Y-84029370D01*
X172355000Y-83930630D01*
X172329444Y-83835255D01*
X172280075Y-83749745D01*
X172260330Y-83730000D01*
X173130000Y-83730000D01*
X173130000Y-83282172D01*
X173129999Y-83282155D01*
X173123598Y-83222627D01*
X173123596Y-83222620D01*
X173073354Y-83087913D01*
X173073350Y-83087906D01*
X172987190Y-82972812D01*
X172987187Y-82972809D01*
X172872093Y-82886649D01*
X172872086Y-82886645D01*
X172737379Y-82836403D01*
X172737372Y-82836401D01*
X172677844Y-82830000D01*
X172230000Y-82830000D01*
X172230000Y-83699670D01*
X172210255Y-83679925D01*
X172124745Y-83630556D01*
X172029370Y-83605000D01*
X171930630Y-83605000D01*
X171835255Y-83630556D01*
X171749745Y-83679925D01*
X171730000Y-83699670D01*
X171730000Y-82830000D01*
X171282155Y-82830000D01*
X171222627Y-82836401D01*
X171222620Y-82836403D01*
X171087913Y-82886645D01*
X171087906Y-82886649D01*
X170972812Y-82972809D01*
X170972809Y-82972812D01*
X170886649Y-83087906D01*
X170886645Y-83087913D01*
X170836403Y-83222620D01*
X170836401Y-83222627D01*
X170830000Y-83282155D01*
X170830000Y-83730000D01*
X171699670Y-83730000D01*
X171679925Y-83749745D01*
X171630556Y-83835255D01*
X171605000Y-83930630D01*
X171605000Y-84029370D01*
X171630556Y-84124745D01*
X171679925Y-84210255D01*
X171699670Y-84230000D01*
X170830000Y-84230000D01*
X170830000Y-84574607D01*
X170810315Y-84641646D01*
X170757511Y-84687401D01*
X170719884Y-84697827D01*
X170570749Y-84714630D01*
X170570745Y-84714631D01*
X170400476Y-84774211D01*
X170247737Y-84870184D01*
X170120184Y-84997737D01*
X170024211Y-85150476D01*
X169964631Y-85320745D01*
X169964630Y-85320750D01*
X169944435Y-85499996D01*
X156750500Y-85499996D01*
X156750500Y-82559998D01*
X166944532Y-82559998D01*
X166944532Y-82560001D01*
X166964364Y-82786686D01*
X166964366Y-82786697D01*
X167023258Y-83006488D01*
X167023261Y-83006497D01*
X167119431Y-83212732D01*
X167119432Y-83212734D01*
X167249954Y-83399141D01*
X167410858Y-83560045D01*
X167410861Y-83560047D01*
X167597266Y-83690568D01*
X167803504Y-83786739D01*
X168023308Y-83845635D01*
X168185230Y-83859801D01*
X168249998Y-83865468D01*
X168250000Y-83865468D01*
X168250002Y-83865468D01*
X168306673Y-83860509D01*
X168476692Y-83845635D01*
X168696496Y-83786739D01*
X168902734Y-83690568D01*
X169089139Y-83560047D01*
X169250047Y-83399139D01*
X169380568Y-83212734D01*
X169476739Y-83006496D01*
X169535635Y-82786692D01*
X169555468Y-82560000D01*
X169535635Y-82333308D01*
X169513312Y-82249996D01*
X196194435Y-82249996D01*
X196194435Y-82250003D01*
X196214630Y-82429249D01*
X196214631Y-82429254D01*
X196274211Y-82599523D01*
X196274656Y-82600231D01*
X196370184Y-82752262D01*
X196497738Y-82879816D01*
X196588080Y-82936582D01*
X196636781Y-82967183D01*
X196650478Y-82975789D01*
X196820745Y-83035368D01*
X196820750Y-83035369D01*
X196999996Y-83055565D01*
X197000000Y-83055565D01*
X197000004Y-83055565D01*
X197179249Y-83035369D01*
X197179252Y-83035368D01*
X197179255Y-83035368D01*
X197349522Y-82975789D01*
X197502262Y-82879816D01*
X197629816Y-82752262D01*
X197725789Y-82599522D01*
X197785368Y-82429255D01*
X197796179Y-82333308D01*
X197805565Y-82250003D01*
X197805565Y-82249996D01*
X197785369Y-82070750D01*
X197785368Y-82070745D01*
X197732709Y-81920254D01*
X197725789Y-81900478D01*
X197695826Y-81852793D01*
X197671477Y-81814041D01*
X197629816Y-81747738D01*
X197502262Y-81620184D01*
X197406407Y-81559954D01*
X197349523Y-81524211D01*
X197179254Y-81464631D01*
X197179249Y-81464630D01*
X197000004Y-81444435D01*
X196999996Y-81444435D01*
X196820750Y-81464630D01*
X196820745Y-81464631D01*
X196650476Y-81524211D01*
X196497737Y-81620184D01*
X196370184Y-81747737D01*
X196274211Y-81900476D01*
X196214631Y-82070745D01*
X196214630Y-82070750D01*
X196194435Y-82249996D01*
X169513312Y-82249996D01*
X169476739Y-82113504D01*
X169466668Y-82091907D01*
X169456177Y-82022834D01*
X169484696Y-81959049D01*
X169543172Y-81920809D01*
X169613039Y-81920254D01*
X169666732Y-81951824D01*
X169672455Y-81957547D01*
X169787664Y-82043793D01*
X169787671Y-82043797D01*
X169922517Y-82094091D01*
X169922516Y-82094091D01*
X169929444Y-82094835D01*
X169982127Y-82100500D01*
X172277872Y-82100499D01*
X172337483Y-82094091D01*
X172472331Y-82043796D01*
X172587546Y-81957546D01*
X172673796Y-81842331D01*
X172724091Y-81707483D01*
X172730500Y-81647873D01*
X172730499Y-80249999D01*
X177164728Y-80249999D01*
X177164729Y-80250000D01*
X178259252Y-80250000D01*
X178237482Y-80287708D01*
X178200000Y-80427591D01*
X178200000Y-80572409D01*
X178237482Y-80712292D01*
X178259252Y-80750000D01*
X177164728Y-80750000D01*
X177164811Y-80751067D01*
X177223603Y-80995956D01*
X177319980Y-81228631D01*
X177451568Y-81443362D01*
X177451571Y-81443367D01*
X177615130Y-81634869D01*
X177806632Y-81798428D01*
X177806637Y-81798431D01*
X178021368Y-81930019D01*
X178254043Y-82026396D01*
X178498932Y-82085188D01*
X178499999Y-82085271D01*
X178500000Y-82085271D01*
X178500000Y-80990747D01*
X178537708Y-81012518D01*
X178677591Y-81050000D01*
X178822409Y-81050000D01*
X178962292Y-81012518D01*
X179000000Y-80990747D01*
X179000000Y-82085271D01*
X179001067Y-82085188D01*
X179245956Y-82026396D01*
X179478631Y-81930019D01*
X179693362Y-81798431D01*
X179693367Y-81798428D01*
X179884869Y-81634869D01*
X180048428Y-81443367D01*
X180048431Y-81443362D01*
X180180019Y-81228631D01*
X180276396Y-80995956D01*
X180335188Y-80751067D01*
X180335272Y-80750000D01*
X179240748Y-80750000D01*
X179262518Y-80712292D01*
X179300000Y-80572409D01*
X179300000Y-80499996D01*
X186694435Y-80499996D01*
X186694435Y-80500003D01*
X186714630Y-80679249D01*
X186714631Y-80679254D01*
X186774211Y-80849523D01*
X186831131Y-80940110D01*
X186870184Y-81002262D01*
X186997738Y-81129816D01*
X187150478Y-81225789D01*
X187289300Y-81274365D01*
X187320745Y-81285368D01*
X187320750Y-81285369D01*
X187499996Y-81305565D01*
X187500000Y-81305565D01*
X187500004Y-81305565D01*
X187679249Y-81285369D01*
X187679252Y-81285368D01*
X187679255Y-81285368D01*
X187849522Y-81225789D01*
X188002262Y-81129816D01*
X188129816Y-81002262D01*
X188225789Y-80849522D01*
X188285368Y-80679255D01*
X188285369Y-80679249D01*
X188305565Y-80500003D01*
X188305565Y-80499996D01*
X188285369Y-80320750D01*
X188285368Y-80320745D01*
X188268977Y-80273903D01*
X188225789Y-80150478D01*
X188131235Y-79999996D01*
X190444435Y-79999996D01*
X190444435Y-80000003D01*
X190464630Y-80179249D01*
X190464631Y-80179254D01*
X190524211Y-80349523D01*
X190524511Y-80350000D01*
X190620184Y-80502262D01*
X190747738Y-80629816D01*
X190826410Y-80679249D01*
X190878997Y-80712292D01*
X190900478Y-80725789D01*
X191070745Y-80785368D01*
X191070750Y-80785369D01*
X191249996Y-80805565D01*
X191250000Y-80805565D01*
X191250004Y-80805565D01*
X191429249Y-80785369D01*
X191429252Y-80785368D01*
X191429255Y-80785368D01*
X191599522Y-80725789D01*
X191752262Y-80629816D01*
X191879816Y-80502262D01*
X191975789Y-80349522D01*
X192035368Y-80179255D01*
X192035956Y-80174035D01*
X192055565Y-80000003D01*
X192055565Y-79999996D01*
X192035369Y-79820750D01*
X192035368Y-79820745D01*
X191975788Y-79650476D01*
X191916825Y-79556637D01*
X191879816Y-79497738D01*
X191752262Y-79370184D01*
X191723526Y-79352128D01*
X191599523Y-79274211D01*
X191429254Y-79214631D01*
X191429249Y-79214630D01*
X191250004Y-79194435D01*
X191249996Y-79194435D01*
X191070750Y-79214630D01*
X191070745Y-79214631D01*
X190900476Y-79274211D01*
X190747737Y-79370184D01*
X190620184Y-79497737D01*
X190524211Y-79650476D01*
X190464631Y-79820745D01*
X190464630Y-79820750D01*
X190444435Y-79999996D01*
X188131235Y-79999996D01*
X188129816Y-79997738D01*
X188002262Y-79870184D01*
X187849523Y-79774211D01*
X187679254Y-79714631D01*
X187679249Y-79714630D01*
X187500004Y-79694435D01*
X187499996Y-79694435D01*
X187320750Y-79714630D01*
X187320745Y-79714631D01*
X187150476Y-79774211D01*
X186997737Y-79870184D01*
X186870184Y-79997737D01*
X186774211Y-80150476D01*
X186714631Y-80320745D01*
X186714630Y-80320750D01*
X186694435Y-80499996D01*
X179300000Y-80499996D01*
X179300000Y-80427591D01*
X179262518Y-80287708D01*
X179240748Y-80250000D01*
X180335271Y-80250000D01*
X180335271Y-80249999D01*
X180335188Y-80248932D01*
X180276396Y-80004043D01*
X180180019Y-79771368D01*
X180048431Y-79556637D01*
X180048428Y-79556632D01*
X179884869Y-79365130D01*
X179693367Y-79201571D01*
X179693362Y-79201568D01*
X179478631Y-79069980D01*
X179245956Y-78973603D01*
X179001064Y-78914811D01*
X179000000Y-78914726D01*
X179000000Y-80009252D01*
X178962292Y-79987482D01*
X178822409Y-79950000D01*
X178677591Y-79950000D01*
X178537708Y-79987482D01*
X178500000Y-80009252D01*
X178500000Y-78914726D01*
X178498935Y-78914811D01*
X178254043Y-78973603D01*
X178021368Y-79069980D01*
X177806637Y-79201568D01*
X177806632Y-79201571D01*
X177615130Y-79365130D01*
X177451571Y-79556632D01*
X177451568Y-79556637D01*
X177319980Y-79771368D01*
X177223603Y-80004043D01*
X177164811Y-80248932D01*
X177164728Y-80249999D01*
X172730499Y-80249999D01*
X172730499Y-79352128D01*
X172724091Y-79292517D01*
X172717263Y-79274211D01*
X172673797Y-79157671D01*
X172673793Y-79157664D01*
X172587547Y-79042455D01*
X172587544Y-79042452D01*
X172472335Y-78956206D01*
X172472328Y-78956202D01*
X172337482Y-78905908D01*
X172337483Y-78905908D01*
X172277883Y-78899501D01*
X172277881Y-78899500D01*
X172277873Y-78899500D01*
X172277864Y-78899500D01*
X169982129Y-78899500D01*
X169982123Y-78899501D01*
X169922516Y-78905908D01*
X169787671Y-78956202D01*
X169787664Y-78956206D01*
X169672455Y-79042452D01*
X169672452Y-79042455D01*
X169586206Y-79157664D01*
X169586202Y-79157671D01*
X169535908Y-79292517D01*
X169529501Y-79352116D01*
X169529501Y-79352123D01*
X169529500Y-79352135D01*
X169529500Y-81647870D01*
X169529501Y-81647876D01*
X169535908Y-81707481D01*
X169537544Y-81714402D01*
X169533803Y-81784172D01*
X169492937Y-81840844D01*
X169427918Y-81866425D01*
X169359391Y-81852793D01*
X169315292Y-81814041D01*
X169250045Y-81720858D01*
X169089141Y-81559954D01*
X168902734Y-81429432D01*
X168902732Y-81429431D01*
X168696497Y-81333261D01*
X168696488Y-81333258D01*
X168476697Y-81274366D01*
X168476693Y-81274365D01*
X168476692Y-81274365D01*
X168476691Y-81274364D01*
X168476686Y-81274364D01*
X168250002Y-81254532D01*
X168249998Y-81254532D01*
X168023313Y-81274364D01*
X168023302Y-81274366D01*
X167803511Y-81333258D01*
X167803502Y-81333261D01*
X167597267Y-81429431D01*
X167597265Y-81429432D01*
X167410858Y-81559954D01*
X167249954Y-81720858D01*
X167119432Y-81907265D01*
X167119431Y-81907267D01*
X167023261Y-82113502D01*
X167023258Y-82113511D01*
X166964366Y-82333302D01*
X166964364Y-82333313D01*
X166944532Y-82559998D01*
X156750500Y-82559998D01*
X156750500Y-78102155D01*
X192650000Y-78102155D01*
X192650000Y-78750000D01*
X193566988Y-78750000D01*
X193534075Y-78807007D01*
X193500000Y-78934174D01*
X193500000Y-79065826D01*
X193534075Y-79192993D01*
X193566988Y-79250000D01*
X192650000Y-79250000D01*
X192650000Y-79897844D01*
X192656401Y-79957372D01*
X192656403Y-79957379D01*
X192706645Y-80092086D01*
X192706649Y-80092093D01*
X192792809Y-80207187D01*
X192792812Y-80207190D01*
X192907906Y-80293350D01*
X192907913Y-80293354D01*
X193042620Y-80343596D01*
X193042627Y-80343598D01*
X193102155Y-80349999D01*
X193102172Y-80350000D01*
X193750000Y-80350000D01*
X193750000Y-79433012D01*
X193807007Y-79465925D01*
X193934174Y-79500000D01*
X194065826Y-79500000D01*
X194192993Y-79465925D01*
X194250000Y-79433012D01*
X194250000Y-80350000D01*
X194897828Y-80350000D01*
X194897844Y-80349999D01*
X194957372Y-80343598D01*
X194957379Y-80343596D01*
X195092086Y-80293354D01*
X195092093Y-80293350D01*
X195207187Y-80207190D01*
X195207190Y-80207187D01*
X195293350Y-80092093D01*
X195293354Y-80092086D01*
X195342422Y-79960529D01*
X195384293Y-79904595D01*
X195449757Y-79880178D01*
X195518030Y-79895030D01*
X195546285Y-79916181D01*
X195668599Y-80038495D01*
X195745135Y-80092086D01*
X195862165Y-80174032D01*
X195862167Y-80174033D01*
X195862170Y-80174035D01*
X196076337Y-80273903D01*
X196304592Y-80335063D01*
X196475319Y-80350000D01*
X196539999Y-80355659D01*
X196540000Y-80355659D01*
X196540001Y-80355659D01*
X196604681Y-80350000D01*
X196775408Y-80335063D01*
X197003663Y-80273903D01*
X197217830Y-80174035D01*
X197411401Y-80038495D01*
X197578495Y-79871401D01*
X197708425Y-79685842D01*
X197763002Y-79642217D01*
X197832500Y-79635023D01*
X197894855Y-79666546D01*
X197911575Y-79685842D01*
X198041500Y-79871395D01*
X198041505Y-79871401D01*
X198208599Y-80038495D01*
X198285135Y-80092086D01*
X198402165Y-80174032D01*
X198402167Y-80174033D01*
X198402170Y-80174035D01*
X198616337Y-80273903D01*
X198844592Y-80335063D01*
X199015319Y-80350000D01*
X199079999Y-80355659D01*
X199080000Y-80355659D01*
X199080001Y-80355659D01*
X199144681Y-80350000D01*
X199315408Y-80335063D01*
X199543663Y-80273903D01*
X199757830Y-80174035D01*
X199951401Y-80038495D01*
X200118495Y-79871401D01*
X200248425Y-79685842D01*
X200303002Y-79642217D01*
X200372500Y-79635023D01*
X200434855Y-79666546D01*
X200451575Y-79685842D01*
X200581500Y-79871395D01*
X200581505Y-79871401D01*
X200748599Y-80038495D01*
X200825135Y-80092086D01*
X200942165Y-80174032D01*
X200942167Y-80174033D01*
X200942170Y-80174035D01*
X201156337Y-80273903D01*
X201384592Y-80335063D01*
X201555319Y-80350000D01*
X201619999Y-80355659D01*
X201620000Y-80355659D01*
X201620001Y-80355659D01*
X201684681Y-80350000D01*
X201855408Y-80335063D01*
X202083663Y-80273903D01*
X202297830Y-80174035D01*
X202491401Y-80038495D01*
X202658495Y-79871401D01*
X202794035Y-79677830D01*
X202893903Y-79463663D01*
X202955063Y-79235408D01*
X202975659Y-79000000D01*
X202955063Y-78764592D01*
X202893903Y-78536337D01*
X202794035Y-78322171D01*
X202788425Y-78314158D01*
X202658494Y-78128597D01*
X202491402Y-77961506D01*
X202491395Y-77961501D01*
X202297834Y-77825967D01*
X202297830Y-77825965D01*
X202226727Y-77792809D01*
X202083663Y-77726097D01*
X202083659Y-77726096D01*
X202083655Y-77726094D01*
X201855413Y-77664938D01*
X201855403Y-77664936D01*
X201620001Y-77644341D01*
X201619999Y-77644341D01*
X201384596Y-77664936D01*
X201384586Y-77664938D01*
X201156344Y-77726094D01*
X201156335Y-77726098D01*
X200942171Y-77825964D01*
X200942169Y-77825965D01*
X200748597Y-77961505D01*
X200581505Y-78128597D01*
X200451575Y-78314158D01*
X200396998Y-78357783D01*
X200327500Y-78364977D01*
X200265145Y-78333454D01*
X200248425Y-78314158D01*
X200118494Y-78128597D01*
X199951402Y-77961506D01*
X199951395Y-77961501D01*
X199757834Y-77825967D01*
X199757830Y-77825965D01*
X199686727Y-77792809D01*
X199543663Y-77726097D01*
X199543659Y-77726096D01*
X199543655Y-77726094D01*
X199315413Y-77664938D01*
X199315403Y-77664936D01*
X199080001Y-77644341D01*
X199079999Y-77644341D01*
X198844596Y-77664936D01*
X198844586Y-77664938D01*
X198616344Y-77726094D01*
X198616335Y-77726098D01*
X198402171Y-77825964D01*
X198402169Y-77825965D01*
X198208597Y-77961505D01*
X198041505Y-78128597D01*
X197911575Y-78314158D01*
X197856998Y-78357783D01*
X197787500Y-78364977D01*
X197725145Y-78333454D01*
X197708425Y-78314158D01*
X197578494Y-78128597D01*
X197411402Y-77961506D01*
X197411395Y-77961501D01*
X197217834Y-77825967D01*
X197217830Y-77825965D01*
X197146727Y-77792809D01*
X197003663Y-77726097D01*
X197003659Y-77726096D01*
X197003655Y-77726094D01*
X196775413Y-77664938D01*
X196775403Y-77664936D01*
X196540001Y-77644341D01*
X196539999Y-77644341D01*
X196304596Y-77664936D01*
X196304586Y-77664938D01*
X196076344Y-77726094D01*
X196076335Y-77726098D01*
X195862171Y-77825964D01*
X195862169Y-77825965D01*
X195668600Y-77961503D01*
X195546284Y-78083819D01*
X195484961Y-78117303D01*
X195415269Y-78112319D01*
X195359336Y-78070447D01*
X195342421Y-78039470D01*
X195293354Y-77907913D01*
X195293350Y-77907906D01*
X195207190Y-77792812D01*
X195207187Y-77792809D01*
X195092093Y-77706649D01*
X195092086Y-77706645D01*
X194957379Y-77656403D01*
X194957372Y-77656401D01*
X194897844Y-77650000D01*
X194250000Y-77650000D01*
X194250000Y-78566988D01*
X194192993Y-78534075D01*
X194065826Y-78500000D01*
X193934174Y-78500000D01*
X193807007Y-78534075D01*
X193750000Y-78566988D01*
X193750000Y-77650000D01*
X193102155Y-77650000D01*
X193042627Y-77656401D01*
X193042620Y-77656403D01*
X192907913Y-77706645D01*
X192907906Y-77706649D01*
X192792812Y-77792809D01*
X192792809Y-77792812D01*
X192706649Y-77907906D01*
X192706645Y-77907913D01*
X192656403Y-78042620D01*
X192656401Y-78042627D01*
X192650000Y-78102155D01*
X156750500Y-78102155D01*
X156750500Y-77249996D01*
X185694435Y-77249996D01*
X185694435Y-77250003D01*
X185714630Y-77429249D01*
X185714631Y-77429254D01*
X185774211Y-77599523D01*
X185853743Y-77726097D01*
X185870184Y-77752262D01*
X185997738Y-77879816D01*
X186042443Y-77907906D01*
X186127746Y-77961506D01*
X186150478Y-77975789D01*
X186320745Y-78035368D01*
X186320750Y-78035369D01*
X186499996Y-78055565D01*
X186500000Y-78055565D01*
X186500004Y-78055565D01*
X186679249Y-78035369D01*
X186679252Y-78035368D01*
X186679255Y-78035368D01*
X186849522Y-77975789D01*
X187002262Y-77879816D01*
X187129816Y-77752262D01*
X187225789Y-77599522D01*
X187285368Y-77429255D01*
X187285369Y-77429249D01*
X187305565Y-77250003D01*
X187305565Y-77249996D01*
X187285369Y-77070750D01*
X187285368Y-77070745D01*
X187225788Y-76900476D01*
X187135939Y-76757483D01*
X187129816Y-76747738D01*
X187002262Y-76620184D01*
X186849523Y-76524211D01*
X186780321Y-76499996D01*
X191694435Y-76499996D01*
X191694435Y-76500003D01*
X191714630Y-76679249D01*
X191714631Y-76679254D01*
X191774211Y-76849523D01*
X191870184Y-77002262D01*
X191997738Y-77129816D01*
X192150478Y-77225789D01*
X192219678Y-77250003D01*
X192320745Y-77285368D01*
X192320750Y-77285369D01*
X192499996Y-77305565D01*
X192500000Y-77305565D01*
X192500004Y-77305565D01*
X192679249Y-77285369D01*
X192679252Y-77285368D01*
X192679255Y-77285368D01*
X192849522Y-77225789D01*
X193002262Y-77129816D01*
X193129816Y-77002262D01*
X193225789Y-76849522D01*
X193285368Y-76679255D01*
X193305565Y-76500000D01*
X193299304Y-76444435D01*
X193285369Y-76320750D01*
X193285368Y-76320745D01*
X193259027Y-76245468D01*
X193225789Y-76150478D01*
X193129816Y-75997738D01*
X193002262Y-75870184D01*
X192993873Y-75864913D01*
X192849523Y-75774211D01*
X192679254Y-75714631D01*
X192679249Y-75714630D01*
X192500004Y-75694435D01*
X192499996Y-75694435D01*
X192320750Y-75714630D01*
X192320745Y-75714631D01*
X192150476Y-75774211D01*
X191997737Y-75870184D01*
X191870184Y-75997737D01*
X191774211Y-76150476D01*
X191714631Y-76320745D01*
X191714630Y-76320750D01*
X191694435Y-76499996D01*
X186780321Y-76499996D01*
X186679254Y-76464631D01*
X186679249Y-76464630D01*
X186500004Y-76444435D01*
X186499996Y-76444435D01*
X186320750Y-76464630D01*
X186320745Y-76464631D01*
X186150476Y-76524211D01*
X185997737Y-76620184D01*
X185870184Y-76747737D01*
X185774211Y-76900476D01*
X185714631Y-77070745D01*
X185714630Y-77070750D01*
X185694435Y-77249996D01*
X156750500Y-77249996D01*
X156750500Y-74939998D01*
X166944532Y-74939998D01*
X166944532Y-74940001D01*
X166964364Y-75166686D01*
X166964366Y-75166697D01*
X167023258Y-75386488D01*
X167023261Y-75386497D01*
X167119431Y-75592732D01*
X167119432Y-75592734D01*
X167249954Y-75779141D01*
X167410858Y-75940045D01*
X167410861Y-75940047D01*
X167597266Y-76070568D01*
X167803504Y-76166739D01*
X168023308Y-76225635D01*
X168185230Y-76239801D01*
X168249998Y-76245468D01*
X168250000Y-76245468D01*
X168250002Y-76245468D01*
X168306673Y-76240509D01*
X168476692Y-76225635D01*
X168696496Y-76166739D01*
X168902734Y-76070568D01*
X169089139Y-75940047D01*
X169250047Y-75779139D01*
X169380568Y-75592734D01*
X169476739Y-75386496D01*
X169535635Y-75166692D01*
X169555468Y-74940000D01*
X169535635Y-74713308D01*
X169476739Y-74493504D01*
X169380568Y-74287266D01*
X169250047Y-74100861D01*
X169250045Y-74100858D01*
X169089141Y-73939954D01*
X168902734Y-73809432D01*
X168902732Y-73809431D01*
X168696497Y-73713261D01*
X168696488Y-73713258D01*
X168476697Y-73654366D01*
X168476693Y-73654365D01*
X168476692Y-73654365D01*
X168476691Y-73654364D01*
X168476686Y-73654364D01*
X168250002Y-73634532D01*
X168249998Y-73634532D01*
X168023313Y-73654364D01*
X168023302Y-73654366D01*
X167803511Y-73713258D01*
X167803502Y-73713261D01*
X167597267Y-73809431D01*
X167597265Y-73809432D01*
X167410858Y-73939954D01*
X167249954Y-74100858D01*
X167119432Y-74287265D01*
X167119431Y-74287267D01*
X167023261Y-74493502D01*
X167023258Y-74493511D01*
X166964366Y-74713302D01*
X166964364Y-74713313D01*
X166944532Y-74939998D01*
X156750500Y-74939998D01*
X156750500Y-73209993D01*
X171844700Y-73209993D01*
X171844700Y-73210006D01*
X171863864Y-73441297D01*
X171863866Y-73441308D01*
X171920842Y-73666300D01*
X172014075Y-73878848D01*
X172141016Y-74073147D01*
X172141019Y-74073151D01*
X172141021Y-74073153D01*
X172235803Y-74176114D01*
X172266724Y-74238767D01*
X172258864Y-74308193D01*
X172214716Y-74362348D01*
X172187906Y-74376277D01*
X172107669Y-74406203D01*
X172107664Y-74406206D01*
X171992455Y-74492452D01*
X171992452Y-74492455D01*
X171906206Y-74607664D01*
X171906202Y-74607671D01*
X171855908Y-74742517D01*
X171849501Y-74802116D01*
X171849501Y-74802123D01*
X171849500Y-74802135D01*
X171849500Y-76697870D01*
X171849501Y-76697876D01*
X171855908Y-76757483D01*
X171906202Y-76892328D01*
X171906206Y-76892335D01*
X171992452Y-77007544D01*
X171992455Y-77007547D01*
X172107664Y-77093793D01*
X172107671Y-77093797D01*
X172242517Y-77144091D01*
X172242516Y-77144091D01*
X172249444Y-77144835D01*
X172302127Y-77150500D01*
X174197872Y-77150499D01*
X174257483Y-77144091D01*
X174392331Y-77093796D01*
X174507546Y-77007546D01*
X174593796Y-76892331D01*
X174644091Y-76757483D01*
X174650500Y-76697873D01*
X174650499Y-75549996D01*
X179564410Y-75549996D01*
X179564410Y-75550003D01*
X179584605Y-75729249D01*
X179584606Y-75729254D01*
X179644186Y-75899523D01*
X179705899Y-75997738D01*
X179740159Y-76052262D01*
X179867713Y-76179816D01*
X180020453Y-76275789D01*
X180148930Y-76320745D01*
X180190720Y-76335368D01*
X180190725Y-76335369D01*
X180369971Y-76355565D01*
X180369975Y-76355565D01*
X180369979Y-76355565D01*
X180549224Y-76335369D01*
X180549227Y-76335368D01*
X180549230Y-76335368D01*
X180719497Y-76275789D01*
X180872237Y-76179816D01*
X180999791Y-76052262D01*
X181081540Y-75922159D01*
X181133872Y-75875870D01*
X181200416Y-75864913D01*
X181226907Y-75867897D01*
X181255288Y-75871096D01*
X181255289Y-75871096D01*
X181255292Y-75871096D01*
X181434538Y-75850900D01*
X181434541Y-75850899D01*
X181434544Y-75850899D01*
X181604811Y-75791320D01*
X181757551Y-75695347D01*
X181885105Y-75567793D01*
X181981078Y-75415053D01*
X182040657Y-75244786D01*
X182040658Y-75244780D01*
X182060854Y-75065534D01*
X182060854Y-75065527D01*
X182040658Y-74886281D01*
X182040657Y-74886276D01*
X182021187Y-74830633D01*
X181981078Y-74716009D01*
X181975760Y-74707546D01*
X181941871Y-74653611D01*
X181885105Y-74563269D01*
X181757551Y-74435715D01*
X181710583Y-74406203D01*
X181604812Y-74339742D01*
X181434543Y-74280162D01*
X181434538Y-74280161D01*
X181255293Y-74259966D01*
X181255285Y-74259966D01*
X181076039Y-74280161D01*
X181076034Y-74280162D01*
X180905765Y-74339742D01*
X180753026Y-74435715D01*
X180625471Y-74563270D01*
X180543724Y-74693370D01*
X180491390Y-74739660D01*
X180424848Y-74750617D01*
X180369979Y-74744435D01*
X180369971Y-74744435D01*
X180190725Y-74764630D01*
X180190720Y-74764631D01*
X180020451Y-74824211D01*
X179867712Y-74920184D01*
X179740159Y-75047737D01*
X179644186Y-75200476D01*
X179584606Y-75370745D01*
X179584605Y-75370750D01*
X179564410Y-75549996D01*
X174650499Y-75549996D01*
X174650499Y-74802128D01*
X174644091Y-74742517D01*
X174643025Y-74739660D01*
X174593797Y-74607671D01*
X174593793Y-74607664D01*
X174507547Y-74492455D01*
X174507544Y-74492452D01*
X174392335Y-74406206D01*
X174392328Y-74406202D01*
X174312094Y-74376277D01*
X174256160Y-74334406D01*
X174231743Y-74268941D01*
X174246595Y-74200668D01*
X174264190Y-74176121D01*
X174358979Y-74073153D01*
X174485924Y-73878849D01*
X174579157Y-73666300D01*
X174621271Y-73499999D01*
X185854341Y-73499999D01*
X185854341Y-73500000D01*
X185874936Y-73735403D01*
X185874938Y-73735413D01*
X185936094Y-73963655D01*
X185936096Y-73963659D01*
X185936097Y-73963663D01*
X186016004Y-74135023D01*
X186035965Y-74177830D01*
X186035967Y-74177834D01*
X186127246Y-74308193D01*
X186171505Y-74371401D01*
X186338599Y-74538495D01*
X186435384Y-74606265D01*
X186532165Y-74674032D01*
X186532167Y-74674033D01*
X186532170Y-74674035D01*
X186746337Y-74773903D01*
X186974592Y-74835063D01*
X187151034Y-74850500D01*
X187209999Y-74855659D01*
X187210000Y-74855659D01*
X187210001Y-74855659D01*
X187268966Y-74850500D01*
X187445408Y-74835063D01*
X187673663Y-74773903D01*
X187887830Y-74674035D01*
X188081401Y-74538495D01*
X188248495Y-74371401D01*
X188378425Y-74185842D01*
X188433002Y-74142217D01*
X188502500Y-74135023D01*
X188564855Y-74166546D01*
X188581575Y-74185842D01*
X188711500Y-74371395D01*
X188711505Y-74371401D01*
X188878599Y-74538495D01*
X188975384Y-74606265D01*
X189072165Y-74674032D01*
X189072167Y-74674033D01*
X189072170Y-74674035D01*
X189286337Y-74773903D01*
X189514592Y-74835063D01*
X189691034Y-74850500D01*
X189749999Y-74855659D01*
X189750000Y-74855659D01*
X189750001Y-74855659D01*
X189808966Y-74850500D01*
X189985408Y-74835063D01*
X190213663Y-74773903D01*
X190427830Y-74674035D01*
X190621401Y-74538495D01*
X190788495Y-74371401D01*
X190918730Y-74185405D01*
X190973307Y-74141781D01*
X191042805Y-74134587D01*
X191105160Y-74166110D01*
X191121879Y-74185405D01*
X191251890Y-74371078D01*
X191418917Y-74538105D01*
X191612421Y-74673600D01*
X191826507Y-74773429D01*
X191826516Y-74773433D01*
X192040000Y-74830634D01*
X192040000Y-73933012D01*
X192097007Y-73965925D01*
X192224174Y-74000000D01*
X192355826Y-74000000D01*
X192482993Y-73965925D01*
X192540000Y-73933012D01*
X192540000Y-74830633D01*
X192753483Y-74773433D01*
X192753492Y-74773429D01*
X192967578Y-74673600D01*
X193161078Y-74538108D01*
X193283133Y-74416053D01*
X193344456Y-74382568D01*
X193414148Y-74387552D01*
X193470082Y-74429423D01*
X193486997Y-74460401D01*
X193536202Y-74592328D01*
X193536206Y-74592335D01*
X193622452Y-74707544D01*
X193622455Y-74707547D01*
X193737664Y-74793793D01*
X193737671Y-74793797D01*
X193872517Y-74844091D01*
X193872516Y-74844091D01*
X193879444Y-74844835D01*
X193932127Y-74850500D01*
X195727872Y-74850499D01*
X195787483Y-74844091D01*
X195922331Y-74793796D01*
X196037546Y-74707546D01*
X196123796Y-74592331D01*
X196174091Y-74457483D01*
X196180500Y-74397873D01*
X196180499Y-72602128D01*
X196174091Y-72542517D01*
X196173002Y-72539598D01*
X196123797Y-72407671D01*
X196123793Y-72407664D01*
X196037547Y-72292455D01*
X196037544Y-72292452D01*
X195922335Y-72206206D01*
X195922328Y-72206202D01*
X195787482Y-72155908D01*
X195787483Y-72155908D01*
X195727883Y-72149501D01*
X195727881Y-72149500D01*
X195727873Y-72149500D01*
X195727864Y-72149500D01*
X193932129Y-72149500D01*
X193932123Y-72149501D01*
X193872516Y-72155908D01*
X193737671Y-72206202D01*
X193737664Y-72206206D01*
X193622455Y-72292452D01*
X193622452Y-72292455D01*
X193536206Y-72407664D01*
X193536202Y-72407671D01*
X193486997Y-72539598D01*
X193445126Y-72595532D01*
X193379661Y-72619949D01*
X193311388Y-72605097D01*
X193283134Y-72583946D01*
X193161082Y-72461894D01*
X192967578Y-72326399D01*
X192753492Y-72226570D01*
X192753486Y-72226567D01*
X192540000Y-72169364D01*
X192540000Y-73066988D01*
X192482993Y-73034075D01*
X192355826Y-73000000D01*
X192224174Y-73000000D01*
X192097007Y-73034075D01*
X192040000Y-73066988D01*
X192040000Y-72169364D01*
X192039999Y-72169364D01*
X191826513Y-72226567D01*
X191826507Y-72226570D01*
X191612422Y-72326399D01*
X191612420Y-72326400D01*
X191418926Y-72461886D01*
X191418920Y-72461891D01*
X191251891Y-72628920D01*
X191251890Y-72628922D01*
X191121880Y-72814595D01*
X191067303Y-72858219D01*
X190997804Y-72865412D01*
X190935450Y-72833890D01*
X190918730Y-72814594D01*
X190788494Y-72628597D01*
X190621402Y-72461506D01*
X190621395Y-72461501D01*
X190427834Y-72325967D01*
X190427830Y-72325965D01*
X190383874Y-72305468D01*
X190213663Y-72226097D01*
X190213659Y-72226096D01*
X190213655Y-72226094D01*
X189985413Y-72164938D01*
X189985403Y-72164936D01*
X189750001Y-72144341D01*
X189749999Y-72144341D01*
X189514596Y-72164936D01*
X189514586Y-72164938D01*
X189286344Y-72226094D01*
X189286337Y-72226096D01*
X189286337Y-72226097D01*
X189284960Y-72226739D01*
X189072171Y-72325964D01*
X189072169Y-72325965D01*
X188878597Y-72461505D01*
X188711505Y-72628597D01*
X188581575Y-72814158D01*
X188526998Y-72857783D01*
X188457500Y-72864977D01*
X188395145Y-72833454D01*
X188378425Y-72814158D01*
X188248494Y-72628597D01*
X188081402Y-72461506D01*
X188081395Y-72461501D01*
X187887834Y-72325967D01*
X187887830Y-72325965D01*
X187843874Y-72305468D01*
X187673663Y-72226097D01*
X187673659Y-72226096D01*
X187673655Y-72226094D01*
X187445413Y-72164938D01*
X187445403Y-72164936D01*
X187210001Y-72144341D01*
X187209999Y-72144341D01*
X186974596Y-72164936D01*
X186974586Y-72164938D01*
X186746344Y-72226094D01*
X186746337Y-72226096D01*
X186746337Y-72226097D01*
X186744960Y-72226739D01*
X186532171Y-72325964D01*
X186532169Y-72325965D01*
X186338597Y-72461505D01*
X186171505Y-72628597D01*
X186035965Y-72822169D01*
X186035964Y-72822171D01*
X185936098Y-73036335D01*
X185936094Y-73036344D01*
X185874938Y-73264586D01*
X185874936Y-73264596D01*
X185854341Y-73499999D01*
X174621271Y-73499999D01*
X174636134Y-73441305D01*
X174647262Y-73307007D01*
X174655300Y-73210006D01*
X174655300Y-73209993D01*
X174636135Y-72978702D01*
X174636133Y-72978691D01*
X174579157Y-72753699D01*
X174485924Y-72541151D01*
X174358983Y-72346852D01*
X174358980Y-72346849D01*
X174358979Y-72346847D01*
X174201784Y-72176087D01*
X174201779Y-72176083D01*
X174201777Y-72176081D01*
X174018634Y-72033535D01*
X174018628Y-72033531D01*
X173814504Y-71923064D01*
X173814495Y-71923061D01*
X173594984Y-71847702D01*
X173423282Y-71819050D01*
X173366049Y-71809500D01*
X173133951Y-71809500D01*
X173088164Y-71817140D01*
X172905015Y-71847702D01*
X172685504Y-71923061D01*
X172685495Y-71923064D01*
X172481371Y-72033531D01*
X172481365Y-72033535D01*
X172298222Y-72176081D01*
X172298219Y-72176084D01*
X172298216Y-72176086D01*
X172298216Y-72176087D01*
X172270490Y-72206206D01*
X172141016Y-72346852D01*
X172014075Y-72541151D01*
X171920842Y-72753699D01*
X171863866Y-72978691D01*
X171863864Y-72978702D01*
X171844700Y-73209993D01*
X156750500Y-73209993D01*
X156750500Y-71709234D01*
X156770185Y-71642195D01*
X156822989Y-71596440D01*
X156892147Y-71586496D01*
X156955703Y-71615521D01*
X156978495Y-71641699D01*
X157002122Y-71678082D01*
X157132544Y-71839139D01*
X157246219Y-71979516D01*
X157520484Y-72253781D01*
X157584312Y-72305468D01*
X157821917Y-72497877D01*
X158023706Y-72628920D01*
X158147211Y-72709125D01*
X158492806Y-72885214D01*
X158854913Y-73024214D01*
X159229567Y-73124602D01*
X159612662Y-73185278D01*
X159978576Y-73204455D01*
X159999999Y-73205578D01*
X160000000Y-73205578D01*
X160000001Y-73205578D01*
X160020301Y-73204514D01*
X160387338Y-73185278D01*
X160770433Y-73124602D01*
X161145087Y-73024214D01*
X161507194Y-72885214D01*
X161852789Y-72709125D01*
X162178084Y-72497876D01*
X162479516Y-72253781D01*
X162753781Y-71979516D01*
X162997876Y-71678084D01*
X163209125Y-71352789D01*
X163385214Y-71007194D01*
X163387976Y-70999998D01*
X165694532Y-70999998D01*
X165694532Y-71000001D01*
X165714364Y-71226686D01*
X165714366Y-71226697D01*
X165773258Y-71446488D01*
X165773261Y-71446497D01*
X165869431Y-71652732D01*
X165869432Y-71652734D01*
X165999954Y-71839141D01*
X166160858Y-72000045D01*
X166160861Y-72000047D01*
X166347266Y-72130568D01*
X166553504Y-72226739D01*
X166773308Y-72285635D01*
X166935230Y-72299801D01*
X166999998Y-72305468D01*
X167000000Y-72305468D01*
X167000002Y-72305468D01*
X167056673Y-72300509D01*
X167226692Y-72285635D01*
X167446496Y-72226739D01*
X167652734Y-72130568D01*
X167839139Y-72000047D01*
X168000047Y-71839139D01*
X168130568Y-71652734D01*
X168226739Y-71446496D01*
X168285635Y-71226692D01*
X168305468Y-71000000D01*
X168285635Y-70773308D01*
X168226739Y-70553504D01*
X168130568Y-70347266D01*
X168000047Y-70160861D01*
X168000045Y-70160858D01*
X167839141Y-69999954D01*
X167652734Y-69869432D01*
X167652730Y-69869430D01*
X167637022Y-69862105D01*
X167584583Y-69815931D01*
X167565433Y-69748737D01*
X167585650Y-69681857D01*
X167637028Y-69637340D01*
X167652481Y-69630134D01*
X167725471Y-69579024D01*
X167046447Y-68900000D01*
X167052661Y-68900000D01*
X167154394Y-68872741D01*
X167245606Y-68820080D01*
X167320080Y-68745606D01*
X167372741Y-68654394D01*
X167400000Y-68552661D01*
X167400000Y-68546447D01*
X168079024Y-69225471D01*
X168130136Y-69152478D01*
X168226264Y-68946331D01*
X168226269Y-68946317D01*
X168251499Y-68852155D01*
X183320000Y-68852155D01*
X183320000Y-69500000D01*
X184236988Y-69500000D01*
X184204075Y-69557007D01*
X184170000Y-69684174D01*
X184170000Y-69815826D01*
X184204075Y-69942993D01*
X184236988Y-70000000D01*
X183320000Y-70000000D01*
X183320000Y-70647844D01*
X183326401Y-70707372D01*
X183326403Y-70707379D01*
X183376645Y-70842086D01*
X183376649Y-70842093D01*
X183462809Y-70957187D01*
X183462812Y-70957190D01*
X183577906Y-71043350D01*
X183577913Y-71043354D01*
X183712620Y-71093596D01*
X183712627Y-71093598D01*
X183772155Y-71099999D01*
X183772172Y-71100000D01*
X184420000Y-71100000D01*
X184420000Y-70183012D01*
X184477007Y-70215925D01*
X184604174Y-70250000D01*
X184735826Y-70250000D01*
X184862993Y-70215925D01*
X184920000Y-70183012D01*
X184920000Y-71100000D01*
X185567828Y-71100000D01*
X185567844Y-71099999D01*
X185627372Y-71093598D01*
X185627379Y-71093596D01*
X185762086Y-71043354D01*
X185762093Y-71043350D01*
X185877187Y-70957190D01*
X185877190Y-70957187D01*
X185963350Y-70842093D01*
X185963354Y-70842086D01*
X186012422Y-70710529D01*
X186054293Y-70654595D01*
X186119757Y-70630178D01*
X186188030Y-70645030D01*
X186216285Y-70666181D01*
X186338599Y-70788495D01*
X186415135Y-70842086D01*
X186532165Y-70924032D01*
X186532167Y-70924033D01*
X186532170Y-70924035D01*
X186746337Y-71023903D01*
X186974592Y-71085063D01*
X187145319Y-71100000D01*
X187209999Y-71105659D01*
X187210000Y-71105659D01*
X187210001Y-71105659D01*
X187274681Y-71100000D01*
X187445408Y-71085063D01*
X187673663Y-71023903D01*
X187887830Y-70924035D01*
X188081401Y-70788495D01*
X188248495Y-70621401D01*
X188378425Y-70435842D01*
X188433002Y-70392217D01*
X188502500Y-70385023D01*
X188564855Y-70416546D01*
X188581575Y-70435842D01*
X188711500Y-70621395D01*
X188711505Y-70621401D01*
X188878599Y-70788495D01*
X188955135Y-70842086D01*
X189072165Y-70924032D01*
X189072167Y-70924033D01*
X189072170Y-70924035D01*
X189286337Y-71023903D01*
X189514592Y-71085063D01*
X189685319Y-71100000D01*
X189749999Y-71105659D01*
X189750000Y-71105659D01*
X189750001Y-71105659D01*
X189814681Y-71100000D01*
X189985408Y-71085063D01*
X190213663Y-71023903D01*
X190427830Y-70924035D01*
X190621401Y-70788495D01*
X190788495Y-70621401D01*
X190918425Y-70435842D01*
X190973002Y-70392217D01*
X191042500Y-70385023D01*
X191104855Y-70416546D01*
X191121575Y-70435842D01*
X191251500Y-70621395D01*
X191251505Y-70621401D01*
X191418599Y-70788495D01*
X191495135Y-70842086D01*
X191612165Y-70924032D01*
X191612167Y-70924033D01*
X191612170Y-70924035D01*
X191826337Y-71023903D01*
X192054592Y-71085063D01*
X192225319Y-71100000D01*
X192289999Y-71105659D01*
X192290000Y-71105659D01*
X192290001Y-71105659D01*
X192354681Y-71100000D01*
X192525408Y-71085063D01*
X192753663Y-71023903D01*
X192967830Y-70924035D01*
X193161401Y-70788495D01*
X193328495Y-70621401D01*
X193464035Y-70427830D01*
X193563903Y-70213663D01*
X193625063Y-69985408D01*
X193645659Y-69750000D01*
X193645548Y-69748737D01*
X193625063Y-69514596D01*
X193625063Y-69514592D01*
X193563903Y-69286337D01*
X193464035Y-69072171D01*
X193458425Y-69064158D01*
X193328494Y-68878597D01*
X193161402Y-68711506D01*
X193161395Y-68711501D01*
X193152653Y-68705380D01*
X193079838Y-68654394D01*
X192967834Y-68575967D01*
X192967830Y-68575965D01*
X192965756Y-68574998D01*
X192753663Y-68476097D01*
X192753659Y-68476096D01*
X192753655Y-68476094D01*
X192525413Y-68414938D01*
X192525403Y-68414936D01*
X192290001Y-68394341D01*
X192289999Y-68394341D01*
X192054596Y-68414936D01*
X192054586Y-68414938D01*
X191826344Y-68476094D01*
X191826335Y-68476098D01*
X191612171Y-68575964D01*
X191612169Y-68575965D01*
X191418597Y-68711505D01*
X191251505Y-68878597D01*
X191121575Y-69064158D01*
X191066998Y-69107783D01*
X190997500Y-69114977D01*
X190935145Y-69083454D01*
X190918425Y-69064158D01*
X190788494Y-68878597D01*
X190621402Y-68711506D01*
X190621395Y-68711501D01*
X190612653Y-68705380D01*
X190539838Y-68654394D01*
X190427834Y-68575967D01*
X190427830Y-68575965D01*
X190425756Y-68574998D01*
X190213663Y-68476097D01*
X190213659Y-68476096D01*
X190213655Y-68476094D01*
X189985413Y-68414938D01*
X189985403Y-68414936D01*
X189750001Y-68394341D01*
X189749999Y-68394341D01*
X189514596Y-68414936D01*
X189514586Y-68414938D01*
X189286344Y-68476094D01*
X189286335Y-68476098D01*
X189072171Y-68575964D01*
X189072169Y-68575965D01*
X188878600Y-68711503D01*
X188805886Y-68784217D01*
X188744562Y-68817701D01*
X188674871Y-68812716D01*
X188618937Y-68770845D01*
X188594521Y-68705380D01*
X188594985Y-68682651D01*
X188597773Y-68657913D01*
X188610742Y-68542809D01*
X188615565Y-68500002D01*
X188615565Y-68499996D01*
X188595369Y-68320750D01*
X188595368Y-68320745D01*
X188572151Y-68254394D01*
X188535789Y-68150478D01*
X188439816Y-67997738D01*
X188312262Y-67870184D01*
X188276186Y-67847516D01*
X188159523Y-67774211D01*
X187989254Y-67714631D01*
X187989249Y-67714630D01*
X187810004Y-67694435D01*
X187809996Y-67694435D01*
X187630750Y-67714630D01*
X187630745Y-67714631D01*
X187460476Y-67774211D01*
X187307737Y-67870184D01*
X187298609Y-67879313D01*
X187237286Y-67912798D01*
X187167594Y-67907814D01*
X187123247Y-67879313D01*
X187112262Y-67868328D01*
X186959523Y-67772355D01*
X186789254Y-67712775D01*
X186789249Y-67712774D01*
X186610004Y-67692579D01*
X186609996Y-67692579D01*
X186430750Y-67712774D01*
X186430745Y-67712775D01*
X186260476Y-67772355D01*
X186107737Y-67868328D01*
X185980184Y-67995881D01*
X185884210Y-68148622D01*
X185824629Y-68318897D01*
X185823080Y-68325685D01*
X185820996Y-68325209D01*
X185797907Y-68380124D01*
X185740303Y-68419666D01*
X185670465Y-68421788D01*
X185658438Y-68417987D01*
X185627380Y-68406403D01*
X185627372Y-68406401D01*
X185567844Y-68400000D01*
X184920000Y-68400000D01*
X184920000Y-69316988D01*
X184862993Y-69284075D01*
X184735826Y-69250000D01*
X184604174Y-69250000D01*
X184477007Y-69284075D01*
X184420000Y-69316988D01*
X184420000Y-68400000D01*
X183772155Y-68400000D01*
X183712627Y-68406401D01*
X183712620Y-68406403D01*
X183577913Y-68456645D01*
X183577906Y-68456649D01*
X183462812Y-68542809D01*
X183462809Y-68542812D01*
X183376649Y-68657906D01*
X183376645Y-68657913D01*
X183326403Y-68792620D01*
X183326401Y-68792627D01*
X183320000Y-68852155D01*
X168251499Y-68852155D01*
X168285139Y-68726610D01*
X168285141Y-68726599D01*
X168304966Y-68500002D01*
X168304966Y-68499997D01*
X168285141Y-68273400D01*
X168285139Y-68273389D01*
X168226269Y-68053682D01*
X168226264Y-68053668D01*
X168130136Y-67847521D01*
X168130132Y-67847513D01*
X168085408Y-67783641D01*
X172929580Y-67783641D01*
X172929580Y-67925556D01*
X172957262Y-68064724D01*
X172957264Y-68064732D01*
X173011568Y-68195832D01*
X173011573Y-68195842D01*
X173090407Y-68313825D01*
X173090411Y-68313830D01*
X173190748Y-68414167D01*
X173190752Y-68414170D01*
X173308736Y-68493005D01*
X173308740Y-68493007D01*
X173308743Y-68493009D01*
X173439847Y-68547315D01*
X173579022Y-68574998D01*
X173579026Y-68574999D01*
X173579027Y-68574999D01*
X173720934Y-68574999D01*
X173720935Y-68574998D01*
X173860113Y-68547315D01*
X173991217Y-68493009D01*
X174109208Y-68414170D01*
X174209551Y-68313827D01*
X174209553Y-68313825D01*
X174288386Y-68195842D01*
X174288386Y-68195841D01*
X174288390Y-68195836D01*
X174342696Y-68064732D01*
X174370380Y-67925552D01*
X174370380Y-67783646D01*
X174370379Y-67783641D01*
X175929580Y-67783641D01*
X175929580Y-67925556D01*
X175957262Y-68064724D01*
X175957264Y-68064732D01*
X176011568Y-68195832D01*
X176011573Y-68195842D01*
X176090407Y-68313825D01*
X176090411Y-68313830D01*
X176190748Y-68414167D01*
X176190752Y-68414170D01*
X176308736Y-68493005D01*
X176308740Y-68493007D01*
X176308743Y-68493009D01*
X176439847Y-68547315D01*
X176579022Y-68574998D01*
X176579026Y-68574999D01*
X176579027Y-68574999D01*
X176720934Y-68574999D01*
X176720935Y-68574998D01*
X176860113Y-68547315D01*
X176991217Y-68493009D01*
X177109208Y-68414170D01*
X177209551Y-68313827D01*
X177209553Y-68313825D01*
X177288386Y-68195842D01*
X177288386Y-68195841D01*
X177288390Y-68195836D01*
X177342696Y-68064732D01*
X177370380Y-67925552D01*
X177370380Y-67783646D01*
X177342696Y-67644466D01*
X177288390Y-67513362D01*
X177288388Y-67513359D01*
X177288386Y-67513355D01*
X177209551Y-67395371D01*
X177209548Y-67395367D01*
X177109211Y-67295030D01*
X177109207Y-67295027D01*
X176991223Y-67216192D01*
X176991213Y-67216187D01*
X176860113Y-67161883D01*
X176860105Y-67161881D01*
X176720937Y-67134199D01*
X176720933Y-67134199D01*
X176579027Y-67134199D01*
X176579022Y-67134199D01*
X176439854Y-67161881D01*
X176439846Y-67161883D01*
X176308746Y-67216187D01*
X176308736Y-67216192D01*
X176190752Y-67295027D01*
X176190748Y-67295030D01*
X176090411Y-67395367D01*
X176090408Y-67395371D01*
X176011573Y-67513355D01*
X176011568Y-67513365D01*
X175957264Y-67644465D01*
X175957262Y-67644473D01*
X175929580Y-67783641D01*
X174370379Y-67783641D01*
X174342696Y-67644466D01*
X174288390Y-67513362D01*
X174288388Y-67513359D01*
X174288386Y-67513355D01*
X174209551Y-67395371D01*
X174209548Y-67395367D01*
X174109211Y-67295030D01*
X174109207Y-67295027D01*
X173991223Y-67216192D01*
X173991213Y-67216187D01*
X173860113Y-67161883D01*
X173860105Y-67161881D01*
X173720937Y-67134199D01*
X173720933Y-67134199D01*
X173579027Y-67134199D01*
X173579022Y-67134199D01*
X173439854Y-67161881D01*
X173439846Y-67161883D01*
X173308746Y-67216187D01*
X173308736Y-67216192D01*
X173190752Y-67295027D01*
X173190748Y-67295030D01*
X173090411Y-67395367D01*
X173090408Y-67395371D01*
X173011573Y-67513355D01*
X173011568Y-67513365D01*
X172957264Y-67644465D01*
X172957262Y-67644473D01*
X172929580Y-67783641D01*
X168085408Y-67783641D01*
X168079025Y-67774526D01*
X167400000Y-68453551D01*
X167400000Y-68447339D01*
X167372741Y-68345606D01*
X167320080Y-68254394D01*
X167245606Y-68179920D01*
X167154394Y-68127259D01*
X167052661Y-68100000D01*
X167046445Y-68100000D01*
X167725472Y-67420974D01*
X167652478Y-67369863D01*
X167446331Y-67273735D01*
X167446317Y-67273730D01*
X167226610Y-67214860D01*
X167226599Y-67214858D01*
X167000002Y-67195034D01*
X166999998Y-67195034D01*
X166773400Y-67214858D01*
X166773389Y-67214860D01*
X166553682Y-67273730D01*
X166553673Y-67273734D01*
X166347516Y-67369866D01*
X166347512Y-67369868D01*
X166274526Y-67420973D01*
X166274526Y-67420974D01*
X166953553Y-68100000D01*
X166947339Y-68100000D01*
X166845606Y-68127259D01*
X166754394Y-68179920D01*
X166679920Y-68254394D01*
X166627259Y-68345606D01*
X166600000Y-68447339D01*
X166600000Y-68453552D01*
X165920974Y-67774526D01*
X165920973Y-67774526D01*
X165869868Y-67847512D01*
X165869866Y-67847516D01*
X165773734Y-68053673D01*
X165773730Y-68053682D01*
X165714860Y-68273389D01*
X165714858Y-68273400D01*
X165695034Y-68499997D01*
X165695034Y-68500002D01*
X165714858Y-68726599D01*
X165714860Y-68726610D01*
X165773730Y-68946317D01*
X165773735Y-68946331D01*
X165869863Y-69152478D01*
X165920974Y-69225472D01*
X166600000Y-68546446D01*
X166600000Y-68552661D01*
X166627259Y-68654394D01*
X166679920Y-68745606D01*
X166754394Y-68820080D01*
X166845606Y-68872741D01*
X166947339Y-68900000D01*
X166953553Y-68900000D01*
X166274526Y-69579025D01*
X166347513Y-69630132D01*
X166347515Y-69630133D01*
X166362973Y-69637341D01*
X166415413Y-69683513D01*
X166434566Y-69750706D01*
X166414351Y-69817587D01*
X166362979Y-69862104D01*
X166347270Y-69869429D01*
X166347265Y-69869432D01*
X166160858Y-69999954D01*
X165999954Y-70160858D01*
X165869432Y-70347265D01*
X165869431Y-70347267D01*
X165773261Y-70553502D01*
X165773258Y-70553511D01*
X165714366Y-70773302D01*
X165714364Y-70773313D01*
X165694532Y-70999998D01*
X163387976Y-70999998D01*
X163524214Y-70645087D01*
X163624602Y-70270433D01*
X163685278Y-69887338D01*
X163705578Y-69500000D01*
X163685278Y-69112662D01*
X163624602Y-68729567D01*
X163524214Y-68354913D01*
X163385214Y-67992806D01*
X163209125Y-67647211D01*
X163207347Y-67644473D01*
X162997877Y-67321917D01*
X162753784Y-67020488D01*
X162753781Y-67020484D01*
X162479516Y-66746219D01*
X162178084Y-66502124D01*
X162178082Y-66502122D01*
X162141699Y-66478495D01*
X162096196Y-66425474D01*
X162086582Y-66356269D01*
X162115909Y-66292852D01*
X162174866Y-66255358D01*
X162209234Y-66250500D01*
X197790766Y-66250500D01*
X197857805Y-66270185D01*
G37*
%TD.AperFunction*%
%TD*%
M02*
