%TF.GenerationSoftware,KiCad,Pcbnew,8.0.7*%
%TF.CreationDate,2025-07-22T02:57:33-04:00*%
%TF.ProjectId,Drone Motherboared,44726f6e-6520-44d6-9f74-686572626f61,rev?*%
%TF.SameCoordinates,Original*%
%TF.FileFunction,Legend,Top*%
%TF.FilePolarity,Positive*%
%FSLAX46Y46*%
G04 Gerber Fmt 4.6, Leading zero omitted, Abs format (unit mm)*
G04 Created by KiCad (PCBNEW 8.0.7) date 2025-07-22 02:57:33*
%MOMM*%
%LPD*%
G01*
G04 APERTURE LIST*
%ADD10C,0.100000*%
%ADD11C,0.125000*%
%ADD12C,0.200000*%
%ADD13C,0.250000*%
%ADD14C,0.150000*%
%ADD15C,0.120000*%
%ADD16C,0.152400*%
G04 APERTURE END LIST*
D10*
G36*
X158801012Y-93171862D02*
G01*
X158865035Y-93203874D01*
X158927144Y-93265982D01*
X158958940Y-93361370D01*
X158958940Y-93493734D01*
X158258940Y-93493734D01*
X158258940Y-93361370D01*
X158290736Y-93265980D01*
X158352842Y-93203874D01*
X158416866Y-93171863D01*
X158557952Y-93136591D01*
X158659928Y-93136591D01*
X158801012Y-93171862D01*
G37*
G36*
X159810134Y-93165779D02*
G01*
X159836754Y-93192400D01*
X159865942Y-93250775D01*
X159865942Y-93493734D01*
X159546895Y-93493734D01*
X159546895Y-93250775D01*
X159576082Y-93192399D01*
X159602703Y-93165779D01*
X159661079Y-93136591D01*
X159751758Y-93136591D01*
X159810134Y-93165779D01*
G37*
G36*
X158681283Y-92731830D02*
G01*
X158601695Y-92731830D01*
X158550970Y-92706466D01*
X158525606Y-92655740D01*
X158525606Y-92526966D01*
X158550969Y-92476239D01*
X158601695Y-92450877D01*
X158625093Y-92450877D01*
X158681283Y-92731830D01*
G37*
G36*
X160246895Y-92488870D02*
G01*
X160246895Y-92655741D01*
X160221532Y-92706466D01*
X160170806Y-92731830D01*
X160118222Y-92731830D01*
X160067495Y-92706466D01*
X160042133Y-92655741D01*
X160042133Y-92477068D01*
X160041644Y-92474611D01*
X160042007Y-92473524D01*
X160039890Y-92465794D01*
X160038327Y-92457934D01*
X160037516Y-92457123D01*
X160036855Y-92454708D01*
X160034939Y-92450877D01*
X160227899Y-92450877D01*
X160246895Y-92488870D01*
G37*
G36*
X158958940Y-90774585D02*
G01*
X158958940Y-90903361D01*
X158929753Y-90961734D01*
X158903131Y-90988356D01*
X158844756Y-91017545D01*
X158639790Y-91017545D01*
X158581415Y-90988357D01*
X158554795Y-90961737D01*
X158525606Y-90903360D01*
X158525606Y-90774586D01*
X158544603Y-90736592D01*
X158939944Y-90736592D01*
X158958940Y-90774585D01*
G37*
G36*
X158681283Y-89569925D02*
G01*
X158601695Y-89569925D01*
X158550970Y-89544561D01*
X158525606Y-89493835D01*
X158525606Y-89365061D01*
X158550969Y-89314334D01*
X158601695Y-89288972D01*
X158625093Y-89288972D01*
X158681283Y-89569925D01*
G37*
G36*
X160246895Y-89212678D02*
G01*
X160246895Y-89379549D01*
X160221532Y-89430274D01*
X160170806Y-89455638D01*
X160118222Y-89455638D01*
X160067495Y-89430274D01*
X160042133Y-89379549D01*
X160042133Y-89200876D01*
X160041644Y-89198419D01*
X160042007Y-89197332D01*
X160039890Y-89189602D01*
X160038327Y-89181742D01*
X160037516Y-89180931D01*
X160036855Y-89178516D01*
X160034939Y-89174685D01*
X160227899Y-89174685D01*
X160246895Y-89212678D01*
G37*
G36*
X158958940Y-88641251D02*
G01*
X158958940Y-88770027D01*
X158929753Y-88828400D01*
X158903131Y-88855022D01*
X158844756Y-88884211D01*
X158639790Y-88884211D01*
X158581415Y-88855023D01*
X158554795Y-88828403D01*
X158525606Y-88770026D01*
X158525606Y-88641252D01*
X158544603Y-88603258D01*
X158939944Y-88603258D01*
X158958940Y-88641251D01*
G37*
G36*
X160191085Y-88441967D02*
G01*
X160217708Y-88468590D01*
X160246895Y-88526963D01*
X160246895Y-88655739D01*
X160227899Y-88693732D01*
X159832558Y-88693732D01*
X159813561Y-88655738D01*
X159813561Y-88526964D01*
X159842749Y-88468587D01*
X159869370Y-88441967D01*
X159927745Y-88412780D01*
X160132711Y-88412780D01*
X160191085Y-88441967D01*
G37*
G36*
X159969238Y-88008018D02*
G01*
X159889650Y-88008018D01*
X159838925Y-87982654D01*
X159813561Y-87931928D01*
X159813561Y-87803154D01*
X159838924Y-87752427D01*
X159889650Y-87727065D01*
X159913048Y-87727065D01*
X159969238Y-88008018D01*
G37*
G36*
X158903130Y-87261016D02*
G01*
X158929753Y-87287639D01*
X158958940Y-87346012D01*
X158958940Y-87474788D01*
X158939944Y-87512781D01*
X158544603Y-87512781D01*
X158525606Y-87474787D01*
X158525606Y-87346013D01*
X158554794Y-87287636D01*
X158581415Y-87261016D01*
X158639790Y-87231829D01*
X158844756Y-87231829D01*
X158903130Y-87261016D01*
G37*
G36*
X160435784Y-93682623D02*
G01*
X158070051Y-93682623D01*
X158070051Y-93353258D01*
X158158940Y-93353258D01*
X158158940Y-93543734D01*
X158162746Y-93562868D01*
X158189806Y-93589928D01*
X158208940Y-93593734D01*
X159008940Y-93593734D01*
X159028074Y-93589928D01*
X159055134Y-93562868D01*
X159058940Y-93543734D01*
X159058940Y-93353258D01*
X159057376Y-93345395D01*
X159056374Y-93337447D01*
X159023549Y-93238972D01*
X159446895Y-93238972D01*
X159446895Y-93543734D01*
X159450701Y-93562868D01*
X159477761Y-93589928D01*
X159496895Y-93593734D01*
X160296895Y-93593734D01*
X160316029Y-93589928D01*
X160343089Y-93562868D01*
X160343089Y-93524600D01*
X160316029Y-93497540D01*
X160296895Y-93493734D01*
X159965942Y-93493734D01*
X159965942Y-93238972D01*
X159965453Y-93236515D01*
X159965816Y-93235427D01*
X159963699Y-93227699D01*
X159962136Y-93219838D01*
X159961324Y-93219026D01*
X159960663Y-93216611D01*
X159922568Y-93140421D01*
X159917656Y-93134092D01*
X159913202Y-93127426D01*
X159875107Y-93089332D01*
X159868444Y-93084879D01*
X159862113Y-93079966D01*
X159785922Y-93041870D01*
X159783506Y-93041208D01*
X159782695Y-93040397D01*
X159774833Y-93038833D01*
X159767106Y-93036717D01*
X159766017Y-93037079D01*
X159763561Y-93036591D01*
X159649276Y-93036591D01*
X159646819Y-93037079D01*
X159645731Y-93036717D01*
X159638003Y-93038833D01*
X159630142Y-93040397D01*
X159629330Y-93041208D01*
X159626915Y-93041870D01*
X159550724Y-93079966D01*
X159544395Y-93084877D01*
X159537729Y-93089332D01*
X159499635Y-93127427D01*
X159495184Y-93134086D01*
X159490269Y-93140421D01*
X159452174Y-93216611D01*
X159451512Y-93219026D01*
X159450701Y-93219838D01*
X159449137Y-93227699D01*
X159447021Y-93235427D01*
X159447383Y-93236515D01*
X159446895Y-93238972D01*
X159023549Y-93238972D01*
X159018279Y-93223161D01*
X159017039Y-93220985D01*
X159017039Y-93219838D01*
X159012588Y-93213177D01*
X159008618Y-93206212D01*
X159007590Y-93205698D01*
X159006200Y-93203617D01*
X158930009Y-93127426D01*
X158923343Y-93122972D01*
X158917015Y-93118061D01*
X158840825Y-93079966D01*
X158835543Y-93078519D01*
X158830591Y-93076180D01*
X158678210Y-93038084D01*
X158672092Y-93037786D01*
X158666083Y-93036591D01*
X158551797Y-93036591D01*
X158545787Y-93037786D01*
X158539670Y-93038084D01*
X158387289Y-93076180D01*
X158382338Y-93078518D01*
X158377056Y-93079965D01*
X158300865Y-93118061D01*
X158294536Y-93122972D01*
X158287870Y-93127427D01*
X158211680Y-93203617D01*
X158210289Y-93205698D01*
X158209262Y-93206212D01*
X158205291Y-93213177D01*
X158200841Y-93219838D01*
X158200841Y-93220985D01*
X158199601Y-93223161D01*
X158161506Y-93337447D01*
X158160503Y-93345395D01*
X158158940Y-93353258D01*
X158070051Y-93353258D01*
X158070051Y-92515163D01*
X158425606Y-92515163D01*
X158425606Y-92667544D01*
X158426094Y-92670000D01*
X158425732Y-92671089D01*
X158427848Y-92678816D01*
X158429412Y-92686678D01*
X158430223Y-92687489D01*
X158430885Y-92689905D01*
X158468981Y-92766095D01*
X158475083Y-92773957D01*
X158475929Y-92776494D01*
X158478753Y-92778685D01*
X158480942Y-92781506D01*
X158483475Y-92782350D01*
X158491341Y-92788455D01*
X158567530Y-92826551D01*
X158569946Y-92827212D01*
X158570758Y-92828024D01*
X158578616Y-92829587D01*
X158586346Y-92831704D01*
X158587434Y-92831341D01*
X158589892Y-92831830D01*
X158894654Y-92831830D01*
X158897110Y-92831341D01*
X158898199Y-92831704D01*
X158905926Y-92829587D01*
X158913788Y-92828024D01*
X158914599Y-92827212D01*
X158917015Y-92826551D01*
X158993206Y-92788455D01*
X159001068Y-92782352D01*
X159003605Y-92781507D01*
X159005796Y-92778682D01*
X159008617Y-92776494D01*
X159009461Y-92773960D01*
X159015566Y-92766095D01*
X159053661Y-92689905D01*
X159054322Y-92687489D01*
X159055134Y-92686678D01*
X159056697Y-92678816D01*
X159058814Y-92671089D01*
X159058451Y-92670000D01*
X159058940Y-92667544D01*
X159058940Y-92515163D01*
X159713561Y-92515163D01*
X159713561Y-92667544D01*
X159714049Y-92670000D01*
X159713687Y-92671089D01*
X159715803Y-92678816D01*
X159717367Y-92686678D01*
X159718178Y-92687489D01*
X159718840Y-92689905D01*
X159756936Y-92766095D01*
X159768897Y-92781506D01*
X159805202Y-92793608D01*
X159839430Y-92776493D01*
X159851531Y-92740188D01*
X159846378Y-92721372D01*
X159813561Y-92655740D01*
X159813561Y-92526966D01*
X159838924Y-92476239D01*
X159889650Y-92450877D01*
X159923137Y-92450877D01*
X159942133Y-92488870D01*
X159942133Y-92667544D01*
X159942621Y-92670000D01*
X159942259Y-92671089D01*
X159944375Y-92678816D01*
X159945939Y-92686678D01*
X159946750Y-92687489D01*
X159947412Y-92689905D01*
X159985507Y-92766095D01*
X159991609Y-92773958D01*
X159992455Y-92776494D01*
X159995277Y-92778684D01*
X159997468Y-92781507D01*
X160000003Y-92782352D01*
X160007867Y-92788455D01*
X160084058Y-92826551D01*
X160086473Y-92827212D01*
X160087285Y-92828024D01*
X160095146Y-92829587D01*
X160102874Y-92831704D01*
X160103962Y-92831341D01*
X160106419Y-92831830D01*
X160182609Y-92831830D01*
X160185065Y-92831341D01*
X160186154Y-92831704D01*
X160193881Y-92829587D01*
X160201743Y-92828024D01*
X160202554Y-92827212D01*
X160204970Y-92826551D01*
X160281161Y-92788455D01*
X160289023Y-92782352D01*
X160291560Y-92781507D01*
X160293751Y-92778682D01*
X160296572Y-92776494D01*
X160297416Y-92773960D01*
X160303521Y-92766095D01*
X160341616Y-92689905D01*
X160342277Y-92687489D01*
X160343089Y-92686678D01*
X160344652Y-92678816D01*
X160346769Y-92671089D01*
X160346406Y-92670000D01*
X160346895Y-92667544D01*
X160346895Y-92477068D01*
X160346406Y-92474611D01*
X160346769Y-92473524D01*
X160344652Y-92465794D01*
X160343089Y-92457934D01*
X160342278Y-92457123D01*
X160341617Y-92454708D01*
X160330541Y-92432558D01*
X160343089Y-92420011D01*
X160343089Y-92381743D01*
X160316029Y-92354683D01*
X160296895Y-92350877D01*
X159877847Y-92350877D01*
X159875390Y-92351365D01*
X159874302Y-92351003D01*
X159866574Y-92353119D01*
X159858713Y-92354683D01*
X159857901Y-92355494D01*
X159855486Y-92356156D01*
X159779296Y-92394251D01*
X159771430Y-92400355D01*
X159768897Y-92401200D01*
X159766708Y-92404020D01*
X159763884Y-92406212D01*
X159763038Y-92408748D01*
X159756936Y-92416611D01*
X159718840Y-92492802D01*
X159718178Y-92495217D01*
X159717367Y-92496029D01*
X159715803Y-92503890D01*
X159713687Y-92511618D01*
X159714049Y-92512706D01*
X159713561Y-92515163D01*
X159058940Y-92515163D01*
X159058451Y-92512706D01*
X159058814Y-92511619D01*
X159056697Y-92503889D01*
X159055134Y-92496029D01*
X159054323Y-92495218D01*
X159053662Y-92492803D01*
X159015566Y-92416612D01*
X159003605Y-92401200D01*
X158967301Y-92389098D01*
X158933073Y-92406212D01*
X158920971Y-92442516D01*
X158926124Y-92461332D01*
X158958940Y-92526965D01*
X158958940Y-92655741D01*
X158933577Y-92706466D01*
X158882851Y-92731830D01*
X158783263Y-92731830D01*
X158715112Y-92391071D01*
X158712277Y-92384247D01*
X158712277Y-92381743D01*
X158710497Y-92379963D01*
X158707627Y-92373055D01*
X158695513Y-92364979D01*
X158685217Y-92354683D01*
X158677879Y-92353223D01*
X158675786Y-92351828D01*
X158673331Y-92352318D01*
X158666083Y-92350877D01*
X158589892Y-92350877D01*
X158587435Y-92351365D01*
X158586347Y-92351003D01*
X158578619Y-92353119D01*
X158570758Y-92354683D01*
X158569946Y-92355494D01*
X158567531Y-92356156D01*
X158491341Y-92394251D01*
X158483475Y-92400355D01*
X158480942Y-92401200D01*
X158478753Y-92404020D01*
X158475929Y-92406212D01*
X158475083Y-92408748D01*
X158468981Y-92416611D01*
X158430885Y-92492802D01*
X158430223Y-92495217D01*
X158429412Y-92496029D01*
X158427848Y-92503890D01*
X158425732Y-92511618D01*
X158426094Y-92512706D01*
X158425606Y-92515163D01*
X158070051Y-92515163D01*
X158070051Y-91867544D01*
X158425606Y-91867544D01*
X158425606Y-91981830D01*
X158426094Y-91984286D01*
X158425732Y-91985375D01*
X158427848Y-91993102D01*
X158429412Y-92000964D01*
X158430223Y-92001775D01*
X158430885Y-92004191D01*
X158468981Y-92080381D01*
X158475083Y-92088243D01*
X158475929Y-92090780D01*
X158478753Y-92092971D01*
X158480942Y-92095792D01*
X158483475Y-92096636D01*
X158491341Y-92102741D01*
X158567530Y-92140837D01*
X158569946Y-92141498D01*
X158570758Y-92142310D01*
X158578616Y-92143873D01*
X158586346Y-92145990D01*
X158587434Y-92145627D01*
X158589892Y-92146116D01*
X158627987Y-92146116D01*
X158630443Y-92145627D01*
X158631532Y-92145990D01*
X158639259Y-92143873D01*
X158647121Y-92142310D01*
X158647932Y-92141498D01*
X158650348Y-92140837D01*
X158726539Y-92102741D01*
X158734401Y-92096638D01*
X158736938Y-92095793D01*
X158739129Y-92092968D01*
X158741950Y-92090780D01*
X158742794Y-92088246D01*
X158748899Y-92080381D01*
X158786994Y-92004191D01*
X158787655Y-92001775D01*
X158788467Y-92000964D01*
X158790030Y-91993102D01*
X158792147Y-91985375D01*
X158791784Y-91984286D01*
X158792273Y-91981830D01*
X158792273Y-91879347D01*
X158817635Y-91828621D01*
X158868362Y-91803258D01*
X158882851Y-91803258D01*
X158933577Y-91828621D01*
X158958940Y-91879347D01*
X158958940Y-92008122D01*
X158926124Y-92073756D01*
X158920971Y-92092572D01*
X158933073Y-92128876D01*
X158967301Y-92145990D01*
X159003605Y-92133888D01*
X159015566Y-92118476D01*
X159053662Y-92042285D01*
X159054323Y-92039869D01*
X159055134Y-92039059D01*
X159056697Y-92031198D01*
X159058814Y-92023469D01*
X159058451Y-92022381D01*
X159058940Y-92019925D01*
X159058940Y-91867544D01*
X159058451Y-91865087D01*
X159058814Y-91863999D01*
X159056697Y-91856271D01*
X159055134Y-91848410D01*
X159054322Y-91847598D01*
X159053661Y-91845183D01*
X159015566Y-91768993D01*
X159009461Y-91761127D01*
X159008617Y-91758594D01*
X159005796Y-91756405D01*
X159003605Y-91753581D01*
X159001068Y-91752735D01*
X158993206Y-91746633D01*
X158917015Y-91708537D01*
X158914599Y-91707875D01*
X158913788Y-91707064D01*
X158905926Y-91705500D01*
X158898199Y-91703384D01*
X158897110Y-91703746D01*
X158894654Y-91703258D01*
X158856559Y-91703258D01*
X158854102Y-91703746D01*
X158853014Y-91703384D01*
X158845286Y-91705500D01*
X158837425Y-91707064D01*
X158836613Y-91707875D01*
X158834198Y-91708537D01*
X158758007Y-91746633D01*
X158750143Y-91752735D01*
X158747608Y-91753581D01*
X158745417Y-91756403D01*
X158742595Y-91758594D01*
X158741749Y-91761129D01*
X158735647Y-91768993D01*
X158697552Y-91845183D01*
X158696890Y-91847598D01*
X158696079Y-91848410D01*
X158694515Y-91856271D01*
X158692399Y-91863999D01*
X158692761Y-91865087D01*
X158692273Y-91867544D01*
X158692273Y-91970027D01*
X158666910Y-92020752D01*
X158616184Y-92046116D01*
X158601695Y-92046116D01*
X158550970Y-92020752D01*
X158525606Y-91970026D01*
X158525606Y-91879347D01*
X158558423Y-91813716D01*
X158563576Y-91794900D01*
X158551475Y-91758595D01*
X158517247Y-91741480D01*
X158480942Y-91753582D01*
X158468981Y-91768993D01*
X158430885Y-91845183D01*
X158430223Y-91847598D01*
X158429412Y-91848410D01*
X158427848Y-91856271D01*
X158425732Y-91863999D01*
X158426094Y-91865087D01*
X158425606Y-91867544D01*
X158070051Y-91867544D01*
X158070051Y-91657933D01*
X159717367Y-91657933D01*
X159717367Y-91696201D01*
X159744427Y-91723261D01*
X159763561Y-91727067D01*
X160199993Y-91727067D01*
X160217708Y-91744782D01*
X160246895Y-91803155D01*
X160246895Y-91893836D01*
X160221532Y-91944560D01*
X160170807Y-91969924D01*
X159763561Y-91969924D01*
X159744427Y-91973730D01*
X159717367Y-92000790D01*
X159717367Y-92039058D01*
X159744427Y-92066118D01*
X159763561Y-92069924D01*
X160182609Y-92069924D01*
X160185065Y-92069435D01*
X160186153Y-92069798D01*
X160193877Y-92067682D01*
X160201743Y-92066118D01*
X160202554Y-92065306D01*
X160204969Y-92064645D01*
X160281161Y-92026550D01*
X160289023Y-92020447D01*
X160291560Y-92019602D01*
X160293751Y-92016777D01*
X160296572Y-92014589D01*
X160297416Y-92012055D01*
X160303521Y-92004190D01*
X160341616Y-91928000D01*
X160342277Y-91925584D01*
X160343089Y-91924773D01*
X160344652Y-91916911D01*
X160346769Y-91909184D01*
X160346406Y-91908095D01*
X160346895Y-91905639D01*
X160346895Y-91791353D01*
X160346406Y-91788896D01*
X160346769Y-91787809D01*
X160344652Y-91780079D01*
X160343089Y-91772219D01*
X160342278Y-91771408D01*
X160341617Y-91768993D01*
X160317843Y-91721446D01*
X160343089Y-91696201D01*
X160343089Y-91657933D01*
X160316029Y-91630873D01*
X160296895Y-91627067D01*
X159763561Y-91627067D01*
X159744427Y-91630873D01*
X159717367Y-91657933D01*
X158070051Y-91657933D01*
X158070051Y-91391266D01*
X158162746Y-91391266D01*
X158162746Y-91429535D01*
X158173584Y-91445756D01*
X158211679Y-91483852D01*
X158227899Y-91494689D01*
X158227901Y-91494691D01*
X158266169Y-91494691D01*
X158266170Y-91494691D01*
X158282391Y-91483852D01*
X158320486Y-91445756D01*
X158331324Y-91429535D01*
X158331324Y-91413142D01*
X158331324Y-91391267D01*
X158429412Y-91391267D01*
X158429412Y-91429535D01*
X158456472Y-91456595D01*
X158475606Y-91460401D01*
X159008940Y-91460401D01*
X159028074Y-91456595D01*
X159055134Y-91429535D01*
X159055134Y-91391267D01*
X159028074Y-91364207D01*
X159008940Y-91360401D01*
X158475606Y-91360401D01*
X158456472Y-91364207D01*
X158429412Y-91391267D01*
X158331324Y-91391267D01*
X158331324Y-91391266D01*
X158320485Y-91375045D01*
X158282390Y-91336951D01*
X158266169Y-91326112D01*
X158227900Y-91326112D01*
X158211679Y-91336951D01*
X158173585Y-91375046D01*
X158162748Y-91391263D01*
X158162746Y-91391266D01*
X158070051Y-91391266D01*
X158070051Y-91276980D01*
X159450701Y-91276980D01*
X159450701Y-91315248D01*
X159477761Y-91342308D01*
X159496895Y-91346114D01*
X160182609Y-91346114D01*
X160185065Y-91345625D01*
X160186153Y-91345988D01*
X160193877Y-91343872D01*
X160201743Y-91342308D01*
X160202554Y-91341496D01*
X160204969Y-91340835D01*
X160281161Y-91302740D01*
X160289023Y-91296637D01*
X160291560Y-91295792D01*
X160293751Y-91292967D01*
X160296572Y-91290779D01*
X160297416Y-91288245D01*
X160303521Y-91280380D01*
X160341616Y-91204190D01*
X160346769Y-91185374D01*
X160334668Y-91149069D01*
X160300440Y-91131955D01*
X160264135Y-91144056D01*
X160252174Y-91159468D01*
X160221532Y-91220750D01*
X160170807Y-91246114D01*
X159496895Y-91246114D01*
X159477761Y-91249920D01*
X159450701Y-91276980D01*
X158070051Y-91276980D01*
X158070051Y-90762783D01*
X158425606Y-90762783D01*
X158425606Y-90915164D01*
X158426094Y-90917620D01*
X158425732Y-90918709D01*
X158427848Y-90926436D01*
X158429412Y-90934298D01*
X158430223Y-90935109D01*
X158430885Y-90937525D01*
X158468981Y-91013715D01*
X158473894Y-91020046D01*
X158478347Y-91026709D01*
X158516441Y-91064804D01*
X158523107Y-91069258D01*
X158529436Y-91074170D01*
X158605625Y-91112266D01*
X158608041Y-91112927D01*
X158608853Y-91113739D01*
X158616711Y-91115302D01*
X158624441Y-91117419D01*
X158625529Y-91117056D01*
X158627987Y-91117545D01*
X158856559Y-91117545D01*
X158859015Y-91117056D01*
X158860104Y-91117419D01*
X158867831Y-91115302D01*
X158875693Y-91113739D01*
X158876504Y-91112927D01*
X158878920Y-91112266D01*
X158955110Y-91074170D01*
X158961435Y-91069260D01*
X158968104Y-91064805D01*
X159006200Y-91026710D01*
X159010651Y-91020046D01*
X159015566Y-91013715D01*
X159053661Y-90937525D01*
X159054322Y-90935109D01*
X159055134Y-90934298D01*
X159056697Y-90926436D01*
X159058814Y-90918709D01*
X159058451Y-90917620D01*
X159058940Y-90915164D01*
X159058940Y-90762783D01*
X159058451Y-90760326D01*
X159058814Y-90759239D01*
X159056697Y-90751509D01*
X159055134Y-90743649D01*
X159054323Y-90742838D01*
X159053662Y-90740423D01*
X159051746Y-90736592D01*
X159111423Y-90736592D01*
X159169797Y-90765779D01*
X159196418Y-90792401D01*
X159225606Y-90850776D01*
X159225606Y-90941456D01*
X159192790Y-91007088D01*
X159187637Y-91025904D01*
X159199738Y-91062209D01*
X159233966Y-91079323D01*
X159270271Y-91067222D01*
X159282232Y-91051810D01*
X159320327Y-90975620D01*
X159320988Y-90973204D01*
X159321800Y-90972393D01*
X159323363Y-90964531D01*
X159325480Y-90956804D01*
X159325117Y-90955715D01*
X159325606Y-90953259D01*
X159325606Y-90838973D01*
X159325117Y-90836516D01*
X159325480Y-90835428D01*
X159323363Y-90827700D01*
X159321800Y-90819839D01*
X159320988Y-90819027D01*
X159320327Y-90816612D01*
X159282232Y-90740422D01*
X159277320Y-90734093D01*
X159272867Y-90727428D01*
X159234772Y-90689332D01*
X159228102Y-90684875D01*
X159221777Y-90679966D01*
X159145585Y-90641871D01*
X159143170Y-90641209D01*
X159142359Y-90640398D01*
X159134493Y-90638833D01*
X159126769Y-90636718D01*
X159125681Y-90637080D01*
X159123225Y-90636592D01*
X158475606Y-90636592D01*
X158456472Y-90640398D01*
X158429412Y-90667458D01*
X158429412Y-90705726D01*
X158441959Y-90718273D01*
X158430885Y-90740422D01*
X158430223Y-90742837D01*
X158429412Y-90743649D01*
X158427848Y-90751510D01*
X158425732Y-90759238D01*
X158426094Y-90760326D01*
X158425606Y-90762783D01*
X158070051Y-90762783D01*
X158070051Y-90077068D01*
X158425606Y-90077068D01*
X158425606Y-90191354D01*
X158426094Y-90193810D01*
X158425732Y-90194899D01*
X158427848Y-90202626D01*
X158429412Y-90210488D01*
X158430223Y-90211299D01*
X158430885Y-90213715D01*
X158454657Y-90261259D01*
X158429412Y-90286505D01*
X158429412Y-90324773D01*
X158456472Y-90351833D01*
X158475606Y-90355639D01*
X159008940Y-90355639D01*
X159028074Y-90351833D01*
X159055134Y-90324773D01*
X159055134Y-90286505D01*
X159028074Y-90259445D01*
X159008940Y-90255639D01*
X158572508Y-90255639D01*
X158554795Y-90237927D01*
X158525606Y-90179550D01*
X158525606Y-90088871D01*
X158550969Y-90038144D01*
X158601695Y-90012782D01*
X159008940Y-90012782D01*
X159028074Y-90008976D01*
X159055134Y-89981916D01*
X159055134Y-89943648D01*
X159036171Y-89924685D01*
X159446895Y-89924685D01*
X159446895Y-90038971D01*
X159448458Y-90046833D01*
X159449461Y-90054782D01*
X159487556Y-90169068D01*
X159488796Y-90171243D01*
X159488796Y-90172391D01*
X159493246Y-90179051D01*
X159497217Y-90186017D01*
X159498244Y-90186530D01*
X159499635Y-90188612D01*
X159575825Y-90264802D01*
X159582491Y-90269256D01*
X159588820Y-90274168D01*
X159665011Y-90312264D01*
X159670293Y-90313710D01*
X159675244Y-90316049D01*
X159827625Y-90354145D01*
X159833742Y-90354442D01*
X159839752Y-90355638D01*
X159954038Y-90355638D01*
X159960047Y-90354442D01*
X159966165Y-90354145D01*
X160118546Y-90316049D01*
X160123498Y-90313709D01*
X160128780Y-90312263D01*
X160204970Y-90274168D01*
X160211298Y-90269256D01*
X160217964Y-90264803D01*
X160294155Y-90188612D01*
X160295545Y-90186530D01*
X160296573Y-90186017D01*
X160300543Y-90179051D01*
X160304994Y-90172391D01*
X160304994Y-90171243D01*
X160306234Y-90169068D01*
X160344329Y-90054782D01*
X160345331Y-90046833D01*
X160346895Y-90038971D01*
X160346895Y-89962780D01*
X160345331Y-89954917D01*
X160344329Y-89946969D01*
X160306234Y-89832684D01*
X160304994Y-89830508D01*
X160304994Y-89829361D01*
X160300543Y-89822700D01*
X160296573Y-89815735D01*
X160295545Y-89815221D01*
X160294155Y-89813140D01*
X160256059Y-89775044D01*
X160239838Y-89764205D01*
X160220704Y-89760399D01*
X159954038Y-89760399D01*
X159934904Y-89764205D01*
X159907844Y-89791265D01*
X159904038Y-89810399D01*
X159904038Y-89962780D01*
X159907844Y-89981914D01*
X159934904Y-90008974D01*
X159973172Y-90008974D01*
X160000232Y-89981914D01*
X160004038Y-89962780D01*
X160004038Y-89860399D01*
X160199994Y-89860399D01*
X160215098Y-89875503D01*
X160246895Y-89970893D01*
X160246895Y-90030858D01*
X160215099Y-90126246D01*
X160152990Y-90188354D01*
X160088967Y-90220366D01*
X159947883Y-90255638D01*
X159845907Y-90255638D01*
X159704821Y-90220365D01*
X159640797Y-90188354D01*
X159578691Y-90126248D01*
X159546895Y-90030858D01*
X159546895Y-89936488D01*
X159579711Y-89870856D01*
X159584864Y-89852040D01*
X159572763Y-89815735D01*
X159538535Y-89798621D01*
X159502230Y-89810722D01*
X159490269Y-89826134D01*
X159452174Y-89902324D01*
X159451512Y-89904739D01*
X159450701Y-89905551D01*
X159449137Y-89913412D01*
X159447021Y-89921140D01*
X159447383Y-89922228D01*
X159446895Y-89924685D01*
X159036171Y-89924685D01*
X159028074Y-89916588D01*
X159008940Y-89912782D01*
X158589892Y-89912782D01*
X158587435Y-89913270D01*
X158586347Y-89912908D01*
X158578619Y-89915024D01*
X158570758Y-89916588D01*
X158569946Y-89917399D01*
X158567531Y-89918061D01*
X158491341Y-89956156D01*
X158483475Y-89962260D01*
X158480942Y-89963105D01*
X158478753Y-89965925D01*
X158475929Y-89968117D01*
X158475083Y-89970653D01*
X158468981Y-89978516D01*
X158430885Y-90054707D01*
X158430223Y-90057122D01*
X158429412Y-90057934D01*
X158427848Y-90065795D01*
X158425732Y-90073523D01*
X158426094Y-90074611D01*
X158425606Y-90077068D01*
X158070051Y-90077068D01*
X158070051Y-89353258D01*
X158425606Y-89353258D01*
X158425606Y-89505639D01*
X158426094Y-89508095D01*
X158425732Y-89509184D01*
X158427848Y-89516911D01*
X158429412Y-89524773D01*
X158430223Y-89525584D01*
X158430885Y-89528000D01*
X158468981Y-89604190D01*
X158475083Y-89612052D01*
X158475929Y-89614589D01*
X158478753Y-89616780D01*
X158480942Y-89619601D01*
X158483475Y-89620445D01*
X158491341Y-89626550D01*
X158567530Y-89664646D01*
X158569946Y-89665307D01*
X158570758Y-89666119D01*
X158578616Y-89667682D01*
X158586346Y-89669799D01*
X158587434Y-89669436D01*
X158589892Y-89669925D01*
X158894654Y-89669925D01*
X158897110Y-89669436D01*
X158898199Y-89669799D01*
X158905926Y-89667682D01*
X158913788Y-89666119D01*
X158914599Y-89665307D01*
X158917015Y-89664646D01*
X158993206Y-89626550D01*
X159001068Y-89620447D01*
X159003605Y-89619602D01*
X159005796Y-89616777D01*
X159008617Y-89614589D01*
X159009461Y-89612055D01*
X159015566Y-89604190D01*
X159053661Y-89528000D01*
X159054322Y-89525584D01*
X159055134Y-89524773D01*
X159056697Y-89516911D01*
X159058814Y-89509184D01*
X159058451Y-89508095D01*
X159058940Y-89505639D01*
X159058940Y-89353258D01*
X159058451Y-89350801D01*
X159058814Y-89349714D01*
X159056697Y-89341984D01*
X159055134Y-89334124D01*
X159054323Y-89333313D01*
X159053662Y-89330898D01*
X159015566Y-89254707D01*
X159003605Y-89239295D01*
X159002633Y-89238971D01*
X159713561Y-89238971D01*
X159713561Y-89391352D01*
X159714049Y-89393808D01*
X159713687Y-89394897D01*
X159715803Y-89402624D01*
X159717367Y-89410486D01*
X159718178Y-89411297D01*
X159718840Y-89413713D01*
X159756936Y-89489903D01*
X159768897Y-89505314D01*
X159805202Y-89517416D01*
X159839430Y-89500301D01*
X159851531Y-89463996D01*
X159846378Y-89445180D01*
X159813561Y-89379548D01*
X159813561Y-89250774D01*
X159838924Y-89200047D01*
X159889650Y-89174685D01*
X159923137Y-89174685D01*
X159942133Y-89212678D01*
X159942133Y-89391352D01*
X159942621Y-89393808D01*
X159942259Y-89394897D01*
X159944375Y-89402624D01*
X159945939Y-89410486D01*
X159946750Y-89411297D01*
X159947412Y-89413713D01*
X159985507Y-89489903D01*
X159991609Y-89497766D01*
X159992455Y-89500302D01*
X159995277Y-89502492D01*
X159997468Y-89505315D01*
X160000003Y-89506160D01*
X160007867Y-89512263D01*
X160084058Y-89550359D01*
X160086473Y-89551020D01*
X160087285Y-89551832D01*
X160095146Y-89553395D01*
X160102874Y-89555512D01*
X160103962Y-89555149D01*
X160106419Y-89555638D01*
X160182609Y-89555638D01*
X160185065Y-89555149D01*
X160186154Y-89555512D01*
X160193881Y-89553395D01*
X160201743Y-89551832D01*
X160202554Y-89551020D01*
X160204970Y-89550359D01*
X160281161Y-89512263D01*
X160289023Y-89506160D01*
X160291560Y-89505315D01*
X160293751Y-89502490D01*
X160296572Y-89500302D01*
X160297416Y-89497768D01*
X160303521Y-89489903D01*
X160341616Y-89413713D01*
X160342277Y-89411297D01*
X160343089Y-89410486D01*
X160344652Y-89402624D01*
X160346769Y-89394897D01*
X160346406Y-89393808D01*
X160346895Y-89391352D01*
X160346895Y-89200876D01*
X160346406Y-89198419D01*
X160346769Y-89197332D01*
X160344652Y-89189602D01*
X160343089Y-89181742D01*
X160342278Y-89180931D01*
X160341617Y-89178516D01*
X160330541Y-89156366D01*
X160343089Y-89143819D01*
X160343089Y-89105551D01*
X160316029Y-89078491D01*
X160296895Y-89074685D01*
X159877847Y-89074685D01*
X159875390Y-89075173D01*
X159874302Y-89074811D01*
X159866574Y-89076927D01*
X159858713Y-89078491D01*
X159857901Y-89079302D01*
X159855486Y-89079964D01*
X159779296Y-89118059D01*
X159771430Y-89124163D01*
X159768897Y-89125008D01*
X159766708Y-89127828D01*
X159763884Y-89130020D01*
X159763038Y-89132556D01*
X159756936Y-89140419D01*
X159718840Y-89216610D01*
X159718178Y-89219025D01*
X159717367Y-89219837D01*
X159715803Y-89227698D01*
X159713687Y-89235426D01*
X159714049Y-89236514D01*
X159713561Y-89238971D01*
X159002633Y-89238971D01*
X158967301Y-89227193D01*
X158933073Y-89244307D01*
X158920971Y-89280611D01*
X158926124Y-89299427D01*
X158958940Y-89365060D01*
X158958940Y-89493836D01*
X158933577Y-89544561D01*
X158882851Y-89569925D01*
X158783263Y-89569925D01*
X158715112Y-89229166D01*
X158712277Y-89222342D01*
X158712277Y-89219838D01*
X158710497Y-89218058D01*
X158707627Y-89211150D01*
X158695513Y-89203074D01*
X158685217Y-89192778D01*
X158677879Y-89191318D01*
X158675786Y-89189923D01*
X158673331Y-89190413D01*
X158666083Y-89188972D01*
X158589892Y-89188972D01*
X158587435Y-89189460D01*
X158586347Y-89189098D01*
X158578619Y-89191214D01*
X158570758Y-89192778D01*
X158569946Y-89193589D01*
X158567531Y-89194251D01*
X158491341Y-89232346D01*
X158483475Y-89238450D01*
X158480942Y-89239295D01*
X158478753Y-89242115D01*
X158475929Y-89244307D01*
X158475083Y-89246843D01*
X158468981Y-89254706D01*
X158430885Y-89330897D01*
X158430223Y-89333312D01*
X158429412Y-89334124D01*
X158427848Y-89341985D01*
X158425732Y-89349713D01*
X158426094Y-89350801D01*
X158425606Y-89353258D01*
X158070051Y-89353258D01*
X158070051Y-88534124D01*
X158162746Y-88534124D01*
X158162746Y-88572392D01*
X158189806Y-88599452D01*
X158208940Y-88603258D01*
X158432800Y-88603258D01*
X158430885Y-88607088D01*
X158430223Y-88609503D01*
X158429412Y-88610315D01*
X158427848Y-88618176D01*
X158425732Y-88625904D01*
X158426094Y-88626992D01*
X158425606Y-88629449D01*
X158425606Y-88781830D01*
X158426094Y-88784286D01*
X158425732Y-88785375D01*
X158427848Y-88793102D01*
X158429412Y-88800964D01*
X158430223Y-88801775D01*
X158430885Y-88804191D01*
X158468981Y-88880381D01*
X158473894Y-88886712D01*
X158478347Y-88893375D01*
X158516441Y-88931470D01*
X158523107Y-88935924D01*
X158529436Y-88940836D01*
X158605625Y-88978932D01*
X158608041Y-88979593D01*
X158608853Y-88980405D01*
X158616711Y-88981968D01*
X158624441Y-88984085D01*
X158625529Y-88983722D01*
X158627987Y-88984211D01*
X158856559Y-88984211D01*
X158859015Y-88983722D01*
X158860104Y-88984085D01*
X158867831Y-88981968D01*
X158875693Y-88980405D01*
X158876504Y-88979593D01*
X158878920Y-88978932D01*
X158955110Y-88940836D01*
X158961435Y-88935926D01*
X158968104Y-88931471D01*
X159006200Y-88893376D01*
X159010651Y-88886712D01*
X159015566Y-88880381D01*
X159053661Y-88804191D01*
X159054322Y-88801775D01*
X159055134Y-88800964D01*
X159056697Y-88793102D01*
X159058814Y-88785375D01*
X159058451Y-88784286D01*
X159058940Y-88781830D01*
X159058940Y-88724598D01*
X159450701Y-88724598D01*
X159450701Y-88762866D01*
X159477761Y-88789926D01*
X159496895Y-88793732D01*
X160296895Y-88793732D01*
X160316029Y-88789926D01*
X160343089Y-88762866D01*
X160343089Y-88724598D01*
X160330542Y-88712051D01*
X160341616Y-88689903D01*
X160342277Y-88687487D01*
X160343089Y-88686676D01*
X160344652Y-88678814D01*
X160346769Y-88671087D01*
X160346406Y-88669998D01*
X160346895Y-88667542D01*
X160346895Y-88515161D01*
X160346406Y-88512704D01*
X160346769Y-88511617D01*
X160344652Y-88503887D01*
X160343089Y-88496027D01*
X160342278Y-88495216D01*
X160341617Y-88492801D01*
X160303521Y-88416610D01*
X160298611Y-88410284D01*
X160294155Y-88403614D01*
X160256059Y-88365519D01*
X160249393Y-88361065D01*
X160243065Y-88356154D01*
X160166875Y-88318059D01*
X160164459Y-88317397D01*
X160163648Y-88316586D01*
X160155786Y-88315022D01*
X160148059Y-88312906D01*
X160146970Y-88313268D01*
X160144514Y-88312780D01*
X159915942Y-88312780D01*
X159913485Y-88313268D01*
X159912397Y-88312906D01*
X159904669Y-88315022D01*
X159896808Y-88316586D01*
X159895996Y-88317397D01*
X159893581Y-88318059D01*
X159817391Y-88356154D01*
X159811062Y-88361065D01*
X159804396Y-88365520D01*
X159766302Y-88403615D01*
X159761849Y-88410277D01*
X159756936Y-88416609D01*
X159718840Y-88492800D01*
X159718178Y-88495215D01*
X159717367Y-88496027D01*
X159715803Y-88503888D01*
X159713687Y-88511616D01*
X159714049Y-88512704D01*
X159713561Y-88515161D01*
X159713561Y-88667542D01*
X159714049Y-88669998D01*
X159713687Y-88671087D01*
X159715803Y-88678814D01*
X159717367Y-88686676D01*
X159718178Y-88687487D01*
X159718840Y-88689903D01*
X159720755Y-88693732D01*
X159496895Y-88693732D01*
X159477761Y-88697538D01*
X159450701Y-88724598D01*
X159058940Y-88724598D01*
X159058940Y-88629449D01*
X159058451Y-88626992D01*
X159058814Y-88625905D01*
X159056697Y-88618175D01*
X159055134Y-88610315D01*
X159054323Y-88609504D01*
X159053662Y-88607089D01*
X159042586Y-88584939D01*
X159055134Y-88572392D01*
X159055134Y-88534124D01*
X159028074Y-88507064D01*
X159008940Y-88503258D01*
X158208940Y-88503258D01*
X158189806Y-88507064D01*
X158162746Y-88534124D01*
X158070051Y-88534124D01*
X158070051Y-87791351D01*
X159713561Y-87791351D01*
X159713561Y-87943732D01*
X159714049Y-87946188D01*
X159713687Y-87947277D01*
X159715803Y-87955004D01*
X159717367Y-87962866D01*
X159718178Y-87963677D01*
X159718840Y-87966093D01*
X159756936Y-88042283D01*
X159763038Y-88050145D01*
X159763884Y-88052682D01*
X159766708Y-88054873D01*
X159768897Y-88057694D01*
X159771430Y-88058538D01*
X159779296Y-88064643D01*
X159855485Y-88102739D01*
X159857901Y-88103400D01*
X159858713Y-88104212D01*
X159866571Y-88105775D01*
X159874301Y-88107892D01*
X159875389Y-88107529D01*
X159877847Y-88108018D01*
X160182609Y-88108018D01*
X160185065Y-88107529D01*
X160186154Y-88107892D01*
X160193881Y-88105775D01*
X160201743Y-88104212D01*
X160202554Y-88103400D01*
X160204970Y-88102739D01*
X160281161Y-88064643D01*
X160289023Y-88058540D01*
X160291560Y-88057695D01*
X160293751Y-88054870D01*
X160296572Y-88052682D01*
X160297416Y-88050148D01*
X160303521Y-88042283D01*
X160341616Y-87966093D01*
X160342277Y-87963677D01*
X160343089Y-87962866D01*
X160344652Y-87955004D01*
X160346769Y-87947277D01*
X160346406Y-87946188D01*
X160346895Y-87943732D01*
X160346895Y-87791351D01*
X160346406Y-87788894D01*
X160346769Y-87787807D01*
X160344652Y-87780077D01*
X160343089Y-87772217D01*
X160342278Y-87771406D01*
X160341617Y-87768991D01*
X160303521Y-87692800D01*
X160291560Y-87677388D01*
X160255256Y-87665286D01*
X160221028Y-87682400D01*
X160208926Y-87718704D01*
X160214079Y-87737520D01*
X160246895Y-87803153D01*
X160246895Y-87931929D01*
X160221532Y-87982654D01*
X160170806Y-88008018D01*
X160071218Y-88008018D01*
X160003067Y-87667259D01*
X160000232Y-87660435D01*
X160000232Y-87657931D01*
X159998452Y-87656151D01*
X159995582Y-87649243D01*
X159983468Y-87641167D01*
X159973172Y-87630871D01*
X159965834Y-87629411D01*
X159963741Y-87628016D01*
X159961286Y-87628506D01*
X159954038Y-87627065D01*
X159877847Y-87627065D01*
X159875390Y-87627553D01*
X159874302Y-87627191D01*
X159866574Y-87629307D01*
X159858713Y-87630871D01*
X159857901Y-87631682D01*
X159855486Y-87632344D01*
X159779296Y-87670439D01*
X159771430Y-87676543D01*
X159768897Y-87677388D01*
X159766708Y-87680208D01*
X159763884Y-87682400D01*
X159763038Y-87684936D01*
X159756936Y-87692799D01*
X159718840Y-87768990D01*
X159718178Y-87771405D01*
X159717367Y-87772217D01*
X159715803Y-87780078D01*
X159713687Y-87787806D01*
X159714049Y-87788894D01*
X159713561Y-87791351D01*
X158070051Y-87791351D01*
X158070051Y-87543647D01*
X158162746Y-87543647D01*
X158162746Y-87581915D01*
X158189806Y-87608975D01*
X158208940Y-87612781D01*
X159008940Y-87612781D01*
X159028074Y-87608975D01*
X159055134Y-87581915D01*
X159055134Y-87543647D01*
X159042587Y-87531100D01*
X159053661Y-87508952D01*
X159054322Y-87506536D01*
X159055134Y-87505725D01*
X159056697Y-87497863D01*
X159058814Y-87490136D01*
X159058451Y-87489047D01*
X159058940Y-87486591D01*
X159058940Y-87334210D01*
X159058451Y-87331753D01*
X159058814Y-87330666D01*
X159056697Y-87322936D01*
X159055134Y-87315076D01*
X159055132Y-87315074D01*
X159450701Y-87315074D01*
X159450701Y-87353342D01*
X159477761Y-87380402D01*
X159496895Y-87384208D01*
X160182609Y-87384208D01*
X160185065Y-87383719D01*
X160186153Y-87384082D01*
X160193877Y-87381966D01*
X160201743Y-87380402D01*
X160202554Y-87379590D01*
X160204969Y-87378929D01*
X160281161Y-87340834D01*
X160289023Y-87334731D01*
X160291560Y-87333886D01*
X160293751Y-87331061D01*
X160296572Y-87328873D01*
X160297416Y-87326339D01*
X160303521Y-87318474D01*
X160341616Y-87242284D01*
X160346769Y-87223468D01*
X160334668Y-87187163D01*
X160300440Y-87170049D01*
X160264135Y-87182150D01*
X160252174Y-87197562D01*
X160221532Y-87258844D01*
X160170807Y-87284208D01*
X159496895Y-87284208D01*
X159477761Y-87288014D01*
X159450701Y-87315074D01*
X159055132Y-87315074D01*
X159054323Y-87314265D01*
X159053662Y-87311850D01*
X159015566Y-87235659D01*
X159010656Y-87229333D01*
X159006200Y-87222663D01*
X158968104Y-87184568D01*
X158961438Y-87180114D01*
X158955110Y-87175203D01*
X158878920Y-87137108D01*
X158876504Y-87136446D01*
X158875693Y-87135635D01*
X158867831Y-87134071D01*
X158860104Y-87131955D01*
X158859015Y-87132317D01*
X158856559Y-87131829D01*
X158627987Y-87131829D01*
X158625530Y-87132317D01*
X158624442Y-87131955D01*
X158616714Y-87134071D01*
X158608853Y-87135635D01*
X158608041Y-87136446D01*
X158605626Y-87137108D01*
X158529436Y-87175203D01*
X158523107Y-87180114D01*
X158516441Y-87184569D01*
X158478347Y-87222664D01*
X158473894Y-87229326D01*
X158468981Y-87235658D01*
X158430885Y-87311849D01*
X158430223Y-87314264D01*
X158429412Y-87315076D01*
X158427848Y-87322937D01*
X158425732Y-87330665D01*
X158426094Y-87331753D01*
X158425606Y-87334210D01*
X158425606Y-87486591D01*
X158426094Y-87489047D01*
X158425732Y-87490136D01*
X158427848Y-87497863D01*
X158429412Y-87505725D01*
X158430223Y-87506536D01*
X158430885Y-87508952D01*
X158432800Y-87512781D01*
X158208940Y-87512781D01*
X158189806Y-87516587D01*
X158162746Y-87543647D01*
X158070051Y-87543647D01*
X158070051Y-86536692D01*
X158425668Y-86536692D01*
X158442050Y-86571276D01*
X158458789Y-86581296D01*
X158860279Y-86724685D01*
X158458789Y-86868075D01*
X158442050Y-86878095D01*
X158425668Y-86912679D01*
X158438539Y-86948718D01*
X158473123Y-86965100D01*
X158492423Y-86962249D01*
X159007938Y-86778136D01*
X159171318Y-86843488D01*
X159196419Y-86868590D01*
X159230885Y-86937523D01*
X159242846Y-86952934D01*
X159279150Y-86965036D01*
X159313378Y-86947922D01*
X159325480Y-86911618D01*
X159320328Y-86892802D01*
X159282232Y-86816611D01*
X159277325Y-86810289D01*
X159272866Y-86803615D01*
X159234771Y-86765521D01*
X159234421Y-86765287D01*
X159234338Y-86765092D01*
X159226367Y-86759905D01*
X159218550Y-86754682D01*
X159218339Y-86754682D01*
X159217986Y-86754452D01*
X159027509Y-86678262D01*
X159026573Y-86678087D01*
X159025757Y-86677599D01*
X158492423Y-86487122D01*
X158473123Y-86484271D01*
X158438539Y-86500653D01*
X158425668Y-86536692D01*
X158070051Y-86536692D01*
X158070051Y-86395382D01*
X160435784Y-86395382D01*
X160435784Y-93682623D01*
G37*
X196646741Y-101234990D02*
X196599122Y-101196895D01*
X196599122Y-101196895D02*
X196527693Y-101196895D01*
X196527693Y-101196895D02*
X196456265Y-101234990D01*
X196456265Y-101234990D02*
X196408646Y-101311180D01*
X196408646Y-101311180D02*
X196384836Y-101387371D01*
X196384836Y-101387371D02*
X196361027Y-101539752D01*
X196361027Y-101539752D02*
X196361027Y-101654038D01*
X196361027Y-101654038D02*
X196384836Y-101806419D01*
X196384836Y-101806419D02*
X196408646Y-101882609D01*
X196408646Y-101882609D02*
X196456265Y-101958800D01*
X196456265Y-101958800D02*
X196527693Y-101996895D01*
X196527693Y-101996895D02*
X196575312Y-101996895D01*
X196575312Y-101996895D02*
X196646741Y-101958800D01*
X196646741Y-101958800D02*
X196670550Y-101920704D01*
X196670550Y-101920704D02*
X196670550Y-101654038D01*
X196670550Y-101654038D02*
X196575312Y-101654038D01*
X196884836Y-101996895D02*
X196884836Y-101196895D01*
X196884836Y-101196895D02*
X197170550Y-101996895D01*
X197170550Y-101996895D02*
X197170550Y-101196895D01*
X197408646Y-101996895D02*
X197408646Y-101196895D01*
X197408646Y-101196895D02*
X197527694Y-101196895D01*
X197527694Y-101196895D02*
X197599122Y-101234990D01*
X197599122Y-101234990D02*
X197646741Y-101311180D01*
X197646741Y-101311180D02*
X197670551Y-101387371D01*
X197670551Y-101387371D02*
X197694360Y-101539752D01*
X197694360Y-101539752D02*
X197694360Y-101654038D01*
X197694360Y-101654038D02*
X197670551Y-101806419D01*
X197670551Y-101806419D02*
X197646741Y-101882609D01*
X197646741Y-101882609D02*
X197599122Y-101958800D01*
X197599122Y-101958800D02*
X197527694Y-101996895D01*
X197527694Y-101996895D02*
X197408646Y-101996895D01*
X198937217Y-101196895D02*
X199246741Y-101196895D01*
X199246741Y-101196895D02*
X199080074Y-101501657D01*
X199080074Y-101501657D02*
X199151503Y-101501657D01*
X199151503Y-101501657D02*
X199199122Y-101539752D01*
X199199122Y-101539752D02*
X199222931Y-101577847D01*
X199222931Y-101577847D02*
X199246741Y-101654038D01*
X199246741Y-101654038D02*
X199246741Y-101844514D01*
X199246741Y-101844514D02*
X199222931Y-101920704D01*
X199222931Y-101920704D02*
X199199122Y-101958800D01*
X199199122Y-101958800D02*
X199151503Y-101996895D01*
X199151503Y-101996895D02*
X199008646Y-101996895D01*
X199008646Y-101996895D02*
X198961027Y-101958800D01*
X198961027Y-101958800D02*
X198937217Y-101920704D01*
X199461026Y-101920704D02*
X199484836Y-101958800D01*
X199484836Y-101958800D02*
X199461026Y-101996895D01*
X199461026Y-101996895D02*
X199437217Y-101958800D01*
X199437217Y-101958800D02*
X199461026Y-101920704D01*
X199461026Y-101920704D02*
X199461026Y-101996895D01*
X199651502Y-101196895D02*
X199961026Y-101196895D01*
X199961026Y-101196895D02*
X199794359Y-101501657D01*
X199794359Y-101501657D02*
X199865788Y-101501657D01*
X199865788Y-101501657D02*
X199913407Y-101539752D01*
X199913407Y-101539752D02*
X199937216Y-101577847D01*
X199937216Y-101577847D02*
X199961026Y-101654038D01*
X199961026Y-101654038D02*
X199961026Y-101844514D01*
X199961026Y-101844514D02*
X199937216Y-101920704D01*
X199937216Y-101920704D02*
X199913407Y-101958800D01*
X199913407Y-101958800D02*
X199865788Y-101996895D01*
X199865788Y-101996895D02*
X199722931Y-101996895D01*
X199722931Y-101996895D02*
X199675312Y-101958800D01*
X199675312Y-101958800D02*
X199651502Y-101920704D01*
X200127692Y-101463561D02*
X200246740Y-101996895D01*
X200246740Y-101996895D02*
X200365787Y-101463561D01*
D11*
X156533690Y-102436811D02*
X156495595Y-102484430D01*
X156495595Y-102484430D02*
X156495595Y-102555859D01*
X156495595Y-102555859D02*
X156533690Y-102627287D01*
X156533690Y-102627287D02*
X156609880Y-102674906D01*
X156609880Y-102674906D02*
X156686071Y-102698716D01*
X156686071Y-102698716D02*
X156838452Y-102722525D01*
X156838452Y-102722525D02*
X156952738Y-102722525D01*
X156952738Y-102722525D02*
X157105119Y-102698716D01*
X157105119Y-102698716D02*
X157181309Y-102674906D01*
X157181309Y-102674906D02*
X157257500Y-102627287D01*
X157257500Y-102627287D02*
X157295595Y-102555859D01*
X157295595Y-102555859D02*
X157295595Y-102508240D01*
X157295595Y-102508240D02*
X157257500Y-102436811D01*
X157257500Y-102436811D02*
X157219404Y-102413002D01*
X157219404Y-102413002D02*
X156952738Y-102413002D01*
X156952738Y-102413002D02*
X156952738Y-102508240D01*
X157295595Y-102198716D02*
X156495595Y-102198716D01*
X156495595Y-102198716D02*
X157295595Y-101913002D01*
X157295595Y-101913002D02*
X156495595Y-101913002D01*
X157295595Y-101674906D02*
X156495595Y-101674906D01*
X156495595Y-101674906D02*
X156495595Y-101555858D01*
X156495595Y-101555858D02*
X156533690Y-101484430D01*
X156533690Y-101484430D02*
X156609880Y-101436811D01*
X156609880Y-101436811D02*
X156686071Y-101413001D01*
X156686071Y-101413001D02*
X156838452Y-101389192D01*
X156838452Y-101389192D02*
X156952738Y-101389192D01*
X156952738Y-101389192D02*
X157105119Y-101413001D01*
X157105119Y-101413001D02*
X157181309Y-101436811D01*
X157181309Y-101436811D02*
X157257500Y-101484430D01*
X157257500Y-101484430D02*
X157295595Y-101555858D01*
X157295595Y-101555858D02*
X157295595Y-101674906D01*
X156876547Y-97132049D02*
X156914642Y-97060621D01*
X156914642Y-97060621D02*
X156952738Y-97036811D01*
X156952738Y-97036811D02*
X157028928Y-97013002D01*
X157028928Y-97013002D02*
X157143214Y-97013002D01*
X157143214Y-97013002D02*
X157219404Y-97036811D01*
X157219404Y-97036811D02*
X157257500Y-97060621D01*
X157257500Y-97060621D02*
X157295595Y-97108240D01*
X157295595Y-97108240D02*
X157295595Y-97298716D01*
X157295595Y-97298716D02*
X156495595Y-97298716D01*
X156495595Y-97298716D02*
X156495595Y-97132049D01*
X156495595Y-97132049D02*
X156533690Y-97084430D01*
X156533690Y-97084430D02*
X156571785Y-97060621D01*
X156571785Y-97060621D02*
X156647976Y-97036811D01*
X156647976Y-97036811D02*
X156724166Y-97036811D01*
X156724166Y-97036811D02*
X156800357Y-97060621D01*
X156800357Y-97060621D02*
X156838452Y-97084430D01*
X156838452Y-97084430D02*
X156876547Y-97132049D01*
X156876547Y-97132049D02*
X156876547Y-97298716D01*
X157067023Y-96822525D02*
X157067023Y-96584430D01*
X157295595Y-96870144D02*
X156495595Y-96703478D01*
X156495595Y-96703478D02*
X157295595Y-96536811D01*
X156495595Y-96441573D02*
X156495595Y-96155859D01*
X157295595Y-96298716D02*
X156495595Y-96298716D01*
X156495595Y-96060621D02*
X156495595Y-95774907D01*
X157295595Y-95917764D02*
X156495595Y-95917764D01*
X156990833Y-95608241D02*
X156990833Y-95227289D01*
X157295595Y-95417765D02*
X156686071Y-95417765D01*
X195395595Y-111298716D02*
X194595595Y-111298716D01*
X194595595Y-111298716D02*
X194595595Y-111108240D01*
X194595595Y-111108240D02*
X194633690Y-111060621D01*
X194633690Y-111060621D02*
X194671785Y-111036811D01*
X194671785Y-111036811D02*
X194747976Y-111013002D01*
X194747976Y-111013002D02*
X194862261Y-111013002D01*
X194862261Y-111013002D02*
X194938452Y-111036811D01*
X194938452Y-111036811D02*
X194976547Y-111060621D01*
X194976547Y-111060621D02*
X195014642Y-111108240D01*
X195014642Y-111108240D02*
X195014642Y-111298716D01*
X194595595Y-110846335D02*
X195395595Y-110727287D01*
X195395595Y-110727287D02*
X194824166Y-110632049D01*
X194824166Y-110632049D02*
X195395595Y-110536811D01*
X195395595Y-110536811D02*
X194595595Y-110417764D01*
X195395595Y-110227287D02*
X194595595Y-110227287D01*
X194595595Y-110227287D02*
X195167023Y-110060620D01*
X195167023Y-110060620D02*
X194595595Y-109893954D01*
X194595595Y-109893954D02*
X195395595Y-109893954D01*
X195395595Y-109274906D02*
X194595595Y-109274906D01*
X195395595Y-109036811D02*
X194595595Y-109036811D01*
X194595595Y-109036811D02*
X195395595Y-108751097D01*
X195395595Y-108751097D02*
X194595595Y-108751097D01*
D12*
X197467219Y-95030326D02*
X198276742Y-95030326D01*
X198276742Y-95030326D02*
X198371980Y-94982707D01*
X198371980Y-94982707D02*
X198419600Y-94935088D01*
X198419600Y-94935088D02*
X198467219Y-94839850D01*
X198467219Y-94839850D02*
X198467219Y-94649374D01*
X198467219Y-94649374D02*
X198419600Y-94554136D01*
X198419600Y-94554136D02*
X198371980Y-94506517D01*
X198371980Y-94506517D02*
X198276742Y-94458898D01*
X198276742Y-94458898D02*
X197467219Y-94458898D01*
X198181504Y-94030326D02*
X198181504Y-93554136D01*
X198467219Y-94125564D02*
X197467219Y-93792231D01*
X197467219Y-93792231D02*
X198467219Y-93458898D01*
X198467219Y-92554136D02*
X197991028Y-92887469D01*
X198467219Y-93125564D02*
X197467219Y-93125564D01*
X197467219Y-93125564D02*
X197467219Y-92744612D01*
X197467219Y-92744612D02*
X197514838Y-92649374D01*
X197514838Y-92649374D02*
X197562457Y-92601755D01*
X197562457Y-92601755D02*
X197657695Y-92554136D01*
X197657695Y-92554136D02*
X197800552Y-92554136D01*
X197800552Y-92554136D02*
X197895790Y-92601755D01*
X197895790Y-92601755D02*
X197943409Y-92649374D01*
X197943409Y-92649374D02*
X197991028Y-92744612D01*
X197991028Y-92744612D02*
X197991028Y-93125564D01*
X197467219Y-92268421D02*
X197467219Y-91696993D01*
X198467219Y-91982707D02*
X197467219Y-91982707D01*
D10*
X199234990Y-100353258D02*
X199196895Y-100400877D01*
X199196895Y-100400877D02*
X199196895Y-100472306D01*
X199196895Y-100472306D02*
X199234990Y-100543734D01*
X199234990Y-100543734D02*
X199311180Y-100591353D01*
X199311180Y-100591353D02*
X199387371Y-100615163D01*
X199387371Y-100615163D02*
X199539752Y-100638972D01*
X199539752Y-100638972D02*
X199654038Y-100638972D01*
X199654038Y-100638972D02*
X199806419Y-100615163D01*
X199806419Y-100615163D02*
X199882609Y-100591353D01*
X199882609Y-100591353D02*
X199958800Y-100543734D01*
X199958800Y-100543734D02*
X199996895Y-100472306D01*
X199996895Y-100472306D02*
X199996895Y-100424687D01*
X199996895Y-100424687D02*
X199958800Y-100353258D01*
X199958800Y-100353258D02*
X199920704Y-100329449D01*
X199920704Y-100329449D02*
X199654038Y-100329449D01*
X199654038Y-100329449D02*
X199654038Y-100424687D01*
X199996895Y-100115163D02*
X199196895Y-100115163D01*
X199196895Y-100115163D02*
X199996895Y-99829449D01*
X199996895Y-99829449D02*
X199196895Y-99829449D01*
X199996895Y-99591353D02*
X199196895Y-99591353D01*
X199196895Y-99591353D02*
X199196895Y-99472305D01*
X199196895Y-99472305D02*
X199234990Y-99400877D01*
X199234990Y-99400877D02*
X199311180Y-99353258D01*
X199311180Y-99353258D02*
X199387371Y-99329448D01*
X199387371Y-99329448D02*
X199539752Y-99305639D01*
X199539752Y-99305639D02*
X199654038Y-99305639D01*
X199654038Y-99305639D02*
X199806419Y-99329448D01*
X199806419Y-99329448D02*
X199882609Y-99353258D01*
X199882609Y-99353258D02*
X199958800Y-99400877D01*
X199958800Y-99400877D02*
X199996895Y-99472305D01*
X199996895Y-99472305D02*
X199996895Y-99591353D01*
X199196895Y-95186591D02*
X199196895Y-94900877D01*
X199996895Y-95043734D02*
X199196895Y-95043734D01*
X199196895Y-94781830D02*
X199996895Y-94448497D01*
X199196895Y-94448497D02*
X199996895Y-94781830D01*
X199996895Y-96829449D02*
X199615942Y-96996115D01*
X199996895Y-97115163D02*
X199196895Y-97115163D01*
X199196895Y-97115163D02*
X199196895Y-96924687D01*
X199196895Y-96924687D02*
X199234990Y-96877068D01*
X199234990Y-96877068D02*
X199273085Y-96853258D01*
X199273085Y-96853258D02*
X199349276Y-96829449D01*
X199349276Y-96829449D02*
X199463561Y-96829449D01*
X199463561Y-96829449D02*
X199539752Y-96853258D01*
X199539752Y-96853258D02*
X199577847Y-96877068D01*
X199577847Y-96877068D02*
X199615942Y-96924687D01*
X199615942Y-96924687D02*
X199615942Y-97115163D01*
X199196895Y-96662782D02*
X199996895Y-96329449D01*
X199196895Y-96329449D02*
X199996895Y-96662782D01*
X199196895Y-92862782D02*
X199196895Y-92553258D01*
X199196895Y-92553258D02*
X199501657Y-92719925D01*
X199501657Y-92719925D02*
X199501657Y-92648496D01*
X199501657Y-92648496D02*
X199539752Y-92600877D01*
X199539752Y-92600877D02*
X199577847Y-92577068D01*
X199577847Y-92577068D02*
X199654038Y-92553258D01*
X199654038Y-92553258D02*
X199844514Y-92553258D01*
X199844514Y-92553258D02*
X199920704Y-92577068D01*
X199920704Y-92577068D02*
X199958800Y-92600877D01*
X199958800Y-92600877D02*
X199996895Y-92648496D01*
X199996895Y-92648496D02*
X199996895Y-92791353D01*
X199996895Y-92791353D02*
X199958800Y-92838972D01*
X199958800Y-92838972D02*
X199920704Y-92862782D01*
X199920704Y-92338973D02*
X199958800Y-92315163D01*
X199958800Y-92315163D02*
X199996895Y-92338973D01*
X199996895Y-92338973D02*
X199958800Y-92362782D01*
X199958800Y-92362782D02*
X199920704Y-92338973D01*
X199920704Y-92338973D02*
X199996895Y-92338973D01*
X199196895Y-92148497D02*
X199196895Y-91838973D01*
X199196895Y-91838973D02*
X199501657Y-92005640D01*
X199501657Y-92005640D02*
X199501657Y-91934211D01*
X199501657Y-91934211D02*
X199539752Y-91886592D01*
X199539752Y-91886592D02*
X199577847Y-91862783D01*
X199577847Y-91862783D02*
X199654038Y-91838973D01*
X199654038Y-91838973D02*
X199844514Y-91838973D01*
X199844514Y-91838973D02*
X199920704Y-91862783D01*
X199920704Y-91862783D02*
X199958800Y-91886592D01*
X199958800Y-91886592D02*
X199996895Y-91934211D01*
X199996895Y-91934211D02*
X199996895Y-92077068D01*
X199996895Y-92077068D02*
X199958800Y-92124687D01*
X199958800Y-92124687D02*
X199920704Y-92148497D01*
X199463561Y-91672307D02*
X199996895Y-91553259D01*
X199996895Y-91553259D02*
X199463561Y-91434212D01*
X190863561Y-103500877D02*
X191396895Y-103500877D01*
X190558800Y-103619925D02*
X191130228Y-103738972D01*
X191130228Y-103738972D02*
X191130228Y-103429449D01*
X190596895Y-106362782D02*
X190596895Y-106053258D01*
X190596895Y-106053258D02*
X190901657Y-106219925D01*
X190901657Y-106219925D02*
X190901657Y-106148496D01*
X190901657Y-106148496D02*
X190939752Y-106100877D01*
X190939752Y-106100877D02*
X190977847Y-106077068D01*
X190977847Y-106077068D02*
X191054038Y-106053258D01*
X191054038Y-106053258D02*
X191244514Y-106053258D01*
X191244514Y-106053258D02*
X191320704Y-106077068D01*
X191320704Y-106077068D02*
X191358800Y-106100877D01*
X191358800Y-106100877D02*
X191396895Y-106148496D01*
X191396895Y-106148496D02*
X191396895Y-106291353D01*
X191396895Y-106291353D02*
X191358800Y-106338972D01*
X191358800Y-106338972D02*
X191320704Y-106362782D01*
X190573085Y-108838972D02*
X190534990Y-108815163D01*
X190534990Y-108815163D02*
X190496895Y-108767544D01*
X190496895Y-108767544D02*
X190496895Y-108648496D01*
X190496895Y-108648496D02*
X190534990Y-108600877D01*
X190534990Y-108600877D02*
X190573085Y-108577068D01*
X190573085Y-108577068D02*
X190649276Y-108553258D01*
X190649276Y-108553258D02*
X190725466Y-108553258D01*
X190725466Y-108553258D02*
X190839752Y-108577068D01*
X190839752Y-108577068D02*
X191296895Y-108862782D01*
X191296895Y-108862782D02*
X191296895Y-108553258D01*
X191396895Y-111153258D02*
X191396895Y-111438972D01*
X191396895Y-111296115D02*
X190596895Y-111296115D01*
X190596895Y-111296115D02*
X190711180Y-111343734D01*
X190711180Y-111343734D02*
X190787371Y-111391353D01*
X190787371Y-111391353D02*
X190825466Y-111438972D01*
D12*
X197622054Y-75719600D02*
X197764911Y-75767219D01*
X197764911Y-75767219D02*
X198003006Y-75767219D01*
X198003006Y-75767219D02*
X198098244Y-75719600D01*
X198098244Y-75719600D02*
X198145863Y-75671980D01*
X198145863Y-75671980D02*
X198193482Y-75576742D01*
X198193482Y-75576742D02*
X198193482Y-75481504D01*
X198193482Y-75481504D02*
X198145863Y-75386266D01*
X198145863Y-75386266D02*
X198098244Y-75338647D01*
X198098244Y-75338647D02*
X198003006Y-75291028D01*
X198003006Y-75291028D02*
X197812530Y-75243409D01*
X197812530Y-75243409D02*
X197717292Y-75195790D01*
X197717292Y-75195790D02*
X197669673Y-75148171D01*
X197669673Y-75148171D02*
X197622054Y-75052933D01*
X197622054Y-75052933D02*
X197622054Y-74957695D01*
X197622054Y-74957695D02*
X197669673Y-74862457D01*
X197669673Y-74862457D02*
X197717292Y-74814838D01*
X197717292Y-74814838D02*
X197812530Y-74767219D01*
X197812530Y-74767219D02*
X198050625Y-74767219D01*
X198050625Y-74767219D02*
X198193482Y-74814838D01*
X198526816Y-74767219D02*
X198764911Y-75767219D01*
X198764911Y-75767219D02*
X198955387Y-75052933D01*
X198955387Y-75052933D02*
X199145863Y-75767219D01*
X199145863Y-75767219D02*
X199383959Y-74767219D01*
X199764911Y-75767219D02*
X199764911Y-74767219D01*
X199764911Y-74767219D02*
X200003006Y-74767219D01*
X200003006Y-74767219D02*
X200145863Y-74814838D01*
X200145863Y-74814838D02*
X200241101Y-74910076D01*
X200241101Y-74910076D02*
X200288720Y-75005314D01*
X200288720Y-75005314D02*
X200336339Y-75195790D01*
X200336339Y-75195790D02*
X200336339Y-75338647D01*
X200336339Y-75338647D02*
X200288720Y-75529123D01*
X200288720Y-75529123D02*
X200241101Y-75624361D01*
X200241101Y-75624361D02*
X200145863Y-75719600D01*
X200145863Y-75719600D02*
X200003006Y-75767219D01*
X200003006Y-75767219D02*
X199764911Y-75767219D01*
D13*
X187902568Y-67664619D02*
X187902568Y-66664619D01*
X188331139Y-66759857D02*
X188378758Y-66712238D01*
X188378758Y-66712238D02*
X188473996Y-66664619D01*
X188473996Y-66664619D02*
X188712091Y-66664619D01*
X188712091Y-66664619D02*
X188807329Y-66712238D01*
X188807329Y-66712238D02*
X188854948Y-66759857D01*
X188854948Y-66759857D02*
X188902567Y-66855095D01*
X188902567Y-66855095D02*
X188902567Y-66950333D01*
X188902567Y-66950333D02*
X188854948Y-67093190D01*
X188854948Y-67093190D02*
X188283520Y-67664619D01*
X188283520Y-67664619D02*
X188902567Y-67664619D01*
X189902567Y-67569380D02*
X189854948Y-67617000D01*
X189854948Y-67617000D02*
X189712091Y-67664619D01*
X189712091Y-67664619D02*
X189616853Y-67664619D01*
X189616853Y-67664619D02*
X189473996Y-67617000D01*
X189473996Y-67617000D02*
X189378758Y-67521761D01*
X189378758Y-67521761D02*
X189331139Y-67426523D01*
X189331139Y-67426523D02*
X189283520Y-67236047D01*
X189283520Y-67236047D02*
X189283520Y-67093190D01*
X189283520Y-67093190D02*
X189331139Y-66902714D01*
X189331139Y-66902714D02*
X189378758Y-66807476D01*
X189378758Y-66807476D02*
X189473996Y-66712238D01*
X189473996Y-66712238D02*
X189616853Y-66664619D01*
X189616853Y-66664619D02*
X189712091Y-66664619D01*
X189712091Y-66664619D02*
X189854948Y-66712238D01*
X189854948Y-66712238D02*
X189902567Y-66759857D01*
D10*
X200937217Y-76596895D02*
X201246741Y-76596895D01*
X201246741Y-76596895D02*
X201080074Y-76901657D01*
X201080074Y-76901657D02*
X201151503Y-76901657D01*
X201151503Y-76901657D02*
X201199122Y-76939752D01*
X201199122Y-76939752D02*
X201222931Y-76977847D01*
X201222931Y-76977847D02*
X201246741Y-77054038D01*
X201246741Y-77054038D02*
X201246741Y-77244514D01*
X201246741Y-77244514D02*
X201222931Y-77320704D01*
X201222931Y-77320704D02*
X201199122Y-77358800D01*
X201199122Y-77358800D02*
X201151503Y-77396895D01*
X201151503Y-77396895D02*
X201008646Y-77396895D01*
X201008646Y-77396895D02*
X200961027Y-77358800D01*
X200961027Y-77358800D02*
X200937217Y-77320704D01*
X201461026Y-77320704D02*
X201484836Y-77358800D01*
X201484836Y-77358800D02*
X201461026Y-77396895D01*
X201461026Y-77396895D02*
X201437217Y-77358800D01*
X201437217Y-77358800D02*
X201461026Y-77320704D01*
X201461026Y-77320704D02*
X201461026Y-77396895D01*
X201651502Y-76596895D02*
X201961026Y-76596895D01*
X201961026Y-76596895D02*
X201794359Y-76901657D01*
X201794359Y-76901657D02*
X201865788Y-76901657D01*
X201865788Y-76901657D02*
X201913407Y-76939752D01*
X201913407Y-76939752D02*
X201937216Y-76977847D01*
X201937216Y-76977847D02*
X201961026Y-77054038D01*
X201961026Y-77054038D02*
X201961026Y-77244514D01*
X201961026Y-77244514D02*
X201937216Y-77320704D01*
X201937216Y-77320704D02*
X201913407Y-77358800D01*
X201913407Y-77358800D02*
X201865788Y-77396895D01*
X201865788Y-77396895D02*
X201722931Y-77396895D01*
X201722931Y-77396895D02*
X201675312Y-77358800D01*
X201675312Y-77358800D02*
X201651502Y-77320704D01*
X202127692Y-76863561D02*
X202246740Y-77396895D01*
X202246740Y-77396895D02*
X202365787Y-76863561D01*
X198161027Y-77358800D02*
X198232455Y-77396895D01*
X198232455Y-77396895D02*
X198351503Y-77396895D01*
X198351503Y-77396895D02*
X198399122Y-77358800D01*
X198399122Y-77358800D02*
X198422931Y-77320704D01*
X198422931Y-77320704D02*
X198446741Y-77244514D01*
X198446741Y-77244514D02*
X198446741Y-77168323D01*
X198446741Y-77168323D02*
X198422931Y-77092133D01*
X198422931Y-77092133D02*
X198399122Y-77054038D01*
X198399122Y-77054038D02*
X198351503Y-77015942D01*
X198351503Y-77015942D02*
X198256265Y-76977847D01*
X198256265Y-76977847D02*
X198208646Y-76939752D01*
X198208646Y-76939752D02*
X198184836Y-76901657D01*
X198184836Y-76901657D02*
X198161027Y-76825466D01*
X198161027Y-76825466D02*
X198161027Y-76749276D01*
X198161027Y-76749276D02*
X198184836Y-76673085D01*
X198184836Y-76673085D02*
X198208646Y-76634990D01*
X198208646Y-76634990D02*
X198256265Y-76596895D01*
X198256265Y-76596895D02*
X198375312Y-76596895D01*
X198375312Y-76596895D02*
X198446741Y-76634990D01*
X198613407Y-76596895D02*
X198732455Y-77396895D01*
X198732455Y-77396895D02*
X198827693Y-76825466D01*
X198827693Y-76825466D02*
X198922931Y-77396895D01*
X198922931Y-77396895D02*
X199041979Y-76596895D01*
X199232455Y-77396895D02*
X199232455Y-76596895D01*
X199232455Y-76596895D02*
X199351503Y-76596895D01*
X199351503Y-76596895D02*
X199422931Y-76634990D01*
X199422931Y-76634990D02*
X199470550Y-76711180D01*
X199470550Y-76711180D02*
X199494360Y-76787371D01*
X199494360Y-76787371D02*
X199518169Y-76939752D01*
X199518169Y-76939752D02*
X199518169Y-77054038D01*
X199518169Y-77054038D02*
X199494360Y-77206419D01*
X199494360Y-77206419D02*
X199470550Y-77282609D01*
X199470550Y-77282609D02*
X199422931Y-77358800D01*
X199422931Y-77358800D02*
X199351503Y-77396895D01*
X199351503Y-77396895D02*
X199232455Y-77396895D01*
X199732455Y-77396895D02*
X199732455Y-76596895D01*
X200065788Y-76596895D02*
X200161026Y-76596895D01*
X200161026Y-76596895D02*
X200208645Y-76634990D01*
X200208645Y-76634990D02*
X200256264Y-76711180D01*
X200256264Y-76711180D02*
X200280074Y-76863561D01*
X200280074Y-76863561D02*
X200280074Y-77130228D01*
X200280074Y-77130228D02*
X200256264Y-77282609D01*
X200256264Y-77282609D02*
X200208645Y-77358800D01*
X200208645Y-77358800D02*
X200161026Y-77396895D01*
X200161026Y-77396895D02*
X200065788Y-77396895D01*
X200065788Y-77396895D02*
X200018169Y-77358800D01*
X200018169Y-77358800D02*
X199970550Y-77282609D01*
X199970550Y-77282609D02*
X199946741Y-77130228D01*
X199946741Y-77130228D02*
X199946741Y-76863561D01*
X199946741Y-76863561D02*
X199970550Y-76711180D01*
X199970550Y-76711180D02*
X200018169Y-76634990D01*
X200018169Y-76634990D02*
X200065788Y-76596895D01*
X195061027Y-77358800D02*
X195132455Y-77396895D01*
X195132455Y-77396895D02*
X195251503Y-77396895D01*
X195251503Y-77396895D02*
X195299122Y-77358800D01*
X195299122Y-77358800D02*
X195322931Y-77320704D01*
X195322931Y-77320704D02*
X195346741Y-77244514D01*
X195346741Y-77244514D02*
X195346741Y-77168323D01*
X195346741Y-77168323D02*
X195322931Y-77092133D01*
X195322931Y-77092133D02*
X195299122Y-77054038D01*
X195299122Y-77054038D02*
X195251503Y-77015942D01*
X195251503Y-77015942D02*
X195156265Y-76977847D01*
X195156265Y-76977847D02*
X195108646Y-76939752D01*
X195108646Y-76939752D02*
X195084836Y-76901657D01*
X195084836Y-76901657D02*
X195061027Y-76825466D01*
X195061027Y-76825466D02*
X195061027Y-76749276D01*
X195061027Y-76749276D02*
X195084836Y-76673085D01*
X195084836Y-76673085D02*
X195108646Y-76634990D01*
X195108646Y-76634990D02*
X195156265Y-76596895D01*
X195156265Y-76596895D02*
X195275312Y-76596895D01*
X195275312Y-76596895D02*
X195346741Y-76634990D01*
X195513407Y-76596895D02*
X195632455Y-77396895D01*
X195632455Y-77396895D02*
X195727693Y-76825466D01*
X195727693Y-76825466D02*
X195822931Y-77396895D01*
X195822931Y-77396895D02*
X195941979Y-76596895D01*
X196418169Y-77320704D02*
X196394360Y-77358800D01*
X196394360Y-77358800D02*
X196322931Y-77396895D01*
X196322931Y-77396895D02*
X196275312Y-77396895D01*
X196275312Y-77396895D02*
X196203884Y-77358800D01*
X196203884Y-77358800D02*
X196156265Y-77282609D01*
X196156265Y-77282609D02*
X196132455Y-77206419D01*
X196132455Y-77206419D02*
X196108646Y-77054038D01*
X196108646Y-77054038D02*
X196108646Y-76939752D01*
X196108646Y-76939752D02*
X196132455Y-76787371D01*
X196132455Y-76787371D02*
X196156265Y-76711180D01*
X196156265Y-76711180D02*
X196203884Y-76634990D01*
X196203884Y-76634990D02*
X196275312Y-76596895D01*
X196275312Y-76596895D02*
X196322931Y-76596895D01*
X196322931Y-76596895D02*
X196394360Y-76634990D01*
X196394360Y-76634990D02*
X196418169Y-76673085D01*
X196870550Y-77396895D02*
X196632455Y-77396895D01*
X196632455Y-77396895D02*
X196632455Y-76596895D01*
X197037217Y-77396895D02*
X197037217Y-76596895D01*
X197322931Y-77396895D02*
X197108646Y-76939752D01*
X197322931Y-76596895D02*
X197037217Y-77054038D01*
X193146741Y-76734990D02*
X193099122Y-76696895D01*
X193099122Y-76696895D02*
X193027693Y-76696895D01*
X193027693Y-76696895D02*
X192956265Y-76734990D01*
X192956265Y-76734990D02*
X192908646Y-76811180D01*
X192908646Y-76811180D02*
X192884836Y-76887371D01*
X192884836Y-76887371D02*
X192861027Y-77039752D01*
X192861027Y-77039752D02*
X192861027Y-77154038D01*
X192861027Y-77154038D02*
X192884836Y-77306419D01*
X192884836Y-77306419D02*
X192908646Y-77382609D01*
X192908646Y-77382609D02*
X192956265Y-77458800D01*
X192956265Y-77458800D02*
X193027693Y-77496895D01*
X193027693Y-77496895D02*
X193075312Y-77496895D01*
X193075312Y-77496895D02*
X193146741Y-77458800D01*
X193146741Y-77458800D02*
X193170550Y-77420704D01*
X193170550Y-77420704D02*
X193170550Y-77154038D01*
X193170550Y-77154038D02*
X193075312Y-77154038D01*
X193384836Y-77496895D02*
X193384836Y-76696895D01*
X193384836Y-76696895D02*
X193670550Y-77496895D01*
X193670550Y-77496895D02*
X193670550Y-76696895D01*
X193908646Y-77496895D02*
X193908646Y-76696895D01*
X193908646Y-76696895D02*
X194027694Y-76696895D01*
X194027694Y-76696895D02*
X194099122Y-76734990D01*
X194099122Y-76734990D02*
X194146741Y-76811180D01*
X194146741Y-76811180D02*
X194170551Y-76887371D01*
X194170551Y-76887371D02*
X194194360Y-77039752D01*
X194194360Y-77039752D02*
X194194360Y-77154038D01*
X194194360Y-77154038D02*
X194170551Y-77306419D01*
X194170551Y-77306419D02*
X194146741Y-77382609D01*
X194146741Y-77382609D02*
X194099122Y-77458800D01*
X194099122Y-77458800D02*
X194027694Y-77496895D01*
X194027694Y-77496895D02*
X193908646Y-77496895D01*
X191946741Y-75034990D02*
X191899122Y-74996895D01*
X191899122Y-74996895D02*
X191827693Y-74996895D01*
X191827693Y-74996895D02*
X191756265Y-75034990D01*
X191756265Y-75034990D02*
X191708646Y-75111180D01*
X191708646Y-75111180D02*
X191684836Y-75187371D01*
X191684836Y-75187371D02*
X191661027Y-75339752D01*
X191661027Y-75339752D02*
X191661027Y-75454038D01*
X191661027Y-75454038D02*
X191684836Y-75606419D01*
X191684836Y-75606419D02*
X191708646Y-75682609D01*
X191708646Y-75682609D02*
X191756265Y-75758800D01*
X191756265Y-75758800D02*
X191827693Y-75796895D01*
X191827693Y-75796895D02*
X191875312Y-75796895D01*
X191875312Y-75796895D02*
X191946741Y-75758800D01*
X191946741Y-75758800D02*
X191970550Y-75720704D01*
X191970550Y-75720704D02*
X191970550Y-75454038D01*
X191970550Y-75454038D02*
X191875312Y-75454038D01*
X192184836Y-75796895D02*
X192184836Y-74996895D01*
X192184836Y-74996895D02*
X192470550Y-75796895D01*
X192470550Y-75796895D02*
X192470550Y-74996895D01*
X192708646Y-75796895D02*
X192708646Y-74996895D01*
X192708646Y-74996895D02*
X192827694Y-74996895D01*
X192827694Y-74996895D02*
X192899122Y-75034990D01*
X192899122Y-75034990D02*
X192946741Y-75111180D01*
X192946741Y-75111180D02*
X192970551Y-75187371D01*
X192970551Y-75187371D02*
X192994360Y-75339752D01*
X192994360Y-75339752D02*
X192994360Y-75454038D01*
X192994360Y-75454038D02*
X192970551Y-75606419D01*
X192970551Y-75606419D02*
X192946741Y-75682609D01*
X192946741Y-75682609D02*
X192899122Y-75758800D01*
X192899122Y-75758800D02*
X192827694Y-75796895D01*
X192827694Y-75796895D02*
X192708646Y-75796895D01*
X194537217Y-74996895D02*
X194846741Y-74996895D01*
X194846741Y-74996895D02*
X194680074Y-75301657D01*
X194680074Y-75301657D02*
X194751503Y-75301657D01*
X194751503Y-75301657D02*
X194799122Y-75339752D01*
X194799122Y-75339752D02*
X194822931Y-75377847D01*
X194822931Y-75377847D02*
X194846741Y-75454038D01*
X194846741Y-75454038D02*
X194846741Y-75644514D01*
X194846741Y-75644514D02*
X194822931Y-75720704D01*
X194822931Y-75720704D02*
X194799122Y-75758800D01*
X194799122Y-75758800D02*
X194751503Y-75796895D01*
X194751503Y-75796895D02*
X194608646Y-75796895D01*
X194608646Y-75796895D02*
X194561027Y-75758800D01*
X194561027Y-75758800D02*
X194537217Y-75720704D01*
X195061026Y-75720704D02*
X195084836Y-75758800D01*
X195084836Y-75758800D02*
X195061026Y-75796895D01*
X195061026Y-75796895D02*
X195037217Y-75758800D01*
X195037217Y-75758800D02*
X195061026Y-75720704D01*
X195061026Y-75720704D02*
X195061026Y-75796895D01*
X195251502Y-74996895D02*
X195561026Y-74996895D01*
X195561026Y-74996895D02*
X195394359Y-75301657D01*
X195394359Y-75301657D02*
X195465788Y-75301657D01*
X195465788Y-75301657D02*
X195513407Y-75339752D01*
X195513407Y-75339752D02*
X195537216Y-75377847D01*
X195537216Y-75377847D02*
X195561026Y-75454038D01*
X195561026Y-75454038D02*
X195561026Y-75644514D01*
X195561026Y-75644514D02*
X195537216Y-75720704D01*
X195537216Y-75720704D02*
X195513407Y-75758800D01*
X195513407Y-75758800D02*
X195465788Y-75796895D01*
X195465788Y-75796895D02*
X195322931Y-75796895D01*
X195322931Y-75796895D02*
X195275312Y-75758800D01*
X195275312Y-75758800D02*
X195251502Y-75720704D01*
X195727692Y-75263561D02*
X195846740Y-75796895D01*
X195846740Y-75796895D02*
X195965787Y-75263561D01*
X189161027Y-75758800D02*
X189232455Y-75796895D01*
X189232455Y-75796895D02*
X189351503Y-75796895D01*
X189351503Y-75796895D02*
X189399122Y-75758800D01*
X189399122Y-75758800D02*
X189422931Y-75720704D01*
X189422931Y-75720704D02*
X189446741Y-75644514D01*
X189446741Y-75644514D02*
X189446741Y-75568323D01*
X189446741Y-75568323D02*
X189422931Y-75492133D01*
X189422931Y-75492133D02*
X189399122Y-75454038D01*
X189399122Y-75454038D02*
X189351503Y-75415942D01*
X189351503Y-75415942D02*
X189256265Y-75377847D01*
X189256265Y-75377847D02*
X189208646Y-75339752D01*
X189208646Y-75339752D02*
X189184836Y-75301657D01*
X189184836Y-75301657D02*
X189161027Y-75225466D01*
X189161027Y-75225466D02*
X189161027Y-75149276D01*
X189161027Y-75149276D02*
X189184836Y-75073085D01*
X189184836Y-75073085D02*
X189208646Y-75034990D01*
X189208646Y-75034990D02*
X189256265Y-74996895D01*
X189256265Y-74996895D02*
X189375312Y-74996895D01*
X189375312Y-74996895D02*
X189446741Y-75034990D01*
X189946740Y-75720704D02*
X189922931Y-75758800D01*
X189922931Y-75758800D02*
X189851502Y-75796895D01*
X189851502Y-75796895D02*
X189803883Y-75796895D01*
X189803883Y-75796895D02*
X189732455Y-75758800D01*
X189732455Y-75758800D02*
X189684836Y-75682609D01*
X189684836Y-75682609D02*
X189661026Y-75606419D01*
X189661026Y-75606419D02*
X189637217Y-75454038D01*
X189637217Y-75454038D02*
X189637217Y-75339752D01*
X189637217Y-75339752D02*
X189661026Y-75187371D01*
X189661026Y-75187371D02*
X189684836Y-75111180D01*
X189684836Y-75111180D02*
X189732455Y-75034990D01*
X189732455Y-75034990D02*
X189803883Y-74996895D01*
X189803883Y-74996895D02*
X189851502Y-74996895D01*
X189851502Y-74996895D02*
X189922931Y-75034990D01*
X189922931Y-75034990D02*
X189946740Y-75073085D01*
X190399121Y-75796895D02*
X190161026Y-75796895D01*
X190161026Y-75796895D02*
X190161026Y-74996895D01*
X186561027Y-75758800D02*
X186632455Y-75796895D01*
X186632455Y-75796895D02*
X186751503Y-75796895D01*
X186751503Y-75796895D02*
X186799122Y-75758800D01*
X186799122Y-75758800D02*
X186822931Y-75720704D01*
X186822931Y-75720704D02*
X186846741Y-75644514D01*
X186846741Y-75644514D02*
X186846741Y-75568323D01*
X186846741Y-75568323D02*
X186822931Y-75492133D01*
X186822931Y-75492133D02*
X186799122Y-75454038D01*
X186799122Y-75454038D02*
X186751503Y-75415942D01*
X186751503Y-75415942D02*
X186656265Y-75377847D01*
X186656265Y-75377847D02*
X186608646Y-75339752D01*
X186608646Y-75339752D02*
X186584836Y-75301657D01*
X186584836Y-75301657D02*
X186561027Y-75225466D01*
X186561027Y-75225466D02*
X186561027Y-75149276D01*
X186561027Y-75149276D02*
X186584836Y-75073085D01*
X186584836Y-75073085D02*
X186608646Y-75034990D01*
X186608646Y-75034990D02*
X186656265Y-74996895D01*
X186656265Y-74996895D02*
X186775312Y-74996895D01*
X186775312Y-74996895D02*
X186846741Y-75034990D01*
X187061026Y-75796895D02*
X187061026Y-74996895D01*
X187061026Y-74996895D02*
X187180074Y-74996895D01*
X187180074Y-74996895D02*
X187251502Y-75034990D01*
X187251502Y-75034990D02*
X187299121Y-75111180D01*
X187299121Y-75111180D02*
X187322931Y-75187371D01*
X187322931Y-75187371D02*
X187346740Y-75339752D01*
X187346740Y-75339752D02*
X187346740Y-75454038D01*
X187346740Y-75454038D02*
X187322931Y-75606419D01*
X187322931Y-75606419D02*
X187299121Y-75682609D01*
X187299121Y-75682609D02*
X187251502Y-75758800D01*
X187251502Y-75758800D02*
X187180074Y-75796895D01*
X187180074Y-75796895D02*
X187061026Y-75796895D01*
X187537217Y-75568323D02*
X187775312Y-75568323D01*
X187489598Y-75796895D02*
X187656264Y-74996895D01*
X187656264Y-74996895D02*
X187822931Y-75796895D01*
X191737217Y-71196895D02*
X192046741Y-71196895D01*
X192046741Y-71196895D02*
X191880074Y-71501657D01*
X191880074Y-71501657D02*
X191951503Y-71501657D01*
X191951503Y-71501657D02*
X191999122Y-71539752D01*
X191999122Y-71539752D02*
X192022931Y-71577847D01*
X192022931Y-71577847D02*
X192046741Y-71654038D01*
X192046741Y-71654038D02*
X192046741Y-71844514D01*
X192046741Y-71844514D02*
X192022931Y-71920704D01*
X192022931Y-71920704D02*
X191999122Y-71958800D01*
X191999122Y-71958800D02*
X191951503Y-71996895D01*
X191951503Y-71996895D02*
X191808646Y-71996895D01*
X191808646Y-71996895D02*
X191761027Y-71958800D01*
X191761027Y-71958800D02*
X191737217Y-71920704D01*
X192261026Y-71920704D02*
X192284836Y-71958800D01*
X192284836Y-71958800D02*
X192261026Y-71996895D01*
X192261026Y-71996895D02*
X192237217Y-71958800D01*
X192237217Y-71958800D02*
X192261026Y-71920704D01*
X192261026Y-71920704D02*
X192261026Y-71996895D01*
X192451502Y-71196895D02*
X192761026Y-71196895D01*
X192761026Y-71196895D02*
X192594359Y-71501657D01*
X192594359Y-71501657D02*
X192665788Y-71501657D01*
X192665788Y-71501657D02*
X192713407Y-71539752D01*
X192713407Y-71539752D02*
X192737216Y-71577847D01*
X192737216Y-71577847D02*
X192761026Y-71654038D01*
X192761026Y-71654038D02*
X192761026Y-71844514D01*
X192761026Y-71844514D02*
X192737216Y-71920704D01*
X192737216Y-71920704D02*
X192713407Y-71958800D01*
X192713407Y-71958800D02*
X192665788Y-71996895D01*
X192665788Y-71996895D02*
X192522931Y-71996895D01*
X192522931Y-71996895D02*
X192475312Y-71958800D01*
X192475312Y-71958800D02*
X192451502Y-71920704D01*
X192927692Y-71463561D02*
X193046740Y-71996895D01*
X193046740Y-71996895D02*
X193165787Y-71463561D01*
X189161027Y-71958800D02*
X189232455Y-71996895D01*
X189232455Y-71996895D02*
X189351503Y-71996895D01*
X189351503Y-71996895D02*
X189399122Y-71958800D01*
X189399122Y-71958800D02*
X189422931Y-71920704D01*
X189422931Y-71920704D02*
X189446741Y-71844514D01*
X189446741Y-71844514D02*
X189446741Y-71768323D01*
X189446741Y-71768323D02*
X189422931Y-71692133D01*
X189422931Y-71692133D02*
X189399122Y-71654038D01*
X189399122Y-71654038D02*
X189351503Y-71615942D01*
X189351503Y-71615942D02*
X189256265Y-71577847D01*
X189256265Y-71577847D02*
X189208646Y-71539752D01*
X189208646Y-71539752D02*
X189184836Y-71501657D01*
X189184836Y-71501657D02*
X189161027Y-71425466D01*
X189161027Y-71425466D02*
X189161027Y-71349276D01*
X189161027Y-71349276D02*
X189184836Y-71273085D01*
X189184836Y-71273085D02*
X189208646Y-71234990D01*
X189208646Y-71234990D02*
X189256265Y-71196895D01*
X189256265Y-71196895D02*
X189375312Y-71196895D01*
X189375312Y-71196895D02*
X189446741Y-71234990D01*
X189946740Y-71920704D02*
X189922931Y-71958800D01*
X189922931Y-71958800D02*
X189851502Y-71996895D01*
X189851502Y-71996895D02*
X189803883Y-71996895D01*
X189803883Y-71996895D02*
X189732455Y-71958800D01*
X189732455Y-71958800D02*
X189684836Y-71882609D01*
X189684836Y-71882609D02*
X189661026Y-71806419D01*
X189661026Y-71806419D02*
X189637217Y-71654038D01*
X189637217Y-71654038D02*
X189637217Y-71539752D01*
X189637217Y-71539752D02*
X189661026Y-71387371D01*
X189661026Y-71387371D02*
X189684836Y-71311180D01*
X189684836Y-71311180D02*
X189732455Y-71234990D01*
X189732455Y-71234990D02*
X189803883Y-71196895D01*
X189803883Y-71196895D02*
X189851502Y-71196895D01*
X189851502Y-71196895D02*
X189922931Y-71234990D01*
X189922931Y-71234990D02*
X189946740Y-71273085D01*
X190399121Y-71996895D02*
X190161026Y-71996895D01*
X190161026Y-71996895D02*
X190161026Y-71196895D01*
X186661027Y-71958800D02*
X186732455Y-71996895D01*
X186732455Y-71996895D02*
X186851503Y-71996895D01*
X186851503Y-71996895D02*
X186899122Y-71958800D01*
X186899122Y-71958800D02*
X186922931Y-71920704D01*
X186922931Y-71920704D02*
X186946741Y-71844514D01*
X186946741Y-71844514D02*
X186946741Y-71768323D01*
X186946741Y-71768323D02*
X186922931Y-71692133D01*
X186922931Y-71692133D02*
X186899122Y-71654038D01*
X186899122Y-71654038D02*
X186851503Y-71615942D01*
X186851503Y-71615942D02*
X186756265Y-71577847D01*
X186756265Y-71577847D02*
X186708646Y-71539752D01*
X186708646Y-71539752D02*
X186684836Y-71501657D01*
X186684836Y-71501657D02*
X186661027Y-71425466D01*
X186661027Y-71425466D02*
X186661027Y-71349276D01*
X186661027Y-71349276D02*
X186684836Y-71273085D01*
X186684836Y-71273085D02*
X186708646Y-71234990D01*
X186708646Y-71234990D02*
X186756265Y-71196895D01*
X186756265Y-71196895D02*
X186875312Y-71196895D01*
X186875312Y-71196895D02*
X186946741Y-71234990D01*
X187161026Y-71996895D02*
X187161026Y-71196895D01*
X187161026Y-71196895D02*
X187280074Y-71196895D01*
X187280074Y-71196895D02*
X187351502Y-71234990D01*
X187351502Y-71234990D02*
X187399121Y-71311180D01*
X187399121Y-71311180D02*
X187422931Y-71387371D01*
X187422931Y-71387371D02*
X187446740Y-71539752D01*
X187446740Y-71539752D02*
X187446740Y-71654038D01*
X187446740Y-71654038D02*
X187422931Y-71806419D01*
X187422931Y-71806419D02*
X187399121Y-71882609D01*
X187399121Y-71882609D02*
X187351502Y-71958800D01*
X187351502Y-71958800D02*
X187280074Y-71996895D01*
X187280074Y-71996895D02*
X187161026Y-71996895D01*
X187637217Y-71768323D02*
X187875312Y-71768323D01*
X187589598Y-71996895D02*
X187756264Y-71196895D01*
X187756264Y-71196895D02*
X187922931Y-71996895D01*
X184246741Y-71234990D02*
X184199122Y-71196895D01*
X184199122Y-71196895D02*
X184127693Y-71196895D01*
X184127693Y-71196895D02*
X184056265Y-71234990D01*
X184056265Y-71234990D02*
X184008646Y-71311180D01*
X184008646Y-71311180D02*
X183984836Y-71387371D01*
X183984836Y-71387371D02*
X183961027Y-71539752D01*
X183961027Y-71539752D02*
X183961027Y-71654038D01*
X183961027Y-71654038D02*
X183984836Y-71806419D01*
X183984836Y-71806419D02*
X184008646Y-71882609D01*
X184008646Y-71882609D02*
X184056265Y-71958800D01*
X184056265Y-71958800D02*
X184127693Y-71996895D01*
X184127693Y-71996895D02*
X184175312Y-71996895D01*
X184175312Y-71996895D02*
X184246741Y-71958800D01*
X184246741Y-71958800D02*
X184270550Y-71920704D01*
X184270550Y-71920704D02*
X184270550Y-71654038D01*
X184270550Y-71654038D02*
X184175312Y-71654038D01*
X184484836Y-71996895D02*
X184484836Y-71196895D01*
X184484836Y-71196895D02*
X184770550Y-71996895D01*
X184770550Y-71996895D02*
X184770550Y-71196895D01*
X185008646Y-71996895D02*
X185008646Y-71196895D01*
X185008646Y-71196895D02*
X185127694Y-71196895D01*
X185127694Y-71196895D02*
X185199122Y-71234990D01*
X185199122Y-71234990D02*
X185246741Y-71311180D01*
X185246741Y-71311180D02*
X185270551Y-71387371D01*
X185270551Y-71387371D02*
X185294360Y-71539752D01*
X185294360Y-71539752D02*
X185294360Y-71654038D01*
X185294360Y-71654038D02*
X185270551Y-71806419D01*
X185270551Y-71806419D02*
X185246741Y-71882609D01*
X185246741Y-71882609D02*
X185199122Y-71958800D01*
X185199122Y-71958800D02*
X185127694Y-71996895D01*
X185127694Y-71996895D02*
X185008646Y-71996895D01*
D11*
X184363188Y-108733690D02*
X184315569Y-108695595D01*
X184315569Y-108695595D02*
X184244140Y-108695595D01*
X184244140Y-108695595D02*
X184172712Y-108733690D01*
X184172712Y-108733690D02*
X184125093Y-108809880D01*
X184125093Y-108809880D02*
X184101283Y-108886071D01*
X184101283Y-108886071D02*
X184077474Y-109038452D01*
X184077474Y-109038452D02*
X184077474Y-109152738D01*
X184077474Y-109152738D02*
X184101283Y-109305119D01*
X184101283Y-109305119D02*
X184125093Y-109381309D01*
X184125093Y-109381309D02*
X184172712Y-109457500D01*
X184172712Y-109457500D02*
X184244140Y-109495595D01*
X184244140Y-109495595D02*
X184291759Y-109495595D01*
X184291759Y-109495595D02*
X184363188Y-109457500D01*
X184363188Y-109457500D02*
X184386997Y-109419404D01*
X184386997Y-109419404D02*
X184386997Y-109152738D01*
X184386997Y-109152738D02*
X184291759Y-109152738D01*
X184601283Y-109495595D02*
X184601283Y-108695595D01*
X184601283Y-108695595D02*
X184886997Y-109495595D01*
X184886997Y-109495595D02*
X184886997Y-108695595D01*
X185125093Y-109495595D02*
X185125093Y-108695595D01*
X185125093Y-108695595D02*
X185244141Y-108695595D01*
X185244141Y-108695595D02*
X185315569Y-108733690D01*
X185315569Y-108733690D02*
X185363188Y-108809880D01*
X185363188Y-108809880D02*
X185386998Y-108886071D01*
X185386998Y-108886071D02*
X185410807Y-109038452D01*
X185410807Y-109038452D02*
X185410807Y-109152738D01*
X185410807Y-109152738D02*
X185386998Y-109305119D01*
X185386998Y-109305119D02*
X185363188Y-109381309D01*
X185363188Y-109381309D02*
X185315569Y-109457500D01*
X185315569Y-109457500D02*
X185244141Y-109495595D01*
X185244141Y-109495595D02*
X185125093Y-109495595D01*
D10*
X188899122Y-107863561D02*
X188899122Y-108396895D01*
X188780074Y-107558800D02*
X188661027Y-108130228D01*
X188661027Y-108130228D02*
X188970550Y-108130228D01*
X185837217Y-107596895D02*
X186146741Y-107596895D01*
X186146741Y-107596895D02*
X185980074Y-107901657D01*
X185980074Y-107901657D02*
X186051503Y-107901657D01*
X186051503Y-107901657D02*
X186099122Y-107939752D01*
X186099122Y-107939752D02*
X186122931Y-107977847D01*
X186122931Y-107977847D02*
X186146741Y-108054038D01*
X186146741Y-108054038D02*
X186146741Y-108244514D01*
X186146741Y-108244514D02*
X186122931Y-108320704D01*
X186122931Y-108320704D02*
X186099122Y-108358800D01*
X186099122Y-108358800D02*
X186051503Y-108396895D01*
X186051503Y-108396895D02*
X185908646Y-108396895D01*
X185908646Y-108396895D02*
X185861027Y-108358800D01*
X185861027Y-108358800D02*
X185837217Y-108320704D01*
X183261027Y-107573085D02*
X183284836Y-107534990D01*
X183284836Y-107534990D02*
X183332455Y-107496895D01*
X183332455Y-107496895D02*
X183451503Y-107496895D01*
X183451503Y-107496895D02*
X183499122Y-107534990D01*
X183499122Y-107534990D02*
X183522931Y-107573085D01*
X183522931Y-107573085D02*
X183546741Y-107649276D01*
X183546741Y-107649276D02*
X183546741Y-107725466D01*
X183546741Y-107725466D02*
X183522931Y-107839752D01*
X183522931Y-107839752D02*
X183237217Y-108296895D01*
X183237217Y-108296895D02*
X183546741Y-108296895D01*
X180946741Y-108396895D02*
X180661027Y-108396895D01*
X180803884Y-108396895D02*
X180803884Y-107596895D01*
X180803884Y-107596895D02*
X180756265Y-107711180D01*
X180756265Y-107711180D02*
X180708646Y-107787371D01*
X180708646Y-107787371D02*
X180661027Y-107825466D01*
D11*
X183301283Y-104295595D02*
X183301283Y-103495595D01*
X183301283Y-103495595D02*
X183491759Y-103495595D01*
X183491759Y-103495595D02*
X183539378Y-103533690D01*
X183539378Y-103533690D02*
X183563188Y-103571785D01*
X183563188Y-103571785D02*
X183586997Y-103647976D01*
X183586997Y-103647976D02*
X183586997Y-103762261D01*
X183586997Y-103762261D02*
X183563188Y-103838452D01*
X183563188Y-103838452D02*
X183539378Y-103876547D01*
X183539378Y-103876547D02*
X183491759Y-103914642D01*
X183491759Y-103914642D02*
X183301283Y-103914642D01*
X183753664Y-103495595D02*
X183872712Y-104295595D01*
X183872712Y-104295595D02*
X183967950Y-103724166D01*
X183967950Y-103724166D02*
X184063188Y-104295595D01*
X184063188Y-104295595D02*
X184182236Y-103495595D01*
X184372712Y-104295595D02*
X184372712Y-103495595D01*
X184372712Y-103495595D02*
X184539379Y-104067023D01*
X184539379Y-104067023D02*
X184706045Y-103495595D01*
X184706045Y-103495595D02*
X184706045Y-104295595D01*
X185420331Y-103495595D02*
X185515569Y-103495595D01*
X185515569Y-103495595D02*
X185563188Y-103533690D01*
X185563188Y-103533690D02*
X185610807Y-103609880D01*
X185610807Y-103609880D02*
X185634617Y-103762261D01*
X185634617Y-103762261D02*
X185634617Y-104028928D01*
X185634617Y-104028928D02*
X185610807Y-104181309D01*
X185610807Y-104181309D02*
X185563188Y-104257500D01*
X185563188Y-104257500D02*
X185515569Y-104295595D01*
X185515569Y-104295595D02*
X185420331Y-104295595D01*
X185420331Y-104295595D02*
X185372712Y-104257500D01*
X185372712Y-104257500D02*
X185325093Y-104181309D01*
X185325093Y-104181309D02*
X185301284Y-104028928D01*
X185301284Y-104028928D02*
X185301284Y-103762261D01*
X185301284Y-103762261D02*
X185325093Y-103609880D01*
X185325093Y-103609880D02*
X185372712Y-103533690D01*
X185372712Y-103533690D02*
X185420331Y-103495595D01*
X185848903Y-103495595D02*
X185848903Y-104143214D01*
X185848903Y-104143214D02*
X185872713Y-104219404D01*
X185872713Y-104219404D02*
X185896522Y-104257500D01*
X185896522Y-104257500D02*
X185944141Y-104295595D01*
X185944141Y-104295595D02*
X186039379Y-104295595D01*
X186039379Y-104295595D02*
X186086998Y-104257500D01*
X186086998Y-104257500D02*
X186110808Y-104219404D01*
X186110808Y-104219404D02*
X186134617Y-104143214D01*
X186134617Y-104143214D02*
X186134617Y-103495595D01*
X186301285Y-103495595D02*
X186586999Y-103495595D01*
X186444142Y-104295595D02*
X186444142Y-103495595D01*
X163795595Y-109703478D02*
X163795595Y-109608240D01*
X163795595Y-109608240D02*
X163833690Y-109560621D01*
X163833690Y-109560621D02*
X163909880Y-109513002D01*
X163909880Y-109513002D02*
X164062261Y-109489192D01*
X164062261Y-109489192D02*
X164328928Y-109489192D01*
X164328928Y-109489192D02*
X164481309Y-109513002D01*
X164481309Y-109513002D02*
X164557500Y-109560621D01*
X164557500Y-109560621D02*
X164595595Y-109608240D01*
X164595595Y-109608240D02*
X164595595Y-109703478D01*
X164595595Y-109703478D02*
X164557500Y-109751097D01*
X164557500Y-109751097D02*
X164481309Y-109798716D01*
X164481309Y-109798716D02*
X164328928Y-109822525D01*
X164328928Y-109822525D02*
X164062261Y-109822525D01*
X164062261Y-109822525D02*
X163909880Y-109798716D01*
X163909880Y-109798716D02*
X163833690Y-109751097D01*
X163833690Y-109751097D02*
X163795595Y-109703478D01*
X164176547Y-109108239D02*
X164176547Y-109274906D01*
X164595595Y-109274906D02*
X163795595Y-109274906D01*
X163795595Y-109274906D02*
X163795595Y-109036811D01*
X164176547Y-108679668D02*
X164176547Y-108846335D01*
X164595595Y-108846335D02*
X163795595Y-108846335D01*
X163795595Y-108846335D02*
X163795595Y-108608240D01*
X163795595Y-101803478D02*
X163795595Y-101708240D01*
X163795595Y-101708240D02*
X163833690Y-101660621D01*
X163833690Y-101660621D02*
X163909880Y-101613002D01*
X163909880Y-101613002D02*
X164062261Y-101589192D01*
X164062261Y-101589192D02*
X164328928Y-101589192D01*
X164328928Y-101589192D02*
X164481309Y-101613002D01*
X164481309Y-101613002D02*
X164557500Y-101660621D01*
X164557500Y-101660621D02*
X164595595Y-101708240D01*
X164595595Y-101708240D02*
X164595595Y-101803478D01*
X164595595Y-101803478D02*
X164557500Y-101851097D01*
X164557500Y-101851097D02*
X164481309Y-101898716D01*
X164481309Y-101898716D02*
X164328928Y-101922525D01*
X164328928Y-101922525D02*
X164062261Y-101922525D01*
X164062261Y-101922525D02*
X163909880Y-101898716D01*
X163909880Y-101898716D02*
X163833690Y-101851097D01*
X163833690Y-101851097D02*
X163795595Y-101803478D01*
X164595595Y-101374906D02*
X163795595Y-101374906D01*
X163795595Y-101374906D02*
X164595595Y-101089192D01*
X164595595Y-101089192D02*
X163795595Y-101089192D01*
D14*
X177823809Y-84978628D02*
X177823809Y-85454819D01*
X177490476Y-84454819D02*
X177823809Y-84978628D01*
X177823809Y-84978628D02*
X178157142Y-84454819D01*
X179014285Y-85454819D02*
X178442857Y-85454819D01*
X178728571Y-85454819D02*
X178728571Y-84454819D01*
X178728571Y-84454819D02*
X178633333Y-84597676D01*
X178633333Y-84597676D02*
X178538095Y-84692914D01*
X178538095Y-84692914D02*
X178442857Y-84740533D01*
X180528095Y-71204819D02*
X180528095Y-72014342D01*
X180528095Y-72014342D02*
X180575714Y-72109580D01*
X180575714Y-72109580D02*
X180623333Y-72157200D01*
X180623333Y-72157200D02*
X180718571Y-72204819D01*
X180718571Y-72204819D02*
X180909047Y-72204819D01*
X180909047Y-72204819D02*
X181004285Y-72157200D01*
X181004285Y-72157200D02*
X181051904Y-72109580D01*
X181051904Y-72109580D02*
X181099523Y-72014342D01*
X181099523Y-72014342D02*
X181099523Y-71204819D01*
X181480476Y-71204819D02*
X182099523Y-71204819D01*
X182099523Y-71204819D02*
X181766190Y-71585771D01*
X181766190Y-71585771D02*
X181909047Y-71585771D01*
X181909047Y-71585771D02*
X182004285Y-71633390D01*
X182004285Y-71633390D02*
X182051904Y-71681009D01*
X182051904Y-71681009D02*
X182099523Y-71776247D01*
X182099523Y-71776247D02*
X182099523Y-72014342D01*
X182099523Y-72014342D02*
X182051904Y-72109580D01*
X182051904Y-72109580D02*
X182004285Y-72157200D01*
X182004285Y-72157200D02*
X181909047Y-72204819D01*
X181909047Y-72204819D02*
X181623333Y-72204819D01*
X181623333Y-72204819D02*
X181528095Y-72157200D01*
X181528095Y-72157200D02*
X181480476Y-72109580D01*
X194938095Y-82454819D02*
X194938095Y-83264342D01*
X194938095Y-83264342D02*
X194985714Y-83359580D01*
X194985714Y-83359580D02*
X195033333Y-83407200D01*
X195033333Y-83407200D02*
X195128571Y-83454819D01*
X195128571Y-83454819D02*
X195319047Y-83454819D01*
X195319047Y-83454819D02*
X195414285Y-83407200D01*
X195414285Y-83407200D02*
X195461904Y-83359580D01*
X195461904Y-83359580D02*
X195509523Y-83264342D01*
X195509523Y-83264342D02*
X195509523Y-82454819D01*
X195938095Y-82550057D02*
X195985714Y-82502438D01*
X195985714Y-82502438D02*
X196080952Y-82454819D01*
X196080952Y-82454819D02*
X196319047Y-82454819D01*
X196319047Y-82454819D02*
X196414285Y-82502438D01*
X196414285Y-82502438D02*
X196461904Y-82550057D01*
X196461904Y-82550057D02*
X196509523Y-82645295D01*
X196509523Y-82645295D02*
X196509523Y-82740533D01*
X196509523Y-82740533D02*
X196461904Y-82883390D01*
X196461904Y-82883390D02*
X195890476Y-83454819D01*
X195890476Y-83454819D02*
X196509523Y-83454819D01*
X156838095Y-72654819D02*
X156838095Y-73464342D01*
X156838095Y-73464342D02*
X156885714Y-73559580D01*
X156885714Y-73559580D02*
X156933333Y-73607200D01*
X156933333Y-73607200D02*
X157028571Y-73654819D01*
X157028571Y-73654819D02*
X157219047Y-73654819D01*
X157219047Y-73654819D02*
X157314285Y-73607200D01*
X157314285Y-73607200D02*
X157361904Y-73559580D01*
X157361904Y-73559580D02*
X157409523Y-73464342D01*
X157409523Y-73464342D02*
X157409523Y-72654819D01*
X158409523Y-73654819D02*
X157838095Y-73654819D01*
X158123809Y-73654819D02*
X158123809Y-72654819D01*
X158123809Y-72654819D02*
X158028571Y-72797676D01*
X158028571Y-72797676D02*
X157933333Y-72892914D01*
X157933333Y-72892914D02*
X157838095Y-72940533D01*
X180657200Y-69133332D02*
X180704819Y-68990475D01*
X180704819Y-68990475D02*
X180704819Y-68752380D01*
X180704819Y-68752380D02*
X180657200Y-68657142D01*
X180657200Y-68657142D02*
X180609580Y-68609523D01*
X180609580Y-68609523D02*
X180514342Y-68561904D01*
X180514342Y-68561904D02*
X180419104Y-68561904D01*
X180419104Y-68561904D02*
X180323866Y-68609523D01*
X180323866Y-68609523D02*
X180276247Y-68657142D01*
X180276247Y-68657142D02*
X180228628Y-68752380D01*
X180228628Y-68752380D02*
X180181009Y-68942856D01*
X180181009Y-68942856D02*
X180133390Y-69038094D01*
X180133390Y-69038094D02*
X180085771Y-69085713D01*
X180085771Y-69085713D02*
X179990533Y-69133332D01*
X179990533Y-69133332D02*
X179895295Y-69133332D01*
X179895295Y-69133332D02*
X179800057Y-69085713D01*
X179800057Y-69085713D02*
X179752438Y-69038094D01*
X179752438Y-69038094D02*
X179704819Y-68942856D01*
X179704819Y-68942856D02*
X179704819Y-68704761D01*
X179704819Y-68704761D02*
X179752438Y-68561904D01*
X179704819Y-68228570D02*
X180704819Y-67990475D01*
X180704819Y-67990475D02*
X179990533Y-67799999D01*
X179990533Y-67799999D02*
X180704819Y-67609523D01*
X180704819Y-67609523D02*
X179704819Y-67371428D01*
X179704819Y-67085713D02*
X179704819Y-66466666D01*
X179704819Y-66466666D02*
X180085771Y-66799999D01*
X180085771Y-66799999D02*
X180085771Y-66657142D01*
X180085771Y-66657142D02*
X180133390Y-66561904D01*
X180133390Y-66561904D02*
X180181009Y-66514285D01*
X180181009Y-66514285D02*
X180276247Y-66466666D01*
X180276247Y-66466666D02*
X180514342Y-66466666D01*
X180514342Y-66466666D02*
X180609580Y-66514285D01*
X180609580Y-66514285D02*
X180657200Y-66561904D01*
X180657200Y-66561904D02*
X180704819Y-66657142D01*
X180704819Y-66657142D02*
X180704819Y-66942856D01*
X180704819Y-66942856D02*
X180657200Y-67038094D01*
X180657200Y-67038094D02*
X180609580Y-67085713D01*
X196757142Y-106154819D02*
X196423809Y-105678628D01*
X196185714Y-106154819D02*
X196185714Y-105154819D01*
X196185714Y-105154819D02*
X196566666Y-105154819D01*
X196566666Y-105154819D02*
X196661904Y-105202438D01*
X196661904Y-105202438D02*
X196709523Y-105250057D01*
X196709523Y-105250057D02*
X196757142Y-105345295D01*
X196757142Y-105345295D02*
X196757142Y-105488152D01*
X196757142Y-105488152D02*
X196709523Y-105583390D01*
X196709523Y-105583390D02*
X196661904Y-105631009D01*
X196661904Y-105631009D02*
X196566666Y-105678628D01*
X196566666Y-105678628D02*
X196185714Y-105678628D01*
X197709523Y-106154819D02*
X197138095Y-106154819D01*
X197423809Y-106154819D02*
X197423809Y-105154819D01*
X197423809Y-105154819D02*
X197328571Y-105297676D01*
X197328571Y-105297676D02*
X197233333Y-105392914D01*
X197233333Y-105392914D02*
X197138095Y-105440533D01*
X198042857Y-105154819D02*
X198661904Y-105154819D01*
X198661904Y-105154819D02*
X198328571Y-105535771D01*
X198328571Y-105535771D02*
X198471428Y-105535771D01*
X198471428Y-105535771D02*
X198566666Y-105583390D01*
X198566666Y-105583390D02*
X198614285Y-105631009D01*
X198614285Y-105631009D02*
X198661904Y-105726247D01*
X198661904Y-105726247D02*
X198661904Y-105964342D01*
X198661904Y-105964342D02*
X198614285Y-106059580D01*
X198614285Y-106059580D02*
X198566666Y-106107200D01*
X198566666Y-106107200D02*
X198471428Y-106154819D01*
X198471428Y-106154819D02*
X198185714Y-106154819D01*
X198185714Y-106154819D02*
X198090476Y-106107200D01*
X198090476Y-106107200D02*
X198042857Y-106059580D01*
X187357142Y-80454819D02*
X187023809Y-79978628D01*
X186785714Y-80454819D02*
X186785714Y-79454819D01*
X186785714Y-79454819D02*
X187166666Y-79454819D01*
X187166666Y-79454819D02*
X187261904Y-79502438D01*
X187261904Y-79502438D02*
X187309523Y-79550057D01*
X187309523Y-79550057D02*
X187357142Y-79645295D01*
X187357142Y-79645295D02*
X187357142Y-79788152D01*
X187357142Y-79788152D02*
X187309523Y-79883390D01*
X187309523Y-79883390D02*
X187261904Y-79931009D01*
X187261904Y-79931009D02*
X187166666Y-79978628D01*
X187166666Y-79978628D02*
X186785714Y-79978628D01*
X188309523Y-80454819D02*
X187738095Y-80454819D01*
X188023809Y-80454819D02*
X188023809Y-79454819D01*
X188023809Y-79454819D02*
X187928571Y-79597676D01*
X187928571Y-79597676D02*
X187833333Y-79692914D01*
X187833333Y-79692914D02*
X187738095Y-79740533D01*
X189261904Y-80454819D02*
X188690476Y-80454819D01*
X188976190Y-80454819D02*
X188976190Y-79454819D01*
X188976190Y-79454819D02*
X188880952Y-79597676D01*
X188880952Y-79597676D02*
X188785714Y-79692914D01*
X188785714Y-79692914D02*
X188690476Y-79740533D01*
X191033333Y-79054819D02*
X190700000Y-78578628D01*
X190461905Y-79054819D02*
X190461905Y-78054819D01*
X190461905Y-78054819D02*
X190842857Y-78054819D01*
X190842857Y-78054819D02*
X190938095Y-78102438D01*
X190938095Y-78102438D02*
X190985714Y-78150057D01*
X190985714Y-78150057D02*
X191033333Y-78245295D01*
X191033333Y-78245295D02*
X191033333Y-78388152D01*
X191033333Y-78388152D02*
X190985714Y-78483390D01*
X190985714Y-78483390D02*
X190938095Y-78531009D01*
X190938095Y-78531009D02*
X190842857Y-78578628D01*
X190842857Y-78578628D02*
X190461905Y-78578628D01*
X191509524Y-79054819D02*
X191700000Y-79054819D01*
X191700000Y-79054819D02*
X191795238Y-79007200D01*
X191795238Y-79007200D02*
X191842857Y-78959580D01*
X191842857Y-78959580D02*
X191938095Y-78816723D01*
X191938095Y-78816723D02*
X191985714Y-78626247D01*
X191985714Y-78626247D02*
X191985714Y-78245295D01*
X191985714Y-78245295D02*
X191938095Y-78150057D01*
X191938095Y-78150057D02*
X191890476Y-78102438D01*
X191890476Y-78102438D02*
X191795238Y-78054819D01*
X191795238Y-78054819D02*
X191604762Y-78054819D01*
X191604762Y-78054819D02*
X191509524Y-78102438D01*
X191509524Y-78102438D02*
X191461905Y-78150057D01*
X191461905Y-78150057D02*
X191414286Y-78245295D01*
X191414286Y-78245295D02*
X191414286Y-78483390D01*
X191414286Y-78483390D02*
X191461905Y-78578628D01*
X191461905Y-78578628D02*
X191509524Y-78626247D01*
X191509524Y-78626247D02*
X191604762Y-78673866D01*
X191604762Y-78673866D02*
X191795238Y-78673866D01*
X191795238Y-78673866D02*
X191890476Y-78626247D01*
X191890476Y-78626247D02*
X191938095Y-78578628D01*
X191938095Y-78578628D02*
X191985714Y-78483390D01*
X178357142Y-74954819D02*
X178023809Y-74478628D01*
X177785714Y-74954819D02*
X177785714Y-73954819D01*
X177785714Y-73954819D02*
X178166666Y-73954819D01*
X178166666Y-73954819D02*
X178261904Y-74002438D01*
X178261904Y-74002438D02*
X178309523Y-74050057D01*
X178309523Y-74050057D02*
X178357142Y-74145295D01*
X178357142Y-74145295D02*
X178357142Y-74288152D01*
X178357142Y-74288152D02*
X178309523Y-74383390D01*
X178309523Y-74383390D02*
X178261904Y-74431009D01*
X178261904Y-74431009D02*
X178166666Y-74478628D01*
X178166666Y-74478628D02*
X177785714Y-74478628D01*
X179309523Y-74954819D02*
X178738095Y-74954819D01*
X179023809Y-74954819D02*
X179023809Y-73954819D01*
X179023809Y-73954819D02*
X178928571Y-74097676D01*
X178928571Y-74097676D02*
X178833333Y-74192914D01*
X178833333Y-74192914D02*
X178738095Y-74240533D01*
X179928571Y-73954819D02*
X180023809Y-73954819D01*
X180023809Y-73954819D02*
X180119047Y-74002438D01*
X180119047Y-74002438D02*
X180166666Y-74050057D01*
X180166666Y-74050057D02*
X180214285Y-74145295D01*
X180214285Y-74145295D02*
X180261904Y-74335771D01*
X180261904Y-74335771D02*
X180261904Y-74573866D01*
X180261904Y-74573866D02*
X180214285Y-74764342D01*
X180214285Y-74764342D02*
X180166666Y-74859580D01*
X180166666Y-74859580D02*
X180119047Y-74907200D01*
X180119047Y-74907200D02*
X180023809Y-74954819D01*
X180023809Y-74954819D02*
X179928571Y-74954819D01*
X179928571Y-74954819D02*
X179833333Y-74907200D01*
X179833333Y-74907200D02*
X179785714Y-74859580D01*
X179785714Y-74859580D02*
X179738095Y-74764342D01*
X179738095Y-74764342D02*
X179690476Y-74573866D01*
X179690476Y-74573866D02*
X179690476Y-74335771D01*
X179690476Y-74335771D02*
X179738095Y-74145295D01*
X179738095Y-74145295D02*
X179785714Y-74050057D01*
X179785714Y-74050057D02*
X179833333Y-74002438D01*
X179833333Y-74002438D02*
X179928571Y-73954819D01*
X178083333Y-73204819D02*
X177750000Y-72728628D01*
X177511905Y-73204819D02*
X177511905Y-72204819D01*
X177511905Y-72204819D02*
X177892857Y-72204819D01*
X177892857Y-72204819D02*
X177988095Y-72252438D01*
X177988095Y-72252438D02*
X178035714Y-72300057D01*
X178035714Y-72300057D02*
X178083333Y-72395295D01*
X178083333Y-72395295D02*
X178083333Y-72538152D01*
X178083333Y-72538152D02*
X178035714Y-72633390D01*
X178035714Y-72633390D02*
X177988095Y-72681009D01*
X177988095Y-72681009D02*
X177892857Y-72728628D01*
X177892857Y-72728628D02*
X177511905Y-72728628D01*
X178654762Y-72633390D02*
X178559524Y-72585771D01*
X178559524Y-72585771D02*
X178511905Y-72538152D01*
X178511905Y-72538152D02*
X178464286Y-72442914D01*
X178464286Y-72442914D02*
X178464286Y-72395295D01*
X178464286Y-72395295D02*
X178511905Y-72300057D01*
X178511905Y-72300057D02*
X178559524Y-72252438D01*
X178559524Y-72252438D02*
X178654762Y-72204819D01*
X178654762Y-72204819D02*
X178845238Y-72204819D01*
X178845238Y-72204819D02*
X178940476Y-72252438D01*
X178940476Y-72252438D02*
X178988095Y-72300057D01*
X178988095Y-72300057D02*
X179035714Y-72395295D01*
X179035714Y-72395295D02*
X179035714Y-72442914D01*
X179035714Y-72442914D02*
X178988095Y-72538152D01*
X178988095Y-72538152D02*
X178940476Y-72585771D01*
X178940476Y-72585771D02*
X178845238Y-72633390D01*
X178845238Y-72633390D02*
X178654762Y-72633390D01*
X178654762Y-72633390D02*
X178559524Y-72681009D01*
X178559524Y-72681009D02*
X178511905Y-72728628D01*
X178511905Y-72728628D02*
X178464286Y-72823866D01*
X178464286Y-72823866D02*
X178464286Y-73014342D01*
X178464286Y-73014342D02*
X178511905Y-73109580D01*
X178511905Y-73109580D02*
X178559524Y-73157200D01*
X178559524Y-73157200D02*
X178654762Y-73204819D01*
X178654762Y-73204819D02*
X178845238Y-73204819D01*
X178845238Y-73204819D02*
X178940476Y-73157200D01*
X178940476Y-73157200D02*
X178988095Y-73109580D01*
X178988095Y-73109580D02*
X179035714Y-73014342D01*
X179035714Y-73014342D02*
X179035714Y-72823866D01*
X179035714Y-72823866D02*
X178988095Y-72728628D01*
X178988095Y-72728628D02*
X178940476Y-72681009D01*
X178940476Y-72681009D02*
X178845238Y-72633390D01*
X190583333Y-97454819D02*
X190250000Y-96978628D01*
X190011905Y-97454819D02*
X190011905Y-96454819D01*
X190011905Y-96454819D02*
X190392857Y-96454819D01*
X190392857Y-96454819D02*
X190488095Y-96502438D01*
X190488095Y-96502438D02*
X190535714Y-96550057D01*
X190535714Y-96550057D02*
X190583333Y-96645295D01*
X190583333Y-96645295D02*
X190583333Y-96788152D01*
X190583333Y-96788152D02*
X190535714Y-96883390D01*
X190535714Y-96883390D02*
X190488095Y-96931009D01*
X190488095Y-96931009D02*
X190392857Y-96978628D01*
X190392857Y-96978628D02*
X190011905Y-96978628D01*
X190916667Y-96454819D02*
X191583333Y-96454819D01*
X191583333Y-96454819D02*
X191154762Y-97454819D01*
X188433333Y-99204819D02*
X188100000Y-98728628D01*
X187861905Y-99204819D02*
X187861905Y-98204819D01*
X187861905Y-98204819D02*
X188242857Y-98204819D01*
X188242857Y-98204819D02*
X188338095Y-98252438D01*
X188338095Y-98252438D02*
X188385714Y-98300057D01*
X188385714Y-98300057D02*
X188433333Y-98395295D01*
X188433333Y-98395295D02*
X188433333Y-98538152D01*
X188433333Y-98538152D02*
X188385714Y-98633390D01*
X188385714Y-98633390D02*
X188338095Y-98681009D01*
X188338095Y-98681009D02*
X188242857Y-98728628D01*
X188242857Y-98728628D02*
X187861905Y-98728628D01*
X189290476Y-98204819D02*
X189100000Y-98204819D01*
X189100000Y-98204819D02*
X189004762Y-98252438D01*
X189004762Y-98252438D02*
X188957143Y-98300057D01*
X188957143Y-98300057D02*
X188861905Y-98442914D01*
X188861905Y-98442914D02*
X188814286Y-98633390D01*
X188814286Y-98633390D02*
X188814286Y-99014342D01*
X188814286Y-99014342D02*
X188861905Y-99109580D01*
X188861905Y-99109580D02*
X188909524Y-99157200D01*
X188909524Y-99157200D02*
X189004762Y-99204819D01*
X189004762Y-99204819D02*
X189195238Y-99204819D01*
X189195238Y-99204819D02*
X189290476Y-99157200D01*
X189290476Y-99157200D02*
X189338095Y-99109580D01*
X189338095Y-99109580D02*
X189385714Y-99014342D01*
X189385714Y-99014342D02*
X189385714Y-98776247D01*
X189385714Y-98776247D02*
X189338095Y-98681009D01*
X189338095Y-98681009D02*
X189290476Y-98633390D01*
X189290476Y-98633390D02*
X189195238Y-98585771D01*
X189195238Y-98585771D02*
X189004762Y-98585771D01*
X189004762Y-98585771D02*
X188909524Y-98633390D01*
X188909524Y-98633390D02*
X188861905Y-98681009D01*
X188861905Y-98681009D02*
X188814286Y-98776247D01*
X178233333Y-78454819D02*
X177900000Y-77978628D01*
X177661905Y-78454819D02*
X177661905Y-77454819D01*
X177661905Y-77454819D02*
X178042857Y-77454819D01*
X178042857Y-77454819D02*
X178138095Y-77502438D01*
X178138095Y-77502438D02*
X178185714Y-77550057D01*
X178185714Y-77550057D02*
X178233333Y-77645295D01*
X178233333Y-77645295D02*
X178233333Y-77788152D01*
X178233333Y-77788152D02*
X178185714Y-77883390D01*
X178185714Y-77883390D02*
X178138095Y-77931009D01*
X178138095Y-77931009D02*
X178042857Y-77978628D01*
X178042857Y-77978628D02*
X177661905Y-77978628D01*
X179138095Y-77454819D02*
X178661905Y-77454819D01*
X178661905Y-77454819D02*
X178614286Y-77931009D01*
X178614286Y-77931009D02*
X178661905Y-77883390D01*
X178661905Y-77883390D02*
X178757143Y-77835771D01*
X178757143Y-77835771D02*
X178995238Y-77835771D01*
X178995238Y-77835771D02*
X179090476Y-77883390D01*
X179090476Y-77883390D02*
X179138095Y-77931009D01*
X179138095Y-77931009D02*
X179185714Y-78026247D01*
X179185714Y-78026247D02*
X179185714Y-78264342D01*
X179185714Y-78264342D02*
X179138095Y-78359580D01*
X179138095Y-78359580D02*
X179090476Y-78407200D01*
X179090476Y-78407200D02*
X178995238Y-78454819D01*
X178995238Y-78454819D02*
X178757143Y-78454819D01*
X178757143Y-78454819D02*
X178661905Y-78407200D01*
X178661905Y-78407200D02*
X178614286Y-78359580D01*
X168323333Y-86784819D02*
X167990000Y-86308628D01*
X167751905Y-86784819D02*
X167751905Y-85784819D01*
X167751905Y-85784819D02*
X168132857Y-85784819D01*
X168132857Y-85784819D02*
X168228095Y-85832438D01*
X168228095Y-85832438D02*
X168275714Y-85880057D01*
X168275714Y-85880057D02*
X168323333Y-85975295D01*
X168323333Y-85975295D02*
X168323333Y-86118152D01*
X168323333Y-86118152D02*
X168275714Y-86213390D01*
X168275714Y-86213390D02*
X168228095Y-86261009D01*
X168228095Y-86261009D02*
X168132857Y-86308628D01*
X168132857Y-86308628D02*
X167751905Y-86308628D01*
X169180476Y-86118152D02*
X169180476Y-86784819D01*
X168942381Y-85737200D02*
X168704286Y-86451485D01*
X168704286Y-86451485D02*
X169323333Y-86451485D01*
X181333333Y-98954819D02*
X181000000Y-98478628D01*
X180761905Y-98954819D02*
X180761905Y-97954819D01*
X180761905Y-97954819D02*
X181142857Y-97954819D01*
X181142857Y-97954819D02*
X181238095Y-98002438D01*
X181238095Y-98002438D02*
X181285714Y-98050057D01*
X181285714Y-98050057D02*
X181333333Y-98145295D01*
X181333333Y-98145295D02*
X181333333Y-98288152D01*
X181333333Y-98288152D02*
X181285714Y-98383390D01*
X181285714Y-98383390D02*
X181238095Y-98431009D01*
X181238095Y-98431009D02*
X181142857Y-98478628D01*
X181142857Y-98478628D02*
X180761905Y-98478628D01*
X181666667Y-97954819D02*
X182285714Y-97954819D01*
X182285714Y-97954819D02*
X181952381Y-98335771D01*
X181952381Y-98335771D02*
X182095238Y-98335771D01*
X182095238Y-98335771D02*
X182190476Y-98383390D01*
X182190476Y-98383390D02*
X182238095Y-98431009D01*
X182238095Y-98431009D02*
X182285714Y-98526247D01*
X182285714Y-98526247D02*
X182285714Y-98764342D01*
X182285714Y-98764342D02*
X182238095Y-98859580D01*
X182238095Y-98859580D02*
X182190476Y-98907200D01*
X182190476Y-98907200D02*
X182095238Y-98954819D01*
X182095238Y-98954819D02*
X181809524Y-98954819D01*
X181809524Y-98954819D02*
X181714286Y-98907200D01*
X181714286Y-98907200D02*
X181666667Y-98859580D01*
X175823333Y-84954819D02*
X175490000Y-84478628D01*
X175251905Y-84954819D02*
X175251905Y-83954819D01*
X175251905Y-83954819D02*
X175632857Y-83954819D01*
X175632857Y-83954819D02*
X175728095Y-84002438D01*
X175728095Y-84002438D02*
X175775714Y-84050057D01*
X175775714Y-84050057D02*
X175823333Y-84145295D01*
X175823333Y-84145295D02*
X175823333Y-84288152D01*
X175823333Y-84288152D02*
X175775714Y-84383390D01*
X175775714Y-84383390D02*
X175728095Y-84431009D01*
X175728095Y-84431009D02*
X175632857Y-84478628D01*
X175632857Y-84478628D02*
X175251905Y-84478628D01*
X176204286Y-84050057D02*
X176251905Y-84002438D01*
X176251905Y-84002438D02*
X176347143Y-83954819D01*
X176347143Y-83954819D02*
X176585238Y-83954819D01*
X176585238Y-83954819D02*
X176680476Y-84002438D01*
X176680476Y-84002438D02*
X176728095Y-84050057D01*
X176728095Y-84050057D02*
X176775714Y-84145295D01*
X176775714Y-84145295D02*
X176775714Y-84240533D01*
X176775714Y-84240533D02*
X176728095Y-84383390D01*
X176728095Y-84383390D02*
X176156667Y-84954819D01*
X176156667Y-84954819D02*
X176775714Y-84954819D01*
X176833333Y-105204819D02*
X176500000Y-104728628D01*
X176261905Y-105204819D02*
X176261905Y-104204819D01*
X176261905Y-104204819D02*
X176642857Y-104204819D01*
X176642857Y-104204819D02*
X176738095Y-104252438D01*
X176738095Y-104252438D02*
X176785714Y-104300057D01*
X176785714Y-104300057D02*
X176833333Y-104395295D01*
X176833333Y-104395295D02*
X176833333Y-104538152D01*
X176833333Y-104538152D02*
X176785714Y-104633390D01*
X176785714Y-104633390D02*
X176738095Y-104681009D01*
X176738095Y-104681009D02*
X176642857Y-104728628D01*
X176642857Y-104728628D02*
X176261905Y-104728628D01*
X177785714Y-105204819D02*
X177214286Y-105204819D01*
X177500000Y-105204819D02*
X177500000Y-104204819D01*
X177500000Y-104204819D02*
X177404762Y-104347676D01*
X177404762Y-104347676D02*
X177309524Y-104442914D01*
X177309524Y-104442914D02*
X177214286Y-104490533D01*
X167504761Y-98050057D02*
X167409523Y-98002438D01*
X167409523Y-98002438D02*
X167314285Y-97907200D01*
X167314285Y-97907200D02*
X167171428Y-97764342D01*
X167171428Y-97764342D02*
X167076190Y-97716723D01*
X167076190Y-97716723D02*
X166980952Y-97716723D01*
X167028571Y-97954819D02*
X166933333Y-97907200D01*
X166933333Y-97907200D02*
X166838095Y-97811961D01*
X166838095Y-97811961D02*
X166790476Y-97621485D01*
X166790476Y-97621485D02*
X166790476Y-97288152D01*
X166790476Y-97288152D02*
X166838095Y-97097676D01*
X166838095Y-97097676D02*
X166933333Y-97002438D01*
X166933333Y-97002438D02*
X167028571Y-96954819D01*
X167028571Y-96954819D02*
X167219047Y-96954819D01*
X167219047Y-96954819D02*
X167314285Y-97002438D01*
X167314285Y-97002438D02*
X167409523Y-97097676D01*
X167409523Y-97097676D02*
X167457142Y-97288152D01*
X167457142Y-97288152D02*
X167457142Y-97621485D01*
X167457142Y-97621485D02*
X167409523Y-97811961D01*
X167409523Y-97811961D02*
X167314285Y-97907200D01*
X167314285Y-97907200D02*
X167219047Y-97954819D01*
X167219047Y-97954819D02*
X167028571Y-97954819D01*
X167790476Y-96954819D02*
X168409523Y-96954819D01*
X168409523Y-96954819D02*
X168076190Y-97335771D01*
X168076190Y-97335771D02*
X168219047Y-97335771D01*
X168219047Y-97335771D02*
X168314285Y-97383390D01*
X168314285Y-97383390D02*
X168361904Y-97431009D01*
X168361904Y-97431009D02*
X168409523Y-97526247D01*
X168409523Y-97526247D02*
X168409523Y-97764342D01*
X168409523Y-97764342D02*
X168361904Y-97859580D01*
X168361904Y-97859580D02*
X168314285Y-97907200D01*
X168314285Y-97907200D02*
X168219047Y-97954819D01*
X168219047Y-97954819D02*
X167933333Y-97954819D01*
X167933333Y-97954819D02*
X167838095Y-97907200D01*
X167838095Y-97907200D02*
X167790476Y-97859580D01*
X175904761Y-87820057D02*
X175809523Y-87772438D01*
X175809523Y-87772438D02*
X175714285Y-87677200D01*
X175714285Y-87677200D02*
X175571428Y-87534342D01*
X175571428Y-87534342D02*
X175476190Y-87486723D01*
X175476190Y-87486723D02*
X175380952Y-87486723D01*
X175428571Y-87724819D02*
X175333333Y-87677200D01*
X175333333Y-87677200D02*
X175238095Y-87581961D01*
X175238095Y-87581961D02*
X175190476Y-87391485D01*
X175190476Y-87391485D02*
X175190476Y-87058152D01*
X175190476Y-87058152D02*
X175238095Y-86867676D01*
X175238095Y-86867676D02*
X175333333Y-86772438D01*
X175333333Y-86772438D02*
X175428571Y-86724819D01*
X175428571Y-86724819D02*
X175619047Y-86724819D01*
X175619047Y-86724819D02*
X175714285Y-86772438D01*
X175714285Y-86772438D02*
X175809523Y-86867676D01*
X175809523Y-86867676D02*
X175857142Y-87058152D01*
X175857142Y-87058152D02*
X175857142Y-87391485D01*
X175857142Y-87391485D02*
X175809523Y-87581961D01*
X175809523Y-87581961D02*
X175714285Y-87677200D01*
X175714285Y-87677200D02*
X175619047Y-87724819D01*
X175619047Y-87724819D02*
X175428571Y-87724819D01*
X176238095Y-86820057D02*
X176285714Y-86772438D01*
X176285714Y-86772438D02*
X176380952Y-86724819D01*
X176380952Y-86724819D02*
X176619047Y-86724819D01*
X176619047Y-86724819D02*
X176714285Y-86772438D01*
X176714285Y-86772438D02*
X176761904Y-86820057D01*
X176761904Y-86820057D02*
X176809523Y-86915295D01*
X176809523Y-86915295D02*
X176809523Y-87010533D01*
X176809523Y-87010533D02*
X176761904Y-87153390D01*
X176761904Y-87153390D02*
X176190476Y-87724819D01*
X176190476Y-87724819D02*
X176809523Y-87724819D01*
X174654761Y-103800057D02*
X174559523Y-103752438D01*
X174559523Y-103752438D02*
X174464285Y-103657200D01*
X174464285Y-103657200D02*
X174321428Y-103514342D01*
X174321428Y-103514342D02*
X174226190Y-103466723D01*
X174226190Y-103466723D02*
X174130952Y-103466723D01*
X174178571Y-103704819D02*
X174083333Y-103657200D01*
X174083333Y-103657200D02*
X173988095Y-103561961D01*
X173988095Y-103561961D02*
X173940476Y-103371485D01*
X173940476Y-103371485D02*
X173940476Y-103038152D01*
X173940476Y-103038152D02*
X173988095Y-102847676D01*
X173988095Y-102847676D02*
X174083333Y-102752438D01*
X174083333Y-102752438D02*
X174178571Y-102704819D01*
X174178571Y-102704819D02*
X174369047Y-102704819D01*
X174369047Y-102704819D02*
X174464285Y-102752438D01*
X174464285Y-102752438D02*
X174559523Y-102847676D01*
X174559523Y-102847676D02*
X174607142Y-103038152D01*
X174607142Y-103038152D02*
X174607142Y-103371485D01*
X174607142Y-103371485D02*
X174559523Y-103561961D01*
X174559523Y-103561961D02*
X174464285Y-103657200D01*
X174464285Y-103657200D02*
X174369047Y-103704819D01*
X174369047Y-103704819D02*
X174178571Y-103704819D01*
X175559523Y-103704819D02*
X174988095Y-103704819D01*
X175273809Y-103704819D02*
X175273809Y-102704819D01*
X175273809Y-102704819D02*
X175178571Y-102847676D01*
X175178571Y-102847676D02*
X175083333Y-102942914D01*
X175083333Y-102942914D02*
X174988095Y-102990533D01*
X168083333Y-84804819D02*
X167607143Y-84804819D01*
X167607143Y-84804819D02*
X167607143Y-83804819D01*
X168940476Y-84804819D02*
X168369048Y-84804819D01*
X168654762Y-84804819D02*
X168654762Y-83804819D01*
X168654762Y-83804819D02*
X168559524Y-83947676D01*
X168559524Y-83947676D02*
X168464286Y-84042914D01*
X168464286Y-84042914D02*
X168369048Y-84090533D01*
X190666666Y-100454819D02*
X190666666Y-101169104D01*
X190666666Y-101169104D02*
X190619047Y-101311961D01*
X190619047Y-101311961D02*
X190523809Y-101407200D01*
X190523809Y-101407200D02*
X190380952Y-101454819D01*
X190380952Y-101454819D02*
X190285714Y-101454819D01*
X191047619Y-100454819D02*
X191714285Y-100454819D01*
X191714285Y-100454819D02*
X191285714Y-101454819D01*
X202116666Y-101854819D02*
X202116666Y-102569104D01*
X202116666Y-102569104D02*
X202069047Y-102711961D01*
X202069047Y-102711961D02*
X201973809Y-102807200D01*
X201973809Y-102807200D02*
X201830952Y-102854819D01*
X201830952Y-102854819D02*
X201735714Y-102854819D01*
X203116666Y-102854819D02*
X202545238Y-102854819D01*
X202830952Y-102854819D02*
X202830952Y-101854819D01*
X202830952Y-101854819D02*
X202735714Y-101997676D01*
X202735714Y-101997676D02*
X202640476Y-102092914D01*
X202640476Y-102092914D02*
X202545238Y-102140533D01*
X201766666Y-104754819D02*
X201766666Y-105469104D01*
X201766666Y-105469104D02*
X201719047Y-105611961D01*
X201719047Y-105611961D02*
X201623809Y-105707200D01*
X201623809Y-105707200D02*
X201480952Y-105754819D01*
X201480952Y-105754819D02*
X201385714Y-105754819D01*
X202671428Y-104754819D02*
X202480952Y-104754819D01*
X202480952Y-104754819D02*
X202385714Y-104802438D01*
X202385714Y-104802438D02*
X202338095Y-104850057D01*
X202338095Y-104850057D02*
X202242857Y-104992914D01*
X202242857Y-104992914D02*
X202195238Y-105183390D01*
X202195238Y-105183390D02*
X202195238Y-105564342D01*
X202195238Y-105564342D02*
X202242857Y-105659580D01*
X202242857Y-105659580D02*
X202290476Y-105707200D01*
X202290476Y-105707200D02*
X202385714Y-105754819D01*
X202385714Y-105754819D02*
X202576190Y-105754819D01*
X202576190Y-105754819D02*
X202671428Y-105707200D01*
X202671428Y-105707200D02*
X202719047Y-105659580D01*
X202719047Y-105659580D02*
X202766666Y-105564342D01*
X202766666Y-105564342D02*
X202766666Y-105326247D01*
X202766666Y-105326247D02*
X202719047Y-105231009D01*
X202719047Y-105231009D02*
X202671428Y-105183390D01*
X202671428Y-105183390D02*
X202576190Y-105135771D01*
X202576190Y-105135771D02*
X202385714Y-105135771D01*
X202385714Y-105135771D02*
X202290476Y-105183390D01*
X202290476Y-105183390D02*
X202242857Y-105231009D01*
X202242857Y-105231009D02*
X202195238Y-105326247D01*
X188966666Y-108554819D02*
X188966666Y-109269104D01*
X188966666Y-109269104D02*
X188919047Y-109411961D01*
X188919047Y-109411961D02*
X188823809Y-109507200D01*
X188823809Y-109507200D02*
X188680952Y-109554819D01*
X188680952Y-109554819D02*
X188585714Y-109554819D01*
X189919047Y-108554819D02*
X189442857Y-108554819D01*
X189442857Y-108554819D02*
X189395238Y-109031009D01*
X189395238Y-109031009D02*
X189442857Y-108983390D01*
X189442857Y-108983390D02*
X189538095Y-108935771D01*
X189538095Y-108935771D02*
X189776190Y-108935771D01*
X189776190Y-108935771D02*
X189871428Y-108983390D01*
X189871428Y-108983390D02*
X189919047Y-109031009D01*
X189919047Y-109031009D02*
X189966666Y-109126247D01*
X189966666Y-109126247D02*
X189966666Y-109364342D01*
X189966666Y-109364342D02*
X189919047Y-109459580D01*
X189919047Y-109459580D02*
X189871428Y-109507200D01*
X189871428Y-109507200D02*
X189776190Y-109554819D01*
X189776190Y-109554819D02*
X189538095Y-109554819D01*
X189538095Y-109554819D02*
X189442857Y-109507200D01*
X189442857Y-109507200D02*
X189395238Y-109459580D01*
X188586666Y-103034819D02*
X188586666Y-103749104D01*
X188586666Y-103749104D02*
X188539047Y-103891961D01*
X188539047Y-103891961D02*
X188443809Y-103987200D01*
X188443809Y-103987200D02*
X188300952Y-104034819D01*
X188300952Y-104034819D02*
X188205714Y-104034819D01*
X189491428Y-103368152D02*
X189491428Y-104034819D01*
X189253333Y-102987200D02*
X189015238Y-103701485D01*
X189015238Y-103701485D02*
X189634285Y-103701485D01*
X192661905Y-101654819D02*
X192661905Y-100654819D01*
X192661905Y-100654819D02*
X192900000Y-100654819D01*
X192900000Y-100654819D02*
X193042857Y-100702438D01*
X193042857Y-100702438D02*
X193138095Y-100797676D01*
X193138095Y-100797676D02*
X193185714Y-100892914D01*
X193185714Y-100892914D02*
X193233333Y-101083390D01*
X193233333Y-101083390D02*
X193233333Y-101226247D01*
X193233333Y-101226247D02*
X193185714Y-101416723D01*
X193185714Y-101416723D02*
X193138095Y-101511961D01*
X193138095Y-101511961D02*
X193042857Y-101607200D01*
X193042857Y-101607200D02*
X192900000Y-101654819D01*
X192900000Y-101654819D02*
X192661905Y-101654819D01*
X194090476Y-100654819D02*
X193900000Y-100654819D01*
X193900000Y-100654819D02*
X193804762Y-100702438D01*
X193804762Y-100702438D02*
X193757143Y-100750057D01*
X193757143Y-100750057D02*
X193661905Y-100892914D01*
X193661905Y-100892914D02*
X193614286Y-101083390D01*
X193614286Y-101083390D02*
X193614286Y-101464342D01*
X193614286Y-101464342D02*
X193661905Y-101559580D01*
X193661905Y-101559580D02*
X193709524Y-101607200D01*
X193709524Y-101607200D02*
X193804762Y-101654819D01*
X193804762Y-101654819D02*
X193995238Y-101654819D01*
X193995238Y-101654819D02*
X194090476Y-101607200D01*
X194090476Y-101607200D02*
X194138095Y-101559580D01*
X194138095Y-101559580D02*
X194185714Y-101464342D01*
X194185714Y-101464342D02*
X194185714Y-101226247D01*
X194185714Y-101226247D02*
X194138095Y-101131009D01*
X194138095Y-101131009D02*
X194090476Y-101083390D01*
X194090476Y-101083390D02*
X193995238Y-101035771D01*
X193995238Y-101035771D02*
X193804762Y-101035771D01*
X193804762Y-101035771D02*
X193709524Y-101083390D01*
X193709524Y-101083390D02*
X193661905Y-101131009D01*
X193661905Y-101131009D02*
X193614286Y-101226247D01*
X175811905Y-92954819D02*
X175811905Y-91954819D01*
X175811905Y-91954819D02*
X176050000Y-91954819D01*
X176050000Y-91954819D02*
X176192857Y-92002438D01*
X176192857Y-92002438D02*
X176288095Y-92097676D01*
X176288095Y-92097676D02*
X176335714Y-92192914D01*
X176335714Y-92192914D02*
X176383333Y-92383390D01*
X176383333Y-92383390D02*
X176383333Y-92526247D01*
X176383333Y-92526247D02*
X176335714Y-92716723D01*
X176335714Y-92716723D02*
X176288095Y-92811961D01*
X176288095Y-92811961D02*
X176192857Y-92907200D01*
X176192857Y-92907200D02*
X176050000Y-92954819D01*
X176050000Y-92954819D02*
X175811905Y-92954819D01*
X177288095Y-91954819D02*
X176811905Y-91954819D01*
X176811905Y-91954819D02*
X176764286Y-92431009D01*
X176764286Y-92431009D02*
X176811905Y-92383390D01*
X176811905Y-92383390D02*
X176907143Y-92335771D01*
X176907143Y-92335771D02*
X177145238Y-92335771D01*
X177145238Y-92335771D02*
X177240476Y-92383390D01*
X177240476Y-92383390D02*
X177288095Y-92431009D01*
X177288095Y-92431009D02*
X177335714Y-92526247D01*
X177335714Y-92526247D02*
X177335714Y-92764342D01*
X177335714Y-92764342D02*
X177288095Y-92859580D01*
X177288095Y-92859580D02*
X177240476Y-92907200D01*
X177240476Y-92907200D02*
X177145238Y-92954819D01*
X177145238Y-92954819D02*
X176907143Y-92954819D01*
X176907143Y-92954819D02*
X176811905Y-92907200D01*
X176811905Y-92907200D02*
X176764286Y-92859580D01*
X170611905Y-78404819D02*
X170611905Y-77404819D01*
X170611905Y-77404819D02*
X170850000Y-77404819D01*
X170850000Y-77404819D02*
X170992857Y-77452438D01*
X170992857Y-77452438D02*
X171088095Y-77547676D01*
X171088095Y-77547676D02*
X171135714Y-77642914D01*
X171135714Y-77642914D02*
X171183333Y-77833390D01*
X171183333Y-77833390D02*
X171183333Y-77976247D01*
X171183333Y-77976247D02*
X171135714Y-78166723D01*
X171135714Y-78166723D02*
X171088095Y-78261961D01*
X171088095Y-78261961D02*
X170992857Y-78357200D01*
X170992857Y-78357200D02*
X170850000Y-78404819D01*
X170850000Y-78404819D02*
X170611905Y-78404819D01*
X172040476Y-77738152D02*
X172040476Y-78404819D01*
X171802381Y-77357200D02*
X171564286Y-78071485D01*
X171564286Y-78071485D02*
X172183333Y-78071485D01*
X175011905Y-83204819D02*
X175011905Y-82204819D01*
X175011905Y-82204819D02*
X175250000Y-82204819D01*
X175250000Y-82204819D02*
X175392857Y-82252438D01*
X175392857Y-82252438D02*
X175488095Y-82347676D01*
X175488095Y-82347676D02*
X175535714Y-82442914D01*
X175535714Y-82442914D02*
X175583333Y-82633390D01*
X175583333Y-82633390D02*
X175583333Y-82776247D01*
X175583333Y-82776247D02*
X175535714Y-82966723D01*
X175535714Y-82966723D02*
X175488095Y-83061961D01*
X175488095Y-83061961D02*
X175392857Y-83157200D01*
X175392857Y-83157200D02*
X175250000Y-83204819D01*
X175250000Y-83204819D02*
X175011905Y-83204819D01*
X175916667Y-82204819D02*
X176535714Y-82204819D01*
X176535714Y-82204819D02*
X176202381Y-82585771D01*
X176202381Y-82585771D02*
X176345238Y-82585771D01*
X176345238Y-82585771D02*
X176440476Y-82633390D01*
X176440476Y-82633390D02*
X176488095Y-82681009D01*
X176488095Y-82681009D02*
X176535714Y-82776247D01*
X176535714Y-82776247D02*
X176535714Y-83014342D01*
X176535714Y-83014342D02*
X176488095Y-83109580D01*
X176488095Y-83109580D02*
X176440476Y-83157200D01*
X176440476Y-83157200D02*
X176345238Y-83204819D01*
X176345238Y-83204819D02*
X176059524Y-83204819D01*
X176059524Y-83204819D02*
X175964286Y-83157200D01*
X175964286Y-83157200D02*
X175916667Y-83109580D01*
X179261905Y-97454819D02*
X179261905Y-96454819D01*
X179261905Y-96454819D02*
X179500000Y-96454819D01*
X179500000Y-96454819D02*
X179642857Y-96502438D01*
X179642857Y-96502438D02*
X179738095Y-96597676D01*
X179738095Y-96597676D02*
X179785714Y-96692914D01*
X179785714Y-96692914D02*
X179833333Y-96883390D01*
X179833333Y-96883390D02*
X179833333Y-97026247D01*
X179833333Y-97026247D02*
X179785714Y-97216723D01*
X179785714Y-97216723D02*
X179738095Y-97311961D01*
X179738095Y-97311961D02*
X179642857Y-97407200D01*
X179642857Y-97407200D02*
X179500000Y-97454819D01*
X179500000Y-97454819D02*
X179261905Y-97454819D01*
X180214286Y-96550057D02*
X180261905Y-96502438D01*
X180261905Y-96502438D02*
X180357143Y-96454819D01*
X180357143Y-96454819D02*
X180595238Y-96454819D01*
X180595238Y-96454819D02*
X180690476Y-96502438D01*
X180690476Y-96502438D02*
X180738095Y-96550057D01*
X180738095Y-96550057D02*
X180785714Y-96645295D01*
X180785714Y-96645295D02*
X180785714Y-96740533D01*
X180785714Y-96740533D02*
X180738095Y-96883390D01*
X180738095Y-96883390D02*
X180166667Y-97454819D01*
X180166667Y-97454819D02*
X180785714Y-97454819D01*
X179161905Y-103854819D02*
X179161905Y-102854819D01*
X179161905Y-102854819D02*
X179400000Y-102854819D01*
X179400000Y-102854819D02*
X179542857Y-102902438D01*
X179542857Y-102902438D02*
X179638095Y-102997676D01*
X179638095Y-102997676D02*
X179685714Y-103092914D01*
X179685714Y-103092914D02*
X179733333Y-103283390D01*
X179733333Y-103283390D02*
X179733333Y-103426247D01*
X179733333Y-103426247D02*
X179685714Y-103616723D01*
X179685714Y-103616723D02*
X179638095Y-103711961D01*
X179638095Y-103711961D02*
X179542857Y-103807200D01*
X179542857Y-103807200D02*
X179400000Y-103854819D01*
X179400000Y-103854819D02*
X179161905Y-103854819D01*
X180685714Y-103854819D02*
X180114286Y-103854819D01*
X180400000Y-103854819D02*
X180400000Y-102854819D01*
X180400000Y-102854819D02*
X180304762Y-102997676D01*
X180304762Y-102997676D02*
X180209524Y-103092914D01*
X180209524Y-103092914D02*
X180114286Y-103140533D01*
X175083333Y-106859580D02*
X175035714Y-106907200D01*
X175035714Y-106907200D02*
X174892857Y-106954819D01*
X174892857Y-106954819D02*
X174797619Y-106954819D01*
X174797619Y-106954819D02*
X174654762Y-106907200D01*
X174654762Y-106907200D02*
X174559524Y-106811961D01*
X174559524Y-106811961D02*
X174511905Y-106716723D01*
X174511905Y-106716723D02*
X174464286Y-106526247D01*
X174464286Y-106526247D02*
X174464286Y-106383390D01*
X174464286Y-106383390D02*
X174511905Y-106192914D01*
X174511905Y-106192914D02*
X174559524Y-106097676D01*
X174559524Y-106097676D02*
X174654762Y-106002438D01*
X174654762Y-106002438D02*
X174797619Y-105954819D01*
X174797619Y-105954819D02*
X174892857Y-105954819D01*
X174892857Y-105954819D02*
X175035714Y-106002438D01*
X175035714Y-106002438D02*
X175083333Y-106050057D01*
X175416667Y-105954819D02*
X176035714Y-105954819D01*
X176035714Y-105954819D02*
X175702381Y-106335771D01*
X175702381Y-106335771D02*
X175845238Y-106335771D01*
X175845238Y-106335771D02*
X175940476Y-106383390D01*
X175940476Y-106383390D02*
X175988095Y-106431009D01*
X175988095Y-106431009D02*
X176035714Y-106526247D01*
X176035714Y-106526247D02*
X176035714Y-106764342D01*
X176035714Y-106764342D02*
X175988095Y-106859580D01*
X175988095Y-106859580D02*
X175940476Y-106907200D01*
X175940476Y-106907200D02*
X175845238Y-106954819D01*
X175845238Y-106954819D02*
X175559524Y-106954819D01*
X175559524Y-106954819D02*
X175464286Y-106907200D01*
X175464286Y-106907200D02*
X175416667Y-106859580D01*
X173333333Y-93109580D02*
X173285714Y-93157200D01*
X173285714Y-93157200D02*
X173142857Y-93204819D01*
X173142857Y-93204819D02*
X173047619Y-93204819D01*
X173047619Y-93204819D02*
X172904762Y-93157200D01*
X172904762Y-93157200D02*
X172809524Y-93061961D01*
X172809524Y-93061961D02*
X172761905Y-92966723D01*
X172761905Y-92966723D02*
X172714286Y-92776247D01*
X172714286Y-92776247D02*
X172714286Y-92633390D01*
X172714286Y-92633390D02*
X172761905Y-92442914D01*
X172761905Y-92442914D02*
X172809524Y-92347676D01*
X172809524Y-92347676D02*
X172904762Y-92252438D01*
X172904762Y-92252438D02*
X173047619Y-92204819D01*
X173047619Y-92204819D02*
X173142857Y-92204819D01*
X173142857Y-92204819D02*
X173285714Y-92252438D01*
X173285714Y-92252438D02*
X173333333Y-92300057D01*
X173666667Y-92204819D02*
X174333333Y-92204819D01*
X174333333Y-92204819D02*
X173904762Y-93204819D01*
X182357142Y-79359580D02*
X182309523Y-79407200D01*
X182309523Y-79407200D02*
X182166666Y-79454819D01*
X182166666Y-79454819D02*
X182071428Y-79454819D01*
X182071428Y-79454819D02*
X181928571Y-79407200D01*
X181928571Y-79407200D02*
X181833333Y-79311961D01*
X181833333Y-79311961D02*
X181785714Y-79216723D01*
X181785714Y-79216723D02*
X181738095Y-79026247D01*
X181738095Y-79026247D02*
X181738095Y-78883390D01*
X181738095Y-78883390D02*
X181785714Y-78692914D01*
X181785714Y-78692914D02*
X181833333Y-78597676D01*
X181833333Y-78597676D02*
X181928571Y-78502438D01*
X181928571Y-78502438D02*
X182071428Y-78454819D01*
X182071428Y-78454819D02*
X182166666Y-78454819D01*
X182166666Y-78454819D02*
X182309523Y-78502438D01*
X182309523Y-78502438D02*
X182357142Y-78550057D01*
X183309523Y-79454819D02*
X182738095Y-79454819D01*
X183023809Y-79454819D02*
X183023809Y-78454819D01*
X183023809Y-78454819D02*
X182928571Y-78597676D01*
X182928571Y-78597676D02*
X182833333Y-78692914D01*
X182833333Y-78692914D02*
X182738095Y-78740533D01*
X183880952Y-78883390D02*
X183785714Y-78835771D01*
X183785714Y-78835771D02*
X183738095Y-78788152D01*
X183738095Y-78788152D02*
X183690476Y-78692914D01*
X183690476Y-78692914D02*
X183690476Y-78645295D01*
X183690476Y-78645295D02*
X183738095Y-78550057D01*
X183738095Y-78550057D02*
X183785714Y-78502438D01*
X183785714Y-78502438D02*
X183880952Y-78454819D01*
X183880952Y-78454819D02*
X184071428Y-78454819D01*
X184071428Y-78454819D02*
X184166666Y-78502438D01*
X184166666Y-78502438D02*
X184214285Y-78550057D01*
X184214285Y-78550057D02*
X184261904Y-78645295D01*
X184261904Y-78645295D02*
X184261904Y-78692914D01*
X184261904Y-78692914D02*
X184214285Y-78788152D01*
X184214285Y-78788152D02*
X184166666Y-78835771D01*
X184166666Y-78835771D02*
X184071428Y-78883390D01*
X184071428Y-78883390D02*
X183880952Y-78883390D01*
X183880952Y-78883390D02*
X183785714Y-78931009D01*
X183785714Y-78931009D02*
X183738095Y-78978628D01*
X183738095Y-78978628D02*
X183690476Y-79073866D01*
X183690476Y-79073866D02*
X183690476Y-79264342D01*
X183690476Y-79264342D02*
X183738095Y-79359580D01*
X183738095Y-79359580D02*
X183785714Y-79407200D01*
X183785714Y-79407200D02*
X183880952Y-79454819D01*
X183880952Y-79454819D02*
X184071428Y-79454819D01*
X184071428Y-79454819D02*
X184166666Y-79407200D01*
X184166666Y-79407200D02*
X184214285Y-79359580D01*
X184214285Y-79359580D02*
X184261904Y-79264342D01*
X184261904Y-79264342D02*
X184261904Y-79073866D01*
X184261904Y-79073866D02*
X184214285Y-78978628D01*
X184214285Y-78978628D02*
X184166666Y-78931009D01*
X184166666Y-78931009D02*
X184071428Y-78883390D01*
X195959580Y-94042857D02*
X196007200Y-94090476D01*
X196007200Y-94090476D02*
X196054819Y-94233333D01*
X196054819Y-94233333D02*
X196054819Y-94328571D01*
X196054819Y-94328571D02*
X196007200Y-94471428D01*
X196007200Y-94471428D02*
X195911961Y-94566666D01*
X195911961Y-94566666D02*
X195816723Y-94614285D01*
X195816723Y-94614285D02*
X195626247Y-94661904D01*
X195626247Y-94661904D02*
X195483390Y-94661904D01*
X195483390Y-94661904D02*
X195292914Y-94614285D01*
X195292914Y-94614285D02*
X195197676Y-94566666D01*
X195197676Y-94566666D02*
X195102438Y-94471428D01*
X195102438Y-94471428D02*
X195054819Y-94328571D01*
X195054819Y-94328571D02*
X195054819Y-94233333D01*
X195054819Y-94233333D02*
X195102438Y-94090476D01*
X195102438Y-94090476D02*
X195150057Y-94042857D01*
X196054819Y-93090476D02*
X196054819Y-93661904D01*
X196054819Y-93376190D02*
X195054819Y-93376190D01*
X195054819Y-93376190D02*
X195197676Y-93471428D01*
X195197676Y-93471428D02*
X195292914Y-93566666D01*
X195292914Y-93566666D02*
X195340533Y-93661904D01*
X195054819Y-92757142D02*
X195054819Y-92090476D01*
X195054819Y-92090476D02*
X196054819Y-92519047D01*
X181857142Y-78159580D02*
X181809523Y-78207200D01*
X181809523Y-78207200D02*
X181666666Y-78254819D01*
X181666666Y-78254819D02*
X181571428Y-78254819D01*
X181571428Y-78254819D02*
X181428571Y-78207200D01*
X181428571Y-78207200D02*
X181333333Y-78111961D01*
X181333333Y-78111961D02*
X181285714Y-78016723D01*
X181285714Y-78016723D02*
X181238095Y-77826247D01*
X181238095Y-77826247D02*
X181238095Y-77683390D01*
X181238095Y-77683390D02*
X181285714Y-77492914D01*
X181285714Y-77492914D02*
X181333333Y-77397676D01*
X181333333Y-77397676D02*
X181428571Y-77302438D01*
X181428571Y-77302438D02*
X181571428Y-77254819D01*
X181571428Y-77254819D02*
X181666666Y-77254819D01*
X181666666Y-77254819D02*
X181809523Y-77302438D01*
X181809523Y-77302438D02*
X181857142Y-77350057D01*
X182238095Y-77350057D02*
X182285714Y-77302438D01*
X182285714Y-77302438D02*
X182380952Y-77254819D01*
X182380952Y-77254819D02*
X182619047Y-77254819D01*
X182619047Y-77254819D02*
X182714285Y-77302438D01*
X182714285Y-77302438D02*
X182761904Y-77350057D01*
X182761904Y-77350057D02*
X182809523Y-77445295D01*
X182809523Y-77445295D02*
X182809523Y-77540533D01*
X182809523Y-77540533D02*
X182761904Y-77683390D01*
X182761904Y-77683390D02*
X182190476Y-78254819D01*
X182190476Y-78254819D02*
X182809523Y-78254819D01*
X183428571Y-77254819D02*
X183523809Y-77254819D01*
X183523809Y-77254819D02*
X183619047Y-77302438D01*
X183619047Y-77302438D02*
X183666666Y-77350057D01*
X183666666Y-77350057D02*
X183714285Y-77445295D01*
X183714285Y-77445295D02*
X183761904Y-77635771D01*
X183761904Y-77635771D02*
X183761904Y-77873866D01*
X183761904Y-77873866D02*
X183714285Y-78064342D01*
X183714285Y-78064342D02*
X183666666Y-78159580D01*
X183666666Y-78159580D02*
X183619047Y-78207200D01*
X183619047Y-78207200D02*
X183523809Y-78254819D01*
X183523809Y-78254819D02*
X183428571Y-78254819D01*
X183428571Y-78254819D02*
X183333333Y-78207200D01*
X183333333Y-78207200D02*
X183285714Y-78159580D01*
X183285714Y-78159580D02*
X183238095Y-78064342D01*
X183238095Y-78064342D02*
X183190476Y-77873866D01*
X183190476Y-77873866D02*
X183190476Y-77635771D01*
X183190476Y-77635771D02*
X183238095Y-77445295D01*
X183238095Y-77445295D02*
X183285714Y-77350057D01*
X183285714Y-77350057D02*
X183333333Y-77302438D01*
X183333333Y-77302438D02*
X183428571Y-77254819D01*
X186357142Y-76859580D02*
X186309523Y-76907200D01*
X186309523Y-76907200D02*
X186166666Y-76954819D01*
X186166666Y-76954819D02*
X186071428Y-76954819D01*
X186071428Y-76954819D02*
X185928571Y-76907200D01*
X185928571Y-76907200D02*
X185833333Y-76811961D01*
X185833333Y-76811961D02*
X185785714Y-76716723D01*
X185785714Y-76716723D02*
X185738095Y-76526247D01*
X185738095Y-76526247D02*
X185738095Y-76383390D01*
X185738095Y-76383390D02*
X185785714Y-76192914D01*
X185785714Y-76192914D02*
X185833333Y-76097676D01*
X185833333Y-76097676D02*
X185928571Y-76002438D01*
X185928571Y-76002438D02*
X186071428Y-75954819D01*
X186071428Y-75954819D02*
X186166666Y-75954819D01*
X186166666Y-75954819D02*
X186309523Y-76002438D01*
X186309523Y-76002438D02*
X186357142Y-76050057D01*
X187309523Y-76954819D02*
X186738095Y-76954819D01*
X187023809Y-76954819D02*
X187023809Y-75954819D01*
X187023809Y-75954819D02*
X186928571Y-76097676D01*
X186928571Y-76097676D02*
X186833333Y-76192914D01*
X186833333Y-76192914D02*
X186738095Y-76240533D01*
X187785714Y-76954819D02*
X187976190Y-76954819D01*
X187976190Y-76954819D02*
X188071428Y-76907200D01*
X188071428Y-76907200D02*
X188119047Y-76859580D01*
X188119047Y-76859580D02*
X188214285Y-76716723D01*
X188214285Y-76716723D02*
X188261904Y-76526247D01*
X188261904Y-76526247D02*
X188261904Y-76145295D01*
X188261904Y-76145295D02*
X188214285Y-76050057D01*
X188214285Y-76050057D02*
X188166666Y-76002438D01*
X188166666Y-76002438D02*
X188071428Y-75954819D01*
X188071428Y-75954819D02*
X187880952Y-75954819D01*
X187880952Y-75954819D02*
X187785714Y-76002438D01*
X187785714Y-76002438D02*
X187738095Y-76050057D01*
X187738095Y-76050057D02*
X187690476Y-76145295D01*
X187690476Y-76145295D02*
X187690476Y-76383390D01*
X187690476Y-76383390D02*
X187738095Y-76478628D01*
X187738095Y-76478628D02*
X187785714Y-76526247D01*
X187785714Y-76526247D02*
X187880952Y-76573866D01*
X187880952Y-76573866D02*
X188071428Y-76573866D01*
X188071428Y-76573866D02*
X188166666Y-76526247D01*
X188166666Y-76526247D02*
X188214285Y-76478628D01*
X188214285Y-76478628D02*
X188261904Y-76383390D01*
X182357142Y-80609580D02*
X182309523Y-80657200D01*
X182309523Y-80657200D02*
X182166666Y-80704819D01*
X182166666Y-80704819D02*
X182071428Y-80704819D01*
X182071428Y-80704819D02*
X181928571Y-80657200D01*
X181928571Y-80657200D02*
X181833333Y-80561961D01*
X181833333Y-80561961D02*
X181785714Y-80466723D01*
X181785714Y-80466723D02*
X181738095Y-80276247D01*
X181738095Y-80276247D02*
X181738095Y-80133390D01*
X181738095Y-80133390D02*
X181785714Y-79942914D01*
X181785714Y-79942914D02*
X181833333Y-79847676D01*
X181833333Y-79847676D02*
X181928571Y-79752438D01*
X181928571Y-79752438D02*
X182071428Y-79704819D01*
X182071428Y-79704819D02*
X182166666Y-79704819D01*
X182166666Y-79704819D02*
X182309523Y-79752438D01*
X182309523Y-79752438D02*
X182357142Y-79800057D01*
X183309523Y-80704819D02*
X182738095Y-80704819D01*
X183023809Y-80704819D02*
X183023809Y-79704819D01*
X183023809Y-79704819D02*
X182928571Y-79847676D01*
X182928571Y-79847676D02*
X182833333Y-79942914D01*
X182833333Y-79942914D02*
X182738095Y-79990533D01*
X184166666Y-79704819D02*
X183976190Y-79704819D01*
X183976190Y-79704819D02*
X183880952Y-79752438D01*
X183880952Y-79752438D02*
X183833333Y-79800057D01*
X183833333Y-79800057D02*
X183738095Y-79942914D01*
X183738095Y-79942914D02*
X183690476Y-80133390D01*
X183690476Y-80133390D02*
X183690476Y-80514342D01*
X183690476Y-80514342D02*
X183738095Y-80609580D01*
X183738095Y-80609580D02*
X183785714Y-80657200D01*
X183785714Y-80657200D02*
X183880952Y-80704819D01*
X183880952Y-80704819D02*
X184071428Y-80704819D01*
X184071428Y-80704819D02*
X184166666Y-80657200D01*
X184166666Y-80657200D02*
X184214285Y-80609580D01*
X184214285Y-80609580D02*
X184261904Y-80514342D01*
X184261904Y-80514342D02*
X184261904Y-80276247D01*
X184261904Y-80276247D02*
X184214285Y-80181009D01*
X184214285Y-80181009D02*
X184166666Y-80133390D01*
X184166666Y-80133390D02*
X184071428Y-80085771D01*
X184071428Y-80085771D02*
X183880952Y-80085771D01*
X183880952Y-80085771D02*
X183785714Y-80133390D01*
X183785714Y-80133390D02*
X183738095Y-80181009D01*
X183738095Y-80181009D02*
X183690476Y-80276247D01*
X185107142Y-97109580D02*
X185059523Y-97157200D01*
X185059523Y-97157200D02*
X184916666Y-97204819D01*
X184916666Y-97204819D02*
X184821428Y-97204819D01*
X184821428Y-97204819D02*
X184678571Y-97157200D01*
X184678571Y-97157200D02*
X184583333Y-97061961D01*
X184583333Y-97061961D02*
X184535714Y-96966723D01*
X184535714Y-96966723D02*
X184488095Y-96776247D01*
X184488095Y-96776247D02*
X184488095Y-96633390D01*
X184488095Y-96633390D02*
X184535714Y-96442914D01*
X184535714Y-96442914D02*
X184583333Y-96347676D01*
X184583333Y-96347676D02*
X184678571Y-96252438D01*
X184678571Y-96252438D02*
X184821428Y-96204819D01*
X184821428Y-96204819D02*
X184916666Y-96204819D01*
X184916666Y-96204819D02*
X185059523Y-96252438D01*
X185059523Y-96252438D02*
X185107142Y-96300057D01*
X186059523Y-97204819D02*
X185488095Y-97204819D01*
X185773809Y-97204819D02*
X185773809Y-96204819D01*
X185773809Y-96204819D02*
X185678571Y-96347676D01*
X185678571Y-96347676D02*
X185583333Y-96442914D01*
X185583333Y-96442914D02*
X185488095Y-96490533D01*
X186964285Y-96204819D02*
X186488095Y-96204819D01*
X186488095Y-96204819D02*
X186440476Y-96681009D01*
X186440476Y-96681009D02*
X186488095Y-96633390D01*
X186488095Y-96633390D02*
X186583333Y-96585771D01*
X186583333Y-96585771D02*
X186821428Y-96585771D01*
X186821428Y-96585771D02*
X186916666Y-96633390D01*
X186916666Y-96633390D02*
X186964285Y-96681009D01*
X186964285Y-96681009D02*
X187011904Y-96776247D01*
X187011904Y-96776247D02*
X187011904Y-97014342D01*
X187011904Y-97014342D02*
X186964285Y-97109580D01*
X186964285Y-97109580D02*
X186916666Y-97157200D01*
X186916666Y-97157200D02*
X186821428Y-97204819D01*
X186821428Y-97204819D02*
X186583333Y-97204819D01*
X186583333Y-97204819D02*
X186488095Y-97157200D01*
X186488095Y-97157200D02*
X186440476Y-97109580D01*
X180857142Y-82109580D02*
X180809523Y-82157200D01*
X180809523Y-82157200D02*
X180666666Y-82204819D01*
X180666666Y-82204819D02*
X180571428Y-82204819D01*
X180571428Y-82204819D02*
X180428571Y-82157200D01*
X180428571Y-82157200D02*
X180333333Y-82061961D01*
X180333333Y-82061961D02*
X180285714Y-81966723D01*
X180285714Y-81966723D02*
X180238095Y-81776247D01*
X180238095Y-81776247D02*
X180238095Y-81633390D01*
X180238095Y-81633390D02*
X180285714Y-81442914D01*
X180285714Y-81442914D02*
X180333333Y-81347676D01*
X180333333Y-81347676D02*
X180428571Y-81252438D01*
X180428571Y-81252438D02*
X180571428Y-81204819D01*
X180571428Y-81204819D02*
X180666666Y-81204819D01*
X180666666Y-81204819D02*
X180809523Y-81252438D01*
X180809523Y-81252438D02*
X180857142Y-81300057D01*
X181809523Y-82204819D02*
X181238095Y-82204819D01*
X181523809Y-82204819D02*
X181523809Y-81204819D01*
X181523809Y-81204819D02*
X181428571Y-81347676D01*
X181428571Y-81347676D02*
X181333333Y-81442914D01*
X181333333Y-81442914D02*
X181238095Y-81490533D01*
X182190476Y-81300057D02*
X182238095Y-81252438D01*
X182238095Y-81252438D02*
X182333333Y-81204819D01*
X182333333Y-81204819D02*
X182571428Y-81204819D01*
X182571428Y-81204819D02*
X182666666Y-81252438D01*
X182666666Y-81252438D02*
X182714285Y-81300057D01*
X182714285Y-81300057D02*
X182761904Y-81395295D01*
X182761904Y-81395295D02*
X182761904Y-81490533D01*
X182761904Y-81490533D02*
X182714285Y-81633390D01*
X182714285Y-81633390D02*
X182142857Y-82204819D01*
X182142857Y-82204819D02*
X182761904Y-82204819D01*
X179857142Y-76959580D02*
X179809523Y-77007200D01*
X179809523Y-77007200D02*
X179666666Y-77054819D01*
X179666666Y-77054819D02*
X179571428Y-77054819D01*
X179571428Y-77054819D02*
X179428571Y-77007200D01*
X179428571Y-77007200D02*
X179333333Y-76911961D01*
X179333333Y-76911961D02*
X179285714Y-76816723D01*
X179285714Y-76816723D02*
X179238095Y-76626247D01*
X179238095Y-76626247D02*
X179238095Y-76483390D01*
X179238095Y-76483390D02*
X179285714Y-76292914D01*
X179285714Y-76292914D02*
X179333333Y-76197676D01*
X179333333Y-76197676D02*
X179428571Y-76102438D01*
X179428571Y-76102438D02*
X179571428Y-76054819D01*
X179571428Y-76054819D02*
X179666666Y-76054819D01*
X179666666Y-76054819D02*
X179809523Y-76102438D01*
X179809523Y-76102438D02*
X179857142Y-76150057D01*
X180809523Y-77054819D02*
X180238095Y-77054819D01*
X180523809Y-77054819D02*
X180523809Y-76054819D01*
X180523809Y-76054819D02*
X180428571Y-76197676D01*
X180428571Y-76197676D02*
X180333333Y-76292914D01*
X180333333Y-76292914D02*
X180238095Y-76340533D01*
X181666666Y-76388152D02*
X181666666Y-77054819D01*
X181428571Y-76007200D02*
X181190476Y-76721485D01*
X181190476Y-76721485D02*
X181809523Y-76721485D01*
X192609580Y-98892857D02*
X192657200Y-98940476D01*
X192657200Y-98940476D02*
X192704819Y-99083333D01*
X192704819Y-99083333D02*
X192704819Y-99178571D01*
X192704819Y-99178571D02*
X192657200Y-99321428D01*
X192657200Y-99321428D02*
X192561961Y-99416666D01*
X192561961Y-99416666D02*
X192466723Y-99464285D01*
X192466723Y-99464285D02*
X192276247Y-99511904D01*
X192276247Y-99511904D02*
X192133390Y-99511904D01*
X192133390Y-99511904D02*
X191942914Y-99464285D01*
X191942914Y-99464285D02*
X191847676Y-99416666D01*
X191847676Y-99416666D02*
X191752438Y-99321428D01*
X191752438Y-99321428D02*
X191704819Y-99178571D01*
X191704819Y-99178571D02*
X191704819Y-99083333D01*
X191704819Y-99083333D02*
X191752438Y-98940476D01*
X191752438Y-98940476D02*
X191800057Y-98892857D01*
X192704819Y-97940476D02*
X192704819Y-98511904D01*
X192704819Y-98226190D02*
X191704819Y-98226190D01*
X191704819Y-98226190D02*
X191847676Y-98321428D01*
X191847676Y-98321428D02*
X191942914Y-98416666D01*
X191942914Y-98416666D02*
X191990533Y-98511904D01*
X192704819Y-96988095D02*
X192704819Y-97559523D01*
X192704819Y-97273809D02*
X191704819Y-97273809D01*
X191704819Y-97273809D02*
X191847676Y-97369047D01*
X191847676Y-97369047D02*
X191942914Y-97464285D01*
X191942914Y-97464285D02*
X191990533Y-97559523D01*
X177757142Y-88859580D02*
X177709523Y-88907200D01*
X177709523Y-88907200D02*
X177566666Y-88954819D01*
X177566666Y-88954819D02*
X177471428Y-88954819D01*
X177471428Y-88954819D02*
X177328571Y-88907200D01*
X177328571Y-88907200D02*
X177233333Y-88811961D01*
X177233333Y-88811961D02*
X177185714Y-88716723D01*
X177185714Y-88716723D02*
X177138095Y-88526247D01*
X177138095Y-88526247D02*
X177138095Y-88383390D01*
X177138095Y-88383390D02*
X177185714Y-88192914D01*
X177185714Y-88192914D02*
X177233333Y-88097676D01*
X177233333Y-88097676D02*
X177328571Y-88002438D01*
X177328571Y-88002438D02*
X177471428Y-87954819D01*
X177471428Y-87954819D02*
X177566666Y-87954819D01*
X177566666Y-87954819D02*
X177709523Y-88002438D01*
X177709523Y-88002438D02*
X177757142Y-88050057D01*
X178709523Y-88954819D02*
X178138095Y-88954819D01*
X178423809Y-88954819D02*
X178423809Y-87954819D01*
X178423809Y-87954819D02*
X178328571Y-88097676D01*
X178328571Y-88097676D02*
X178233333Y-88192914D01*
X178233333Y-88192914D02*
X178138095Y-88240533D01*
X179328571Y-87954819D02*
X179423809Y-87954819D01*
X179423809Y-87954819D02*
X179519047Y-88002438D01*
X179519047Y-88002438D02*
X179566666Y-88050057D01*
X179566666Y-88050057D02*
X179614285Y-88145295D01*
X179614285Y-88145295D02*
X179661904Y-88335771D01*
X179661904Y-88335771D02*
X179661904Y-88573866D01*
X179661904Y-88573866D02*
X179614285Y-88764342D01*
X179614285Y-88764342D02*
X179566666Y-88859580D01*
X179566666Y-88859580D02*
X179519047Y-88907200D01*
X179519047Y-88907200D02*
X179423809Y-88954819D01*
X179423809Y-88954819D02*
X179328571Y-88954819D01*
X179328571Y-88954819D02*
X179233333Y-88907200D01*
X179233333Y-88907200D02*
X179185714Y-88859580D01*
X179185714Y-88859580D02*
X179138095Y-88764342D01*
X179138095Y-88764342D02*
X179090476Y-88573866D01*
X179090476Y-88573866D02*
X179090476Y-88335771D01*
X179090476Y-88335771D02*
X179138095Y-88145295D01*
X179138095Y-88145295D02*
X179185714Y-88050057D01*
X179185714Y-88050057D02*
X179233333Y-88002438D01*
X179233333Y-88002438D02*
X179328571Y-87954819D01*
X178583333Y-83359580D02*
X178535714Y-83407200D01*
X178535714Y-83407200D02*
X178392857Y-83454819D01*
X178392857Y-83454819D02*
X178297619Y-83454819D01*
X178297619Y-83454819D02*
X178154762Y-83407200D01*
X178154762Y-83407200D02*
X178059524Y-83311961D01*
X178059524Y-83311961D02*
X178011905Y-83216723D01*
X178011905Y-83216723D02*
X177964286Y-83026247D01*
X177964286Y-83026247D02*
X177964286Y-82883390D01*
X177964286Y-82883390D02*
X178011905Y-82692914D01*
X178011905Y-82692914D02*
X178059524Y-82597676D01*
X178059524Y-82597676D02*
X178154762Y-82502438D01*
X178154762Y-82502438D02*
X178297619Y-82454819D01*
X178297619Y-82454819D02*
X178392857Y-82454819D01*
X178392857Y-82454819D02*
X178535714Y-82502438D01*
X178535714Y-82502438D02*
X178583333Y-82550057D01*
X179059524Y-83454819D02*
X179250000Y-83454819D01*
X179250000Y-83454819D02*
X179345238Y-83407200D01*
X179345238Y-83407200D02*
X179392857Y-83359580D01*
X179392857Y-83359580D02*
X179488095Y-83216723D01*
X179488095Y-83216723D02*
X179535714Y-83026247D01*
X179535714Y-83026247D02*
X179535714Y-82645295D01*
X179535714Y-82645295D02*
X179488095Y-82550057D01*
X179488095Y-82550057D02*
X179440476Y-82502438D01*
X179440476Y-82502438D02*
X179345238Y-82454819D01*
X179345238Y-82454819D02*
X179154762Y-82454819D01*
X179154762Y-82454819D02*
X179059524Y-82502438D01*
X179059524Y-82502438D02*
X179011905Y-82550057D01*
X179011905Y-82550057D02*
X178964286Y-82645295D01*
X178964286Y-82645295D02*
X178964286Y-82883390D01*
X178964286Y-82883390D02*
X179011905Y-82978628D01*
X179011905Y-82978628D02*
X179059524Y-83026247D01*
X179059524Y-83026247D02*
X179154762Y-83073866D01*
X179154762Y-83073866D02*
X179345238Y-83073866D01*
X179345238Y-83073866D02*
X179440476Y-83026247D01*
X179440476Y-83026247D02*
X179488095Y-82978628D01*
X179488095Y-82978628D02*
X179535714Y-82883390D01*
X181833333Y-92009580D02*
X181785714Y-92057200D01*
X181785714Y-92057200D02*
X181642857Y-92104819D01*
X181642857Y-92104819D02*
X181547619Y-92104819D01*
X181547619Y-92104819D02*
X181404762Y-92057200D01*
X181404762Y-92057200D02*
X181309524Y-91961961D01*
X181309524Y-91961961D02*
X181261905Y-91866723D01*
X181261905Y-91866723D02*
X181214286Y-91676247D01*
X181214286Y-91676247D02*
X181214286Y-91533390D01*
X181214286Y-91533390D02*
X181261905Y-91342914D01*
X181261905Y-91342914D02*
X181309524Y-91247676D01*
X181309524Y-91247676D02*
X181404762Y-91152438D01*
X181404762Y-91152438D02*
X181547619Y-91104819D01*
X181547619Y-91104819D02*
X181642857Y-91104819D01*
X181642857Y-91104819D02*
X181785714Y-91152438D01*
X181785714Y-91152438D02*
X181833333Y-91200057D01*
X182404762Y-91533390D02*
X182309524Y-91485771D01*
X182309524Y-91485771D02*
X182261905Y-91438152D01*
X182261905Y-91438152D02*
X182214286Y-91342914D01*
X182214286Y-91342914D02*
X182214286Y-91295295D01*
X182214286Y-91295295D02*
X182261905Y-91200057D01*
X182261905Y-91200057D02*
X182309524Y-91152438D01*
X182309524Y-91152438D02*
X182404762Y-91104819D01*
X182404762Y-91104819D02*
X182595238Y-91104819D01*
X182595238Y-91104819D02*
X182690476Y-91152438D01*
X182690476Y-91152438D02*
X182738095Y-91200057D01*
X182738095Y-91200057D02*
X182785714Y-91295295D01*
X182785714Y-91295295D02*
X182785714Y-91342914D01*
X182785714Y-91342914D02*
X182738095Y-91438152D01*
X182738095Y-91438152D02*
X182690476Y-91485771D01*
X182690476Y-91485771D02*
X182595238Y-91533390D01*
X182595238Y-91533390D02*
X182404762Y-91533390D01*
X182404762Y-91533390D02*
X182309524Y-91581009D01*
X182309524Y-91581009D02*
X182261905Y-91628628D01*
X182261905Y-91628628D02*
X182214286Y-91723866D01*
X182214286Y-91723866D02*
X182214286Y-91914342D01*
X182214286Y-91914342D02*
X182261905Y-92009580D01*
X182261905Y-92009580D02*
X182309524Y-92057200D01*
X182309524Y-92057200D02*
X182404762Y-92104819D01*
X182404762Y-92104819D02*
X182595238Y-92104819D01*
X182595238Y-92104819D02*
X182690476Y-92057200D01*
X182690476Y-92057200D02*
X182738095Y-92009580D01*
X182738095Y-92009580D02*
X182785714Y-91914342D01*
X182785714Y-91914342D02*
X182785714Y-91723866D01*
X182785714Y-91723866D02*
X182738095Y-91628628D01*
X182738095Y-91628628D02*
X182690476Y-91581009D01*
X182690476Y-91581009D02*
X182595238Y-91533390D01*
X180083333Y-92009580D02*
X180035714Y-92057200D01*
X180035714Y-92057200D02*
X179892857Y-92104819D01*
X179892857Y-92104819D02*
X179797619Y-92104819D01*
X179797619Y-92104819D02*
X179654762Y-92057200D01*
X179654762Y-92057200D02*
X179559524Y-91961961D01*
X179559524Y-91961961D02*
X179511905Y-91866723D01*
X179511905Y-91866723D02*
X179464286Y-91676247D01*
X179464286Y-91676247D02*
X179464286Y-91533390D01*
X179464286Y-91533390D02*
X179511905Y-91342914D01*
X179511905Y-91342914D02*
X179559524Y-91247676D01*
X179559524Y-91247676D02*
X179654762Y-91152438D01*
X179654762Y-91152438D02*
X179797619Y-91104819D01*
X179797619Y-91104819D02*
X179892857Y-91104819D01*
X179892857Y-91104819D02*
X180035714Y-91152438D01*
X180035714Y-91152438D02*
X180083333Y-91200057D01*
X180940476Y-91104819D02*
X180750000Y-91104819D01*
X180750000Y-91104819D02*
X180654762Y-91152438D01*
X180654762Y-91152438D02*
X180607143Y-91200057D01*
X180607143Y-91200057D02*
X180511905Y-91342914D01*
X180511905Y-91342914D02*
X180464286Y-91533390D01*
X180464286Y-91533390D02*
X180464286Y-91914342D01*
X180464286Y-91914342D02*
X180511905Y-92009580D01*
X180511905Y-92009580D02*
X180559524Y-92057200D01*
X180559524Y-92057200D02*
X180654762Y-92104819D01*
X180654762Y-92104819D02*
X180845238Y-92104819D01*
X180845238Y-92104819D02*
X180940476Y-92057200D01*
X180940476Y-92057200D02*
X180988095Y-92009580D01*
X180988095Y-92009580D02*
X181035714Y-91914342D01*
X181035714Y-91914342D02*
X181035714Y-91676247D01*
X181035714Y-91676247D02*
X180988095Y-91581009D01*
X180988095Y-91581009D02*
X180940476Y-91533390D01*
X180940476Y-91533390D02*
X180845238Y-91485771D01*
X180845238Y-91485771D02*
X180654762Y-91485771D01*
X180654762Y-91485771D02*
X180559524Y-91533390D01*
X180559524Y-91533390D02*
X180511905Y-91581009D01*
X180511905Y-91581009D02*
X180464286Y-91676247D01*
X178333333Y-91359580D02*
X178285714Y-91407200D01*
X178285714Y-91407200D02*
X178142857Y-91454819D01*
X178142857Y-91454819D02*
X178047619Y-91454819D01*
X178047619Y-91454819D02*
X177904762Y-91407200D01*
X177904762Y-91407200D02*
X177809524Y-91311961D01*
X177809524Y-91311961D02*
X177761905Y-91216723D01*
X177761905Y-91216723D02*
X177714286Y-91026247D01*
X177714286Y-91026247D02*
X177714286Y-90883390D01*
X177714286Y-90883390D02*
X177761905Y-90692914D01*
X177761905Y-90692914D02*
X177809524Y-90597676D01*
X177809524Y-90597676D02*
X177904762Y-90502438D01*
X177904762Y-90502438D02*
X178047619Y-90454819D01*
X178047619Y-90454819D02*
X178142857Y-90454819D01*
X178142857Y-90454819D02*
X178285714Y-90502438D01*
X178285714Y-90502438D02*
X178333333Y-90550057D01*
X179238095Y-90454819D02*
X178761905Y-90454819D01*
X178761905Y-90454819D02*
X178714286Y-90931009D01*
X178714286Y-90931009D02*
X178761905Y-90883390D01*
X178761905Y-90883390D02*
X178857143Y-90835771D01*
X178857143Y-90835771D02*
X179095238Y-90835771D01*
X179095238Y-90835771D02*
X179190476Y-90883390D01*
X179190476Y-90883390D02*
X179238095Y-90931009D01*
X179238095Y-90931009D02*
X179285714Y-91026247D01*
X179285714Y-91026247D02*
X179285714Y-91264342D01*
X179285714Y-91264342D02*
X179238095Y-91359580D01*
X179238095Y-91359580D02*
X179190476Y-91407200D01*
X179190476Y-91407200D02*
X179095238Y-91454819D01*
X179095238Y-91454819D02*
X178857143Y-91454819D01*
X178857143Y-91454819D02*
X178761905Y-91407200D01*
X178761905Y-91407200D02*
X178714286Y-91359580D01*
X190583333Y-95859580D02*
X190535714Y-95907200D01*
X190535714Y-95907200D02*
X190392857Y-95954819D01*
X190392857Y-95954819D02*
X190297619Y-95954819D01*
X190297619Y-95954819D02*
X190154762Y-95907200D01*
X190154762Y-95907200D02*
X190059524Y-95811961D01*
X190059524Y-95811961D02*
X190011905Y-95716723D01*
X190011905Y-95716723D02*
X189964286Y-95526247D01*
X189964286Y-95526247D02*
X189964286Y-95383390D01*
X189964286Y-95383390D02*
X190011905Y-95192914D01*
X190011905Y-95192914D02*
X190059524Y-95097676D01*
X190059524Y-95097676D02*
X190154762Y-95002438D01*
X190154762Y-95002438D02*
X190297619Y-94954819D01*
X190297619Y-94954819D02*
X190392857Y-94954819D01*
X190392857Y-94954819D02*
X190535714Y-95002438D01*
X190535714Y-95002438D02*
X190583333Y-95050057D01*
X191440476Y-95288152D02*
X191440476Y-95954819D01*
X191202381Y-94907200D02*
X190964286Y-95621485D01*
X190964286Y-95621485D02*
X191583333Y-95621485D01*
X163583333Y-73359580D02*
X163535714Y-73407200D01*
X163535714Y-73407200D02*
X163392857Y-73454819D01*
X163392857Y-73454819D02*
X163297619Y-73454819D01*
X163297619Y-73454819D02*
X163154762Y-73407200D01*
X163154762Y-73407200D02*
X163059524Y-73311961D01*
X163059524Y-73311961D02*
X163011905Y-73216723D01*
X163011905Y-73216723D02*
X162964286Y-73026247D01*
X162964286Y-73026247D02*
X162964286Y-72883390D01*
X162964286Y-72883390D02*
X163011905Y-72692914D01*
X163011905Y-72692914D02*
X163059524Y-72597676D01*
X163059524Y-72597676D02*
X163154762Y-72502438D01*
X163154762Y-72502438D02*
X163297619Y-72454819D01*
X163297619Y-72454819D02*
X163392857Y-72454819D01*
X163392857Y-72454819D02*
X163535714Y-72502438D01*
X163535714Y-72502438D02*
X163583333Y-72550057D01*
X163964286Y-72550057D02*
X164011905Y-72502438D01*
X164011905Y-72502438D02*
X164107143Y-72454819D01*
X164107143Y-72454819D02*
X164345238Y-72454819D01*
X164345238Y-72454819D02*
X164440476Y-72502438D01*
X164440476Y-72502438D02*
X164488095Y-72550057D01*
X164488095Y-72550057D02*
X164535714Y-72645295D01*
X164535714Y-72645295D02*
X164535714Y-72740533D01*
X164535714Y-72740533D02*
X164488095Y-72883390D01*
X164488095Y-72883390D02*
X163916667Y-73454819D01*
X163916667Y-73454819D02*
X164535714Y-73454819D01*
D15*
%TO.C,TP2*%
X162000000Y-104200000D02*
X157600000Y-104200000D01*
X162000000Y-99800000D02*
X162000000Y-104200000D01*
X157600000Y-104200000D02*
X157600000Y-99800000D01*
X157600000Y-99800000D02*
X162000000Y-99800000D01*
%TO.C,Y1*%
X179250000Y-83700000D02*
X179250000Y-87700000D01*
X182550000Y-83700000D02*
X179250000Y-83700000D01*
%TO.C,U3*%
X181680000Y-72727500D02*
X181540000Y-72537500D01*
X181820000Y-72537500D01*
X181680000Y-72727500D01*
G36*
X181680000Y-72727500D02*
G01*
X181540000Y-72537500D01*
X181820000Y-72537500D01*
X181680000Y-72727500D01*
G37*
X184900000Y-75447500D02*
X184900000Y-75272500D01*
X184900000Y-72727500D02*
X184900000Y-72902500D01*
X184225000Y-75447500D02*
X184900000Y-75447500D01*
X184225000Y-72727500D02*
X184900000Y-72727500D01*
X182355000Y-75447500D02*
X181680000Y-75447500D01*
X182355000Y-72727500D02*
X181980000Y-72727500D01*
X181680000Y-75447500D02*
X181680000Y-75272500D01*
%TO.C,U2*%
X184390000Y-82690000D02*
X184390000Y-83640000D01*
X184390000Y-92910000D02*
X184390000Y-91960000D01*
X185340000Y-82690000D02*
X184390000Y-82690000D01*
X185340000Y-92910000D02*
X184390000Y-92910000D01*
X193660000Y-82690000D02*
X194610000Y-82690000D01*
X193660000Y-92910000D02*
X194610000Y-92910000D01*
X194610000Y-82690000D02*
X194610000Y-83640000D01*
X194610000Y-92910000D02*
X194610000Y-91960000D01*
X183775000Y-83640000D02*
X183435000Y-83170000D01*
X184115000Y-83170000D01*
X183775000Y-83640000D01*
G36*
X183775000Y-83640000D02*
G01*
X183435000Y-83170000D01*
X184115000Y-83170000D01*
X183775000Y-83640000D01*
G37*
%TO.C,U1*%
X166800000Y-75477500D02*
X166330000Y-75137500D01*
X166800000Y-74797500D01*
X166800000Y-75477500D01*
G36*
X166800000Y-75477500D02*
G01*
X166330000Y-75137500D01*
X166800000Y-74797500D01*
X166800000Y-75477500D01*
G37*
X157350000Y-83710000D02*
X157590000Y-83710000D01*
X166570000Y-83710000D02*
X166330000Y-83710000D01*
X157350000Y-79850000D02*
X157350000Y-83710000D01*
X157350000Y-79850000D02*
X157350000Y-75990000D01*
X166570000Y-79850000D02*
X166570000Y-83710000D01*
X166570000Y-79850000D02*
X166570000Y-75990000D01*
X157350000Y-75990000D02*
X157590000Y-75990000D01*
X166570000Y-75990000D02*
X166330000Y-75990000D01*
%TO.C,TP1*%
X162000000Y-98700000D02*
X157600000Y-98700000D01*
X162000000Y-94300000D02*
X162000000Y-98700000D01*
X157600000Y-98700000D02*
X157600000Y-94300000D01*
X157600000Y-94300000D02*
X162000000Y-94300000D01*
D16*
%TO.C,SW3*%
X178629780Y-67539140D02*
X178629780Y-68160858D01*
X176711643Y-69276999D02*
X175088320Y-69276999D01*
X172328040Y-66432200D02*
X177971920Y-66432200D01*
X171670180Y-68160858D02*
X171670180Y-67539140D01*
D15*
%TO.C,SW2*%
X165000000Y-100750000D02*
X165000000Y-102250000D01*
X166250000Y-104750000D02*
X170750000Y-104750000D01*
X170750000Y-98250000D02*
X166250000Y-98250000D01*
X172000000Y-102250000D02*
X172000000Y-100750000D01*
%TO.C,SW1*%
X172000000Y-110000000D02*
X172000000Y-108500000D01*
X170750000Y-106000000D02*
X166250000Y-106000000D01*
X166250000Y-112500000D02*
X170750000Y-112500000D01*
X165000000Y-108500000D02*
X165000000Y-110000000D01*
%TO.C,R13*%
X195120000Y-106336359D02*
X195120000Y-106643641D01*
X195880000Y-106336359D02*
X195880000Y-106643641D01*
%TO.C,R11*%
X187893641Y-78370000D02*
X187586359Y-78370000D01*
X187893641Y-79130000D02*
X187586359Y-79130000D01*
%TO.C,R9*%
X190336359Y-77880000D02*
X190643641Y-77880000D01*
X190336359Y-77120000D02*
X190643641Y-77120000D01*
%TO.C,R10*%
X181332500Y-74001141D02*
X181332500Y-73693859D01*
X180572500Y-74001141D02*
X180572500Y-73693859D01*
%TO.C,R8*%
X177836359Y-71880000D02*
X178143641Y-71880000D01*
X177836359Y-71120000D02*
X178143641Y-71120000D01*
%TO.C,R7*%
X189143641Y-96120000D02*
X188836359Y-96120000D01*
X189143641Y-96880000D02*
X188836359Y-96880000D01*
%TO.C,R6*%
X187816359Y-97120000D02*
X188123641Y-97120000D01*
X187816359Y-97880000D02*
X188123641Y-97880000D01*
%TO.C,R5*%
X176620000Y-76356359D02*
X176620000Y-76663641D01*
X177380000Y-76356359D02*
X177380000Y-76663641D01*
%TO.C,R4*%
X168336359Y-87880000D02*
X168643641Y-87880000D01*
X168336359Y-87120000D02*
X168643641Y-87120000D01*
%TO.C,R3*%
X182620000Y-97336359D02*
X182620000Y-97643641D01*
X183380000Y-97336359D02*
X183380000Y-97643641D01*
%TO.C,R2*%
X176143641Y-85120000D02*
X175836359Y-85120000D01*
X176143641Y-85880000D02*
X175836359Y-85880000D01*
%TO.C,R1*%
X175143641Y-104370000D02*
X174836359Y-104370000D01*
X175143641Y-105130000D02*
X174836359Y-105130000D01*
%TO.C,Q3*%
X167075000Y-96620000D02*
X162434000Y-96620000D01*
X167075000Y-93351000D02*
X165565000Y-93351000D01*
X167075000Y-89650000D02*
X165565000Y-89650000D01*
X162434000Y-86380000D02*
X162434000Y-96620000D01*
X165565000Y-86380000D02*
X165565000Y-96620000D01*
X167075000Y-86380000D02*
X167075000Y-96620000D01*
X167075000Y-86380000D02*
X162434000Y-86380000D01*
%TO.C,Q2*%
X174580000Y-85250000D02*
G75*
G02*
X170141522Y-87088478I-2600000J0D01*
G01*
X170141522Y-83411522D02*
G75*
G02*
X174580001Y-85250000I1838478J-1838478D01*
G01*
X170130000Y-83450000D02*
X170130000Y-87050000D01*
%TO.C,Q1*%
X178100000Y-101530000D02*
X178100000Y-97930000D01*
X178088478Y-101568478D02*
G75*
G02*
X173649999Y-99730000I-1838478J1838478D01*
G01*
X173650000Y-99730000D02*
G75*
G02*
X178088478Y-97891522I2600000J0D01*
G01*
%TO.C,L1*%
X167030000Y-81520000D02*
X169470000Y-81520000D01*
X169470000Y-81520000D02*
X169470000Y-75980000D01*
X167030000Y-75980000D02*
X167030000Y-81520000D01*
X169470000Y-75980000D02*
X167030000Y-75980000D01*
%TO.C,J9*%
X198840000Y-89710000D02*
X203200000Y-89710000D01*
X198840000Y-89710000D02*
X198840000Y-87210000D01*
X198840000Y-87210000D02*
X198640000Y-87210000D01*
X198640000Y-86550000D02*
X198640000Y-87210000D01*
X198840000Y-83690000D02*
X198840000Y-81190000D01*
X198840000Y-81190000D02*
X203200000Y-81190000D01*
%TO.C,J8*%
X193560000Y-74830000D02*
X185880000Y-74830000D01*
X185880000Y-72170000D02*
X185880000Y-74830000D01*
X193560000Y-72170000D02*
X193560000Y-74830000D01*
X193560000Y-72170000D02*
X185880000Y-72170000D01*
X194830000Y-72170000D02*
X196160000Y-72170000D01*
X196160000Y-72170000D02*
X196160000Y-73500000D01*
%TO.C,J3*%
X185940000Y-68420000D02*
X193620000Y-68420000D01*
X193620000Y-71080000D02*
X193620000Y-68420000D01*
X185940000Y-71080000D02*
X185940000Y-68420000D01*
X185940000Y-71080000D02*
X193620000Y-71080000D01*
X184670000Y-71080000D02*
X183340000Y-71080000D01*
X183340000Y-71080000D02*
X183340000Y-69750000D01*
%TO.C,J2*%
X195270000Y-77670000D02*
X202950000Y-77670000D01*
X202950000Y-80330000D02*
X202950000Y-77670000D01*
X195270000Y-80330000D02*
X195270000Y-77670000D01*
X195270000Y-80330000D02*
X202950000Y-80330000D01*
X194000000Y-80330000D02*
X192670000Y-80330000D01*
X192670000Y-80330000D02*
X192670000Y-79000000D01*
%TO.C,J7*%
X191670000Y-109980000D02*
X191670000Y-102300000D01*
X194330000Y-102300000D02*
X191670000Y-102300000D01*
X194330000Y-109980000D02*
X191670000Y-109980000D01*
X194330000Y-109980000D02*
X194330000Y-102300000D01*
X194330000Y-111250000D02*
X194330000Y-112580000D01*
X194330000Y-112580000D02*
X193000000Y-112580000D01*
%TO.C,J1*%
X202830000Y-101160000D02*
X201500000Y-101160000D01*
X202830000Y-99830000D02*
X202830000Y-101160000D01*
X202830000Y-98560000D02*
X202830000Y-90880000D01*
X202830000Y-98560000D02*
X200170000Y-98560000D01*
X202830000Y-90880000D02*
X200170000Y-90880000D01*
X200170000Y-98560000D02*
X200170000Y-90880000D01*
%TO.C,J6*%
X198230000Y-104830000D02*
X195630000Y-104830000D01*
X195630000Y-102170000D02*
X195630000Y-104830000D01*
X198230000Y-102170000D02*
X198230000Y-104830000D01*
X198230000Y-102170000D02*
X195630000Y-102170000D01*
X199500000Y-102170000D02*
X200830000Y-102170000D01*
X200830000Y-102170000D02*
X200830000Y-103500000D01*
%TO.C,J5*%
X182190000Y-109750000D02*
X189870000Y-109750000D01*
X189870000Y-112410000D02*
X189870000Y-109750000D01*
X182190000Y-112410000D02*
X182190000Y-109750000D01*
X182190000Y-112410000D02*
X189870000Y-112410000D01*
X180920000Y-112410000D02*
X179590000Y-112410000D01*
X179590000Y-112410000D02*
X179590000Y-111080000D01*
%TO.C,J4*%
X179590000Y-107330000D02*
X179590000Y-106000000D01*
X180920000Y-107330000D02*
X179590000Y-107330000D01*
X182190000Y-107330000D02*
X189870000Y-107330000D01*
X182190000Y-107330000D02*
X182190000Y-104670000D01*
X189870000Y-107330000D02*
X189870000Y-104670000D01*
X182190000Y-104670000D02*
X189870000Y-104670000D01*
%TO.C,D6*%
X194705000Y-100830000D02*
X197795000Y-100830000D01*
X194705170Y-100830000D02*
G75*
G02*
X196249952Y-95280000I1544830J2560000D01*
G01*
X196250048Y-95280000D02*
G75*
G02*
X197794830Y-100830000I-48J-2990000D01*
G01*
X198750000Y-98270000D02*
G75*
G02*
X193750000Y-98270000I-2500000J0D01*
G01*
X193750000Y-98270000D02*
G75*
G02*
X198750000Y-98270000I2500000J0D01*
G01*
%TO.C,D5*%
X175160000Y-91720000D02*
X175160000Y-91590000D01*
X175160000Y-88780000D02*
X175160000Y-88910000D01*
X170740000Y-88780000D02*
X170740000Y-91720000D01*
X170620000Y-88780000D02*
X170620000Y-91720000D01*
X170500000Y-88780000D02*
X170500000Y-91720000D01*
X169720000Y-91720000D02*
X175160000Y-91720000D01*
X169720000Y-91590000D02*
X169720000Y-91720000D01*
X169720000Y-88910000D02*
X169720000Y-88780000D01*
X169720000Y-88780000D02*
X175160000Y-88780000D01*
%TO.C,D4*%
X175750000Y-74480000D02*
G75*
G02*
X170750000Y-74480000I-2500000J0D01*
G01*
X170750000Y-74480000D02*
G75*
G02*
X175750000Y-74480000I2500000J0D01*
G01*
X173250048Y-71490000D02*
G75*
G02*
X174794830Y-77040000I-48J-2990000D01*
G01*
X171705170Y-77040000D02*
G75*
G02*
X173249952Y-71490000I1544830J2560000D01*
G01*
X171705000Y-77040000D02*
X174795000Y-77040000D01*
%TO.C,D3*%
X177660000Y-81970000D02*
X177660000Y-81840000D01*
X177660000Y-79030000D02*
X177660000Y-79160000D01*
X173240000Y-79030000D02*
X173240000Y-81970000D01*
X173120000Y-79030000D02*
X173120000Y-81970000D01*
X173000000Y-79030000D02*
X173000000Y-81970000D01*
X172220000Y-81970000D02*
X177660000Y-81970000D01*
X172220000Y-81840000D02*
X172220000Y-81970000D01*
X172220000Y-79160000D02*
X172220000Y-79030000D01*
X172220000Y-79030000D02*
X177660000Y-79030000D01*
%TO.C,D2*%
X176090000Y-93280000D02*
X176090000Y-93410000D01*
X176090000Y-96220000D02*
X176090000Y-96090000D01*
X180510000Y-96220000D02*
X180510000Y-93280000D01*
X180630000Y-96220000D02*
X180630000Y-93280000D01*
X180750000Y-96220000D02*
X180750000Y-93280000D01*
X181530000Y-93280000D02*
X176090000Y-93280000D01*
X181530000Y-93410000D02*
X181530000Y-93280000D01*
X181530000Y-96090000D02*
X181530000Y-96220000D01*
X181530000Y-96220000D02*
X176090000Y-96220000D01*
%TO.C,D1*%
X187220000Y-102470000D02*
X187220000Y-102340000D01*
X187220000Y-99530000D02*
X187220000Y-99660000D01*
X182800000Y-99530000D02*
X182800000Y-102470000D01*
X182680000Y-99530000D02*
X182680000Y-102470000D01*
X182560000Y-99530000D02*
X182560000Y-102470000D01*
X181780000Y-102470000D02*
X187220000Y-102470000D01*
X181780000Y-102340000D02*
X181780000Y-102470000D01*
X181780000Y-99660000D02*
X181780000Y-99530000D01*
X181780000Y-99530000D02*
X187220000Y-99530000D01*
%TO.C,C3*%
X178870000Y-110000000D02*
G75*
G02*
X173630000Y-110000000I-2620000J0D01*
G01*
X173630000Y-110000000D02*
G75*
G02*
X178870000Y-110000000I2620000J0D01*
G01*
%TO.C,C7*%
X173120000Y-95000000D02*
G75*
G02*
X167880000Y-95000000I-2620000J0D01*
G01*
X167880000Y-95000000D02*
G75*
G02*
X173120000Y-95000000I2620000J0D01*
G01*
%TO.C,C18*%
X185392164Y-79560000D02*
X185607836Y-79560000D01*
X185392164Y-78840000D02*
X185607836Y-78840000D01*
%TO.C,C17*%
X193890000Y-93912164D02*
X193890000Y-94127836D01*
X194610000Y-93912164D02*
X194610000Y-94127836D01*
%TO.C,C20*%
X184965336Y-76890000D02*
X184749664Y-76890000D01*
X184965336Y-77610000D02*
X184749664Y-77610000D01*
%TO.C,C19*%
X184965336Y-75890000D02*
X184749664Y-75890000D01*
X184965336Y-76610000D02*
X184749664Y-76610000D01*
%TO.C,C16*%
X185412164Y-80560000D02*
X185627836Y-80560000D01*
X185412164Y-79840000D02*
X185627836Y-79840000D01*
%TO.C,C15*%
X186877836Y-95140000D02*
X186662164Y-95140000D01*
X186877836Y-95860000D02*
X186662164Y-95860000D01*
%TO.C,C13*%
X197285000Y-84072164D02*
X197285000Y-84287836D01*
X196565000Y-84072164D02*
X196565000Y-84287836D01*
%TO.C,C12*%
X183140000Y-82427836D02*
X183140000Y-82212164D01*
X183860000Y-82427836D02*
X183860000Y-82212164D01*
%TO.C,C14*%
X182789664Y-76610000D02*
X183005336Y-76610000D01*
X182789664Y-75890000D02*
X183005336Y-75890000D01*
%TO.C,C11*%
X192140000Y-95912164D02*
X192140000Y-96127836D01*
X192860000Y-95912164D02*
X192860000Y-96127836D01*
%TO.C,C10*%
X180877836Y-87940000D02*
X180662164Y-87940000D01*
X180877836Y-88660000D02*
X180662164Y-88660000D01*
%TO.C,C9*%
X180642164Y-83410000D02*
X180857836Y-83410000D01*
X180642164Y-82690000D02*
X180857836Y-82690000D01*
%TO.C,C8*%
X182110000Y-90087836D02*
X182110000Y-89872164D01*
X181390000Y-90087836D02*
X181390000Y-89872164D01*
%TO.C,C6*%
X180390000Y-90107836D02*
X180390000Y-89892164D01*
X181110000Y-90107836D02*
X181110000Y-89892164D01*
%TO.C,C5*%
X179087836Y-90160000D02*
X178872164Y-90160000D01*
X179087836Y-89440000D02*
X178872164Y-89440000D01*
%TO.C,C4*%
X188872164Y-95860000D02*
X189087836Y-95860000D01*
X188872164Y-95140000D02*
X189087836Y-95140000D01*
%TO.C,C2*%
X170270000Y-69750000D02*
G75*
G02*
X163730000Y-69750000I-3270000J0D01*
G01*
X163730000Y-69750000D02*
G75*
G02*
X170270000Y-69750000I3270000J0D01*
G01*
%TD*%
M02*
