%TF.GenerationSoftware,KiCad,Pcbnew,8.0.7*%
%TF.CreationDate,2025-07-22T02:57:33-04:00*%
%TF.ProjectId,Drone Motherboared,44726f6e-6520-44d6-9f74-686572626f61,rev?*%
%TF.SameCoordinates,Original*%
%TF.FileFunction,Copper,L4,Bot*%
%TF.FilePolarity,Positive*%
%FSLAX46Y46*%
G04 Gerber Fmt 4.6, Leading zero omitted, Abs format (unit mm)*
G04 Created by KiCad (PCBNEW 8.0.7) date 2025-07-22 02:57:33*
%MOMM*%
%LPD*%
G01*
G04 APERTURE LIST*
%TA.AperFunction,ComponentPad*%
%ADD10C,2.000000*%
%TD*%
%TA.AperFunction,ComponentPad*%
%ADD11O,2.000000X1.905000*%
%TD*%
%TA.AperFunction,ComponentPad*%
%ADD12R,2.000000X1.905000*%
%TD*%
%TA.AperFunction,ComponentPad*%
%ADD13C,1.300000*%
%TD*%
%TA.AperFunction,ComponentPad*%
%ADD14R,1.300000X1.300000*%
%TD*%
%TA.AperFunction,ComponentPad*%
%ADD15O,1.600000X1.600000*%
%TD*%
%TA.AperFunction,ComponentPad*%
%ADD16C,1.600000*%
%TD*%
%TA.AperFunction,ComponentPad*%
%ADD17O,1.600000X0.900000*%
%TD*%
%TA.AperFunction,ComponentPad*%
%ADD18O,1.700000X1.700000*%
%TD*%
%TA.AperFunction,ComponentPad*%
%ADD19R,1.700000X1.700000*%
%TD*%
%TA.AperFunction,ComponentPad*%
%ADD20C,6.400000*%
%TD*%
%TA.AperFunction,ComponentPad*%
%ADD21R,1.800000X1.800000*%
%TD*%
%TA.AperFunction,ComponentPad*%
%ADD22C,1.800000*%
%TD*%
%TA.AperFunction,ComponentPad*%
%ADD23O,2.200000X2.200000*%
%TD*%
%TA.AperFunction,ComponentPad*%
%ADD24R,2.200000X2.200000*%
%TD*%
%TA.AperFunction,ComponentPad*%
%ADD25C,1.200000*%
%TD*%
%TA.AperFunction,ViaPad*%
%ADD26C,0.600000*%
%TD*%
%TA.AperFunction,Conductor*%
%ADD27C,0.300000*%
%TD*%
%TA.AperFunction,Conductor*%
%ADD28C,0.500000*%
%TD*%
G04 APERTURE END LIST*
D10*
%TO.P,SW2,2,2*%
%TO.N,/ON_BTN*%
X165250000Y-99250000D03*
X171750000Y-99250000D03*
%TO.P,SW2,1,1*%
%TO.N,-BATT*%
X165250000Y-103750000D03*
X171750000Y-103750000D03*
%TD*%
%TO.P,SW1,2,2*%
%TO.N,/PNP_B*%
X171750000Y-111500000D03*
X165250000Y-111500000D03*
%TO.P,SW1,1,1*%
%TO.N,-BATT*%
X171750000Y-107000000D03*
X165250000Y-107000000D03*
%TD*%
D11*
%TO.P,Q3,3,S*%
%TO.N,-BATT*%
X163805000Y-94040000D03*
%TO.P,Q3,2,D*%
%TO.N,/VIN*%
X163805000Y-91500000D03*
D12*
%TO.P,Q3,1,G*%
%TO.N,/PMOS_G*%
X163805000Y-88960000D03*
%TD*%
D13*
%TO.P,Q2,3,C*%
%TO.N,/PMOS_G*%
X171980000Y-86520000D03*
%TO.P,Q2,2,B*%
%TO.N,/NPN_B*%
X173250000Y-85250000D03*
D14*
%TO.P,Q2,1,E*%
%TO.N,GND*%
X171980000Y-83980000D03*
%TD*%
%TO.P,Q1,1,E*%
%TO.N,/BATT_CTRL*%
X176250000Y-101000000D03*
D13*
%TO.P,Q1,2,B*%
%TO.N,/PNP_B*%
X174980000Y-99730000D03*
%TO.P,Q1,3,C*%
%TO.N,/PNP_C*%
X176250000Y-98460000D03*
%TD*%
D15*
%TO.P,L1,2,2*%
%TO.N,/BUCK_RAW_OUT*%
X168250000Y-82560000D03*
D16*
%TO.P,L1,1,1*%
%TO.N,+3.3V*%
X168250000Y-74940000D03*
%TD*%
D17*
%TO.P,J9,6,Shield*%
%TO.N,unconnected-(J9-Shield-Pad6)_1*%
X202250000Y-88750000D03*
%TO.N,unconnected-(J9-Shield-Pad6)_4*%
X202250000Y-82150000D03*
%TD*%
D18*
%TO.P,J8,4,Pin_4*%
%TO.N,/SDA*%
X187210000Y-73500000D03*
%TO.P,J8,3,Pin_3*%
%TO.N,/SCL*%
X189750000Y-73500000D03*
%TO.P,J8,2,Pin_2*%
%TO.N,GND*%
X192290000Y-73500000D03*
D19*
%TO.P,J8,1,Pin_1*%
%TO.N,+3.3V*%
X194830000Y-73500000D03*
%TD*%
D18*
%TO.P,J3,4,Pin_4*%
%TO.N,+3.3V*%
X192290000Y-69750000D03*
%TO.P,J3,3,Pin_3*%
%TO.N,/SCL*%
X189750000Y-69750000D03*
%TO.P,J3,2,Pin_2*%
%TO.N,/SDA*%
X187210000Y-69750000D03*
D19*
%TO.P,J3,1,Pin_1*%
%TO.N,GND*%
X184670000Y-69750000D03*
%TD*%
D18*
%TO.P,J2,4,Pin_4*%
%TO.N,+3.3V*%
X201620000Y-79000000D03*
%TO.P,J2,3,Pin_3*%
%TO.N,/SWDIO*%
X199080000Y-79000000D03*
%TO.P,J2,2,Pin_2*%
%TO.N,/SWCLK*%
X196540000Y-79000000D03*
D19*
%TO.P,J2,1,Pin_1*%
%TO.N,GND*%
X194000000Y-79000000D03*
%TD*%
D18*
%TO.P,J7,4,Pin_4*%
%TO.N,/SIG_4*%
X193000000Y-103630000D03*
%TO.P,J7,3,Pin_3*%
%TO.N,/SIG_3*%
X193000000Y-106170000D03*
%TO.P,J7,2,Pin_2*%
%TO.N,/SIG_2*%
X193000000Y-108710000D03*
D19*
%TO.P,J7,1,Pin_1*%
%TO.N,/SIG_1*%
X193000000Y-111250000D03*
%TD*%
%TO.P,J1,1,Pin_1*%
%TO.N,GND*%
X201500000Y-99830000D03*
D18*
%TO.P,J1,2,Pin_2*%
%TO.N,/UART_RX*%
X201500000Y-97290000D03*
%TO.P,J1,3,Pin_3*%
%TO.N,/UART_TX*%
X201500000Y-94750000D03*
%TO.P,J1,4,Pin_4*%
%TO.N,+3.3V*%
X201500000Y-92210000D03*
%TD*%
%TO.P,J6,2,Pin_2*%
%TO.N,GND*%
X196960000Y-103500000D03*
D19*
%TO.P,J6,1,Pin_1*%
%TO.N,+3.3V*%
X199500000Y-103500000D03*
%TD*%
D18*
%TO.P,J5,4,Pin_4*%
%TO.N,GND*%
X188540000Y-111080000D03*
%TO.P,J5,3,Pin_3*%
X186000000Y-111080000D03*
%TO.P,J5,2,Pin_2*%
X183460000Y-111080000D03*
D19*
%TO.P,J5,1,Pin_1*%
X180920000Y-111080000D03*
%TD*%
%TO.P,J4,1,Pin_1*%
%TO.N,/PWM_1*%
X180920000Y-106000000D03*
D18*
%TO.P,J4,2,Pin_2*%
%TO.N,/PWM_2*%
X183460000Y-106000000D03*
%TO.P,J4,3,Pin_3*%
%TO.N,/PWM_3*%
X186000000Y-106000000D03*
%TO.P,J4,4,Pin_4*%
%TO.N,/PWM_4*%
X188540000Y-106000000D03*
%TD*%
D20*
%TO.P,H4,1*%
%TO.N,N/C*%
X200000000Y-109500000D03*
%TD*%
%TO.P,H3,1*%
%TO.N,N/C*%
X200000000Y-69500000D03*
%TD*%
%TO.P,H2,1*%
%TO.N,N/C*%
X160000000Y-109500000D03*
%TD*%
%TO.P,H1,1*%
%TO.N,N/C*%
X160000000Y-69500000D03*
%TD*%
D21*
%TO.P,D6,1,K*%
%TO.N,/STATUS_OUT*%
X196250000Y-99540000D03*
D22*
%TO.P,D6,2,A*%
%TO.N,/STATUS*%
X196250000Y-97000000D03*
%TD*%
D23*
%TO.P,D5,2,A*%
%TO.N,VBUS*%
X176250000Y-90250000D03*
D24*
%TO.P,D5,1,K*%
%TO.N,/VIN*%
X168630000Y-90250000D03*
%TD*%
D22*
%TO.P,D4,2,A*%
%TO.N,+3.3V*%
X173250000Y-73210000D03*
D21*
%TO.P,D4,1,K*%
%TO.N,/P_LED_OUT*%
X173250000Y-75750000D03*
%TD*%
D23*
%TO.P,D3,2,A*%
%TO.N,GND*%
X178750000Y-80500000D03*
D24*
%TO.P,D3,1,K*%
%TO.N,/BUCK_RAW_OUT*%
X171130000Y-80500000D03*
%TD*%
D23*
%TO.P,D2,2,A*%
%TO.N,/PNP_C*%
X175000000Y-94750000D03*
D24*
%TO.P,D2,1,K*%
%TO.N,/BATT_CNTRL_FORWARD*%
X182620000Y-94750000D03*
%TD*%
D23*
%TO.P,D1,2,A*%
%TO.N,VBUS*%
X188310000Y-101000000D03*
D24*
%TO.P,D1,1,K*%
%TO.N,/PNP_B*%
X180690000Y-101000000D03*
%TD*%
D25*
%TO.P,C3,2*%
%TO.N,GND*%
X176250000Y-111000000D03*
%TO.P,C3,1*%
%TO.N,VBUS*%
X176250000Y-109000000D03*
%TD*%
%TO.P,C7,2*%
%TO.N,GND*%
X170500000Y-94000000D03*
%TO.P,C7,1*%
%TO.N,-BATT*%
X170500000Y-96000000D03*
%TD*%
D16*
%TO.P,C2,2*%
%TO.N,GND*%
X167000000Y-68500000D03*
%TO.P,C2,1*%
%TO.N,+3.3V*%
X167000000Y-71000000D03*
%TD*%
D26*
%TO.N,GND*%
X184300000Y-77900000D03*
X186800000Y-108950000D03*
X166300000Y-87700000D03*
X170600000Y-76900000D03*
X165900000Y-77600000D03*
X171400000Y-73800000D03*
X185400000Y-72400000D03*
X191000000Y-71100000D03*
X179500000Y-98600000D03*
X179800000Y-71300000D03*
X157050000Y-81400000D03*
X177000000Y-74700000D03*
X177400000Y-83400000D03*
X174300000Y-91000000D03*
X167600000Y-92700000D03*
X168400000Y-100500000D03*
X202900000Y-90200000D03*
X201000000Y-90400000D03*
X197600000Y-90800000D03*
X183900000Y-97000000D03*
X187600000Y-103200000D03*
X185900000Y-98500000D03*
X182800000Y-103400000D03*
X182900000Y-92700000D03*
X179800000Y-93900000D03*
X179000000Y-92300000D03*
X178700000Y-102800000D03*
X201700000Y-103500000D03*
X202700000Y-106400000D03*
X168400000Y-112200000D03*
X200800000Y-80900000D03*
X202800000Y-76800000D03*
X202800000Y-74400000D03*
X202500000Y-72800000D03*
X200000000Y-73600000D03*
X197800000Y-73100000D03*
X195600000Y-69700000D03*
X196500000Y-66800000D03*
X193900000Y-66700000D03*
X190500000Y-66700000D03*
X187200000Y-66700000D03*
X184400000Y-67300000D03*
X181300000Y-66600000D03*
X177700000Y-66900000D03*
X172700000Y-66900000D03*
X175000000Y-66900000D03*
X170200000Y-66700000D03*
X163200000Y-66600000D03*
X164200000Y-69600000D03*
X162000000Y-73200000D03*
X157050000Y-72200000D03*
X157050000Y-75700000D03*
X157100000Y-86600000D03*
X157100000Y-88900000D03*
X157050000Y-91000000D03*
X157100000Y-93900000D03*
X157100000Y-99200000D03*
X168400000Y-110700000D03*
X163300000Y-112200000D03*
X195600000Y-112000000D03*
X190800000Y-112000000D03*
X178600000Y-112400000D03*
X173800000Y-112300000D03*
X167700000Y-97000000D03*
X172600000Y-101400000D03*
X193950001Y-86106986D03*
X200686463Y-86322230D03*
X161900000Y-82200000D03*
X197700000Y-76800000D03*
X189600000Y-86750000D03*
X174000000Y-80500000D03*
X171500000Y-89500000D03*
X178000000Y-105900000D03*
X184500000Y-101500000D03*
X191100000Y-99800000D03*
X198800000Y-95700000D03*
X197800000Y-85000000D03*
X197900000Y-86550000D03*
X196967334Y-86550000D03*
X186558390Y-96209863D03*
X176250000Y-69500000D03*
X161650000Y-76950000D03*
X160600000Y-76950000D03*
X159500000Y-76950000D03*
X161200000Y-104450002D03*
X159600000Y-105400000D03*
X157800000Y-105500000D03*
X158700000Y-104700000D03*
X178000000Y-91750000D03*
X185250000Y-89000000D03*
X194880025Y-107880025D03*
X193500000Y-95750000D03*
X194850000Y-94900000D03*
%TO.N,-BATT*%
X164250000Y-97000000D03*
X163000000Y-97750000D03*
X164750000Y-95750000D03*
X163250000Y-96250000D03*
%TO.N,/IMU_R*%
X181255289Y-75065531D03*
X191250000Y-80000000D03*
%TO.N,+3.3V*%
X197000000Y-82250000D03*
%TO.N,GND*%
X183500000Y-81000000D03*
%TO.N,/NPN_B*%
X170750000Y-85500000D03*
X183500000Y-99000000D03*
%TO.N,-BATT*%
X187460000Y-98359997D03*
%TO.N,+3.3V*%
X188500000Y-90750000D03*
%TO.N,GND*%
X186500000Y-83500000D03*
%TO.N,+3.3V*%
X192500000Y-76500000D03*
X186500000Y-77250000D03*
%TO.N,/BOOT0*%
X180369975Y-75550000D03*
X187500000Y-80500000D03*
%TO.N,/BATT_CTRL*%
X193500000Y-89000000D03*
%TO.N,GND*%
X198250000Y-84000000D03*
X200675000Y-84250000D03*
X180000000Y-74000000D03*
X178750000Y-86750000D03*
X181250000Y-82000000D03*
%TO.N,/SIG_4*%
X191250000Y-92000000D03*
%TO.N,/SIG_3*%
X190000000Y-92000000D03*
%TO.N,/SIG_2*%
X189000003Y-92000000D03*
%TO.N,/SIG_1*%
X186074265Y-91725735D03*
%TO.N,GND*%
X189500000Y-97500000D03*
%TO.N,/SCL*%
X186610000Y-68498144D03*
X187810000Y-68500000D03*
%TO.N,GND*%
X194000000Y-84500000D03*
%TD*%
D27*
%TO.N,-BATT*%
X181250000Y-103750000D02*
X171750000Y-103750000D01*
X182750000Y-102250000D02*
X181250000Y-103750000D01*
X182750000Y-98000000D02*
X182750000Y-102250000D01*
X180500000Y-95750000D02*
X182750000Y-98000000D01*
X180500000Y-93250000D02*
X180500000Y-95750000D01*
X187250000Y-92052941D02*
X186322794Y-91125735D01*
X186322794Y-91125735D02*
X182624265Y-91125735D01*
X187460000Y-98359997D02*
X187250000Y-98149997D01*
X182624265Y-91125735D02*
X180500000Y-93250000D01*
X187250000Y-98149997D02*
X187250000Y-92052941D01*
D28*
%TO.N,+3.3V*%
X199500000Y-90210000D02*
X198915000Y-89625000D01*
X199500000Y-103500000D02*
X199500000Y-90210000D01*
X198915000Y-89625000D02*
X201500000Y-92210000D01*
X193875000Y-89625000D02*
X198915000Y-89625000D01*
X193875000Y-89625000D02*
X192750000Y-90750000D01*
X194200000Y-89300000D02*
X193875000Y-89625000D01*
D27*
%TO.N,/IMU_R*%
X181255289Y-75023962D02*
X181255289Y-75065531D01*
X184529251Y-71750000D02*
X181255289Y-75023962D01*
X186000000Y-71750000D02*
X184529251Y-71750000D01*
X195750000Y-71750000D02*
X186000000Y-71750000D01*
X196750000Y-72750000D02*
X195750000Y-71750000D01*
X196750000Y-74500000D02*
X196750000Y-72750000D01*
X196750000Y-75000000D02*
X196750000Y-74500000D01*
X191250000Y-79450000D02*
X194200000Y-76500000D01*
X191250000Y-80000000D02*
X191250000Y-79450000D01*
X194200000Y-76500000D02*
X194250000Y-76500000D01*
X194250000Y-76500000D02*
X195250000Y-76500000D01*
X195250000Y-76500000D02*
X196750000Y-75000000D01*
%TO.N,/BOOT0*%
X183400000Y-80400000D02*
X183748529Y-80400000D01*
X183848529Y-80500000D02*
X187500000Y-80500000D01*
X180369975Y-77369975D02*
X183400000Y-80400000D01*
X180369975Y-75550000D02*
X180369975Y-77369975D01*
X183748529Y-80400000D02*
X183848529Y-80500000D01*
D28*
%TO.N,+3.3V*%
X192000000Y-82250000D02*
X197000000Y-82250000D01*
X189869975Y-84380025D02*
X192000000Y-82250000D01*
X189869975Y-84380025D02*
X194200000Y-88710050D01*
X189000000Y-83510050D02*
X189869975Y-84380025D01*
%TO.N,/NPN_B*%
X168750000Y-85500000D02*
X170750000Y-85500000D01*
X164512500Y-85500000D02*
X168750000Y-85500000D01*
X162405000Y-87607500D02*
X164512500Y-85500000D01*
X162405000Y-90095000D02*
X162405000Y-87607500D01*
X159250000Y-103750000D02*
X159250000Y-93250000D01*
X162000000Y-106500000D02*
X159250000Y-103750000D01*
X159250000Y-93250000D02*
X162405000Y-90095000D01*
X162250000Y-106500000D02*
X162000000Y-106500000D01*
X165750000Y-110000000D02*
X162250000Y-106500000D01*
X182210000Y-107040000D02*
X179250000Y-110000000D01*
X183500000Y-104192233D02*
X182210000Y-105482233D01*
X183500000Y-99000000D02*
X183500000Y-104192233D01*
X179250000Y-110000000D02*
X165750000Y-110000000D01*
X182210000Y-105482233D02*
X182210000Y-107040000D01*
D27*
%TO.N,/SIG_1*%
X191850000Y-111250000D02*
X193000000Y-111250000D01*
X187250000Y-106650000D02*
X191850000Y-111250000D01*
X187250000Y-103750000D02*
X187250000Y-106650000D01*
X185250000Y-92550000D02*
X185250000Y-101750000D01*
X185250000Y-101750000D02*
X187250000Y-103750000D01*
X186074265Y-91725735D02*
X185250000Y-92550000D01*
D28*
%TO.N,+3.3V*%
X192750000Y-90750000D02*
X188500000Y-90750000D01*
X194200000Y-88710050D02*
X194200000Y-89300000D01*
X189000000Y-79750000D02*
X189000000Y-83510050D01*
X186500000Y-77250000D02*
X189000000Y-79750000D01*
X191750000Y-77250000D02*
X192500000Y-76500000D01*
X186500000Y-77250000D02*
X191750000Y-77250000D01*
D27*
%TO.N,/BATT_CTRL*%
X174000000Y-101000000D02*
X176250000Y-101000000D01*
X173500000Y-97250000D02*
X173500000Y-100500000D01*
X173500000Y-100500000D02*
X174000000Y-101000000D01*
X172500000Y-91000000D02*
X172500000Y-96250000D01*
X172500000Y-96250000D02*
X173500000Y-97250000D01*
X177350000Y-86150000D02*
X172500000Y-91000000D01*
X190650000Y-86150000D02*
X177350000Y-86150000D01*
X193500000Y-89000000D02*
X190650000Y-86150000D01*
D28*
%TO.N,/PNP_B*%
X174980000Y-99730000D02*
X179420000Y-99730000D01*
X179420000Y-99730000D02*
X180690000Y-101000000D01*
%TO.N,VBUS*%
X188300003Y-92060053D02*
X186489950Y-90250000D01*
X188300003Y-100990003D02*
X188300003Y-92060053D01*
X188310000Y-101000000D02*
X188300003Y-100990003D01*
X186489950Y-90250000D02*
X176250000Y-90250000D01*
D27*
%TO.N,/SIG_3*%
X191500000Y-104670000D02*
X193000000Y-106170000D01*
X191500000Y-101500000D02*
X191500000Y-104670000D01*
X192250000Y-100750000D02*
X191500000Y-101500000D01*
X190000000Y-92000000D02*
X192250000Y-94250000D01*
X192250000Y-94250000D02*
X192250000Y-100750000D01*
%TO.N,/SIG_2*%
X190050000Y-102200000D02*
X190050000Y-105760000D01*
X190100000Y-102150000D02*
X190050000Y-102200000D01*
X190100000Y-93099997D02*
X190100000Y-102150000D01*
X189000003Y-92000000D02*
X190100000Y-93099997D01*
X190050000Y-105760000D02*
X193000000Y-108710000D01*
%TO.N,/SIG_4*%
X194250000Y-102380000D02*
X193000000Y-103630000D01*
X194250000Y-93500000D02*
X194250000Y-102380000D01*
X192750000Y-92000000D02*
X194250000Y-93500000D01*
X191250000Y-92000000D02*
X192750000Y-92000000D01*
%TO.N,/SCL*%
X187808144Y-68498144D02*
X186610000Y-68498144D01*
X187810000Y-68500000D02*
X187808144Y-68498144D01*
%TD*%
%TA.AperFunction,Conductor*%
%TO.N,-BATT*%
G36*
X162561529Y-93024201D02*
G01*
X162598703Y-93083360D01*
X162597993Y-93153227D01*
X162579695Y-93189968D01*
X162515213Y-93278720D01*
X162411417Y-93482429D01*
X162340765Y-93699871D01*
X162326491Y-93790000D01*
X163314252Y-93790000D01*
X163292482Y-93827708D01*
X163255000Y-93967591D01*
X163255000Y-94112409D01*
X163292482Y-94252292D01*
X163314252Y-94290000D01*
X162326491Y-94290000D01*
X162340765Y-94380128D01*
X162411417Y-94597570D01*
X162515211Y-94801276D01*
X162649597Y-94986242D01*
X162811257Y-95147902D01*
X162996223Y-95282288D01*
X163199929Y-95386082D01*
X163417371Y-95456734D01*
X163555000Y-95478532D01*
X163555000Y-94530747D01*
X163592708Y-94552518D01*
X163732591Y-94590000D01*
X163877409Y-94590000D01*
X164017292Y-94552518D01*
X164055000Y-94530747D01*
X164055000Y-95478531D01*
X164192628Y-95456734D01*
X164410070Y-95386082D01*
X164613776Y-95282288D01*
X164798742Y-95147902D01*
X164960402Y-94986242D01*
X164960407Y-94986236D01*
X165025682Y-94896394D01*
X165081012Y-94853728D01*
X165150625Y-94847749D01*
X165212420Y-94880355D01*
X165246777Y-94941193D01*
X165250000Y-94969279D01*
X165250000Y-97198637D01*
X165230315Y-97265676D01*
X165213681Y-97286318D01*
X164622305Y-97877693D01*
X164593642Y-97899066D01*
X164426501Y-97989519D01*
X164426494Y-97989523D01*
X164230257Y-98142261D01*
X164061833Y-98325217D01*
X163925830Y-98533387D01*
X163925825Y-98533395D01*
X163903335Y-98584667D01*
X163877462Y-98622535D01*
X163750000Y-98749999D01*
X163750000Y-99176775D01*
X163749576Y-99187016D01*
X163744357Y-99249995D01*
X163744357Y-99250000D01*
X163749576Y-99312982D01*
X163750000Y-99323223D01*
X163750000Y-100250000D01*
X165500000Y-101750000D01*
X171805979Y-101750000D01*
X171873018Y-101769685D01*
X171910972Y-101808027D01*
X171970184Y-101902262D01*
X172097738Y-102029816D01*
X172131875Y-102051266D01*
X172178164Y-102103597D01*
X172188814Y-102172651D01*
X172160439Y-102236499D01*
X172102050Y-102274872D01*
X172045493Y-102278567D01*
X171874294Y-102250000D01*
X171625707Y-102250000D01*
X171380506Y-102290916D01*
X171145396Y-102371630D01*
X171145385Y-102371635D01*
X170926770Y-102489943D01*
X170879943Y-102526389D01*
X171579766Y-103226212D01*
X171537708Y-103237482D01*
X171412292Y-103309890D01*
X171309890Y-103412292D01*
X171237482Y-103537708D01*
X171226212Y-103579766D01*
X170526563Y-102880117D01*
X170426267Y-103033633D01*
X170426265Y-103033637D01*
X170326412Y-103261282D01*
X170265387Y-103502261D01*
X170265385Y-103502270D01*
X170244859Y-103749994D01*
X170244859Y-103750005D01*
X170265385Y-103997729D01*
X170265387Y-103997738D01*
X170326412Y-104238717D01*
X170426267Y-104466367D01*
X170526562Y-104619881D01*
X171226212Y-103920233D01*
X171237482Y-103962292D01*
X171309890Y-104087708D01*
X171412292Y-104190110D01*
X171537708Y-104262518D01*
X171579766Y-104273787D01*
X170879943Y-104973609D01*
X170926768Y-105010055D01*
X170926771Y-105010057D01*
X171145385Y-105128364D01*
X171145396Y-105128369D01*
X171380506Y-105209083D01*
X171625707Y-105250000D01*
X171874293Y-105250000D01*
X172119493Y-105209083D01*
X172354603Y-105128369D01*
X172354614Y-105128364D01*
X172573230Y-105010056D01*
X172573236Y-105010051D01*
X172620055Y-104973610D01*
X172620056Y-104973609D01*
X171920233Y-104273787D01*
X171962292Y-104262518D01*
X172087708Y-104190110D01*
X172190110Y-104087708D01*
X172262518Y-103962292D01*
X172273787Y-103920233D01*
X172973435Y-104619882D01*
X173073733Y-104466364D01*
X173173587Y-104238717D01*
X173234612Y-103997738D01*
X173234614Y-103997730D01*
X173252424Y-103782795D01*
X173264009Y-103752770D01*
X173257023Y-103741899D01*
X173252424Y-103717204D01*
X173234614Y-103502270D01*
X173234612Y-103502261D01*
X173173587Y-103261282D01*
X173073732Y-103033632D01*
X172973435Y-102880116D01*
X172273787Y-103579765D01*
X172262518Y-103537708D01*
X172190110Y-103412292D01*
X172087708Y-103309890D01*
X171962292Y-103237482D01*
X171920233Y-103226212D01*
X172620055Y-102526389D01*
X172620055Y-102526388D01*
X172573236Y-102489947D01*
X172463764Y-102430704D01*
X172414174Y-102381484D01*
X172399066Y-102313268D01*
X172423236Y-102247712D01*
X172479012Y-102205631D01*
X172536666Y-102198429D01*
X172599998Y-102205565D01*
X172600000Y-102205565D01*
X172600004Y-102205565D01*
X172779249Y-102185369D01*
X172779252Y-102185368D01*
X172779255Y-102185368D01*
X172949522Y-102125789D01*
X173102262Y-102029816D01*
X173229816Y-101902262D01*
X173271006Y-101836707D01*
X173323341Y-101790417D01*
X173392394Y-101779769D01*
X173456243Y-101808144D01*
X173494615Y-101866533D01*
X173500000Y-101902680D01*
X173500000Y-103706964D01*
X173487541Y-103749391D01*
X173497456Y-103768044D01*
X173500000Y-103793035D01*
X173500000Y-106956964D01*
X173487541Y-106999391D01*
X173497456Y-107018044D01*
X173500000Y-107043035D01*
X173500000Y-108626000D01*
X173480315Y-108693039D01*
X173427511Y-108738794D01*
X173376000Y-108750000D01*
X165612729Y-108750000D01*
X165545690Y-108730315D01*
X165525048Y-108713681D01*
X165490705Y-108679338D01*
X165457220Y-108618015D01*
X165462204Y-108548323D01*
X165504076Y-108492390D01*
X165557978Y-108469348D01*
X165619491Y-108459083D01*
X165854603Y-108378369D01*
X165854614Y-108378364D01*
X166073230Y-108260056D01*
X166073236Y-108260051D01*
X166120055Y-108223610D01*
X166120056Y-108223609D01*
X165420233Y-107523787D01*
X165462292Y-107512518D01*
X165587708Y-107440110D01*
X165690110Y-107337708D01*
X165762518Y-107212292D01*
X165773787Y-107170234D01*
X166473435Y-107869882D01*
X166573733Y-107716364D01*
X166673587Y-107488717D01*
X166734612Y-107247738D01*
X166734614Y-107247729D01*
X166755141Y-107000005D01*
X166755141Y-106999994D01*
X170244859Y-106999994D01*
X170244859Y-107000005D01*
X170265385Y-107247729D01*
X170265387Y-107247738D01*
X170326412Y-107488717D01*
X170426267Y-107716367D01*
X170526562Y-107869881D01*
X171226212Y-107170233D01*
X171237482Y-107212292D01*
X171309890Y-107337708D01*
X171412292Y-107440110D01*
X171537708Y-107512518D01*
X171579766Y-107523787D01*
X170879943Y-108223609D01*
X170926768Y-108260055D01*
X170926771Y-108260057D01*
X171145385Y-108378364D01*
X171145396Y-108378369D01*
X171380506Y-108459083D01*
X171625707Y-108500000D01*
X171874293Y-108500000D01*
X172119493Y-108459083D01*
X172354603Y-108378369D01*
X172354614Y-108378364D01*
X172573230Y-108260056D01*
X172573236Y-108260051D01*
X172620055Y-108223610D01*
X172620056Y-108223609D01*
X171920233Y-107523787D01*
X171962292Y-107512518D01*
X172087708Y-107440110D01*
X172190110Y-107337708D01*
X172262518Y-107212292D01*
X172273787Y-107170233D01*
X172973435Y-107869882D01*
X173073733Y-107716364D01*
X173173587Y-107488717D01*
X173234612Y-107247738D01*
X173234614Y-107247730D01*
X173252424Y-107032795D01*
X173264009Y-107002770D01*
X173257023Y-106991899D01*
X173252424Y-106967204D01*
X173234614Y-106752270D01*
X173234612Y-106752261D01*
X173173587Y-106511282D01*
X173073732Y-106283632D01*
X172973435Y-106130116D01*
X172273787Y-106829765D01*
X172262518Y-106787708D01*
X172190110Y-106662292D01*
X172087708Y-106559890D01*
X171962292Y-106487482D01*
X171920233Y-106476212D01*
X172620055Y-105776389D01*
X172620055Y-105776388D01*
X172573236Y-105739947D01*
X172573231Y-105739944D01*
X172354614Y-105621635D01*
X172354603Y-105621630D01*
X172119493Y-105540916D01*
X171874293Y-105500000D01*
X171625707Y-105500000D01*
X171380506Y-105540916D01*
X171145396Y-105621630D01*
X171145385Y-105621635D01*
X170926770Y-105739943D01*
X170879943Y-105776389D01*
X171579766Y-106476212D01*
X171537708Y-106487482D01*
X171412292Y-106559890D01*
X171309890Y-106662292D01*
X171237482Y-106787708D01*
X171226212Y-106829766D01*
X170526563Y-106130117D01*
X170426267Y-106283633D01*
X170426265Y-106283637D01*
X170326412Y-106511282D01*
X170265387Y-106752261D01*
X170265385Y-106752270D01*
X170244859Y-106999994D01*
X166755141Y-106999994D01*
X166734614Y-106752270D01*
X166734612Y-106752261D01*
X166673587Y-106511282D01*
X166573732Y-106283632D01*
X166473435Y-106130116D01*
X165773787Y-106829765D01*
X165762518Y-106787708D01*
X165690110Y-106662292D01*
X165587708Y-106559890D01*
X165462292Y-106487482D01*
X165420233Y-106476212D01*
X166120055Y-105776389D01*
X166120055Y-105776388D01*
X166073236Y-105739947D01*
X166073231Y-105739944D01*
X165854614Y-105621635D01*
X165854603Y-105621630D01*
X165619493Y-105540916D01*
X165374293Y-105500000D01*
X165125707Y-105500000D01*
X164880506Y-105540916D01*
X164645396Y-105621630D01*
X164645385Y-105621635D01*
X164426770Y-105739943D01*
X164379943Y-105776389D01*
X165079766Y-106476212D01*
X165037708Y-106487482D01*
X164912292Y-106559890D01*
X164809890Y-106662292D01*
X164737482Y-106787708D01*
X164726212Y-106829766D01*
X164026563Y-106130117D01*
X163926267Y-106283633D01*
X163926265Y-106283637D01*
X163826411Y-106511282D01*
X163778192Y-106701696D01*
X163742652Y-106761851D01*
X163680231Y-106793243D01*
X163610748Y-106785905D01*
X163570305Y-106758936D01*
X162728421Y-105917052D01*
X162728414Y-105917046D01*
X162654729Y-105867812D01*
X162654729Y-105867813D01*
X162605491Y-105834913D01*
X162468917Y-105778343D01*
X162468907Y-105778340D01*
X162349808Y-105754649D01*
X162287897Y-105722263D01*
X162253323Y-105661547D01*
X162250000Y-105633032D01*
X162250000Y-103749994D01*
X163744859Y-103749994D01*
X163744859Y-103750005D01*
X163765385Y-103997729D01*
X163765387Y-103997738D01*
X163826412Y-104238717D01*
X163926267Y-104466367D01*
X164026562Y-104619881D01*
X164726212Y-103920233D01*
X164737482Y-103962292D01*
X164809890Y-104087708D01*
X164912292Y-104190110D01*
X165037708Y-104262518D01*
X165079766Y-104273787D01*
X164379943Y-104973609D01*
X164426768Y-105010055D01*
X164426771Y-105010057D01*
X164645385Y-105128364D01*
X164645396Y-105128369D01*
X164880506Y-105209083D01*
X165125707Y-105250000D01*
X165374293Y-105250000D01*
X165619493Y-105209083D01*
X165854603Y-105128369D01*
X165854614Y-105128364D01*
X166073230Y-105010056D01*
X166073236Y-105010051D01*
X166120055Y-104973610D01*
X166120056Y-104973609D01*
X165420233Y-104273787D01*
X165462292Y-104262518D01*
X165587708Y-104190110D01*
X165690110Y-104087708D01*
X165762518Y-103962292D01*
X165773787Y-103920234D01*
X166473435Y-104619882D01*
X166573733Y-104466364D01*
X166673587Y-104238717D01*
X166734612Y-103997738D01*
X166734614Y-103997729D01*
X166755141Y-103750005D01*
X166755141Y-103749994D01*
X166734614Y-103502270D01*
X166734612Y-103502261D01*
X166673587Y-103261282D01*
X166573732Y-103033632D01*
X166473435Y-102880116D01*
X165773787Y-103579765D01*
X165762518Y-103537708D01*
X165690110Y-103412292D01*
X165587708Y-103309890D01*
X165462292Y-103237482D01*
X165420233Y-103226212D01*
X166120055Y-102526389D01*
X166120055Y-102526388D01*
X166073236Y-102489947D01*
X166073231Y-102489944D01*
X165854614Y-102371635D01*
X165854603Y-102371630D01*
X165619493Y-102290916D01*
X165374293Y-102250000D01*
X165125707Y-102250000D01*
X164880506Y-102290916D01*
X164645396Y-102371630D01*
X164645385Y-102371635D01*
X164426770Y-102489943D01*
X164379943Y-102526389D01*
X165079766Y-103226212D01*
X165037708Y-103237482D01*
X164912292Y-103309890D01*
X164809890Y-103412292D01*
X164737482Y-103537708D01*
X164726212Y-103579765D01*
X164026563Y-102880117D01*
X163926267Y-103033633D01*
X163926265Y-103033637D01*
X163826412Y-103261282D01*
X163765387Y-103502261D01*
X163765385Y-103502270D01*
X163744859Y-103749994D01*
X162250000Y-103749994D01*
X162250000Y-99250000D01*
X160874000Y-99250000D01*
X160806961Y-99230315D01*
X160761206Y-99177511D01*
X160750000Y-99126000D01*
X160750000Y-93830584D01*
X160769685Y-93763545D01*
X160822489Y-93717790D01*
X160823558Y-93717307D01*
X162429018Y-93003769D01*
X162498272Y-92994531D01*
X162561529Y-93024201D01*
G37*
%TD.AperFunction*%
%TD*%
M02*
