%TF.GenerationSoftware,KiCad,Pcbnew,8.0.7*%
%TF.CreationDate,2025-07-22T02:57:33-04:00*%
%TF.ProjectId,Drone Motherboared,44726f6e-6520-44d6-9f74-686572626f61,rev?*%
%TF.SameCoordinates,Original*%
%TF.FileFunction,Soldermask,Top*%
%TF.FilePolarity,Negative*%
%FSLAX46Y46*%
G04 Gerber Fmt 4.6, Leading zero omitted, Abs format (unit mm)*
G04 Created by KiCad (PCBNEW 8.0.7) date 2025-07-22 02:57:33*
%MOMM*%
%LPD*%
G01*
G04 APERTURE LIST*
G04 Aperture macros list*
%AMRoundRect*
0 Rectangle with rounded corners*
0 $1 Rounding radius*
0 $2 $3 $4 $5 $6 $7 $8 $9 X,Y pos of 4 corners*
0 Add a 4 corners polygon primitive as box body*
4,1,4,$2,$3,$4,$5,$6,$7,$8,$9,$2,$3,0*
0 Add four circle primitives for the rounded corners*
1,1,$1+$1,$2,$3*
1,1,$1+$1,$4,$5*
1,1,$1+$1,$6,$7*
1,1,$1+$1,$8,$9*
0 Add four rect primitives between the rounded corners*
20,1,$1+$1,$2,$3,$4,$5,0*
20,1,$1+$1,$4,$5,$6,$7,0*
20,1,$1+$1,$6,$7,$8,$9,0*
20,1,$1+$1,$8,$9,$2,$3,0*%
G04 Aperture macros list end*
%ADD10R,4.000000X4.000000*%
%ADD11R,1.200000X1.400000*%
%ADD12RoundRect,0.087500X-0.087500X-0.225000X0.087500X-0.225000X0.087500X0.225000X-0.087500X0.225000X0*%
%ADD13RoundRect,0.087500X-0.225000X-0.087500X0.225000X-0.087500X0.225000X0.087500X-0.225000X0.087500X0*%
%ADD14RoundRect,0.075000X-0.700000X-0.075000X0.700000X-0.075000X0.700000X0.075000X-0.700000X0.075000X0*%
%ADD15RoundRect,0.075000X-0.075000X-0.700000X0.075000X-0.700000X0.075000X0.700000X-0.075000X0.700000X0*%
%ADD16RoundRect,0.150000X-0.150000X0.875000X-0.150000X-0.875000X0.150000X-0.875000X0.150000X0.875000X0*%
%ADD17R,0.711200X1.498600*%
%ADD18R,0.990600X0.812800*%
%ADD19C,2.000000*%
%ADD20RoundRect,0.135000X-0.185000X0.135000X-0.185000X-0.135000X0.185000X-0.135000X0.185000X0.135000X0*%
%ADD21RoundRect,0.135000X0.135000X0.185000X-0.135000X0.185000X-0.135000X-0.185000X0.135000X-0.185000X0*%
%ADD22RoundRect,0.135000X-0.135000X-0.185000X0.135000X-0.185000X0.135000X0.185000X-0.135000X0.185000X0*%
%ADD23RoundRect,0.135000X0.185000X-0.135000X0.185000X0.135000X-0.185000X0.135000X-0.185000X-0.135000X0*%
%ADD24O,2.000000X1.905000*%
%ADD25R,2.000000X1.905000*%
%ADD26C,1.300000*%
%ADD27R,1.300000X1.300000*%
%ADD28O,1.600000X1.600000*%
%ADD29C,1.600000*%
%ADD30RoundRect,0.100000X0.575000X-0.100000X0.575000X0.100000X-0.575000X0.100000X-0.575000X-0.100000X0*%
%ADD31O,1.600000X0.900000*%
%ADD32RoundRect,0.250000X0.450000X-0.550000X0.450000X0.550000X-0.450000X0.550000X-0.450000X-0.550000X0*%
%ADD33RoundRect,0.250000X0.700000X-0.700000X0.700000X0.700000X-0.700000X0.700000X-0.700000X-0.700000X0*%
%ADD34O,1.700000X1.700000*%
%ADD35R,1.700000X1.700000*%
%ADD36C,6.400000*%
%ADD37R,1.800000X1.800000*%
%ADD38C,1.800000*%
%ADD39O,2.200000X2.200000*%
%ADD40R,2.200000X2.200000*%
%ADD41C,1.200000*%
%ADD42RoundRect,0.140000X-0.140000X-0.170000X0.140000X-0.170000X0.140000X0.170000X-0.140000X0.170000X0*%
%ADD43RoundRect,0.140000X-0.170000X0.140000X-0.170000X-0.140000X0.170000X-0.140000X0.170000X0.140000X0*%
%ADD44RoundRect,0.140000X0.140000X0.170000X-0.140000X0.170000X-0.140000X-0.170000X0.140000X-0.170000X0*%
%ADD45RoundRect,0.140000X0.170000X-0.140000X0.170000X0.140000X-0.170000X0.140000X-0.170000X-0.140000X0*%
G04 APERTURE END LIST*
D10*
%TO.C,TP2*%
X159800000Y-102000000D03*
%TD*%
D11*
%TO.C,Y1*%
X181750000Y-84600000D03*
X181750000Y-86800000D03*
X180050000Y-86800000D03*
X180050000Y-84600000D03*
%TD*%
D12*
%TO.C,U3*%
X182790000Y-73175000D03*
X183290000Y-73175000D03*
X183790000Y-73175000D03*
D13*
X184452500Y-73337500D03*
X184452500Y-73837500D03*
X184452500Y-74337500D03*
X184452500Y-74837500D03*
D12*
X183790000Y-75000000D03*
X183290000Y-75000000D03*
X182790000Y-75000000D03*
D13*
X182127500Y-74837500D03*
X182127500Y-74337500D03*
X182127500Y-73837500D03*
X182127500Y-73337500D03*
%TD*%
D14*
%TO.C,U2*%
X183825000Y-84050000D03*
X183825000Y-84550000D03*
X183825000Y-85050000D03*
X183825000Y-85550000D03*
X183825000Y-86050000D03*
X183825000Y-86550000D03*
X183825000Y-87050000D03*
X183825000Y-87550000D03*
X183825000Y-88050000D03*
X183825000Y-88550000D03*
X183825000Y-89050000D03*
X183825000Y-89550000D03*
X183825000Y-90050000D03*
X183825000Y-90550000D03*
X183825000Y-91050000D03*
X183825000Y-91550000D03*
D15*
X185750000Y-93475000D03*
X186250000Y-93475000D03*
X186750000Y-93475000D03*
X187250000Y-93475000D03*
X187750000Y-93475000D03*
X188250000Y-93475000D03*
X188750000Y-93475000D03*
X189250000Y-93475000D03*
X189750000Y-93475000D03*
X190250000Y-93475000D03*
X190750000Y-93475000D03*
X191250000Y-93475000D03*
X191750000Y-93475000D03*
X192250000Y-93475000D03*
X192750000Y-93475000D03*
X193250000Y-93475000D03*
D14*
X195175000Y-91550000D03*
X195175000Y-91050000D03*
X195175000Y-90550000D03*
X195175000Y-90050000D03*
X195175000Y-89550000D03*
X195175000Y-89050000D03*
X195175000Y-88550000D03*
X195175000Y-88050000D03*
X195175000Y-87550000D03*
X195175000Y-87050000D03*
X195175000Y-86550000D03*
X195175000Y-86050000D03*
X195175000Y-85550000D03*
X195175000Y-85050000D03*
X195175000Y-84550000D03*
X195175000Y-84050000D03*
D15*
X193250000Y-82125000D03*
X192750000Y-82125000D03*
X192250000Y-82125000D03*
X191750000Y-82125000D03*
X191250000Y-82125000D03*
X190750000Y-82125000D03*
X190250000Y-82125000D03*
X189750000Y-82125000D03*
X189250000Y-82125000D03*
X188750000Y-82125000D03*
X188250000Y-82125000D03*
X187750000Y-82125000D03*
X187250000Y-82125000D03*
X186750000Y-82125000D03*
X186250000Y-82125000D03*
X185750000Y-82125000D03*
%TD*%
D16*
%TO.C,U1*%
X165770000Y-84500000D03*
X164500000Y-84500000D03*
X163230000Y-84500000D03*
X161960000Y-84500000D03*
X160690000Y-84500000D03*
X159420000Y-84500000D03*
X158150000Y-84500000D03*
X158150000Y-75200000D03*
X159420000Y-75200000D03*
X160690000Y-75200000D03*
X161960000Y-75200000D03*
X163230000Y-75200000D03*
X164500000Y-75200000D03*
X165770000Y-75200000D03*
%TD*%
D10*
%TO.C,TP1*%
X159800000Y-96500000D03*
%TD*%
D17*
%TO.C,SW3*%
X177399983Y-69599999D03*
X174399980Y-69599999D03*
X172899980Y-69599999D03*
D18*
X178799980Y-68899998D03*
X171499980Y-68899998D03*
X178799960Y-66800000D03*
X171500000Y-66800000D03*
%TD*%
D19*
%TO.C,SW2*%
X165250000Y-99250000D03*
X171750000Y-99250000D03*
X165250000Y-103750000D03*
X171750000Y-103750000D03*
%TD*%
%TO.C,SW1*%
X171750000Y-111500000D03*
X165250000Y-111500000D03*
X171750000Y-107000000D03*
X165250000Y-107000000D03*
%TD*%
D20*
%TO.C,R13*%
X195500000Y-107000000D03*
X195500000Y-105980000D03*
%TD*%
D21*
%TO.C,R11*%
X187230000Y-78750000D03*
X188250000Y-78750000D03*
%TD*%
D22*
%TO.C,R9*%
X191000000Y-77500000D03*
X189980000Y-77500000D03*
%TD*%
D23*
%TO.C,R10*%
X180952500Y-73337500D03*
X180952500Y-74357500D03*
%TD*%
D22*
%TO.C,R8*%
X178500000Y-71500000D03*
X177480000Y-71500000D03*
%TD*%
D21*
%TO.C,R7*%
X188480000Y-96500000D03*
X189500000Y-96500000D03*
%TD*%
D22*
%TO.C,R6*%
X187460000Y-97500000D03*
X188480000Y-97500000D03*
%TD*%
D20*
%TO.C,R5*%
X177000000Y-77020000D03*
X177000000Y-76000000D03*
%TD*%
D22*
%TO.C,R4*%
X169000000Y-87500000D03*
X167980000Y-87500000D03*
%TD*%
D20*
%TO.C,R3*%
X183000000Y-98000000D03*
X183000000Y-96980000D03*
%TD*%
D21*
%TO.C,R2*%
X175480000Y-85500000D03*
X176500000Y-85500000D03*
%TD*%
%TO.C,R1*%
X174480000Y-104750000D03*
X175500000Y-104750000D03*
%TD*%
D24*
%TO.C,Q3*%
X163805000Y-94040000D03*
X163805000Y-91500000D03*
D25*
X163805000Y-88960000D03*
%TD*%
D26*
%TO.C,Q2*%
X171980000Y-86520000D03*
X173250000Y-85250000D03*
D27*
X171980000Y-83980000D03*
%TD*%
%TO.C,Q1*%
X176250000Y-101000000D03*
D26*
X174980000Y-99730000D03*
X176250000Y-98460000D03*
%TD*%
D28*
%TO.C,L1*%
X168250000Y-82560000D03*
D29*
X168250000Y-74940000D03*
%TD*%
D30*
%TO.C,J9*%
X199575000Y-86750000D03*
X199575000Y-86100000D03*
X199575000Y-85450000D03*
X199575000Y-84800000D03*
X199575000Y-84150000D03*
D31*
X202250000Y-88750000D03*
D32*
X199800000Y-88650000D03*
D33*
X202250000Y-86650000D03*
X202250000Y-84250000D03*
D32*
X199800000Y-82250000D03*
D31*
X202250000Y-82150000D03*
%TD*%
D34*
%TO.C,J8*%
X187210000Y-73500000D03*
X189750000Y-73500000D03*
X192290000Y-73500000D03*
D35*
X194830000Y-73500000D03*
%TD*%
D34*
%TO.C,J3*%
X192290000Y-69750000D03*
X189750000Y-69750000D03*
X187210000Y-69750000D03*
D35*
X184670000Y-69750000D03*
%TD*%
D34*
%TO.C,J2*%
X201620000Y-79000000D03*
X199080000Y-79000000D03*
X196540000Y-79000000D03*
D35*
X194000000Y-79000000D03*
%TD*%
D34*
%TO.C,J7*%
X193000000Y-103630000D03*
X193000000Y-106170000D03*
X193000000Y-108710000D03*
D35*
X193000000Y-111250000D03*
%TD*%
%TO.C,J1*%
X201500000Y-99830000D03*
D34*
X201500000Y-97290000D03*
X201500000Y-94750000D03*
X201500000Y-92210000D03*
%TD*%
%TO.C,J6*%
X196960000Y-103500000D03*
D35*
X199500000Y-103500000D03*
%TD*%
D34*
%TO.C,J5*%
X188540000Y-111080000D03*
X186000000Y-111080000D03*
X183460000Y-111080000D03*
D35*
X180920000Y-111080000D03*
%TD*%
%TO.C,J4*%
X180920000Y-106000000D03*
D34*
X183460000Y-106000000D03*
X186000000Y-106000000D03*
X188540000Y-106000000D03*
%TD*%
D36*
%TO.C,H4*%
X200000000Y-109500000D03*
%TD*%
%TO.C,H3*%
X200000000Y-69500000D03*
%TD*%
%TO.C,H2*%
X160000000Y-109500000D03*
%TD*%
%TO.C,H1*%
X160000000Y-69500000D03*
%TD*%
D37*
%TO.C,D6*%
X196250000Y-99540000D03*
D38*
X196250000Y-97000000D03*
%TD*%
D39*
%TO.C,D5*%
X176250000Y-90250000D03*
D40*
X168630000Y-90250000D03*
%TD*%
D38*
%TO.C,D4*%
X173250000Y-73210000D03*
D37*
X173250000Y-75750000D03*
%TD*%
D39*
%TO.C,D3*%
X178750000Y-80500000D03*
D40*
X171130000Y-80500000D03*
%TD*%
D39*
%TO.C,D2*%
X175000000Y-94750000D03*
D40*
X182620000Y-94750000D03*
%TD*%
D39*
%TO.C,D1*%
X188310000Y-101000000D03*
D40*
X180690000Y-101000000D03*
%TD*%
D41*
%TO.C,C3*%
X176250000Y-111000000D03*
X176250000Y-109000000D03*
%TD*%
%TO.C,C7*%
X170500000Y-94000000D03*
X170500000Y-96000000D03*
%TD*%
D42*
%TO.C,C18*%
X185980000Y-79200000D03*
X185020000Y-79200000D03*
%TD*%
D43*
%TO.C,C17*%
X194250000Y-94500000D03*
X194250000Y-93540000D03*
%TD*%
D44*
%TO.C,C20*%
X184377500Y-77250000D03*
X185337500Y-77250000D03*
%TD*%
%TO.C,C19*%
X184377500Y-76250000D03*
X185337500Y-76250000D03*
%TD*%
D42*
%TO.C,C16*%
X186000000Y-80200000D03*
X185040000Y-80200000D03*
%TD*%
D44*
%TO.C,C15*%
X186290000Y-95500000D03*
X187250000Y-95500000D03*
%TD*%
D43*
%TO.C,C13*%
X196925000Y-83700000D03*
X196925000Y-84660000D03*
%TD*%
D45*
%TO.C,C12*%
X183500000Y-82800000D03*
X183500000Y-81840000D03*
%TD*%
D42*
%TO.C,C14*%
X183377500Y-76250000D03*
X182417500Y-76250000D03*
%TD*%
D43*
%TO.C,C11*%
X192500000Y-96500000D03*
X192500000Y-95540000D03*
%TD*%
D44*
%TO.C,C10*%
X180290000Y-88300000D03*
X181250000Y-88300000D03*
%TD*%
D42*
%TO.C,C9*%
X181230000Y-83050000D03*
X180270000Y-83050000D03*
%TD*%
D45*
%TO.C,C8*%
X181750000Y-89500000D03*
X181750000Y-90460000D03*
%TD*%
%TO.C,C6*%
X180750000Y-90480000D03*
X180750000Y-89520000D03*
%TD*%
D44*
%TO.C,C5*%
X179460000Y-89800000D03*
X178500000Y-89800000D03*
%TD*%
D42*
%TO.C,C4*%
X189460000Y-95500000D03*
X188500000Y-95500000D03*
%TD*%
D29*
%TO.C,C2*%
X167000000Y-68500000D03*
X167000000Y-71000000D03*
%TD*%
M02*
